<svg width="395" height="209" viewBox="0 0 395 209" fill="none" xmlns="http://www.w3.org/2000/svg">
<path d="M206.216 128H192.968C192.52 121.024 187.72 117.536 178.568 117.536C174.92 117.536 172.008 118.272 169.832 119.744C167.72 121.216 166.664 123.2 166.664 125.696C166.664 128.128 167.56 129.952 169.352 131.168C171.144 132.384 174.6 133.472 179.72 134.432L190.472 136.448C196.808 137.664 201.416 139.744 204.296 142.688C207.176 145.632 208.616 149.792 208.616 155.168C208.616 162.528 205.8 168.128 200.168 171.968C195.304 175.36 188.744 177.056 180.488 177.056C171.08 177.056 163.912 174.88 158.984 170.528C154.696 166.752 152.36 161.504 151.976 154.784H165.704C166.216 162.08 171.368 165.728 181.16 165.728C185.512 165.728 188.904 164.96 191.336 163.424C193.832 161.824 195.08 159.648 195.08 156.896C195.08 154.208 194.088 152.128 192.104 150.656C190.184 149.184 186.856 148 182.12 147.104L172.52 145.28C165.544 144 160.552 141.984 157.544 139.232C154.6 136.416 153.128 132.384 153.128 127.136C153.128 120.032 155.72 114.656 160.904 111.008C165.384 107.808 171.464 106.208 179.144 106.208C188.424 106.208 195.4 108.32 200.072 112.544C204.104 116.256 206.152 121.408 206.216 128Z" fill="black"/>
<path d="M264.485 183.293L251.877 182.028L245.668 127.567L229.238 179.756L216.534 178.481L204.103 108.152L219.004 109.647L224.459 162.006L240.21 111.775L254.06 113.165L259.983 165.667L275.361 115.303L290.262 116.799L264.485 183.293Z" fill="black"/>
<path d="M318.1 163.487L292.431 165.237L288.774 179.342L274.408 180.322L294.06 110.087L309.672 109.022L338.1 175.98L323.542 176.972L318.1 163.487ZM313.466 151.968L302.73 125.757L295.555 153.189L313.466 151.968Z" fill="black"/>
<path d="M345.312 152.374V176.854H331.2V108.118H361.536C369.216 108.118 374.944 110.198 378.72 114.358C382.048 118.006 383.712 123.03 383.712 129.43C383.712 136.918 381.6 142.742 377.376 146.902C373.664 150.55 368.864 152.374 362.976 152.374H345.312ZM345.312 140.566H358.464C365.888 140.566 369.6 137.142 369.6 130.294C369.6 123.382 365.888 119.926 358.464 119.926H345.312V140.566Z" fill="black"/>
<path d="M81.312 90.9104V113.854H67.2V45.1184H81.312V75.3584L108.192 45.1184H124.896L97.44 74.6864L127.776 113.854H110.88L88.416 83.5184L81.312 90.9104Z" fill="#FFB33D"/>
<path d="M168.301 24.0453L160.4 80.4223L193.009 84.9927L191.37 96.6864L144.785 90.1572L154.326 22.0866L168.301 24.0453Z" fill="#FFB33D"/>
<path d="M209.312 25.1184V82.0464H242.24V93.8544H195.2V25.1184H209.312Z" fill="#FFB33D"/>
<path d="M65.216 59.8544H51.968C51.52 52.8784 46.72 49.3904 37.568 49.3904C33.92 49.3904 31.008 50.1264 28.832 51.5984C26.72 53.0704 25.664 55.0544 25.664 57.5504C25.664 59.9824 26.56 61.8064 28.352 63.0224C30.144 64.2384 33.6 65.3264 38.72 66.2864L49.472 68.3024C55.808 69.5184 60.416 71.5984 63.296 74.5424C66.176 77.4864 67.616 81.6464 67.616 87.0224C67.616 94.3824 64.8 99.9824 59.168 103.822C54.304 107.214 47.744 108.91 39.488 108.91C30.08 108.91 22.912 106.734 17.984 102.382C13.696 98.6064 11.36 93.3584 10.976 86.6384H24.704C25.216 93.9344 30.368 97.5824 40.16 97.5824C44.512 97.5824 47.904 96.8144 50.336 95.2784C52.832 93.6784 54.08 91.5024 54.08 88.7504C54.08 86.0624 53.088 83.9824 51.104 82.5104C49.184 81.0384 45.856 79.8544 41.12 78.9584L31.52 77.1344C24.544 75.8544 19.552 73.8384 16.544 71.0864C13.6 68.2704 12.128 64.2384 12.128 58.9904C12.128 51.8864 14.72 46.5104 19.904 42.8624C24.384 39.6624 30.464 38.0624 38.144 38.0624C47.424 38.0624 54.4 40.1744 59.072 44.3984C63.104 48.1104 65.152 53.2624 65.216 59.8544Z" fill="#FFB33D"/>
<path d="M134.37 53.5147L143.882 121.589L129.906 123.542L120.394 55.4676L134.37 53.5147Z" fill="#FFB33D"/>
</svg>
