<svg xmlns="http://www.w3.org/2000/svg" viewBox="0 0 467.045 383.081" id="PotteryMaker"><g fill="#000000" class="color000000 svgShape"><g fill="#000000" class="color000000 svgShape"><path fill="#dddddd" d="M467.045 326.706c0 20.09-115.103 56.375-232.418 56.375S2.21 346.795 2.21 326.706s115.102-36.374 232.417-36.374 232.418 16.285 232.418 36.374Z" class="colordddddd svgShape"></path><path fill="#f4e9c9" d="M328.954 14.488a122.54 122.54 0 0 1 35.938 26.725 146.45 146.45 0 0 1 22.253 30.782c3.595 6.624 7.01 13.32 10.436 20.01 3.106 6.068 5.814 12.303 8.81 18.419 3.217 6.561 6.566 13.07 9.857 19.601l9.335 18.527c2.295 4.564 4.61 9.121 6.849 13.709.922 1.89 1.726 3.826 2.62 5.73a225.771 225.771 0 0 1 9.513 24.272 70.82 70.82 0 0 1 3.848 22.58 68.913 68.913 0 0 1-3.516 21.579c-1.016 3.102-2.546 5.962-3.481 9.107-1.061 3.57-3.598 6.545-5.63 9.648a73.962 73.962 0 0 1-8.709 11.043 96.764 96.764 0 0 1-18.4 15.094 109.33 109.33 0 0 1-13.907 7.645 38.076 38.076 0 0 1-7.19 2.769c-2.183.466-4.003 1.745-6.15 2.213-5.27 1.149-10.497 2.448-15.913 3.095-11.52 1.374-23.072.614-34.685-1.02-11.77-1.655-23.336-4.587-35.021-6.753-14.024-2.599-28.041-5.149-42.264-5.863a162.636 162.636 0 0 0-37.435 2.422 280.472 280.472 0 0 0-17.895 3.843q-8.716 2.18-17.478 4.237c-13.215 3.11-89.589 6.538-101.533 3.022a117.463 117.463 0 0 1-26.02-11.362 90.43 90.43 0 0 1-24.264-20.12 111.515 111.515 0 0 1-15.567-24.793 135.959 135.959 0 0 1-9.63-29.968A139.824 139.824 0 0 1 .95 186.488a147.12 147.12 0 0 1 2.918-34.364c1.163-5.547 2.534-11.042 4.232-16.419.828-2.623 1.878-5.223 2.892-7.802 1.302-3.31 2.694-6.56 4.311-9.714a84.484 84.484 0 0 1 27.283-31.572 89.347 89.347 0 0 1 12.358-7.328 32.271 32.271 0 0 0 5.932-3.72c4.93-3.835 10.595-6.6 16.378-9.178 7.962-3.55 16.664-4.621 25.337-5.825 6.577-.912 13.175-1.827 19.45-3.766a105.486 105.486 0 0 0 19.457-8.554c9.751-5.339 18.757-11.677 27.919-17.828a168.12 168.12 0 0 1 29.792-15.96 191.438 191.438 0 0 1 23.055-7.987 196.958 196.958 0 0 1 25.03-4.966A142.199 142.199 0 0 1 273.667.15a145.648 145.648 0 0 1 31.478 5.073c4.346 1.205 8.58 2.781 12.83 4.323 3.72 1.35 7.167 3.17 10.98 4.942Z" class="colorf4e4c9 svgShape"></path><path fill="#d9a29d" d="M26.513 196.822c.469-.805 1.468-.308 2.174-.935-3.19-2.524-6.433-4.965-8.779-8.332-2.853-4.095-4.764-8.408-3.25-13.548a4.03 4.03 0 0 1 2.585-.16 118.294 118.294 0 0 0 27.03 1.649 6.85 6.85 0 0 1 1.332-.073c-8.623.736-17.622-.115-26.587-1.405-1.347-.194-3.027-.094-3.799-1.736.691-2.999 2.424-5.465 4.138-7.922 1.718-2.463 3.537-4.857 5.328-7.269a22.187 22.187 0 0 0 3.897-8.325 12.72 12.72 0 0 0 5.125.902c11.389-.021 22.778-.065 34.165.035 2.367.02 4.818-1.234 7.126.29a33.75 33.75 0 0 0 6.862 9.591c2.457 2.583 5.327 4.804 7.099 7.997-4.697 3.05-10.112 4.272-14.548 5.872a72.936 72.936 0 0 0 15.166-4.723c.636.737 1.1 1.546 2.056.132a33.373 33.373 0 0 1 6.143-7.138 14.136 14.136 0 0 1 2.597-.363c17.534.044 35.068-.066 52.596.059 3.996.498 5.775 3.65 7.787 6.524a2.04 2.04 0 0 1-.76 1.802c-3.936 3.042-6.424 7.434-10.063 10.738-1.04-.262-.325.666-.61.928a36.578 36.578 0 0 0-7.533 20.775c-.041.862-.18 1.786-1.299 2.026-12.142-.113-24.283.227-36.415-.173-8.788-3.528-13.526-10.405-15.88-19.21.125-.423-.427.01-.046-.074-3.388 6.433-8.931 10.263-15.519 12.849-9.033.417-18.065.106-27.094.182-5.633.047-11.266.034-16.899-.01-1.427-.01-2.951.223-4.125-.955ZM144.902 292.864c-3.616.711-7.233 1.41-10.846 2.138a130.683 130.683 0 0 0-14.413 3.63 5.354 5.354 0 0 1-1.148.114c-1.752-.982-3.769-.638-5.632-1.135-8.72-2.327-15.842-6.87-20.66-14.656a6.098 6.098 0 0 1-1.206-2.944c1.082-.466 1.881.215 2.648.747 4.256 2.951 9.195 4.477 12.495 6.122a63.933 63.933 0 0 1-12.817-6.965c-.934-.646-1.766-1.555-3.04-1.565-.826-1.258-.644-2.808-1.313-4.376a48.7 48.7 0 0 1-5.154 8.978 38.44 38.44 0 0 1-24.488 14.56c-4.498.772-9.477-.3-14.072-.524-8.89-.432-16.322-1.497-22.476-8.218a47.445 47.445 0 0 1-8.74-13.384 16.271 16.271 0 0 1 1.971-17.06 60.814 60.814 0 0 0 21.317 5.605c7.089.69 14.195.004 20.042.27-4.088.11-9.454.304-14.753.016-9.138-.496-18.214-1.79-26.608-5.889a48.098 48.098 0 0 1 6.421-6.672 33.541 33.541 0 0 0 4.107-4.466c2.829-.714 5.613.223 8.415.225 13.722.01 27.405 1.254 41.12 1.233a2.815 2.815 0 0 1 2.192.526 37.751 37.751 0 0 1 9.068 8.895c.55.804 1.458 1.682.575 2.84-3.51 1.747-7.323 2.328-11.12 2.981a53.21 53.21 0 0 0 11.02-2.658c1.106-.373 1.486.53 1.571 1.2.243 1.9 1.459 1.153 2.465 1.06 7.783 4.709 16.438 6.644 25.228 8.142-8.834-1.495-17.492-3.485-24.964-8.888a1.806 1.806 0 0 1 .387-1.894c2.22-3.37 5.408-5.86 8.053-8.846a1.948 1.948 0 0 1 1.647-.454c11.962.83 23.909 1.803 35.817 3.202a18.391 18.391 0 0 0 3.522.58 2.085 2.085 0 0 1 1.315.819c.719 4.832 1.097 9.668.103 14.512-2.8 1.712-6.076 1.406-9.5 2.033 3.361-.25 6.303-.95 9.329-.736 1.156.58 1.395 1.77 1.822 2.817 1.277 3.135 2.937 5.853 6.639 6.518a1.229 1.229 0 0 1 .818.752c-.983 4.532-3.027 8.364-7.157 10.815Z" class="colord9a69d svgShape"></path><path fill="#d9a29d" d="M24.093 242.424c.708-.711 1.694-.224 2.478-.563.223-.341-.018-.496-.24-.649-7.24-4.98-10.49-12.186-11.563-20.631a16.833 16.833 0 0 1 .646-7.945c2.716 2.283 6.148 2.854 9.389 3.794a89.34 89.34 0 0 0 30.05 3.166c.384-.023-.084-.607-.01-.23.035.18-.218.264-.444.276a92.229 92.229 0 0 1-33.618-4.828c-1.831-.593-3.828-.84-5.368-2.174a17.171 17.171 0 0 1 9.482-11.59 46.661 46.661 0 0 1 8.147-.452c14.71.031 29.422-.025 44.127.025a2.7 2.7 0 0 1 2.19.496c3.727 3.189 7.732 6.13 9.752 10.859.579 1.355 1.095 2.695.383 4.16a2.217 2.217 0 0 1-.688.621 50.502 50.502 0 0 1-16.309 2.34 81.954 81.954 0 0 0 11.828-.615 4.705 4.705 0 0 1 2.849.252c.179.11.393.364.341.408-3 2.6-2.957 6.582-4.431 9.866-2.869 6.389-7.834 10.048-14.436 11.64-2.51.605-4.82 1.295-6.312 3.584a11.933 11.933 0 0 1-4.646.305c-10.207-.722-20.42-1.232-30.656-1.18-1.066.004-2.173.041-2.941-.935ZM154.728 110.729c.719.952.87 2.272 1.941 2.997.642 1.2-.3 2.02-.73 2.947a64.84 64.84 0 0 1-3.956 8.151 9.463 9.463 0 0 0-.42 9.997 79.443 79.443 0 0 0 8.5 14.308c.637.803 1.614 1.51 1.25 2.787a29.268 29.268 0 0 1-9.214 5.23c-.403.043.248.52.032.194-.062-.093.006-.152.198-.2a10.096 10.096 0 0 1 4.867-.067c1.132.275 1.935.855.296 1.74a17.118 17.118 0 0 1-5.232.294c-16.916-1.18-33.851-.237-50.774-.562-1.613-.03-3.348.347-4.713-.968 1.014-.9 2.238-.417 3.366-.471a26.31 26.31 0 0 0 5.024-.436c-.964-.562-1.965-1.068-2.885-1.694a25.044 25.044 0 0 1-9.408-11.993 10.663 10.663 0 0 1-.147-8.21c1.152-.888 2.434-.464 3.668-.325a168.843 168.843 0 0 0 20.105 1.203c3.803-.026 7.558-.78 11.37-.655.696.023 1.397-.192 1.542-.1-4.05.519-8.583-.188-13.14-.368-6.517-.256-13.03-.543-19.522-1.194-1.051-.106-2.175-.024-2.95-.978 1.389-3.075 3.927-5.275 6.02-7.804a95.994 95.994 0 0 0 6.406-8.297 8.997 8.997 0 0 0 1.73-6.04c2.09 1.328 4.347.963 6.674.944 7.117-.055 14.216-.455 21.323-.695 4.087-.139 8.174.038 12.263-.464 2.154-.263 4.483-.698 6.516.729Z" class="colord9a69d svgShape"></path><path fill="#b0837f" d="M24.093 242.424c4.526.036 9.069-.16 13.574.166 6.457.467 12.947.195 19.386 1.03a46.614 46.614 0 0 0 5.818.055c1.493-1.137 3.168-.794 4.826-.607a8.522 8.522 0 0 0 2.798.407 18.54 18.54 0 0 1 1.389.004c2.007.1 4.052-.227 6.012.455 1.01.35 2.123.747 2.18 2.009.06 1.34-.987 1.782-2.111 1.878-.798.068-.839.656-1.051 1.164-.23.166-.46.477-.692.478-4.158.019-8.331.458-12.465-.306a17.977 17.977 0 0 0-3.77-.158c-8.534.222-17.03-.79-25.566-.762-2.565.009-5.379.171-7.884-1.047.305-.784.885-1.674-.699-1.687a7.798 7.798 0 0 1-1.409-.121c-.782-.152-1.5-.525-1.602-1.374a1.358 1.358 0 0 1 1.266-1.584Z" class="colorb0827f svgShape"></path><path fill="#af827e" d="M76.998 149.993c-14.506 1.232-29.041.291-43.56.607-1.348.03-2.873.286-2.855-1.834-.545-.798-1.433-.395-2.144-.61a1.68 1.68 0 0 1-1.348-1.953 1.575 1.575 0 0 1 1.57-1.448c.675-.056 1.358-.047 2.037-.044 12.053.058 24.106.1 36.158.193 3.593.028 7.185.203 10.777.319a9.352 9.352 0 0 1 1.45.127 1.364 1.364 0 0 1 1.27 1.36c.004.676-.53 1.007-1.09 1.218a3.318 3.318 0 0 1-1.13.244c-1.384.003-1.198.941-1.135 1.821Z" class="coloraf827e svgShape"></path><path fill="#b0837f" d="M96.773 157.577c14.328.02 28.657.154 42.983 0 5.267-.058 10.465.82 15.718.658l2.919-.091c.766-.532 1.537-.505 1.831.413.326 1.015-.524 1.431-1.291 1.898-.948.576-2.683-.643-2.986 1.323-.79.843-1.824.51-2.754.512q-25.35.036-50.699.013c-.925 0-1.97.348-2.718-.579.22-.505.857-.773.802-1.77a28.034 28.034 0 0 1-3.01-.02c-1.402-.151-1.509-.554-.795-2.357ZM78.117 200.917c-.63.884-1.576.626-2.42.626q-24.3.006-48.599-.024c-.757 0-1.58.206-2.204-.47.329-.208.642-.445.988-.62.778-.394 1.387-.684.368-1.607a1.22 1.22 0 0 1 .263-2l49.301-.005a6.316 6.316 0 0 1 2.238-.561 2.263 2.263 0 0 1 2.617 1.38c.517 1.382-.453 1.904-1.555 2.274a1.868 1.868 0 0 0-.997 1.007Z" class="colorb0827f svgShape"></path><path fill="#b0827e" d="M154.728 110.729c-7.657.144-15.314.486-22.96.79-5.715.228-11.43.269-17.142.431a12.65 12.65 0 0 0-2.287.36c-2.742.584-3.172.347-4.386-2.095-.97-.031-1.946-.007-2.907-.115a1.26 1.26 0 0 1-1.14-1.15 1.299 1.299 0 0 1 1.068-1.502 6.291 6.291 0 0 1 1.726-.173c15.65.216 31.279-.72 46.923-.773a75.695 75.695 0 0 1 3.496.049c.485.02 1.038.183 1.023.787-.014.538-.51.779-.985.93a1.488 1.488 0 0 1-.574.086c-1.872-.181-2.006.983-1.855 2.375Z" class="colorb0837e svgShape"></path><path fill="#b18480" d="M93.797 132.356c8.24.42 16.46 1.128 24.716 1.37 3.081.091 6.186.451 9.292.471a6.02 6.02 0 0 1 3.3 1.01 121.75 121.75 0 0 1-38.382-.434 3.838 3.838 0 0 1 1.074-2.417Z" class="colorb18380 svgShape"></path><path fill="#b28581" d="M17.22 172.282a38.44 38.44 0 0 0 9.673 1.669c7.132.607 14.264 1.338 21.44 1.267.158-.001.319.147.776.372a89.294 89.294 0 0 1-20.48.336c-3.358-.389-6.71-.76-10.048-1.306a6.368 6.368 0 0 1-1.922-.613 1.08 1.08 0 0 1 .03-.578c.273-.34.161-.855.528-1.151ZM91.577 168.73c-.568 1.18-1.761 1.517-2.814 1.946a73.456 73.456 0 0 1-14.298 3.88 4.225 4.225 0 0 1-1.119-.09c-.047-.732.416-.869.88-1.024a142.408 142.408 0 0 0 15.302-5.672 4.84 4.84 0 0 1 1.43-.19l.619 1.15Z" class="colorb28481 svgShape"></path><path fill="#b38581" d="M90.283 278.35c.168-.55.213-1.21 1.094-.623a440.828 440.828 0 0 0 6.854 4.448 53.439 53.439 0 0 0 9.373 4.721 20.286 20.286 0 0 1 2.143 1.212 9.927 9.927 0 0 1-4.959-1.193c-4.77-1.956-9.538-3.915-13.791-6.904a3.411 3.411 0 0 1-.714-1.66Z" class="colorb38481 svgShape"></path><path fill="#d9a29d" d="M17.217 172.278a1.237 1.237 0 0 1-.527 1.151.97.97 0 0 1 .527-1.151Z" class="colord9a69d svgShape"></path><path fill="#b0837f" d="M105.605 207.991c.009-1.198-.28-2.065-1.781-1.945a34.41 34.41 0 0 1-3.453.021c-1.03-.021-2.072-.342-2.126-1.484-.061-1.296 1.077-1.384 2.07-1.393 1.535-.014 3.07.001 4.605.004q17.22.06 34.44.123c1.254.005 2.546-.197 3.682.574-.002 1.569-.738 3.051-.545 4.643a4.71 4.71 0 0 1-3.572.952c-10.015-.185-20.048.553-30.046-.563-1.147-.128-2.365.02-3.275-.932Z" class="colorb0837f svgShape"></path><path fill="#b28480" d="M92.677 174.084a170.899 170.899 0 0 0 41.205 6.398 2.389 2.389 0 0 1-2.31 1.128c-3.805.303-7.552-.432-11.304-.77-2.97-.268-5.959-.55-8.928-.946a65.722 65.722 0 0 1-16.597-4.043c-.771-.32-1.675-.53-2.066-1.767Z" class="colorb28380 svgShape"></path><path fill="#b98783" d="M58.184 175.492c3.121-.016 6.178-.842 9.313-.698-2.994 1.624-6.19.713-9.313.698Z" class="colorb98683 svgShape"></path><path fill="#b1837f" d="m101.446 251.83.576-1.63c.585-1.559 1.951-.945 2.96-.922 5.245.118 10.453.81 15.67 1.287 5.51.504 11.037.86 16.525 1.591 1.047.14 2.164.036 2.972.932 1.175.644 2.928.817 2.361 2.887l-1.16.004c-.887-.67-2.032.08-2.929-.532-3.838-.324-7.68-.546-11.5-1.111-2.377-.352-4.811-.348-7.205-.517-3.174-.224-6.322-.745-9.518-.819-2.589-.06-5.164-.643-7.782-.614-.321.004-.647-.362-.97-.556Z" class="colorb1837f svgShape"></path><path fill="#b28480" d="M16.009 258.329a8.582 8.582 0 0 1 3.955.845c6.159 2.192 12.542 3.153 19.013 3.936 6.321.765 12.624.31 18.93.51 1.063.034 2.127.005 3.41.005-.854 1.272-1.947 1.135-2.964 1.141-4.09.023-8.18.05-12.27.025-2.392-.016-4.746.278-7.184.126a72.057 72.057 0 0 1-20.089-4.398c-1.092-.395-2.583-.56-2.799-2.194Z" class="colorb28380 svgShape"></path><path fill="#b38581" d="M91.452 263.5a1.565 1.565 0 0 1 .718-1.04c12.19 6.316 13.782 6.014 25.94 9.097-2.926.712-5.513.002-8.06-.548a66.02 66.02 0 0 1-14.937-4.779c-1.39-.671-2.923-1.174-3.661-2.73Z" class="colorb38481 svgShape"></path><path fill="#b68682" d="M87.958 260.715a1.04 1.04 0 0 1 .172.461c-.174.335-.282.897-.532.97-3.856 1.11-7.704 2.326-11.87 1.609l12.23-3.04Z" class="colorb68682 svgShape"></path><path fill="#b38480" d="M142.503 270.602c.68.43.581 1.12.594 1.772a30.719 30.719 0 0 1-9.893.319 40.52 40.52 0 0 1 9.299-2.091Z" class="colorb38480 svgShape"></path><path fill="#d18f8a" d="M138.421 255.447c.995.077 2.088-.388 2.929.532-.99-.106-2.087.383-2.929-.532Z" class="colord19e8a svgShape"></path><path fill="#d9a29d" d="M86.802 231.38c-1.078 1.594-2.051 3.272-3.257 4.763a21.625 21.625 0 0 1-8.941 6.72 7.303 7.303 0 0 0-2.827 1.355l-1.318.018c-.69-.568-1.653.066-2.336-.53l-5.252-.03c.214-2.485.225-2.434 2.516-2.945 4.475-1 8.81-2.354 12.408-5.386a4.308 4.308 0 0 0 .886-.749c2.188-3.3 4.724-6.475 5.225-10.56.295-2.409 1.272-4.082 3.56-4.934a1.884 1.884 0 0 1 .45-.493 2.055 2.055 0 0 0 .574-.778 3.486 3.486 0 0 1 .64-1.564l.202-.19c1.187 2.777.047 5.487-.405 8.158a57.789 57.789 0 0 1-2.125 7.145Z" class="colord9a69d svgShape"></path><path fill="#b18480" d="M15.412 212.64a9.68 9.68 0 0 1 4.226.952 111.42 111.42 0 0 0 20.319 4.806 61.921 61.921 0 0 0 13.056.717c1.124-.063 2.254-.01 4.044-.01a6.86 6.86 0 0 1-3.3 1.155c-4.865-.003-9.77.39-14.584-.106a86.475 86.475 0 0 1-17.02-3.575c-1.667-.523-3.314-1.11-4.975-1.65-1.12-.365-1.886-.982-1.764-2.293Z" class="colorb18380 svgShape"></path><path fill="#b38581" d="m89.13 216.267.076 2.21c-.298.39-.86.27-1.182.614l-.279-.004-.279.015a98.718 98.718 0 0 1-15.064.576c-.896-.005-1.922.26-2.632-.625.459-.785 1.108-.538 1.612-.51 5.58.322 10.914-1.158 16.315-2.161a13.34 13.34 0 0 1 1.434-.115Z" class="colorb38481 svgShape"></path><path fill="#b78884" d="M144.385 134.137c-2.736 1.113-5.775.167-8.534 1.149-.466.166-.845-.254-1.334-.882 3.47-.552 6.69.137 9.868-.267Z" class="colorb78984 svgShape"></path><path fill="#d9a29d" d="M68.123 243.706c.802.073 1.7-.274 2.337.53-.813-.03-1.7.27-2.337-.53ZM140.149 253.088a96.606 96.606 0 0 1-12.438-1.091c-2.207-.292-4.454-.379-6.658-.518-6.274-.398-12.497-1.463-18.798-1.449-.078 0-.155.111-.232.17a27.657 27.657 0 0 1-12.361-17.147 7.676 7.676 0 0 0-.447-1.067c-.191-4.315.386-8.4 3.515-11.72 1.046-.3 1.883.298 2.768.66 10.507 4.31 21.526 5.926 32.788 6.071a67.209 67.209 0 0 0 8.983-.83 5.087 5.087 0 0 1 3.136.2c.12.116.24.235.359.354a8.816 8.816 0 0 0-1.535 6.577c.405 4.228 1.118 8.427.923 12.695a11.001 11.001 0 0 0 .714 4.268c.325.906.963.786 1.648.471-.118 2.207-.118 2.207-2.365 2.356Z" class="colord9a69d svgShape"></path><path fill="#d9a29d" d="M105.605 207.991c12.288.79 24.592.537 36.892.543l.044 14.66a.843.843 0 0 1-.024 1.196c-.356.608-.522 1.34-1.155 1.766l-.508-.017c-4.46.155-8.92.263-13.384.273a83.422 83.422 0 0 1-30.695-5.948c-1.064-.415-2.283-.643-2.796-1.89 1.968-2.792 4.88-4.456 7.707-6.12a7.97 7.97 0 0 0 3.918-4.463Z" class="colord9a69d svgShape"></path><path fill="#b1837f" d="m141.324 226.122-.603.547c-3.352.374-6.696.85-10.057 1.09a44.803 44.803 0 0 1-7.847.05 121.881 121.881 0 0 1-20.502-3.523c-3.34-.946-6.693-1.959-9.585-4.02a3.748 3.748 0 0 1 1.249-1.693 94.14 94.14 0 0 0 18.3 5.532 66.867 66.867 0 0 0 12.645 1.446q6.846-.062 13.692-.013c.921.005 1.971-.363 2.708.584Z" class="colorb1837f svgShape"></path><path fill="#d9a29d" d="M88.024 219.091a1.456 1.456 0 0 1 1.182-.613 1.128 1.128 0 0 1-1.182.613Z" class="colord9a69d svgShape"></path><path fill="#daa39e" d="M348.813 111.912c2.29 2.92 5.211 5.203 7.864 7.756a21.13 21.13 0 0 1 5.4 7.51c-3.534 3.351-7.265 6.511-10.034 10.593a4.324 4.324 0 0 1-2.917 1.733 52.269 52.269 0 0 1-11.586 1.132c-9.346-.163-18.68-.46-24.876-1.505 9.712 1.239 22.497 2.454 35.356.651 2.103-.295 2.475.73 2.24 2.296a15.763 15.763 0 0 0 2.035 9.846 2.065 2.065 0 0 1-1.004 2.246 25.642 25.642 0 0 1-12.073 5.569c-.663.105-.655.06-.525.368.208.495-.182.666-.502.875-4.783.03-9.437-1.104-14.17-1.55-8.519-.802-16.968-2.274-25.526-2.757-.99-.055-2.244.13-2.569-1.33.506-.173 1.407-.33.482-.99a20.907 20.907 0 0 1-4.672-4.764 34.306 34.306 0 0 1-6.98-17.324 9.133 9.133 0 0 1 3.152-7.793c2.459-2.347 5.133-4.456 7.521-6.89a33.776 33.776 0 0 0 5.186-6.24 15.757 15.757 0 0 1 3.467-.367q20.126.032 40.251.017c1.551.001 3.134-.107 4.48.918ZM411.848 212.052a21.82 21.82 0 0 0 4.57 6.012 48.756 48.756 0 0 1 8.68 10.57 14.253 14.253 0 0 1 .87 13.172 36.314 36.314 0 0 1-6.095 9.915c-2.11 2.504-4.904 3.99-7.873 5.438 2.187 0 4.375-.026 6.56.012.944.017 1.972-.271 2.772.538-1.367 1.324-3.119 1.039-4.717.946-13.239-.768-26.489-.467-39.735-.592-3.606-.034-7.156 1.087-10.766.388-1.162-.466-1.842-1.029-.179-1.759a4.672 4.672 0 0 1 2.427-.117c-4.457-1.783-7.627-5.732-11.147-9.248a13.062 13.062 0 0 0-.748-1.24c-5.585-6.39-5.465-13.28-1.837-20.492 2.86-4.142 5.922-8.144 8.704-12.343a3.79 3.79 0 0 1 2.73-1.965c14.268-.327 28.53-.1 42.792-.124a4.044 4.044 0 0 1 2.992.89Z" class="colordaa79e svgShape"></path><path fill="#daa39e" d="M412.994 123.631a3.521 3.521 0 0 0 1.044 4.894c.986.788 1.777 1.823 2.775 2.593 3.978 3.065 5.127 7.42 5.592 12.08.744 7.445-2.194 13.27-7.972 17.809-.364.286-.9.4-.965 1.113 1.37.734 3.05-.203 4.398.672a3.055 3.055 0 0 1-2.638.983c-16.538.002-33.076.27-49.607-.12-5.64-2.433-9.697-6.595-12.786-11.805-2.717-5.256-1.527-10.084 1.604-14.711a41.039 41.039 0 0 1 5.991-6.681 5.007 5.007 0 0 0 1.776-2.834 8.027 8.027 0 0 0 5.266-5.18c1.213-1.102 2.731-.928 4.157-.879 12.89.45 25.795.438 38.676 1.186a3.596 3.596 0 0 1 2.689.88ZM415.274 166.946a3.849 3.849 0 0 0 .373 3.612c1.38 2.707 3.31 5.052 4.892 7.624.918 1.493 1.871 2.967 2.717 4.5a7.993 7.993 0 0 1 .287 7.315c-2.704 6.374-6.19 12.148-12.161 16.046-.139.09-.187.318-.293.512.748.738 1.929.003 2.662.763-1.247 1.299-2.884.954-4.4.988-10.883.24-21.759-.148-32.63-.596-2.827-.117-5.594.788-8.413.323-.836-2.26-3.212-2.543-4.875-3.742a29.266 29.266 0 0 1-9.434-11.296c-2.129-4.466-1.653-8.937.69-13.162 2.394-4.318 6.07-7.866 7.677-12.677.152-.457.691-.656 1.168-.819a11.444 11.444 0 0 1 3.193-.293q22.192-.02 44.384.009c1.431.003 2.953-.226 4.163.893Z" class="colordaa79e svgShape"></path><path fill="#d9a39e" d="M418.814 262.411c-2.341 5.834-2.274 6.282 1.465 11.447 2.564 3.542 5.362 6.927 7.247 10.926a17.704 17.704 0 0 1 1.038 11.129c-.285 1.528-70.65 2.479-71.703 2.175-1.636-2.62-3.758-4.979-4.528-8.068-1.04-4.18.25-7.851 2.676-11.208a35.109 35.109 0 0 1 8.553-8.594c2.435-1.613.886-3.608.549-5.5-.207-1.158-1.603-2.62.722-3.24 16.421.052 32.835-.007 49.248.038 1.612.004 3.336-.345 4.733.895Z" class="colord9a79e svgShape"></path><path fill="#daa39e" d="M280.162 177.534a3.758 3.758 0 0 1-1.835-1.82c.844-2.892 3.013-4.709 5.305-6.37 1.49-1.081 3.117-1.977 4.697-2.932a26.553 26.553 0 0 0 7.046-6.453c2.52-1.024 4.98.007 7.426.322 11.82 1.526 23.653 2.978 35.427 4.833a1.812 1.812 0 0 1 1.029.516c2.924 4.295 7.025 7.584 10.109 11.713 3.726 4.989 3.078 12.34-1.463 18.57-1.734 2.38-3.203 5.285-6.815 5.368-8.27-.322-16.53-.799-24.812-.663-4.119.068-5.039-1.193-4.329-5.197.67-3.772.668-3.762-3.244-4.261-5.023-.641-10.086-.932-15.09-1.731-1.818-.29-3.702-.355-5.338-1.366-2.14-1.755-4.732-3.06-5.825-5.856-.29-.324-.899-.487-.573-1.125l-.017-1.177c1.307-.917 2.643-.254 3.93 0 4.542.898 9.082 1.803 13.048 2.497.998.053.657-.64.68-.25.005.085-.034.136-.112.123-6.532-1.105-13.244-1.48-19.244-4.741ZM302.86 107.75c-1.553-2.553-3.393-4.906-4.72-7.626-2.782-5.702-2.438-10.973 1.501-15.99 1.905-2.425 3.758-4.891 5.634-7.34 1.074-1.72 2.835-1.432 4.448-1.47 10.271-.236 20.527-.775 30.774-1.502a19.551 19.551 0 0 0 5.16 7.307c1.433 1.323 2.678 2.86 4.172 4.103 3.94 3.28 4.092 7.55 3.193 12.022a15.232 15.232 0 0 1-4.653 8.287 2.645 2.645 0 0 0-1.08 1.424c.644.778 1.947-.126 2.508.887-1.1 1.064-2.514.922-3.85.925q-19.646.045-39.292-.003c-1.332-.003-2.757.15-3.796-1.024ZM353.302 295.827l-23.963-.11c-.106-1.007.653-1.58 1.17-2.254a64.66 64.66 0 0 0 3.044-4.283c4.3-6.659 4.177-9.778-.481-16.154-.985-1.349-2.961-2.708-1.968-4.499.952-1.714 3.034-.493 4.602-.456a89.992 89.992 0 0 0 9.472-.37 51.286 51.286 0 0 1-12.11-.354c-1.383-.16-2.83-.181-3.562-1.564-1.007-1.905-2.697-2.307-4.605-2.558a24.696 24.696 0 0 1-6.003-1.09c-1.071-2.87 1.185-4.301 2.623-6.095 1.218-2.671 3.379-3.584 6.163-3.26 8.698 1.015 17.446.272 26.157.745a2.428 2.428 0 0 1 1.883 1.603 47.373 47.373 0 0 0 6.191 11.391 2.444 2.444 0 0 1 .453 1.643c-1.7 3.016-4.515 5.021-6.874 7.43a22.245 22.245 0 0 0-4.4 6.44 10.267 10.267 0 0 0 .875 10.753c.619.906 1.733 1.664 1.333 3.042Z" class="colordaa79e svgShape"></path><path fill="#daa39e" d="M321.163 296.38c-3.041-.106-5.862-1.31-8.842-1.767-4.318-.662-8.605-1.532-12.905-2.313-.863-3.31.235-6.503.577-9.739a2.558 2.558 0 0 1 .405-.84c1.254-.945 2.69-.39 4.206-.484-1.48-.24-2.904.283-4.165-.508a4.864 4.864 0 0 1-1.201-3.153c.043-3.663-1.449-7.19-.975-10.893a2.425 2.425 0 0 1 .467-.868c1.281-.89 2.762-.71 4.171-.65a6.767 6.767 0 0 0 5.275-1.746c3.058.15 6.08-.674 9.146-.37a14.374 14.374 0 0 0 6.856.959c1.993-.067 3.387.518 3.713 2.753.367 2.515 2.028 4.366 3.483 6.309 5.146 6.874 5.213 9.297.326 16.442-1.707 2.494-3.596 4.84-6.419 6.198-1.345.394-2.894-.463-4.118.67Z" class="colordaa79e svgShape"></path><path fill="#b0837f" d="M418.814 262.411q-26.09.002-52.182.016a9.304 9.304 0 0 1-2.854-.469 1.322 1.322 0 0 1-.845-.088c-1.335-.933-3.537-1.216-3.281-3.45.17-1.491 2.688-1.778 5.306-.748 2.414.102 4.823.375 7.215-.363a9.1 9.1 0 0 1 2.607-.118c10.49-.005 20.984-.19 31.467.08 5.025.13 10.045.605 15.084.439 1.292.864 1.2 1.853-.117 2.383a3.965 3.965 0 0 0-2.4 2.318ZM338.773 165.813c-3.842-.458-7.687-.884-11.523-1.383-3.643-.473-7.275-1.024-10.912-1.539-3.828-.541-7.646-1.166-11.487-1.594a84.228 84.228 0 0 1-9.476-1.338c.352-1.001.883-2.056-.866-2.279a4.424 4.424 0 0 1-1.355-.397.982.982 0 0 1-.59-1.168.947.947 0 0 1 .806-.725c.85-.055 1.704-.034 2.556-.045a2.052 2.052 0 0 0 1.619.509c5.65-.103 11.172 1.104 16.76 1.603 4.248.38 8.454 1.076 12.709 1.416a46.783 46.783 0 0 1 9.181 1.353 5.69 5.69 0 0 0 2.581.24 2.74 2.74 0 0 1 2.734-.451 2.21 2.21 0 0 1 1.762 2.055 2.126 2.126 0 0 1-1.364 2.325c-1.066.432-2.265.555-3.135 1.418ZM367.303 207.314c2.358.608 4.582-.602 6.91-.494 4.443.205 8.89.182 13.34.404 8.712.436 17.462.107 26.197.094a9.935 9.935 0 0 1 1.418.105.899.899 0 0 1 .755 1.034.974.974 0 0 1-.652.862 3.071 3.071 0 0 1-1.375.275c-2.037-.27-2.165.976-2.048 2.459l-46.824.023a7.984 7.984 0 0 0-2.204-2.284 1.591 1.591 0 0 1-.968-1.913c.255-.887 1.053-1.109 1.84-1.174 1.244-.104 2.533-.331 3.611.609ZM415.274 166.946q-24.276.014-48.552.031c-1.365.001-2.73.04-4.093.063-1.541-.347-2.587-1.647-4.091-2.106-.586-.178-1.319-.593-1.061-1.474a1.762 1.762 0 0 1 1.53-1.188 7.982 7.982 0 0 1 5.39.583q22.356.003 44.71-.004a77.204 77.204 0 0 0 8.759-.059c1.184 1.204 1.212 1.72.022 1.822-1.624.139-2.09 1.173-2.614 2.332ZM412.994 123.631c-9.733-.22-19.47-.44-29.194-.745-5.438-.17-10.89-.192-16.328-.442-.358-1.976-1.723-2.339-3.469-2.297-.88.022-2.317.368-2.343-.966-.024-1.256 1.469-1.142 2.329-1.171 3.115-.106 6.243-.16 9.353.01 2.24.123 4.477.166 6.716.23 9.741.279 19.487.466 29.222.899 3.136.14 6.378.033 9.876 1.343-2.267 1.26-5.268.301-6.162 3.14Z" class="colorb0837f svgShape"></path><path fill="#b0837f" d="m302.86 107.75 30.319.07q8.309.018 16.618.032a.848.848 0 0 1 .074 1.454c-.541.547-1.33.166-1.935.523-.073.847.754 1.32.877 2.083q-23.025.008-46.05.012c-.76 0-1.58.155-2.148-.58.323-.89.947-1.873-.776-2.003a1.347 1.347 0 0 1-1.255-.833c1.237-1.256 2.88-.422 4.275-.758Z" class="colorb0827f svgShape"></path><path fill="#b1837f" d="M325.281 295.71c2.214-2.82 5.22-4.963 6.91-8.25a40.557 40.557 0 0 0 1.917-3.916 6.508 6.508 0 0 0-.68-6.125 53.593 53.593 0 0 0-4.031-5.707 9.582 9.582 0 0 1-2.36-5.227c-.15-1.48-.884-1.744-2.114-1.707-1.363.042-2.728-.014-4.093-.005a3.814 3.814 0 0 1-3.188-1.104 1.546 1.546 0 0 1 1.18-1.786c2.645-.285 5.193.504 7.786.772 1.488.154 3.06.523 3.37 2.573.212 1.396 1.525 1.146 2.574 1.316 5.104.826 10.25.545 15.502.59-1.292 1.116-3.998 1.644-8.1 1.744a35.337 35.337 0 0 1-8.867-.693c.8 2.634 2.381 4.13 3.669 5.744 3.212 4.025 3.711 8.189 1.21 12.7-1.833 3.304-3.722 6.567-6.627 9.089l-4.058-.008Z" class="colorb1837f svgShape"></path><path fill="#b0837f" d="M340.497 73.822a1.339 1.339 0 0 1-1.657 1.21c-4.276-.344-8.48.715-12.753.611-6.2-.15-12.367.945-18.577.592a4.79 4.79 0 0 0-2.235.56l.163-1.146a5.21 5.21 0 0 0 .354-.723c.09-.752-.29-1.04-.999-1.09-.488-.035-1.047-.155-1.02-.788.034-.756.68-.84 1.266-.897.484-.047.974-.042 1.46-.073 1.849-.116 3.695-.317 5.544-.344 9.258-.131 18.483-1.377 27.761-.812.486.03.975.008 1.462.027a.826.826 0 0 1 .877.606.775.775 0 0 1-.457.953c-.63.246-1.378.344-1.19 1.314Z" class="colorb0827f svgShape"></path><path fill="#b18480" d="M362.206 127.624c.399.697 1 1.207.05 2.134a53.966 53.966 0 0 0-6.78 7.221c-2.19 3.095-3.703 6.292-3.399 10.257.126 1.636 1.01 2.926 1.246 4.453-.172.593-.509.908-1.162.693-2.89-2.894-3.25-6.477-2.728-10.262.285-2.073.344-2.082-1.782-1.644a36.149 36.149 0 0 1-8.109.775c-4.487-.095-8.981.081-13.465-.07a92.99 92.99 0 0 1-18.45-2.302c-.465-.111-.972-.116-1.273-.883a2.24 2.24 0 0 1 1.782-.269c4.235.487 8.466 1.017 12.697 1.535a7.045 7.045 0 0 0 1.154.156c6.143-.293 12.246 1.02 18.376.553a57.84 57.84 0 0 0 8.656-1.024 3.55 3.55 0 0 0 2.52-1.755c2.076-3.621 5.427-6.096 8.2-9.092a2.531 2.531 0 0 1 2.338-.922 1.355 1.355 0 0 1 .129.446Z" class="colorb18480 svgShape"></path><path fill="#b1837f" d="M353.302 295.827c-.731-1.022-1.47-2.04-2.192-3.068a9.998 9.998 0 0 1-1.219-9.708 18.037 18.037 0 0 1 4.737-7.6c2.629-2.307 4.768-5.137 7.598-7.24 1.446.185 2.29.795 1.702 2.414-4.032 3.599-8.185 7.07-10.338 12.281a10.69 10.69 0 0 0 .882 10.226c.706 1.154 1.437 2.3 2.252 3.375a1.306 1.306 0 0 1 .136 1.581 1.54 1.54 0 0 1-2.253-.397c-.47-.594-.872-1.24-1.305-1.864Z" class="colorb1837f svgShape"></path><path fill="#b88884" d="M298.846 136.359c-3.15-.37-6.4-.656-9.823-2.724 2.322-.14 7.26 1.21 9.823 2.724Z" class="colorb88884 svgShape"></path><path fill="#b28581" d="M360.74 232.483a9.877 9.877 0 0 1 5.177-.392 58.23 58.23 0 0 0 15.666.005 8.457 8.457 0 0 1 2.33-.062c7.266 1.068 14.574.314 21.857.556a65.418 65.418 0 0 0 13.596-1.145 3.82 3.82 0 0 1 1.062.214c-2.215 1.463-4.623 1.433-6.83 1.923a79.436 79.436 0 0 1-8.904 1.267 9.589 9.589 0 0 1-4.337-.332 5.753 5.753 0 0 0-1.733-.167c-10.982-.36-21.962-.884-32.957-.617a7.725 7.725 0 0 1-4.928-1.25Z" class="colorb28581 svgShape"></path><path fill="#b1837f" d="m357.48 247.242-.648.571c-1.338.272-2.2-.56-3.025-1.372a16.65 16.65 0 0 1-2.573-20.093c.705-1.174 1.31-2.768 3.272-1.982l.559 1.226c.233 1.466-.738 2.575-1.19 3.823-2.146 5.913-1.236 11.202 3.09 15.815.596.637.958 1.18.516 2.012Z" class="colorb1847f svgShape"></path><path fill="#b3837f" d="M410.414 142.44c-2.229 1.454-4.569 1.052-6.704 1.512a39.318 39.318 0 0 1-7.813.743c-7.803.088-15.609-.013-23.413.057-1.693.015-3.247-.59-4.898-.698-.57-.037-1.235-.357-1.052-1.094.185-.741.96-.632 1.47-.507 1.524.373 3.095.333 4.613.578 6.309 1.019 12.645.448 18.964.47a107.283 107.283 0 0 0 14.213-1.033 37.907 37.907 0 0 1 4.62-.028Z" class="colorb3847f svgShape"></path><path fill="#b48581" d="M358.551 186.243c4.12.294 8.161-.361 12.19.472a13.13 13.13 0 0 0 2.62.148c7.999.013 16 .103 23.997-.024a105.134 105.134 0 0 0 13.046-1.015 35.984 35.984 0 0 1 4.7-.031c-2.027 1.871-4.467 1.964-6.583 2.122-3.48.26-6.952 1.126-10.46.7-8.549-1.036-17.157.004-25.679-.71-4.342-.363-8.769.209-13.043-.978-.27-.075-.591-.043-.788-.684Z" class="colorb48581 svgShape"></path><path fill="#bc8c88" d="M386.297 281.76c-3.25 1.29-15.467.721-17.816-.83 1.322-.267 16.828.454 17.816.83Z" class="colorbc8d88 svgShape"></path><path fill="#b0837f" d="M410.07 281.629H397.9c2.21-1.974 4.16-.348 6.005-.452 2.009-.114 4.03-.026 6.045-.026ZM315.227 220.234c-2.04-.312-2.17-1.901-2.325-3.475-.098-7.326-5.386-13.593-4.31-21.166.22-1.538-.811-1.94-2.102-2.194-3.842-.757-7.789-.047-11.624-.906a8.19 8.19 0 0 1-3.038-.92 14.116 14.116 0 0 1-3.553-3.51c2.643-.252 5.195.5 7.788.767 3.068.317 6.11.927 9.207.984 2.038.038 3.982.728 6.056.642 1.788-.075 2.438.844 2.124 2.606-.22 1.234-.696 2.42-.958 3.648-.412 1.929.062 3.187 2.497 3.094 3.3-.126 6.614.108 9.91-.05 5.156-.246 10.244.823 15.389.62a1.53 1.53 0 0 1 1.3.516 1.069 1.069 0 0 1-.417.163c-.436 2.118-1.93 2.636-3.83 2.51a182.958 182.958 0 0 0-19.244-.528c-1.084.043-2.745-.905-3.17.976-.334 1.47 1.5 3.055 3.529 3.072 6.328.053 12.657-.005 18.986.034 1.623.01 3.344-.337 4.761.871a18.85 18.85 0 0 1 2.43 4.027c-.579 1.948-2.27 1.487-3.584 1.505-6.416.092-12.834.028-19.25.044-3.948.01-3.945.022-5.078 3.922a4.335 4.335 0 0 1-1.494 2.748Z" class="colorb0837f svgShape"></path><path fill="#daa39e" d="M291.828 191.574c5.944.497 11.935.441 17.967 1.416a22.425 22.425 0 0 0 2.062 14.786 11.922 11.922 0 0 1 1.045 8.983c-.7.39-1.369.688-2.075-.05a11.732 11.732 0 0 1-2.333-2.905c-.585-1.204-1.332-2.329-2.009-3.488-.08-.675 1.762-.697.592-1.742-1.538.153-2.486-.881-3.517-1.749a1.74 1.74 0 0 0-.239-2.156 46.059 46.059 0 0 0-3.706-4.475 94.688 94.688 0 0 1-7.787-8.62Z" class="colordaa79e svgShape"></path><path fill="#b38581" d="m280.162 177.534 19.937 4.739-.113.561c-6.145-.27-12.107-1.794-18.125-2.93l-1.699-2.37ZM350.006 186.09c-3.416 1.546-21.748-.28-26.45-2.568 9.116.88 17.767 1.81 26.45 2.568Z" class="colorb38481 svgShape"></path><path fill="#b68783" d="M315.639 92.273a4.013 4.013 0 0 1 3.216-.814c5.356-.028 10.713-.062 16.07-.007a111.288 111.288 0 0 0 15.575-.794c-11.294 3.187-22.735 3.002-34.861 1.615Z" class="colorb68783 svgShape"></path><path fill="#bb8580" d="M299.628 91.532h10.345a13.115 13.115 0 0 1-10.345 0Z" class="colorbb8380 svgShape"></path><path fill="#b0837f" d="M312.303 241.958a13.87 13.87 0 0 1 4.687-2.915c1.552 3.733 4.12 6.714 6.871 9.607a5.222 5.222 0 0 0 4.053 1.83c7.565.02 15.106.903 22.684.61 1.392-.054 3.002-.292 3.817 1.405l.146 1.74c-6.796-.007-13.593.046-20.388-.048-2.6-.037-5.173-.564-7.802-.58-1.923-.011-3.166.454-3.783 2.33-.101.306-.152 1.129-.92.599-.623-.428-1.492-.477-1.9-1.238 2.02-4.245-2.067-5.478-3.773-8.082-1.413 2.698-2.307 5.433-4.63 7.24a20.08 20.08 0 0 1-3.549.474c-.903-.84-.36-1.653.178-2.302 2.574-3.108 4.593-6.417 4.309-10.67Z" class="colorb0837f svgShape"></path><path fill="#b38581" d="M331.785 279.624a3.298 3.298 0 0 1-2.038 1.293c-4.957 1.282-9.896 2.763-15.128 1.566-1.12-.257-2.321-.141-3.473-.29a.872.872 0 0 1-.837-.99c.102-.655.696-.584 1.152-.591a15.354 15.354 0 0 1 3.781.058c5.106 1.24 9.99-.047 14.913-1.058a11.335 11.335 0 0 1 1.148-.155c.086-.008.179.059.482.167Z" class="colorb38681 svgShape"></path><path fill="#b28480" d="M308.08 263.1a1.025 1.025 0 0 1 .19.472c-.258 1.742-1.347 2.405-3.018 2.382-2.108-.03-4.217-.016-6.325-.021-.943-1.015-.7-2.051-.058-3.096 3.102-1.038 6.183-1.32 9.21.262Z" class="colorb28480 svgShape"></path><path fill="#b38480" d="m300.681 281.721-.056-1.124c1.58.103 3.26-.4 5.292 1.124Z" class="colorb38480 svgShape"></path><path fill="#daa39e" d="M297.742 251.888a13.215 13.215 0 0 0-.671-5.235c3.594.117 6.598-1.78 9.838-2.876 1.798-.609 3.412-1.76 5.394-1.82 1.51 3.214.018 5.841-1.697 8.387-.757 1.121-1.676 2.133-2.513 3.2-.334.426-.442.857.074 1.24-2.252 2.749-1.433 5.529-.087 8.315l-9.122-.002c-.306-1.192.334-2.55-.638-3.626-.243-2.524.518-5.124-.578-7.583ZM354.415 252.495a4.102 4.102 0 0 0-2.498-.598c-1.164.028-2.331-.054-3.492.004-7.465.374-14.888-.8-22.347-.57a2.136 2.136 0 0 1-2.223-1.338c-1.277-2.284-3.588-3.74-5.125-5.897a7.387 7.387 0 0 1-1.74-5.053c1.733-1.859 2.233-4.391 3.538-6.484.53-3.61 2.863-6.517 3.898-9.948.364-1.206 1.822-1.376 3.015-1.372 4.768.012 9.548-.374 14.298.253 2.774.367 5.41-.49 8.117-.673.585 1.14 1.213 2.074 2.803 1.823 1.134-.179 1.783.554 1.847 1.724-1.142-.003-1.732.782-2.257 1.62a15.836 15.836 0 0 0 .772 18.318 12.222 12.222 0 0 0 3.811 3.509c-1.33 1.29-2.893 2.46-2.417 4.682Z" class="colordaa79e svgShape"></path><path fill="#daa39e" d="M315.227 220.234c.22-2.22 1.27-4.274 1.28-6.542.002-.702.546-.981 1.194-1.005.68-.025 1.361-.02 2.042-.021 7.292-.006 14.584.004 21.876-.03 1.025-.004 2.169.35 3.013-.621a38.19 38.19 0 0 1 4.664 7.647 25.202 25.202 0 0 1-7.177.826c-5.447-.211-10.846.721-16.28.578-2.03-.054-2.957.73-3.231 2.793-.24 1.805-.216 3.981-2.65 4.62a24.177 24.177 0 0 1-4.731-8.245ZM342.203 207.988c-8.478.1-16.96-.22-25.434.179a1.443 1.443 0 0 1-1.579-.921 19.856 19.856 0 0 1-1.883-5.135c2.458 0 4.775.062 7.088-.012 5.746-.184 11.468.269 17.191.63a3.42 3.42 0 0 0 3.585-1.677c-.78 2.48.512 4.65 1.032 6.936Z" class="colordaa79e svgShape"></path><path fill="#b1837f" d="M319.958 228.48a7.918 7.918 0 0 0 2.02-6.154c-.095-1.783.629-2.005 1.93-2.052a61.393 61.393 0 0 1 3.205-.045c4.543.073 9.044-.751 13.595-.58a15.653 15.653 0 0 0 5.774-.442 3.807 3.807 0 0 1 2.814.456 1.8 1.8 0 0 1 .56 1.156c-.133.603-.37 1.197-1.086 1.148-2.689-.185-5.263.633-8.067.29-4.7-.574-9.52-.183-14.29-.176a1.506 1.506 0 0 0-1.693 1.288c-.48 3.488-2.436 6.29-4.192 9.19-.698-1.289-1.356-2.583-.57-4.08Z" class="colorb1837f svgShape"></path><path fill="#b98884" d="M307.077 208.574c.36-.082.724-.152 1.08-.25.351-.096.775-.325.978.114.24.522-.147.882-.58 1.078-.673.304-1.378.537-2.07.8-.684-.88.209-1.224.592-1.742Z" class="colorb98984 svgShape"></path><path fill="#d9a39e" d="M319.984 255.35c-3.007.198-5.985.174-8.8-1.127 1.754-2.62 3.632-5.174 4.377-8.58 1.761 2.038 3.233 4.065 5.407 5.364.724.433.685 1.06.31 1.752-.46.848-.865 1.726-1.294 2.591Z" class="colord9a79e svgShape"></path><path fill="#b88884" d="M346.636 236.697c-2.508-.127-4.549.212-6.555-.255-4.787-1.116-9.853.696-14.917-1.31a3.554 3.554 0 0 1 3.731-.712 62.245 62.245 0 0 0 14.455 1.086 3.486 3.486 0 0 1 3.286 1.191Z" class="colorb88984 svgShape"></path><path fill="#6b2b26" d="m0 296.988 14.547-.33 14.546-.249 29.093-.491q29.093-.386 58.186-.637c19.395-.203 38.79-.248 58.186-.367l58.186-.12 58.186.114c19.395.123 38.79.162 58.186.366q29.093.222 58.186.637l29.093.495 14.547.25 14.546.332-14.546.332-14.547.25-29.093.494q-29.093.385-58.186.637c-19.395.205-38.79.244-58.186.366l-58.186.116-58.186-.122c-19.395-.119-38.79-.164-58.186-.366q-29.093-.221-58.186-.637l-29.093-.491-14.547-.25ZM7.49 326.22l14.14-.329 14.14-.249 28.28-.491q28.281-.386 56.562-.637c18.853-.203 37.707-.248 56.56-.367l56.562-.12 56.56.114c18.854.123 37.708.162 56.562.366q28.28.222 56.56.637l28.281.495 14.14.25 14.14.332-14.14.332-14.14.25-28.28.494q-28.28.385-56.561.637c-18.854.205-37.708.244-56.561.366l-56.561.116-56.561-.122c-18.854-.119-37.708-.164-56.561-.366q-28.28-.221-56.561-.637l-28.28-.491-14.141-.25ZM37.516 338.057c12.788-.326 25.576-.467 38.364-.705l38.364-.403c25.576-.265 51.152-.302 76.728-.339 25.576.033 51.152.071 76.727.333l38.364.404c12.788.241 25.576.382 38.364.71-12.788.329-25.576.47-38.364.71l-38.364.404c-25.575.262-51.151.3-76.727.333-25.576-.036-51.152-.073-76.728-.338l-38.364-.403c-12.788-.239-25.576-.38-38.364-.706ZM103.866 355.454c12.788-.326 25.576-.467 38.364-.706l38.364-.403c25.576-.265 51.152-.302 76.728-.338 25.576.032 51.152.07 76.728.333l38.364.404c12.788.24 25.576.382 38.364.71-12.788.328-25.576.47-38.364.71l-38.364.404c-25.576.262-51.152.3-76.728.333-25.576-.036-51.152-.074-76.728-.338l-38.364-.403c-12.788-.24-25.576-.38-38.364-.706ZM77.282 346.203c12.788-.326 25.576-.467 38.364-.705l38.364-.403c25.576-.265 51.152-.302 76.728-.339 25.576.033 51.152.071 76.728.334l38.364.404c12.788.24 25.576.381 38.363.71-12.788.328-25.575.469-38.363.71l-38.364.403c-25.576.263-51.152.301-76.728.334-25.576-.037-51.152-.074-76.728-.339l-38.364-.403c-12.788-.239-25.576-.38-38.364-.706Z" class="color6b3826 svgShape"></path><path fill="#34a853" d="M351.519 315.725c-.226 4.673-.402 9.349-.69 14.018-.466 7.591-1.01 15.178-1.502 22.768-.05.761-.419 1.74.152 2.258 1.484 1.347.494 2.19-.406 3.128a31.04 31.04 0 0 1-7.718 5.737c-7.779 4.213-16.16 6.771-24.704 8.807a275.81 275.81 0 0 1-38.374 6.025 509.971 509.971 0 0 1-57.867 2.055c-15.603-.317-31.177-1.151-46.727-2.602a475.848 475.848 0 0 1-58.629-8.924c-3.897-.862-7.744-1.95-11.617-2.917-1.134-.283-1.806-.713-1.873-2.132-.073-1.536-.513-3.066-.522-4.636-.071-12.877-.066-25.755-.75-38.62a19.012 19.012 0 0 1 .104-2.037 2.828 2.828 0 0 1 2.448.68c7.224 4.966 15.474 7.31 23.86 9.229 14.092 3.226 28.443 4.753 42.794 6.238 22.326 2.31 44.727 2.606 67.139 2.28 9.341-.135 18.664-.89 27.989-1.514 4.754-.319 9.512-.687 14.288-.833 20.088-.613 39.783-3.483 58.644-10.81a51.374 51.374 0 0 0 13.96-8.198Z" class="color595959 svgShape"></path><path fill="#34a853" d="M100.296 316.406c-1.802-4.438-.95-7.009 2.761-10.185 2.977-2.547 6.55-4.065 10.152-5.485 1.346-.53 2.728-.97 4.094-1.451.354-.29.888-.18 1.208-.546l-.016.007c1.202-1.311 2.898-1.527 4.475-1.955a201.388 201.388 0 0 1 21.988-4.628c6.045-1.082 12.13-1.865 18.24-2.462 8.573-1.092 17.192-1.757 25.81-2.162 6.588-.31 13.175-.908 19.783-.771a47.25 47.25 0 0 0 1.526.031 11.83 11.83 0 0 1 3.81.336c1.832 1.507 1.936 4.079 3.525 5.738a17.665 17.665 0 0 0 1.364 1.488c.793.91 1.842 1.612 2.305 2.796a1.55 1.55 0 0 1-.221 1.178c-1.614 1.547-3.878 1.555-5.765 2.443a1.701 1.701 0 0 0-.622.827c-.038.251-.086.494-.124.743-.082.818-.38 1.594-.385 2.422-.029 3.348 1.313 6.718-.172 10.038-.205.578-.449 1.14-.673 1.71-1.281 2.548-2.984 4.605-5.997 5.132-2.838-.773-5.706-1.506-7.39-3.917.805 1.46 2.43 2.239 4.136 2.952.65.271 1.8.31 1.534 1.35-.228.89-1.274.736-2.018.697a80.323 80.323 0 0 1-9.46-1.17c-.384-.073-.071.5-.107.11 4.488.329 8.92 1.802 13.486.654 4.963.353 9.88-.434 14.818-.617 7.838-.291 15.632-1.394 23.522-.765a32.695 32.695 0 0 0 8.953-.896 166.953 166.953 0 0 0 18.984-.587c-5.981.246-11.94 1.051-17.955.397a1.477 1.477 0 0 1-1.04-.946c1.83-1.231 3.911-1.352 6.091-1.47-2.137-.17-4.057.746-6.079.832-2.458-.55-3.462-2.292-3.539-4.6a19.993 19.993 0 0 0-1.415-7.015 6.798 6.798 0 0 1-.334-1.729 5.171 5.171 0 0 0-1.81-3.842c-2.236-2.12-2.21-2.15.066-4.16.439-.388.858-.796 1.273-1.206.173-.2.357-.388.537-.58.08-.106.17-.203.249-.308a7.561 7.561 0 0 0 .78-1.429c1.199-1.84.626-4.631 3.106-5.785 4.468-.703 8.853.564 13.292.53 1.965.657 4 .345 6.005.421 2.484.202 4.95.576 7.435.779a10.747 10.747 0 0 0 3.834.387c2.285.026 4.505.597 6.77.798a15.507 15.507 0 0 0 4.265.453c1.428.23 2.845.525 4.288.67 6.145.975 12.307 1.859 18.344 3.404 1.116.285 2.321.396 3.18 1.319a160.47 160.47 0 0 1 15.917 4.781 40.499 40.499 0 0 1 10.827 5.65 10.247 10.247 0 0 1 3.887 5.33c.283 1.045.59 2.082-.187 3.058-14.166 11.336-31.388 14.08-48.469 17.118-10.684 1.9-21.554 1.734-32.343 2.48-7.873.546-15.75 1.177-23.627 1.466-11.58.426-23.168 1.668-34.768.328a22.206 22.206 0 0 0-2.633-.095c-21.6.08-43.034-1.965-64.4-4.957-10.165-1.423-20.253-3.16-29.987-6.508-5.56-1.913-10.905-4.267-15.084-8.626Z" class="color595959 svgShape"></path><path fill="#414141" d="M161.22 151.59c-4.544-5.022-7.672-10.944-10.605-16.962a9.17 9.17 0 0 1 .185-9.212c2.299-3.732 3.751-7.875 5.869-11.69 3.027-3.933 6.535-7.443 9.812-11.155 2.493-2.825 5.505-4.193 9.34-3.55a94.915 94.915 0 0 0 13.944 1.076 18.468 18.468 0 0 1 9.883 3.115 89.27 89.27 0 0 1 10.99 8.65 12.734 12.734 0 0 1 4.206 10.997c-.159 2.231-.291 4.464-.435 6.696-.92 3.576.853 6.764 1.464 10.118.33 1.488.572 2.995.947 4.473a4.25 4.25 0 0 1 .176 1.152c-.05 1.506.633 3.377-1.007 4.278-1.586.871-2.61-.782-3.782-1.559-.325-.215.113-.07-.244-.148-5.272-1.154-7.251-5.417-9.227-9.696a7.699 7.699 0 0 0-.613-.994c-2.705-4.084-4.376-4.172-6.794.054-2.56 4.475-6.338 6.488-11.309 7.225a42.357 42.357 0 0 1-10.72.46 11.602 11.602 0 0 1-3.412-.673c-2.33-.983-3.053-.48-3.132 2.091a11.436 11.436 0 0 0 1.45 5.302 41.594 41.594 0 0 1 2.949 6.67c.275.988.908 2.032-.125 2.982a1.28 1.28 0 0 1-1.361-.143c-3.146-2.892-6.712-5.418-8.45-9.557Z" class="color414141 svgShape"></path><path fill="#85e59f" d="M261.326 165.927c5.326 2.323 10.015 5.744 14.983 8.683.659.39 1.344.737 2.018 1.103 1.002.178 1.547.993 2.243 1.601a5.893 5.893 0 0 1 1.691 2.825 1.23 1.23 0 0 1-.479 1.127c-2.417.23-4.608-1.131-7.17-.628-7.47 1.467-12.415 5.618-14.709 12.929 1.563-4.71 4.15-8.52 8.668-10.848a16.175 16.175 0 0 1 13.756-.967 58.147 58.147 0 0 0 6.264 5.877q1.816 1.913 3.735 3.725c3.63 4.073 7.588 7.851 10.927 12.177.874 1.132 1.958 2.44.023 3.675-3.385-.084-6.766-.375-10.157-.182-5.21.296-9.45 2.707-13.193 6.125a48.906 48.906 0 0 0-5.83 6.094c-1.26 1.31-2.573 1.002-3.919.14-1.14-.731-2.23-1.54-3.296-2.367a14.366 14.366 0 0 0-9.264-2.833c.153-4.186-1.236-8.247-.934-12.459a36.086 36.086 0 0 1 1.441-7.816 28.259 28.259 0 0 0-1.168 13.515c.167 1.237.306 2.497.526 3.739a6.075 6.075 0 0 1-1.893 5.822 8.228 8.228 0 0 0-2.832 4.466c.008.438.484-.05.102.03.57-2.19 1.51-4.078 3.902-4.784a21.116 21.116 0 0 1-2.928 10.338 6.76 6.76 0 0 1-4.558.105c-1.702-.399-3.42-.691-5.136-1.012-3.45-.646-6.76-.732-9.568 1.883a2.482 2.482 0 0 1-1.591.64c-3.127-3.747-2.452-9.25 1.594-12.596 1.57-1.297 3.264-2.435 4.816-3.765a2.28 2.28 0 0 0 .56-3.306c-2.267-3.785-3.522-7.976-4.859-12.135-1.47-3.602-.61-7.062.648-10.495.134-.364.252-.83.554-1.01a30.973 30.973 0 0 0 7.973-7.014c.799-.962 2.323-1.52 3.04-2.856a4.117 4.117 0 0 1 3.537-2.223 5.795 5.795 0 0 0 5.077-3.344 6.933 6.933 0 0 1 5.406-3.979Z" class="colora6e585 svgShape"></path><path fill="#d18f8a" d="M215.176 140.043c-.823-3.455-2.01-6.884-.767-10.49.318 1.528-.267 3.086.235 4.868 1.333-.66 2.725-1.333 4.102-.175a6.249 6.249 0 0 1 2.26 4.837c.075 3.577-.03 7.157.048 10.734.036 1.661-.992 2.648-1.925 3.745.163 2.393 2.796 2.968 3.607 4.886a13.114 13.114 0 0 1 1.273 2.175 13.946 13.946 0 0 1 1.303 4.246c.384 2.487 1.363 4.88 1.163 7.457-.211 6.45-.967 12.796-3.607 18.778-.504 1.14-.827 2.426-2.17 2.951-1.598-1.105-1.367-2.918-1.542-4.464-.534-4.712-1.708-9.286-2.74-14.595-1.573 10.008-6.86 15.832-16.193 17.832-4.343-.896-7.516-3.798-10.84-6.412a37.19 37.19 0 0 1-3.096-3.048 9.17 9.17 0 0 0-1.576-1.302c-3.881-3.363-6.368-7.797-9.112-12.016-1.744-2.682-3.327-5.471-5.11-8.135a.59.59 0 0 1 .267-.703c.614-.484.285-1 .108-1.564a61.896 61.896 0 0 0-3.64-8.293 10.298 10.298 0 0 1-1.34-5.613 4.198 4.198 0 0 1 2.16-3.693c1.708 1.892 4.034 1.904 6.376 2.259 3.977.602 7.756-.381 11.57-.943a10.21 10.21 0 0 0 7.92-5.411 33.878 33.878 0 0 1 2.002-3.232c1.628-2.382 3.192-2.472 5.186-.306a19.153 19.153 0 0 1 2.752 4.128c.727 1.38 1.388 2.795 2.08 4.193.859 1.734 1.98 3.072 4.099 3.34a6.924 6.924 0 0 1 4.151 2.553c.387.424.86.865 1.52.583.654-.28.658-.928.658-1.502 0-1.17-.062-2.339-.1-3.508-.274-.744-.6-1.656.403-1.947 1.022-.297 1.333.622 1.342 1.438.017 1.556.603 3.076.425 3.876.126-2.485-.048-5.57-3.252-7.527Z" class="colord19e8a svgShape"></path><path fill="#393c3a" d="M100.296 316.406c.216-.205.149-1.065.553-.636 5.25 5.571 12.263 7.692 19.222 9.874 6.954 2.18 14.154 3.32 21.309 4.563 5.24.911 10.573 1.282 15.86 1.939 4.129.513 8.245 1.127 12.375 1.637 2.501.309 5.049.406 7.54.52 4.076.184 8.142.573 12.208.828 7.586.475 15.197.1 22.748.65a130.58 130.58 0 0 0 18.656.291c6.102-.431 12.254.153 18.309-.972a6.28 6.28 0 0 1 1.168-.03 136.85 136.85 0 0 0 18.296-1.154 1.6 1.6 0 0 1 .292-.012c5.458.301 10.86-.664 16.316-.681a125.188 125.188 0 0 0 16.186-1.54 187.332 187.332 0 0 0 21.38-4.224 94.512 94.512 0 0 0 22.318-8.448 22.098 22.098 0 0 0 5.514-4.27c.707-.752.916-.178 1.061.459a.616.616 0 0 1-.088.525c-1.082 2.919-3.8 4.057-6.19 5.407-8.728 4.932-18.293 7.55-27.973 9.83-6.33 1.49-12.762 2.386-19.174 3.38-2.774.43-5.615.406-8.409.731-5.236.609-10.504.32-15.739.652-5.81.368-11.62.787-17.425 1.212-3.596.264-7.194.205-10.77.503-14.217 1.183-28.454.25-42.678.526-5.363-1.191-10.85-.246-16.276-1.009-3.714-.521-7.554-.377-11.336-.693-3.382-.283-6.744-.707-10.116-1.041-3.67-.364-7.314-.91-10.976-1.28-4.923-.494-9.83-1.121-14.697-1.945a186.28 186.28 0 0 1-18.5-3.887c-7.463-2.058-14.656-4.658-20.864-9.458Z" class="color3c3939 svgShape"></path><path fill="#85e59f" d="M222.195 158.823a15.124 15.124 0 0 0-3.454-3.534c-1.032-.824-.305-1.28.39-1.728 1 .79 2.244.515 3.368.733a44.516 44.516 0 0 1 10.22 3.296c4.189 1.931 8.815 2.252 13.184 3.515 5.012 1.449 10.19 2.38 14.933 4.684-2.316 1.098-4.311 2.525-5.358 5-.745 1.76-2.45 2.042-4.031 2.488-.75.212-1.972-.168-2.228.342-1.62 3.24-5.873 3.87-7.152 7.36-.34.93-.636 2.083-1.674 2.19-3.927.405-4.904 3.237-5.579 6.4a.812.812 0 0 1-.743.433 1.353 1.353 0 0 1-.706-.561c-1.713-5.072-2.019-10.432-3.182-15.617-.487-2.17-.948-4.34-1.537-6.492-1.025-3.75-2.924-6.715-6.451-8.51Z" class="colora6e585 svgShape"></path><path fill="#6eb782" d="M234.439 189.789c.116-3.53 1.326-6.28 5.2-6.962 1.217-.214 1.524-1.056 1.818-1.99.55-1.752 1.3-3.237 3.45-3.423 1.03-.089 1.27-1.103 1.661-1.865a4.57 4.57 0 0 1 4.04-2.823 5.434 5.434 0 0 0 4.999-3.33 5.663 5.663 0 0 1 5.23-3.607 1.085 1.085 0 0 1 .49.138c-.258.283-.47.737-.781.822a6.49 6.49 0 0 0-4.162 3.827 5.457 5.457 0 0 1-5.069 3.352 3.75 3.75 0 0 0-3.784 2.594c-.425 1.023-1.02 2.006-2.225 2.093a2.719 2.719 0 0 0-2.553 2.404 3.577 3.577 0 0 1-3.405 3.04 3.668 3.668 0 0 0-3.069 2.78c-1.139 3.278-1.712 6.579-.637 9.992-.98.937-.001 1.848.045 2.774.443 3.033-.883 5.728-1.768 8.462-.63 1.944-2.444 2.945-4.35 3.603-2.758.951-5.565 1.764-8.287 2.81a20.753 20.753 0 0 0-9.382 6.663 10.871 10.871 0 0 0-2.46 6.112c-.053.937.042 2.002-1.076 2.511a.983.983 0 0 1-.687-.55c-.362-.85-.395-1.785-.69-2.654a6.319 6.319 0 0 1 .006-2.761 9.2 9.2 0 0 1 .532-1.968c3.124-5.717.227-10.161-2.895-14.67-3.466-5.006-8.03-8.185-14.106-8.922-5.155-.625-6.436-2.028-6.1-7.131.135-2.045.018-4.095.071-6.141.03-1.15-.17-2.371.785-3.308a2.111 2.111 0 0 1 1.177 1.178c1.4 2.779.541 5.752.712 8.632.177 2.997.503 3.518 3.513 3.937a22.318 22.318 0 0 1 16.401 10.526c1.099 1.706 2.14 3.459 3.292 5.118 1.279-.321 1.079-2.009 2.334-2.155a1.164 1.164 0 0 1 1.043.69c.421 3.06-1.035 5.597-2.285 8.184a1.008 1.008 0 0 1-.436.516c.567.181.181-.465.465-.539 3.005-4.32 7.818-5.58 12.35-7.298a33.905 33.905 0 0 1 3.37-.968c2.469-.653 3.384-2.23 4.471-4.627 2.142-4.721.776-8.755-.793-12.92-2.404-6.384-4.524-12.82-5.19-19.652.274-2.645-.988-5.052-1.181-7.625 1.96.238 1.914 1.983 2.304 3.264 2.151 7.058 3.521 14.334 5.899 21.329a5.343 5.343 0 0 0 .258 2.1c.05-.68-.46-1.663.897-1.544h-.003c.214.18.226.457.34.685a.72.72 0 0 1 .22-.703Z" class="color87b76e svgShape"></path><path fill="#daa39e" d="M305.792 74.926a.683.683 0 0 1-.355.723.683.683 0 0 1 .355-.723Z" class="colordaa79e svgShape"></path><path fill="#3a3e3b" d="M111.88 347.096c5.25 5.669 12.418 6.868 19.4 8.437 6.162 1.385 12.504 1.408 18.733 2.31a3.205 3.205 0 0 0 .584.026c6.332-.253 12.64.444 18.948.709 21.73.91 43.46.234 65.187.493a1.985 1.985 0 0 1 1.503.308 5.287 5.287 0 0 1-2.767.26c-13.46.021-26.92-.065-40.378.068-5.047.05-10.1.919-15.145.469-8.266-.737-16.56-.1-24.804-.626-9.464-.602-18.946-1.393-28.161-3.972a34.957 34.957 0 0 1-10.605-4.734c-1.694-1.168-1.867-1.425-2.495-3.748Z" class="color3e3a3a svgShape"></path><path fill="#404441" d="M332.842 347.357c-2.508 2.177-5.757 2.779-8.712 3.94a75.357 75.357 0 0 1-18.97 4.278c-4.036.471-8.047 1.157-12.087 1.59-2.597.279-5.233.164-7.819.659a.606.606 0 0 1-.652-.468c.09-.662.647-.578 1.098-.612 7.539-.566 14.984-1.884 22.48-2.765a86.01 86.01 0 0 0 23.216-6.44 5.55 5.55 0 0 1 1.436-.193Z" class="color444040 svgShape"></path><path fill="#464b47" d="M333.417 346.762a2.391 2.391 0 0 1 2.016-.963 2.296 2.296 0 0 1-1.438 1.534 1.7 1.7 0 0 1-.578-.571Z" class="color4b4646 svgShape"></path><path fill="#404441" d="m333.417 346.762.578.57-1.153.025-.01-.011.585-.584Z" class="color444040 svgShape"></path><path fill="#e8e8e8" d="M208.04 229.104a2.32 2.32 0 0 0 .063.547c2.769 6.043 4.968 12.204 3.971 19.03-1.697 2.097-2.273.363-2.67-.916-1.126-3.626-1.7-7.387-2.458-11.102-.19-.93-.146-1.938-1.082-2.53-1.147.498-.523 2.046-1.843 2.71-.978-3.825-1.405-7.657-2.392-11.36-.602-2.258-.97-4.576-1.651-6.816-.173-.566-.02-1.489-1.105-1.31a78.683 78.683 0 0 0-1.62 8.427c-.36 1.822-1.105.92-1.603.157-1.078-1.652-1.376-3.632-2.107-5.433-.669-1.647-1.012-3.516-3.307-5.17.03 12.374.017 24.075-1.21 35.721.806-7.874 1.097-15.773 1.216-23.678.047-3.118-.013-6.237.025-9.355.008-.62-.356-1.56.483-1.78.946-.249 1.244.708 1.58 1.383a50.846 50.846 0 0 1 2.332 6.295 5.05 5.05 0 0 0 1.358 2.54c1.186.912 1.197-.125 1.258-.934.863-2.52.258-5.4 1.894-7.73 1.938 2.607 1.841 5.829 2.605 8.782a112.756 112.756 0 0 1 2.845 15.613c0-1.542-.632-3.66.187-5.766.25-.642.324-1.49 1.12-1.49.878-.001.84.91.966 1.547.726 3.707 1.358 7.435 2.397 11.073.369 1.292.65 2.764 2.598 2.336 1.463 4.447 5.504 6.985 7.938 10.708a13.265 13.265 0 0 0 4.903 4.744c.984 2.458-.815 4.814-.257 7.255a5.173 5.173 0 0 1 .046.847c-.395 2.594-2.44 3.853-4.337 5.15a10.518 10.518 0 0 0-4.432 5.191c-.075.261-.164.517-.25.774-.43.969 0 2.243-1.048 2.994l-3.988-.01c-2.175-1.738-.961-4.335-1.64-6.45a3.064 3.064 0 0 1 .051-.851c1.41-2.001.296-2.62-1.567-2.826a68.288 68.288 0 0 1-10.99-1.364c-1.002-.227-2.392-.474-2.215-1.838.163-1.253 1.494-1.354 2.573-1.44a14.618 14.618 0 0 1 4.071.173 21.051 21.051 0 0 0 8.959-.389c1.117-.466 2.747-.615 2.451-2.311-.29-1.667-1.831-1.76-3.228-1.79-.484-.01-.967.035-1.456.038-3.692.03-7.331-.734-11.028-.635-1.082.03-2.383-.303-2.413-1.594-.029-1.278 1.257-1.614 2.33-1.736a20.875 20.875 0 0 1 6.648.447c1.606.335 3.188.89 4.863.585 1.913-.591 2.859-1.72 2.098-3.79a6.98 6.98 0 0 0-.463-.588c-.1-.08-.19-.166-.29-.246a15.016 15.016 0 0 0-2.579-1.355c-.988-.48-1.309-1.116-.545-2.053 2.069-2.813-.665-2.81-2.098-3.565a18.653 18.653 0 0 0-8.29-1.244 5.58 5.58 0 0 0-5.314 4.57c-1.487 6.133-3.043 7.275-9.4 6.911-1.391-.474-1.344-1.359-.403-2.143 1.12-.933 2.416-1.645 3.263-1.441-1.1-.198-2.513.666-3.812 1.786-.729.63-1.266 1.501-2.302 1.73-4.498-.05-7.749-2.776-11.072-5.26-1.03-.77-.717-2.102-.628-3.285.461-6.107 2.194-12.06 2.152-18.225 1.867-5.477 1.107-11.227 1.491-16.829.554-8.076 3.461-14.394 10.168-19.082a16.018 16.018 0 0 1 22.264 3.431 26.19 26.19 0 0 1 5.424 18.91l.07 2.92c.432.743-.072 1.655.433 2.385Z" class="colore8e8e8 svgShape"></path><path fill="#ea4335" d="M214.453 287.558c.18-1.179-.194-2.454.612-3.524 2.241 3.463 5.89 3.782 9.467 4.155 4.53.473 9.09.283 13.64.327-4.445-.06-8.9.122-13.33-.32-3.686-.37-7.412-.679-9.778-4.164.362-2.636 2.18-4.172 4.186-5.582 1.886-1.325 3.901-2.535 4.75-4.875 3.042.544 5.914 2.069 8.766 1.73a18.53 18.53 0 0 1-8.847-2.327 3.261 3.261 0 0 1-.28-2.51c.238-1.727.929-3.379.84-5.155a1.789 1.789 0 0 1-.274-2.085c2.001-.164 3.404 1.812 5.156 1.47.668.133.36-.374.388.016.004.064-.088.063-.283.03a8.52 8.52 0 0 1-5.446-2.777c-.237-2.872-.352-5.713 1.834-8.029a174.483 174.483 0 0 0 23.02 1.332 2.476 2.476 0 0 1 1.355.46c1.175 1.317.821 2.931.872 4.466-.209 3.39-2.825 6.146-2.548 9.667a15.456 15.456 0 0 1-.61 1.975 7.473 7.473 0 0 1-.276.734c-.136.365-.278.73-.429 1.091-.213.71-.921.913-1.39 1.363a4.595 4.595 0 0 1-4.922.26 4.686 4.686 0 0 0 5.46-.641c4.556 1.89 8.428 9.568 6.833 13.541-.987 1.882-.689 4.269-2.318 5.898a5.476 5.476 0 0 1-3.621.8c-6.411.005-12.833.23-19.228-.09-3.527-.177-7.183.061-10.59-1.319a10.042 10.042 0 0 1-3.009-5.917ZM254.926 320.43a9.001 9.001 0 0 1-4.734 1.219c-2.501.01-4.986.148-7.506.039a127.687 127.687 0 0 0-19.785 1 2.028 2.028 0 0 1-.291.018 112.503 112.503 0 0 0-12.525.645 3.853 3.853 0 0 1-3.062-.635c-.77-.882-.09-1.287.56-1.7 2.518-.701 3.952-2.616 5.246-4.686.99-.907 2.22-.605 3.351-.58 4.672.105 9.32-.337 13.983-.433-5.164.169-10.32.586-15.496.38a1.712 1.712 0 0 1-1.299-.552 17.13 17.13 0 0 0 .084-8.248 10.895 10.895 0 0 1-.006-2.873 2.323 2.323 0 0 1 2.48.095c5.632 2.444 11.638 2.979 17.642 3.133 5.582.143 11.223.594 16.73-.928a7.661 7.661 0 0 1 1.645 5.67 6.297 6.297 0 0 0 2.906 6.14q.27.1.253.292-.018.215-.088.215l.471.612a.472.472 0 0 1 .263.568 1.42 1.42 0 0 1-.47.53l-.352.08Z" class="coloraa6a4f svgShape"></path><path fill="#e8e8e8" d="M298.815 266.547c.32 2.558.571 5.128.991 7.67a23.13 23.13 0 0 1 .203 3.434c-.134 3.55-1.593 6.732-2.786 9.984-1.379 3.759-1.95 4.071-6.033 3.547a55.327 55.327 0 0 1-6.948-.723c-.805-.289-.903-.937-.827-1.658.392-3.76-.51-7.34-1.573-10.88a3.699 3.699 0 0 1 1.006-3.881 139.033 139.033 0 0 0 12.706-18.032 5.919 5.919 0 0 0 .605-3.395c.288-1.01.962-1.238 1.898-.944 1.94 2.228.769 4.91 1.089 7.376a32.111 32.111 0 0 1-.246 3.353 10.517 10.517 0 0 1-.599 1.734 5.677 5.677 0 0 1-.354.822c-1.933 4.46-2.17 9.372-3.746 13.938-1.065 3.088-1.983 6.226-3.229 9.248-.045.173-.151.329-.195.495-.052.197-.453.25-.224.55.11-.112-.15-.282.084-.402.147-.077.222-.274.308-.44 3.034-7.151 4.664-14.708 6.521-22.2.714-.747 1.015-.116 1.35.404ZM246.272 274.626l.63-1.625a1.698 1.698 0 0 1 .438-.608l-.002.003c7.367.37 14.893-1.369 22.047 1.881a16.267 16.267 0 0 0 6.814 1.374c2.021-.013 2.446 1.037 1.771 2.605a74.99 74.99 0 0 1-4.703 9.383c-1.5 2.467-3.97 1.266-6.101 1.218l-13.948-.671c.1-5.754-2.894-9.924-6.94-13.555Z" class="colore8e8e8 svgShape"></path><path fill="#ea4335" d="M220.985 296.988a6.135 6.135 0 0 1-2.404-2.336c1.811-1.105 3.827-.695 5.693-.49 8.175.896 16.359.38 24.54.388.593 0 1.439-.573 1.451.672l-.01.017q-.29.28-.56.583c-.688 1.458-2.268 2.044-3.359 3.273 1.892 1.51 4.001 2.758 3.93 5.498-.852 2.135-2.753 2.79-4.712 2.852-8.84.28-17.684.305-26.35-1.827-2.229-.549-4.632-1.14-5.245-3.957a4.647 4.647 0 0 1 .04-.575 7.43 7.43 0 0 1 .53-.555c1.936-1.34 4.37-1.355 6.411-2.413a1.51 1.51 0 0 1 1.65.012 29.243 29.243 0 0 0 15.691 2.106 3.053 3.053 0 0 1 .936-.06c-6.172.756-12.52.493-18.232-3.188Z" class="coloraa6a4f svgShape"></path><path fill="#e8e8e8" d="M209.246 287.537c-4.367.2-8.734.427-13.103.597-10.586.413-21.15 1.112-31.675 2.35a11.012 11.012 0 0 1-1.45-.015c1.124-1.476.385-3.517 1.518-4.995 5.024.05 10.036.346 15.013-.86 3.787-.917 7.58-1.622 10.672-4.273a4.865 4.865 0 0 1 4.131-.989c2.015.37 4.054.368 6.08.555a5.887 5.887 0 0 1 .95.195 12.466 12.466 0 0 0 4.816.095c.935-.085 1.904-.378 2.68.461.306 2.284 1.165 4.537.368 6.879Z" class="colore8e8e8 svgShape"></path><path fill="#c6c6c7" d="M267.166 288.857c4.02.76 5.942-1.407 7.215-4.873.866-2.36 2.18-4.554 3.274-6.831.073-.151-.007-.375-.024-.757-4.644.457-8.82-1.48-13.12-2.75a20.194 20.194 0 0 0-9.516-.446c-2.77.524-5.149-.17-7.657-.804a2.273 2.273 0 0 1 .493-1.862 14.156 14.156 0 0 0 7.435.7 25.635 25.635 0 0 1 13.196 1.611 20.795 20.795 0 0 0 9.998 1.6c2.814-.336 4.987-1.449 6.34-4.014 3.1-5.872 8.126-10.48 10.886-16.579a1.766 1.766 0 0 1 .844-.78c1.271 1.136.207 2.3-.248 3.14a41.807 41.807 0 0 1-5.064 7.794 31.645 31.645 0 0 0-3.487 5.008 19.52 19.52 0 0 1-4.891 6.092c-.492.374-.907.693-.642 1.413a36.475 36.475 0 0 1 2.044 13.94c-1.22.002-2.47.252-3.608-.43a4.223 4.223 0 0 0 1.707-4.06 28.514 28.514 0 0 0-1.191-6.599c-.21-.704-.279-1.709-1.265-1.736-.767-.021-1.033.811-1.35 1.399a55.64 55.64 0 0 0-2.627 5.546c-.688 1.705-1.295 3.49-2.783 4.738-2.004.073-4.02.294-5.96-.46Z" class="colorc7c6c6 svgShape"></path><path fill="#e7e7e7" d="M273.125 289.317a115.875 115.875 0 0 1 5.277-11.683 3.993 3.993 0 0 1 .887-1.141c.77-.68 1.495-.508 1.845.42a27.494 27.494 0 0 1 1.913 11.7c-.118 1.712-1.504 1.126-2.413 1.416a45.087 45.087 0 0 1-7.51-.712Z" class="colore7e7e7 svgShape"></path><path fill="#404341" d="M252.845 329.732a5.448 5.448 0 0 1 3-1.106c8.338-.297 16.533-1.793 24.781-2.872a84.991 84.991 0 0 0 21.068-5.385 15.156 15.156 0 0 0 6.025-4.48c1.474-1.78 1.435-3.216.02-5.018a10.461 10.461 0 0 0-5.035-3.34 45.03 45.03 0 0 0-9.278-2.39 12.826 12.826 0 0 1-2.154-.766c2.56-.78 4.44.07 6.24.521a48.68 48.68 0 0 1 8.444 3.179c4.458 2.05 5.231 7.135.677 10.456a40.557 40.557 0 0 1-13.535 5.978c-5.72 1.554-11.609 2.075-17.435 3-6.025.958-12.12 1.246-18.14 2.19a32.605 32.605 0 0 1-4.678.033Z" class="color434040 svgShape"></path><path fill="#92423b" d="M213.96 301.66c1.97 3.223 5.384 3.509 8.58 4.082a108.718 108.718 0 0 0 20.807 1.215 9.73 9.73 0 0 0 6.919-2.364l.03 1.732a9.106 9.106 0 0 1-5.991 1.815c-3.895-.076-7.808.203-11.684-.08-6.26-.459-12.612-.705-18.326-3.862a2.934 2.934 0 0 0-.85-.174 5.432 5.432 0 0 0 .514-2.363Z" class="color92543b svgShape"></path><path fill="#974942" d="M250.265 295.222c-1.097-.995-2.177.103-3.283.076-5.808-.142-11.637.196-17.426-.164-3.659-.227-7.308-.49-10.975-.482a2.06 2.06 0 0 1-1.12-1.177c11.135.82 22.29.514 33.44.608a1.276 1.276 0 0 1-.636 1.14Z" class="color975b42 svgShape"></path><path fill="#e6e6e7" d="M300.566 282.356a50.719 50.719 0 0 1-1.15 9.944 10.533 10.533 0 0 1-4.043-.614c1.08-3.841 3.007-7.357 4.006-11.16 1.475.172.729 1.31 1.187 1.83Z" class="colore7e6e6 svgShape"></path><path fill="#444745" d="M134.332 311.64c2.548-3.785 6.642-5.362 10.572-6.894a127.935 127.935 0 0 1 18.114-5.307 2.382 2.382 0 0 1 1.864.149 8.578 8.578 0 0 1-2.915.96c-7.253 1.792-14.446 3.791-21.235 6.997a14.37 14.37 0 0 0-5.827 4.675 1.11 1.11 0 0 1-.573-.58Z" class="color474444 svgShape"></path><path fill="#3b3f3c" d="m255.445 319.777.04-.525h18.697a19.221 19.221 0 0 1-6.04 1.186c-3.498-.077-6.945.942-10.466.57-.936-.1-1.977.302-2.75-.578l.046-.052a1.826 1.826 0 0 0 .473-.6Z" class="color3f3b3b svgShape"></path><path fill="#404441" d="M207.584 321.015c-.22.556-.659 1.04-.562 1.7-1.557 1.238-3.387.67-5.044.55-2.686-.192-5.345-.772-8.01-1.224a1.583 1.583 0 0 1-1.247-.953c4.225.063 8.256 1.334 12.887.989-2.65-1.63-5.628-2.291-6.637-5.282 2.523 2.168 5.186 3.97 8.613 4.22Z" class="color444040 svgShape"></path><path fill="#95463f" d="M213.368 315.145c3.995-.001 7.99.004 11.983-.009a20.074 20.074 0 0 0 5.208-.446 4.494 4.494 0 0 1 3.543.244c-.174.87-.747.784-1.179.77-6.711-.206-13.38.99-20.094.626a1.173 1.173 0 0 1 .54-1.185Z" class="color95593f svgShape"></path><path fill="#95453e" d="M220.985 296.988c3.028.964 5.937 2.229 9.166 2.642 2.24.287 4.449.145 6.666.288a13.954 13.954 0 0 1 3.718.243 26.864 26.864 0 0 1-17.686-1.362c-.625-.254-1.271-.455-1.908-.681l.044-1.13Z" class="color95573e svgShape"></path><path fill="#3d403e" d="m134.332 311.64.573.58c-1.248 2.308-.407 4.159 1.365 5.702a18.914 18.914 0 0 0 3.92 2.52 5.987 5.987 0 0 1 2.654 1.767 11.733 11.733 0 0 1-9.13-5.374c-1.204-1.865-.324-3.55.618-5.194Z" class="color403d3d svgShape"></path><path fill="#cdcdce" d="m300.566 282.356-.887-1.372a76.294 76.294 0 0 1-4.306 10.702 7.567 7.567 0 0 1-4.183-.504c4.023-.163 4.006-.169 5.404-4.117 1.114-3.146 2.275-6.276 3.415-9.413l.616 2.945a.773.773 0 0 1 .056 1.124Z" class="colorcecdcd svgShape"></path><path fill="#404441" d="M255.014 318.64a3.264 3.264 0 0 1-.164-.506 10.026 10.026 0 0 1 6.601-.938 13.058 13.058 0 0 1-6.437 1.445Z" class="color444040 svgShape"></path><path fill="#4285f4" d="M209.246 287.537c.293-2.336-.782-4.545-.633-6.867a.44.44 0 0 1 .646-.126 5.03 5.03 0 0 1 .608 3.056 10.592 10.592 0 0 0 .598 3.948Z" class="colorc6c6c6 svgShape"></path><path fill="#92423b" d="m214.53 300.531-.532.555.532-.555Z" class="color92543b svgShape"></path><path fill="#974942" d="m249.695 295.821.56-.583-.56.583Z" class="color975b42 svgShape"></path><path fill="#85e59f" d="M207.538 223.799c-1.115-2.257-.645-4.76-1.083-7.135-1.962-10.655-7.79-16.031-17.253-17.967a7.346 7.346 0 0 0-4.783.935 27.374 27.374 0 0 0-11.402 10.116c-1.84 2.981-1.993 6.448-2.347 9.812a116.765 116.765 0 0 0-.682 13.657 7.368 7.368 0 0 1-1.32 4.1c-.916 2.037-2.851 2.066-4.493 1.798-9.924-1.623-15.54 4.616-20.977 11.25a4.435 4.435 0 0 1-.798.84c-3.136.35-2.864-2.24-2.923-3.895-.154-4.37-.46-8.716-.946-13.056a10.92 10.92 0 0 1 1.288-7.29c.288-.367.608-.71.922-1.052a16.517 16.517 0 0 1 1.694-2.03c3.357-2.464 6.293-5.454 10.04-7.448 4.877-2.595 10.179-3.66 15.453-4.9-6.604 1.339-13.125 2.891-18.755 6.897-1.67 1.187-3.179 2.551-4.73 3.876-.627.534-1.531 1.995-2.495.193-.65-4.534-.253-9.084-.27-13.626.066-1.767-.084-3.595 1.364-4.983a36.662 36.662 0 0 1 3.739-16.739 44.726 44.726 0 0 1 4.522-6.684l.012-.01c2.29-2.763 4.521-5.578 6.893-8.269 1.273-1.444 3.21-2.221 4.22-3.973 2.39-2.703 4.992-5.127 8.423-6.472 2.142 1.807 3.13 4.412 4.553 6.703a116.669 116.669 0 0 0 8.134 11.683 13.132 13.132 0 0 0 1.742 1.53c-.19 3.784.28 7.577-.344 11.361-.312 1.89.797 3.277 2.725 3.92a7.896 7.896 0 0 0 1.976.454c7.197.437 12.35 4.153 16.117 10.054 1.358 2.128 2.572 4.349 3.878 6.512a2.701 2.701 0 0 1 .162 2.994c-1.191 2.124-1.05 4.71-2.256 6.844Z" class="colora6e585 svgShape"></path><path fill="#b6837f" d="m151.303 180.468-.791-.241c.446-.543.593-.048.803.23Z" class="colorb6827f svgShape"></path><path fill="#d18f8a" d="M142.514 250.732a4.408 4.408 0 0 1 1.173-2.603 37.607 37.607 0 0 1 12.109-9.281 8.43 8.43 0 0 1 5.89-.653 8.227 8.227 0 0 0 6.984-.88c.509 4.304-.238 8.521-1.141 12.675-.499 2.291-.1 4.662-.93 6.895a1.412 1.412 0 0 0 .619 1.787c2.962 1.635 5.688 3.73 8.978 4.724a8.944 8.944 0 0 0 2.01.143c.825-.553 1.56.573 2.378.128a21.955 21.955 0 0 0 5.46-.723c2.544-.466 3.19-1.286 3.243-3.956a8.122 8.122 0 0 1 .698-3.39 5.724 5.724 0 0 1 4.837-3.679c3.417-.256 6.777-.063 9.882 1.624-.78 5.036-.78 5.036-6.252 4.278 2.574.88 5.266.284 7.958-.005-.213.425-.501.85.215 1.111a7.484 7.484 0 0 1 3.229 1.76c-3.319 2.31-3.32 2.317-1.111 5.326-1.363.872-2.8.598-4.205.199a26.308 26.308 0 0 0-6.596-1.03c-1.325-.032-2.688-.161-3.974 1.61l14.15 1.022a6.676 6.676 0 0 0 2.362 5.209 16.716 16.716 0 0 1-9.405.82 18.063 18.063 0 0 0-6.888-.015 2.465 2.465 0 0 0 2.248 1.53c3.368.398 6.704 1.066 10.106 1.178a2.456 2.456 0 0 1 1.638.486c-1.385 1.679.522 2.12 1.145 3.043q-.034.24-.065.48l-.646.124c-1.898.13-3.763.645-5.69.45-.66-.067-1.352.042-1.878-.503l.119-.112-.113.116a26.894 26.894 0 0 1-6.361-.45 4.274 4.274 0 0 0-4.131.818c-3.776 3.61-8.708 3.883-13.41 4.877-4.333.917-8.66.533-12.994.073a28.482 28.482 0 0 1-9.357-2.517c-.971-.398-1.954-.767-2.932-1.15-1.926-.767-4.125-.874-5.545-2.794a26.006 26.006 0 0 1-2.5-4.595 16.042 16.042 0 0 1-.725-2.508 1.839 1.839 0 0 1-.593-1.772c.173-.447.571-.944.485-1.334-.973-4.408-.238-8.868-.478-13.294-.561-1.182-2.098-1.538-2.454-2.896.774-.829 2.112-1.067 2.458-2.346Z" class="colord19e8a svgShape"></path><path fill="#b87671" d="M215.176 140.043c1.362.752 3.42.774 3.442 2.982.023 2.49 1.864 5.283-1.468 7.758.732-2.987.307-5.493.223-8.191-1.239.252-.965 1.056-1.114 1.61-.822-1.266-.619-2.8-1.083-4.159Z" class="colorb88471 svgShape"></path><path fill="#d18f8a" d="M232.754 228.486a8.382 8.382 0 0 0 1.126-.895c2.741-3.053 6.195-2.923 9.844-2.41 3.41.481 6.686 1.928 10.228 1.465a3.387 3.387 0 0 1 2.99-.438c1.634.843 3.013 2.097 4.595 2.833-.518-.978-2.981-.51-2.233-2.687 4.101-.938 7.909-2.85 12.059-3.626 4.253.327 8.34-1.069 12.54-1.303-3.232.031-6.353 1.418-9.636.89a2.087 2.087 0 0 1-.673-3.042 3.353 3.353 0 0 1 1.253-2.226 71.158 71.158 0 0 1 7.51-6.881 19.872 19.872 0 0 1 11.65-3.935 34.06 34.06 0 0 1 9.553.594c1.354.025 2.326.919 3.434 1.501.652.564-.98 1.393.228 1.895 1.756 2.343 2.316 5.755 5.852 6.489.75 1.216 1.27 2.594 2.47 3.496 1.475 2.754 3.297 5.31 4.643 8.14.171 1.48.486 2.94.64 4.426-.677 2.472-1.52 4.855-3.586 6.571a49.512 49.512 0 0 1-5.127 3.172c-3.637 1.392-7.19 2.998-10.884 4.24a12.954 12.954 0 0 1-4.309.669c-5.742.572-10.997-1.441-16.325-3.058a11.834 11.834 0 0 0-2.584-.594 6.924 6.924 0 0 1-.843-.178 6.368 6.368 0 0 0-2.094-.302 18.46 18.46 0 0 1-5.116-.893c-1.16-.648-.49-1.458-.192-2.193a9.293 9.293 0 0 0-.985 2.37 11.553 11.553 0 0 1-6.402 4.733 3.967 3.967 0 0 0-3.15 3.934 19.528 19.528 0 0 1-1.46 5.593c-.986 2.47-2.361 4.692-5.532 4.673-.623-.447-.413-1.059-.12-1.491 1.109-1.63.587-2.999-.549-4.317-.838-3.488-.05-6.842.76-10.217a11.834 11.834 0 0 0 .536-3.071c-1.655 2.643-3.973 4.958-3.69 8.415-.802.732-1.637 1.425-2.465 2.13a6.023 6.023 0 0 1-3.045.837c-3.204.17-3.851-.33-4.478-3.881-.952 2.38-2.053 4.2-4.724 3.721a4.213 4.213 0 0 1-1.671-.766c-1.362-1.195-1.453-2.81-1.482-4.448-.49-3.893-.653-7.737 1.784-11.16 2.1-1.28 2.796-3.898 4.926-5.157-1.838 1.127-2.697 3.144-4.209 4.573a18.307 18.307 0 0 1-8.08 4.497c-2.178.534-4.476.912-6.121-1.331a1.661 1.661 0 0 1-.059-1.289c1.285-1.193 3.205-1.568 4.15-3.206 1.22-.798 2.735-.965 3.918-1.843.211-.149.433-.282.654-.414 1.526-.82 2.227-2.404 3.332-3.614a2.942 2.942 0 0 1 1.149-.99Z" class="colord19e8a svgShape"></path><path fill="#e8e8e8" d="m257.322 226.77-3.371-.123a52.805 52.805 0 0 1 2.748-9.894c-.307-1.171.434-1.722 1.301-2.199 1.67-1.562 3.368-1.396 5.336-.416a42.558 42.558 0 0 1 7.085 4.575c.996.772 1.956 1.275 3.174.558a6.062 6.062 0 0 0 .693 2.769l-.113.379a1.926 1.926 0 0 1-.589.513c-.717.233-1.382.832-2.207.315-1.71.59-3.463 1.078-5.12 1.79a27.44 27.44 0 0 1-7.21 1.733 1.372 1.372 0 0 1-1.727 0Z" class="colore8e8e8 svgShape"></path><path fill="#6eb782" d="M261.243 186.189a9.401 9.401 0 0 1-3.563 3.941c-5.52 4.044-6.886 9.572-5.985 15.971.496 3.52 1.427 6.983 1.364 10.58-1.221-4.687-2.856-9.284-2.794-14.212.07-5.585 2.03-10.199 6.772-13.452a30.976 30.976 0 0 0 2.585-2.354c.396-.344.712-1.017 1.621-.474ZM232.754 228.486a1.338 1.338 0 0 1-.6 1.123c-3.436-5.941-2.578-10.879 2.63-15.132 4.661-3.808 4.718-3.835 2.027-9.434-.9-1.872-.973-3.935-1.755-5.809-.65-1.007-.896-1.915.586-2.403 1.386 2.454 1.774 5.28 2.944 7.827.73 1.588 1.605 3.086 2.386 4.638.658 1.307.684 2.295-.686 3.224-1.437.973-2.626 2.32-4.084 3.25-4.097 2.613-5.18 6.216-3.872 10.737.187.646.285 1.319.424 1.98Z" class="color87b76e svgShape"></path><path fill="#6eb782" d="m258 214.554-1.301 2.2c-2.13 1.239-2.932 3.551-4.521 5.707a5.939 5.939 0 0 1 1.749-4.313c.725-.913 1.456-1.817 2.15-2.758a5.172 5.172 0 0 0 .904-4.649 30.739 30.739 0 0 1 1.177-18.372c.715 2.027-.21 3.536-.443 5.047a35.343 35.343 0 0 0-.013 11.013 54.293 54.293 0 0 1 .298 6.125ZM281.877 181.082l.574 1.125a16.186 16.186 0 0 0-11.648.043 16.73 16.73 0 0 0-9.94 10.038c-.32.806-.596 1.63-.91 2.439-.02.053-.178.053-.38.106a6.983 6.983 0 0 1 .857-4.12c2.486-5.496 6.82-8.702 12.61-10.299 3.124-.861 5.918.158 8.837.668ZM272.984 215.355c.3-5.973 4.759-10.02 9.488-8.669.127.307.034.657-.268.628-4.481-.425-6.292 2.635-7.854 5.999-.349.75-.343 1.71-1.366 2.042Z" class="color87b76e svgShape"></path><path fill="#85e59f" d="M211.04 218.526c.053-2.552 1.747-4.622 2.08-7.093.076-.564.192-1.123.289-1.684 1.784-4.91 3.732-9.752 5.926-14.493a2.391 2.391 0 0 1 1.092-1.305 25.98 25.98 0 0 0 3.905-9.9 55.727 55.727 0 0 0 1.371-11.769c1.314 2.427 1.332 5.202 2.058 7.79 1.312 4.678 3.04 9.205 4.604 13.792a32.788 32.788 0 0 1 1.279 4.468c.318 1.686.725 3.438-.815 4.902a2.882 2.882 0 0 0-.684 2.462c.259 2.32-1.149 3.356-3.056 3.972-2.305.744-4.643 1.39-6.94 2.157a29.47 29.47 0 0 0-11.127 6.681Z" class="colora6e585 svgShape"></path><path fill="#b5736d" d="M220.427 193.951q-2.86 7.15-5.716 14.3a2.563 2.563 0 0 1-1.303 1.497l-.637-.627a38.388 38.388 0 0 0-11.867-15.066c-.579-.457-1.316-.912-.996-1.881 6.974-1.602 12.306-5.147 14.564-12.321a71.116 71.116 0 0 0 1.754-6.706 90.812 90.812 0 0 1 4.2 20.804Z" class="colorb5806d svgShape"></path><path fill="#85e59f" d="M199.908 192.174c1.216 1.097 2.373 2.271 3.661 3.275a36.272 36.272 0 0 1 7.7 9.044 6.943 6.943 0 0 1 1.503 4.628c-1.098 1.022-.68 2.814-1.876 3.814-1.173-.327-1.22-1.45-1.703-2.224-2.305-3.693-4.269-7.706-7.979-10.233-3.277-2.231-6.686-4.347-10.914-4.3-.56.006-1.117-.368-1.686-.405-1.772-.114-2.245-1.133-2.213-2.74.07-3.398.043-6.797.056-10.195 3.037 2.685 5.977 5.487 9.54 7.512a12.09 12.09 0 0 0 3.91 1.824Z" class="colora6e585 svgShape"></path><path fill="#424342" d="M193.48 176.948a1.473 1.473 0 0 0 .557-.097c2.36-.33 4.766-.573 6.523-2.46.82-.881 1.994-.466 2.912-.93 2.532-.196 4.909.576 7.58.885a4.484 4.484 0 0 1-2.894 2.672c-.418.373-.708.91-1.318 1.04a5.244 5.244 0 0 1-.83.183 3.664 3.664 0 0 0-1.943.483c-2.532 2.009-5.523 2.585-8.613 2.888-.76.164-1.47.497-2.217.712-.128.01-.257.017-.385.024-.887-.28-1.678.185-2.514.31-.997.149-2.048.44-3.159-.53a46.324 46.324 0 0 0 5.123-4.575c.251-.476.847-.283 1.177-.605Z" class="color434242 svgShape"></path><path fill="#85e59f" d="M232.125 189.783c-2.455-7.031-3.904-14.342-5.963-21.482-.367-1.27-.522-2.689-1.64-3.643.182-1.524-1.072-2.63-1.185-4.069 2.885-.157 3.704 2.054 4.571 4.098a49.04 49.04 0 0 1 2.89 11.217c.666 4 1.498 7.969 2.098 11.979.123.818.69 1.752-.771 1.9Z" class="colora6e585 svgShape"></path><path fill="#434544" d="M210.753 153.25c-3.987 2.424-7.722 5.031-11.761 7.15a7.707 7.707 0 0 1-1.33.596c-.891.268-1.774.288-2.285-.679-.522-.99-.037-1.673.817-2.162a69.177 69.177 0 0 1 10.074-5.25c1.42-.53 2.943-1.053 4.485.345Z" class="color454443 svgShape"></path><path fill="#b5736d" d="M203.472 173.46a10.292 10.292 0 0 0-3.492 2.4 2.912 2.912 0 0 1-2.79 1.094c-1.046-.094-2.102-.073-3.153-.103.45-.635 1.242-.426 2.012-.716a41.472 41.472 0 0 1-3.747-12.127c1.153-.165 1.196.72 1.442 1.242a25.611 25.611 0 0 0 3.354 5.454 11.06 11.06 0 0 0 1.829 1.87c1.353 1.006 1.693.834 2.426-.83.185-.419.119-.99.659-1.257.688.9-.523 2.734 1.46 2.973Z" class="colorb5816d svgShape"></path><path fill="#7c524e" d="m206.94 177.542 1.218-.524a38.77 38.77 0 0 1-.503 3.424c-1.057 5.631-5.607 6.7-9.881 5.56-1.98-.53-3.99-1.49-4.922-3.655l.028-.195a3.859 3.859 0 0 1 1.726-.016c5.28 1.559 9.251-.301 12.334-4.594Z" class="color7c4e4e svgShape"></path><path fill="#6eb782" d="M232.125 189.783c.602-.401.487-.947.37-1.545-1.112-5.76-2.237-11.518-3.287-17.29a52.937 52.937 0 0 0-2.12-6.912c-.602-1.844-2.327-2.487-3.752-3.448l-1.142-1.766c3.485.395 5.149 2.803 6.307 5.74a60.021 60.021 0 0 1 2.838 10.963c.9 4.75 1.7 9.52 2.542 14.282-1.347.897.331 2.094-.297 3.294a5.51 5.51 0 0 1-1.46-3.318Z" class="color87b76e svgShape"></path><path fill="#444544" d="M188.281 162.323c-.004 1.404-.52 2.125-1.648 2.325a19.883 19.883 0 0 1-3.724.51c-2.222-.027-4.476-.068-6.35 1.485a.697.697 0 0 1-1.026.041.936.936 0 0 1-.12-1.078 4.565 4.565 0 0 1 2.5-2.297c2.96-1.332 6.189-1.447 9.312-2.028.958-.178 1.047.608 1.056 1.042Z" class="color454444 svgShape"></path><path fill="#bf7c76" d="M176.28 154.535c1.184-1.456 2.752-.847 3.985-1.42a21.522 21.522 0 0 0 6.069-3.989 9.243 9.243 0 0 1 8.304-2.574c1.386.206 2.783.501 4.198.644l-.038.576a21.89 21.89 0 0 1-4.847-.305c-2.612-.747-4.585.24-6.42 1.772a25.86 25.86 0 0 1-7.062 4.585 6.535 6.535 0 0 1-4.19.711Z" class="colorbf8a76 svgShape"></path><path fill="#b3726d" d="M180.023 168.802c-.396-.146-1.212-.272-.562-.818a8.18 8.18 0 0 1 5.236-2.178c.967-.007 1.935.009 2.903.014a.736.736 0 0 1 .154.747 2.442 2.442 0 0 1-1.92 1.356c-1.279 1.078-2.932 1.133-4.429 1.618a1.669 1.669 0 0 1-1.382-.74Z" class="colorb3806d svgShape"></path><path fill="#b5736e" d="M200.527 162.311a7.529 7.529 0 0 1 8.126-4.245 7.925 7.925 0 0 1-1.305 2.163c-1.283.574-2.692.922-3.65 2.066a4.905 4.905 0 0 1-2.903.276 38.05 38.05 0 0 1-.268-.26Z" class="colorb5816e svgShape"></path><path fill="#ba7872" d="M215.909 151.724c2.154 4.902 1.413 10.057 1.284 15.159-.119-5.08-.969-10.096-1.284-15.159Z" class="colorba8672 svgShape"></path><path fill="#c07e79" d="M204.59 162.952c1.252 1.115 2.162.007 3.042-.577a20.94 20.94 0 0 0 2.43-2.216c-.425 3.384-6.407 5.715-9.051 3.854-.609-.429-1.47-.81-.484-1.702l.111.117a5.458 5.458 0 0 0 1.677.387 3.65 3.65 0 0 0 1.69-.158.724.724 0 0 1 .585.295Z" class="colorc08d79 svgShape"></path><path fill="#c07d77" d="M188.122 166.445a3.901 3.901 0 0 1-1.36 4.407 11.772 11.772 0 0 1-5.386 1.964c.815-1.497 2.146-1.273 3.089-1.732 1.12-.547 2.504-.74 2.53-2.41-.315-1.091.61-1.557 1.127-2.229Z" class="colorc08b77 svgShape"></path><path fill="#464b47" d="M181.26 169.315c1.187-1.444 3.122-.909 4.55-1.717q.276.121.268.336-.009.238-.08.238c-1.123 2.327-2.124 2.692-4.772 1.742a.37.37 0 0 1-.118-.407q.08-.192.152-.192Z" class="color4b4746 svgShape"></path><path fill="#484c49" d="m204.59 162.952-.614.005a.56.56 0 0 1-.7-.002.75.75 0 0 1 .004-.733c.726-1.926 2.215-2.442 4.104-2.222.298.043.39.194.245.469-.53 1.418-1.837 1.887-3.039 2.483Z" class="color4c4a48 svgShape"></path><path fill="#be7b75" d="M190.972 153.197a.74.74 0 0 1 .743.665c.734 2.253 1.087 4.617 2.16 6.773-1.722-1.786-1.796-1.99-2.903-7.438Z" class="colorbe8975 svgShape"></path><path fill="#c07d77" d="M179.414 150.008a7.795 7.795 0 0 1-6.975 2.664c2.52-.402 4.524-2.077 6.963-2.678Z" class="colorc08b77 svgShape"></path><path fill="#bf7d77" d="M188.368 157.04c1.111 1.651 2.423 3.322 1.344 5.571Z" class="colorbf8b77 svgShape"></path><path fill="#ba7873" d="M193.48 176.948a1.454 1.454 0 0 1-1.178.605 2.378 2.378 0 0 0-.882-1.764 2.876 2.876 0 0 1-.672-3.22 13.327 13.327 0 0 0 2.731 4.379Z" class="colorba8673 svgShape"></path><path fill="#bf7a74" d="M196.297 143.81c-1.408.095-2.722.789-4.505.77 1.586-1.65 3.15-.672 4.505-.77Z" class="colorbf8874 svgShape"></path><path fill="#dde1e9" d="M207.629 160.469a1.097 1.097 0 0 0-.245-.469c-.497-1.249.274-1.665 1.27-1.933 1.264 1.485-.294 1.767-1.025 2.402Z" class="colore9e0dd svgShape"></path><path fill="#dbe1ea" d="m185.999 168.172-.19-.574 1.789-1.257a.373.373 0 0 1 .581.108l-.057-.004c.101.985-.682 1.522-1.127 2.23l-.996-.503Z" class="coloreae0db svgShape"></path><path fill="#d5dbe5" d="m181.26 169.315-.034.599c-.577.784-1.33.376-1.75.003-.794-.702.455-.681.547-1.116a1.282 1.282 0 0 1 1.237.514Z" class="colore5dad5 svgShape"></path><path fill="#c07d77" d="M179.402 149.994c.467-1.085 1.465-1.26 2.44-1.474a2.899 2.899 0 0 1-2.428 1.488ZM188.18 166.449l-.582-.108q.002-.26.002-.521l.58.629Z" class="colorc08b77 svgShape"></path><path fill="#d5d9e0" d="m298.958 263.097-.031 2.836-.111.614-1.101-.586a1.45 1.45 0 0 1-.017-1.779l-.01.016c.374-.298.24-.856.595-1.164l.037-3.563c1.911.91 1.314 2.261.638 3.626Z" class="colore0d6d5 svgShape"></path><path fill="#ee665b" d="M234.439 189.789c-.067.265.135.696-.362.68-.074-.003-.133-.43-.199-.66a3.768 3.768 0 0 0 .56-.02Z" class="coloree895b svgShape"></path><path fill="#85e59f" d="M235.056 199.234a2.23 2.23 0 0 1 .948 1.423 46.38 46.38 0 0 0 3.596 8.26c.987 1.997.909 2.41-.859 3.612-1.525 1.038-2.954 2.186-4.406 3.317-3.654 2.848-3.926 5.833-3.04 9.807.293 1.317.95 2.555.858 3.956-1.071 1.473-1.822 3.224-3.564 4.117-1.9-1.298-1.655-3.431-1.813-5.265-.183-2.13-.665-4.217-.742-6.356-.03-.818.058-1.843-1.25-1.84-.233.14-.458.27-.68.42a7.503 7.503 0 0 0-3.599 5.425 59.085 59.085 0 0 0-.564 21.134c.125-2.58-1.613-5.09-.097-7.661 1.795 1.586 3.841 1.437 5.94.843a27.6 27.6 0 0 0 8.058-4.334.753.753 0 0 1 .01 1.164c-1.952 2.798-2.275 5.927-1.886 9.208.079.663.08 1.336.116 2.004-1.63 1.146-3.694.462-5.39 1.292-1.637.928-.16 2.292-.471 3.403a1.92 1.92 0 0 1-.541 1.073c-.48 2.725-1.39 5.392-1.126 8.22q.257.188.173.38-.084.19-.17.19l-.078 2.288a3.093 3.093 0 0 1-3.188-1.529 48.175 48.175 0 0 0-7.286-8.575c-1.442-1.338-1.74-3.164-1.948-5.005-.449-.309-.76-.67-.48-1.257.399-4.527-.571-8.86-1.892-13.137a30.387 30.387 0 0 1-1.582-6.16c.648-.48.586-1.19.572-1.865-.094-4.542 2.465-7.663 5.7-10.318a28.069 28.069 0 0 1 10.445-5.007 50.493 50.493 0 0 0 5.251-1.762 5.55 5.55 0 0 0 3.82-5.026c.167-2.17 1.746-4.11 1.165-6.439Z" class="colora6e585 svgShape"></path><path fill="#fbbc05" d="M208.04 229.104c-.72-.69-.555-1.542-.432-2.386.691.697.477 1.557.433 2.386ZM211.022 218.506c-.042.082-.101.238-.122.233-.188-.044-.138-.128.14-.213Z" class="colorffad85 svgShape"></path><path fill="#c8c8c9" d="m211.577 248.948.481 1.256c-2.201.592-2.257.61-2.903-1.4a134.092 134.092 0 0 1-3.01-13.345c-.95 1.079-.894 1.08-.997 4.94-.045 1.683.51 3.498-1.024 5.556-.452-9.886-2.49-18.976-4.809-28.015-.477-.508-.928-1.026-.616-1.804.157-.813.643-1.1.984-.245a23.412 23.412 0 0 1 1.283 4.445c.96 5.27 2.628 10.387 3.332 15.752.448-1.274.015-2.783 1.25-3.81 1.135.11 1.184 1.09 1.356 1.887.816 3.77 1.559 7.554 2.39 11.32a23.67 23.67 0 0 0 1.076 3.3c.254.667.773.32 1.207.163Z" class="colorc9c8c8 svgShape"></path><path fill="#c8c8c8" d="M197.565 225.544c0 .097.004.195 0 .292-.026.687.01 1.503-.826 1.671-.629.126-1.007-.509-1.31-.996a19.634 19.634 0 0 1-1.825-4.292 17.886 17.886 0 0 0-2.417-5.555c-1.012.162-.612.91-.616 1.377-.038 5.073-.176 10.151.003 15.218.17 4.788-.808 9.497-.686 14.276.042 1.608-.793 3.17-1.004 4.847a35.738 35.738 0 0 1 .076-5.77 27.57 27.57 0 0 0 .382-4.34c.058-8.468.95-16.917.589-25.395a7.308 7.308 0 0 1 .068-1.165.979.979 0 0 1 .664-.884c.399-.101.697.206.934.546a22.838 22.838 0 0 1 2.551 5.54c.59 1.647 1.122 3.324 1.85 4.91.38.83.857.557.985-.278.193-.26.387-.274.582-.002Z" class="colorc8c8c8 svgShape"></path><path fill="#b97772" d="M206.41 257.816a7.062 7.062 0 0 1-6.275.612c-1.398-.442-3.042.316-4.691-.734 1.505-.965 2.7-.227 3.93-.076a35.437 35.437 0 0 0 4.175.037c0-1.524-.721-3.243 1.154-4.111a3.695 3.695 0 0 1 1.875.671c1.83 1.279 1.793 2.087-.168 3.601Z" class="colorb98672 svgShape"></path><path fill="#b77570" d="M210.48 273.023c-3.03-1.35-3.436-2.246-2.362-5.21a16.22 16.22 0 0 1 2.597.011 2.879 2.879 0 0 1 2.5 2.144c.323 1.326-.508 2.186-1.63 2.746a5.837 5.837 0 0 1-1.105.309Z" class="colorb78470 svgShape"></path><path fill="#b6746f" d="M208.743 266.013a2.602 2.602 0 0 1-2.405-2.75 2.23 2.23 0 0 1 1.557-2.182 4.816 4.816 0 0 1 1.959-.395 2.99 2.99 0 0 0 .647.55c1.144 2.757.907 3.4-1.758 4.777Z" class="colorb6826f svgShape"></path><path fill="#96463f" d="M223.919 272.978c3.491.74 6.845 2.227 10.524 2.009-3.757 1.645-7.122.287-10.443-1.412l-.081-.597Z" class="color96583f svgShape"></path><path fill="#b6746e" d="M209.324 280.065a3.109 3.109 0 0 1-1.871-.472c-.563-.497-1.225-.994-.954-1.87.257-.831 1.093-.52 1.68-.701.095-.003.19-.013.285-.008.926.047 2.111-.212 2.426.956.304 1.129-.767 1.593-1.566 2.095Z" class="colorb6826e svgShape"></path><path fill="#c8c9ca" d="M180.584 263.667c-.843.908-1.603.257-2.377-.128a8.404 8.404 0 0 1 4.075-3.114c1.451-.614 2.758-.437 4.5 1.148-2.547-.47-4.428-.506-5.944.927-.34.322-.778.646-.254 1.167Z" class="colorcac8c8 svgShape"></path><path fill="#c9c9ca" d="M182.57 224.115c-1.535.654-2.298-.339-3.116-1.133-1.844-1.793-3.622-3.633-3.875-6.41 2.176 2.637 3.467 6.04 6.992 7.543Z" class="colorcac9c9 svgShape"></path><path fill="#cbcbcb" d="m197.565 225.544-.582.002c.683-3.116.715-6.351 1.717-9.41a3.887 3.887 0 0 1 .615 1.804c-.936 1.277-.89 2.845-1.088 4.286-.157 1.13-.483 2.205-.662 3.318Z" class="colorcbcbcb svgShape"></path><path fill="#d18f8a" d="m210.501 261.237-.646-.552a.769.769 0 0 1 .646.552Z" class="colord19e8a svgShape"></path><path fill="#e8e8e8" d="M252.031 261.168c2.87-.365 4.426-2.26 5.179-4.8a73.162 73.162 0 0 0 1.718-7.61 1.71 1.71 0 0 1 1.595-1.65 13.613 13.613 0 0 0 7.913-5.025c.29-.513.697-.457 1.14-.236l5.852.717c1.19 1.545.77 3.458.757 5.09a58.647 58.647 0 0 0 4.385 23.638c-.636-2.251-1.907-4.943-2.605-7.82a59.273 59.273 0 0 1-1.507-9.208c-.243-3.01.01-6.035-.377-9.043-.108-.838-.375-2.079 1.159-2.194q.253.057.501.136a51.15 51.15 0 0 0 10.133 15.037c-3.21-3.495-6.61-7.551-8.742-12.5-.42-.976-1.442-2.46 1.038-2.08a10.99 10.99 0 0 1 3.91.923 31.603 31.603 0 0 0 12.99 2.11 3.732 3.732 0 0 1 .672 5.235 1.095 1.095 0 0 0-1.212 1.183 19.847 19.847 0 0 1-3.85 7.438 81.796 81.796 0 0 0-7.466 10.71 7.622 7.622 0 0 1-6.42 3.952 21.276 21.276 0 0 1-9.684-1.288 27.746 27.746 0 0 0-12.214-2.089 10.197 10.197 0 0 0-2.588.315c-1.954.686-3.831.033-5.705-.43-.532-.131-.632-.682-.772-1.145-.12-2.513.06-4.932 1.632-7.083a4.477 4.477 0 0 0 .838-2.702c.72-.452 1.246-.104 1.73.419Z" class="colore8e8e8 svgShape"></path><path fill="#93433c" d="m225.68 254.236-.005-1.166c2.243-.967 4.39.257 6.517.51 5.348.637 10.671.314 16.005.377 1.015.012 2.175-.397 2.932.726a1.699 1.699 0 0 1-.008 1.024.576.576 0 0 1-.84.305c-3.604-.004-7.217.145-10.811-.052-4.627-.254-9.3-.31-13.79-1.724Z" class="color93553c svgShape"></path><path fill="#92433c" d="M215.064 284.032c2.914 2.55 6.361 3.298 10.164 3.694 4.633.482 9.274.324 13.898 1.069-3.672 0-7.346-.053-11.017.018a27.358 27.358 0 0 1-7.23-.648c-2.446-.613-5.026-1.14-5.814-4.131Z" class="color92553c svgShape"></path><path fill="#b87873" d="M250.281 256.012q.249-.032.5-.051c.394.587.806-.3 1.204.015 1.739.206 2.098 1.3 1.556 2.716a15.297 15.297 0 0 1-1.51 2.476c-.657.19-1.147-.308-1.73-.42l-.02-4.736Z" class="colorb88673 svgShape"></path><path fill="#984841" d="M236.013 265.167c2.66.622 5.38-.195 8.106.483-1.841 1.383-5.613 1.203-8.106-.483Z" class="color985b41 svgShape"></path><path fill="#96463f" d="M246.274 274.629c-.276 1.531-1.664 1.73-2.696 1.73a41.343 41.343 0 0 1-5.743-.804 2.724 2.724 0 0 1 3.037-.675 7.423 7.423 0 0 0 5.402-.251Z" class="color96583f svgShape"></path><path fill="#96443d" d="M252.28 288.094c-2.927 1.357-6.012.409-9.041.315l9.084-.976Z" class="color96563d svgShape"></path><path fill="#974740" d="M224.558 263.026a.991.991 0 0 1-.004-.57 53.22 53.22 0 0 0 6.511 2.543c-2.46.186-4.807.089-6.507-1.973Z" class="color975940 svgShape"></path><path fill="#c6c6c7" d="m247.34 272.393-.438.608a.51.51 0 0 1 .438-.608Z" class="colorc7c6c6 svgShape"></path><path fill="#34a853" d="M255.445 319.777a.65.65 0 0 1-.473.601l.473-.6Z" class="color595959 svgShape"></path><path fill="#cacacb" d="m297.698 264.182.017 1.779a120.53 120.53 0 0 1-5.457 20.108 5.566 5.566 0 0 1-1.583 2.724l-.005-.004c-.185-1.554.808-2.76 1.28-4.104a185.342 185.342 0 0 0 5.134-19.25 1.882 1.882 0 0 1 .614-1.253Z" class="colorcbcaca svgShape"></path><path fill="#cacacb" d="M298.283 263.034a1.175 1.175 0 0 1-.595 1.164 1.175 1.175 0 0 1 .595-1.164Z" class="colorcbcaca svgShape"></path><path fill="#cccccd" d="m290.675 288.793-.223.775c-.537-.43-.045-.572.218-.779Z" class="colorcdcccc svgShape"></path><path fill="#6eb782" d="m142.517 224.39.024-1.196a46.845 46.845 0 0 1 11.858-8.319c4.469-2.029 9.21-2.958 13.957-3.907a1.758 1.758 0 0 1 1.88.384c-.025.715-.58.637-1.032.697a49.157 49.157 0 0 0-15.32 4.306 28.03 28.03 0 0 0-8.104 5.61 20.467 20.467 0 0 1-3.263 2.425Z" class="color87b76e svgShape"></path><path fill="#d9a29d" d="M141.362 226.156q-.3.282-.598.565l-.043-.052c-.079-.491.042-.763.603-.546Z" class="colord9a69d svgShape"></path><path fill="#bb7872" d="M165.722 257.753a10.184 10.184 0 0 1-6.917-4.933c2.247 1.727 4.805 3.017 6.917 4.933Z" class="colorbb8672 svgShape"></path><path fill="#bc7a74" d="M188.482 275.3a3.844 3.844 0 0 1-.114-4.73 9.078 9.078 0 0 1 .114 4.73Z" class="colorbc8874 svgShape"></path><path fill="#b97771" d="M188.989 264.251c.49.966 1.319 1.868.603 3.16-1.22-.97-.681-2.129-.603-3.16Z" class="colorb98571 svgShape"></path><path fill="#ba7771" d="M189.565 281.117c-1.97-.995-2.143-2.097-1.76-3.745l1.76 3.745Z" class="colorba8571 svgShape"></path><path fill="#c17d77" d="M199.4 260.965c-.016.02-.17.37-.34.378-.312.016-.293-.328-.246-.567.055-.275.224-.499.532-.451.22.034.267.227.054.64Z" class="colorc18b77 svgShape"></path><path fill="#bc7a74" d="M200.469 271.273c-.05.23.006.599-.343.526-.116-.024-.184-.48-.193-.743a.9.9 0 0 1 .217-.461c.318.111.302.405.319.678Z" class="colorbc8874 svgShape"></path><path fill="#c37f79" d="M201.05 280.62c.077-.432.068-.968.757-.77.246.07.672.366.498.486a3.395 3.395 0 0 1-1.26.28Z" class="colorc38d79 svgShape"></path><path fill="#85e59f" d="M228.012 233.793c-1.017 1.417-2.585 1.532-4.114 1.738a7.078 7.078 0 0 1-3.843 1.941 1.044 1.044 0 0 1-.665-.603c-.542-3.49.207-6.888.686-10.31.419-2.991 2.472-4.897 4.43-6.88l-.015.016c2.132-.648 1.572 1.147 1.724 2.05.673 4.003.68 8.107 1.797 12.048Z" class="colora6e585 svgShape"></path><path fill="#a95750" d="M250.897 255.474c-.12-.48-.213-.889-.92-.819a109.409 109.409 0 0 1-11.392.146 41.71 41.71 0 0 1-12.91-1.731c-.128-1.308-1.363-2.625.035-3.919 1.936 2.382 4.727 2.88 7.504 3.413l1.213.48c3.62.011 7.23.492 10.852.263a1.426 1.426 0 0 0 1.385-.894c.54-.937 1.076-1.88 2.377-1.828a1.703 1.703 0 0 1 2.6.799c-.251 1.362.974 2.993-.744 4.09Z" class="colora96a50 svgShape"></path><path fill="#85e59f" d="M240.097 248.387c-1.863.056-2.262-.405-1.944-2.057a27.924 27.924 0 0 1 3.418-8.598 3.872 3.872 0 0 1 2.573-2.187c.965-.178 1.796.706 1.221 1.301-2.377 2.463-1.95 5.76-2.822 8.663-.14.464-.35.907-.47 1.374a1.756 1.756 0 0 1-1.976 1.504Z" class="colora6e585 svgShape"></path><path fill="#6eb782" d="M224.506 219.68c.013 1.121-.813 1.738-1.526 2.36a8.49 8.49 0 0 0-2.517 5.119 40.656 40.656 0 0 0-.602 10.112.989.989 0 0 1 .298.58 1.001 1.001 0 0 1-.306.576l-.01 1.156c-.301 3.244.505 6.42 1.021 10.24a4.201 4.201 0 0 1-1.457-3.121c-.764-5.487-1.293-10.989-.318-16.528.267-1.52.284-3.077.686-4.598.713-2.692 2.038-4.825 4.73-5.897Z" class="color87b76e svgShape"></path><path fill="#c8c8c8" d="M277.24 243.027a2.107 2.107 0 0 0-.628 1.855 62.225 62.225 0 0 0 3.147 22.677c.657 1.856 1.533 3.677 1.48 5.747a36.655 36.655 0 0 1-3.39-8.229 43.69 43.69 0 0 1-1.841-14.682c.15-2.632-.883-5.184-.58-7.832.651-.027 1.322-.134 1.812.464Z" class="colorc8c8c8 svgShape"></path><path fill="#94443d" d="M233.214 252.564c-2.32 1.046-4.172-.407-6.153-1.156a1.94 1.94 0 0 1-1.35-2.258 14.718 14.718 0 0 1 6.37-.682c.021 1.464-.025 2.946 1.133 4.096Z" class="color94563d svgShape"></path><path fill="#85e59f" d="M251.332 251.34a5.178 5.178 0 0 0-2.29-.754c-.498-.524-1.286-.825-.714-1.878a82.721 82.721 0 0 1 4.9-8.463c.2 3.84-1.129 7.42-1.896 11.095Z" class="colora6e585 svgShape"></path><path fill="#c8c8c9" d="M280.17 243.62c-.787.147-1.283.448-.835 1.372a40.03 40.03 0 0 0 3.897 6.802c2.135 2.832 4.278 5.654 6.668 8.324a6.115 6.115 0 0 1-2.823-2.16c-3.448-3.695-6.615-7.596-8.632-12.302a5.677 5.677 0 0 1-.704-2.494c.842-.019 1.731-.29 2.429.458Z" class="colorc9c8c8 svgShape"></path><path fill="#92433c" d="M246.664 252.413c.358.173 1.16.087.605.828a1.46 1.46 0 0 1-1.047.386c-3.604.016-7.209.008-10.813-.042-.33-.005-.654-.352-.982-.54 2.703-.248 2.76-.233 3.533-3.078.348-1.278 1.214-1.078 2.048-.953 1.133.17.612.904.456 1.544-.58 2.382-.505 2.457 1.902 2.453a10.897 10.897 0 0 0 4.298-.598Z" class="color92553c svgShape"></path><path fill="#6eb782" d="M228.012 233.793c-1.544-2.18-1.452-4.798-1.667-7.245-.17-1.938-.721-3.817-.721-5.767 0-.711-.49-1-1.133-1.086.135-.829.504-1.42 1.297-.638a4.521 4.521 0 0 1 1.078 2.94c.333 3.366.754 6.724 1.183 10.08a8.97 8.97 0 0 0 .54 1.649q-.289.028-.577.067Z" class="color87b76e svgShape"></path><path fill="#bd7a74" d="m271.38 223.247 2.269-.651a3.92 3.92 0 0 0 .634-.553l.005-.003c2.576-.313 5.158-.587 7.726-.96a5.724 5.724 0 0 1 2.973.018c-1.415 1.527-3.358.909-4.955 1.34-2.296.622-4.751.67-7.09 1.277a1.347 1.347 0 0 1-1.563-.468Z" class="colorbd8874 svgShape"></path><path fill="#d4dae5" d="M251.332 251.34a106.65 106.65 0 0 1 1.896-11.096c1.036.973.612 2.147.35 3.226a42.204 42.204 0 0 0-1.592 12.506c-.401-.098-.828 1.95-1.206-.015a1.532 1.532 0 0 0 .117-.487c1.034-1.285.38-2.747.435-4.134Z" class="colore5d9d4 svgShape"></path><path fill="#be7c76" d="M297.211 220.026h-9.537a12.578 12.578 0 0 1 9.537 0Z" class="colorbe8a76 svgShape"></path><path fill="#ba7771" d="m233.853 237.256-.01-1.164c1.58-2.285 3.078-4.655 6.07-5.715-.021.865-.678 1.186-1.088 1.626-1.644 1.764-3.313 3.504-4.972 5.253Z" class="colorba8571 svgShape"></path><path fill="#bc7670" d="m219.853 238.427.018-.597a3.398 3.398 0 0 1 .501-.57c.793-1.356 2.212-1.437 3.527-1.73-.494 2.16-2.076 2.8-4.046 2.897Z" class="colorbc8470 svgShape"></path><path fill="#bb7973" d="M259.01 241.752c.832 1.48.756 2.983.264 4.95-1.259-1.86-.77-3.414-.263-4.95Z" class="colorbb8773 svgShape"></path><path fill="#c17d77" d="M257.322 226.77h1.727c1.118 1.346 3.228 1.6 3.823 3.56-1.654-1.517-4.104-1.737-5.55-3.56Z" class="colorc18b77 svgShape"></path><path fill="#c27f79" d="m269.575 241.847-1.139.236a6.442 6.442 0 0 1 2.703-3.516c.05 1.572-1.69 2.01-1.564 3.28Z" class="colorc28d79 svgShape"></path><path fill="#c07d77" d="M247.518 241.902c-.192.145-.384.4-.613.44a.942.942 0 0 1-1.084-.657c-.171-.539.252-.598.63-.452.373.144.958-.036 1.067.67Z" class="colorc08b77 svgShape"></path><path fill="#c17f79" d="M236.72 238.488c.374.072.755.224.806.617.043.332-.306.38-.541.264-.314-.156-.72-.336-.837-.611-.098-.231.318-.28.571-.27Z" class="colorc18d79 svgShape"></path><path fill="#c9cacb" d="M258.943 225.21a6.406 6.406 0 0 1 3.693-5.262c-1.203 1.78-2.528 3.467-3.693 5.262Z" class="colorcbc9c9 svgShape"></path><path fill="#d18f8a" d="M274.283 222.043a.778.778 0 0 1-.634.553l.634-.553Z" class="colord19e8a svgShape"></path><path fill="#4d7a59" d="M194.641 181.071a5.032 5.032 0 0 1 1.128-.285 12.762 12.762 0 0 0 8.02-2.832 3.728 3.728 0 0 1 2.548-.419c-1.508 4.443-7.693 7.009-11.558 4.772-.492-.285-.46-.781-.138-1.236Z" class="color7a4d4d svgShape"></path><path fill="#447050" d="M194.641 181.071a1.143 1.143 0 0 0 1.115 1.112c4.379.383 8.425.022 10.581-4.648l.602.007c-1.45 4.218-5.442 6.55-10.172 5.76a9.84 9.84 0 0 1-3.887-1.15 4.148 4.148 0 0 1 1.761-1.08Z" class="color704444 svgShape"></path><path fill="#dbdee4" d="m203.28 162.222.19.67c-.345.392-.926.21-1.3.533a3.887 3.887 0 0 1-1.533-.997c.88-.088 1.716-.727 2.643-.206Z" class="colore4e0db svgShape"></path><path fill="#d18f8a" d="M202.17 163.425a1.69 1.69 0 0 1 1.3-.533.815.815 0 0 1 .506.065c-.477.639-1.15.519-1.806.468ZM220.372 237.26l-.501.57a2.804 2.804 0 0 1-.01-.559q.256-.007.511-.01Z" class="colord19e8a svgShape"></path></g></g></svg>