<svg xmlns="http://www.w3.org/2000/svg" viewBox="0 0 412.845 380.362" id="StreetMusician"><g fill="#fbbc05" class="color000000 svgShape"><g fill="#fbbc05" class="color000000 svgShape"><path fill="#d3dff4" d="M395.256 240.304a331.851 331.851 0 0 1-24.344 33.477c-12.059 14.654-19.802 21.589-25.222 36.084-3.245 8.677-6.057 16.215-3.906 25.21 2.118 8.893-4.52 28.148-11.887 43.77H12.256c-12.127-28.728-7.846-52.89-7.846-52.89 3.336-18.868 13.368-34.15 24.778-51.525 16.089-24.504 21.281-23.229 31.301-41.732 4.669-8.631 12.184-48.906-4.805-93.063-12.183-31.678-9.211-38.76-8.551-53.551 1.537-34.49 24.174-57.469 26.736-59.996C100.217.115 134.024.035 146.914 0c35.8-.091 52.014 7.435 63.332 15.076 8.096 5.454 67.762 62.683 76.325 69.583 14.153 11.41 30.482 14.61 49.122 18.253 15.19 2.972 16.374 1.241 26.086 4.35 1.594.512 22.478 7.413 35.652 22.614 24.97 28.808 16.18 80.514-2.175 110.427Z" class="colorf4e3d3 svgShape"></path><path fill="#e2e2e2" d="M298.807 271.009a18.971 18.971 0 0 1 10.07 11.652c.829 2.505 1.536 5.05 2.386 7.547.993 2.921.804 5.98 1.234 8.952.704 4.86.159 9.746.894 14.607a39.27 39.27 0 0 1-.19 9.64 65.865 65.865 0 0 1-1.975 10.613 42.087 42.087 0 0 1-8.576 16.507c-3.275 3.88-6.063 8.142-9.425 11.964a27.072 27.072 0 0 1-4.617 3.986 91.296 91.296 0 0 0-9.249 7.19 12.45 12.45 0 0 1-8.48 3.42 102.02 102.02 0 0 0-14.284 1.025 6.436 6.436 0 0 1-1.468.044c-5.1-.332-10.135.77-15.232.688a19.827 19.827 0 0 1-3.752-.264c-5.33-1.106-10.54-2.861-16.082-2.812a15.993 15.993 0 0 1-3.153-.599c-5.018-3.955-11.538-6.127-14.776-12.184-1.575-2.945-3.819-5.686-3.538-9.355a1.24 1.24 0 0 1 1.622-.009c6.751 4.266 14.406 4.593 22.024 5.153a33.783 33.783 0 0 0 7.093.184c-4.507.388-8.965-.322-13.404-.902-5.652-.739-11.186-2.017-16.102-5.12a3.99 3.99 0 0 0-2.265-.286c-6.453-2.604-12.405-.597-18.294 1.997-4.433.07-7.82-2.265-10.976-4.955-4.229-3.605-6.314-4.15-10.703-1.071-11.96 8.39-25.55 11.665-39.728 13.199-7.706.834-15.29 2.386-22.936 3.565-8.225 1.269-16.52 2.043-24.744 3.35a27.11 27.11 0 0 0-6.738 1.977c-2.425 1.068-3.128.538-3.241-2.148a16.31 16.31 0 0 1 .25-2.924 23.68 23.68 0 0 0-2.385-14.523 21.908 21.908 0 0 0 .13-9.867 3.748 3.748 0 0 1-.124-.87c.115-5.088-1.03-10.126-.62-15.226.737-9.172 2.103-18.225 5.529-26.832 2.097-5.27 4.245-10.515 6.797-15.6a79.76 79.76 0 0 1 8.45-13.35c.658-.844 1.256-1.734 1.9-2.627l-1.517-.955a21.228 21.228 0 0 0 4.746-4.222 61.892 61.892 0 0 1 17.098-13.675c5.36-1.287 10.864-1.316 16.306-1.804 3.105-.278 6.207-.95 9.355-.64 2.793-.221 4.64 1.102 6.445 3.216 5.427 6.356 12.052 11.405 18.75 16.342 1.73 1.276 3.44 2.582 5.17 3.858 1.184 1.787 3.297 2.554 4.625 4.187a73.408 73.408 0 0 1 6.508 12.826c2.084 5.368 5.073 9.689 10.662 11.807a8.73 8.73 0 0 1 2.695 1.767c1.294 1.677 1.678 3.754 2.494 5.643a17.294 17.294 0 0 0 3.167 6.852c3.256 4.532 6.343 9.167 7.579 14.771a25.666 25.666 0 0 1 .575 6.404 20.554 20.554 0 0 0 1.38 7.457c.285.818.529 1.849 1.577 1.9.93.046 1.121-.959 1.506-1.607.848-1.43 1.642-2.892 2.468-4.334a18.099 18.099 0 0 1 6.184-6.545c.855-.53 1.745-1.411 2.898-.512-.28 7.659 2.377 14.677 4.971 21.618a70.471 70.471 0 0 1-3.222-22.947 3.456 3.456 0 0 1-.073-.904 12.65 12.65 0 0 1 .184-1.32c1.072-7.337 4.455-13.182 10.96-17.034 2.778-1.646 4.968-4.053 7.55-5.957a10.988 10.988 0 0 1 2.647-1.39c13.267-5.554 25.127-13.058 34.13-24.544a9.872 9.872 0 0 1 2.653-2.71c4.633-3.054 9.546-5.272 15.194-5.701 4.586-.348 8.968.027 13.013 2.417Z" class="colore2e2e2 svgShape"></path><path fill="#d1918c" d="M164.184 139.147a27.817 27.817 0 0 0-2.593-7.898c-.535-1.098-1-2.32-2.328-2.783-3.506-4.15-6.419-8.595-6.619-14.258-.11-3.126-.027-6.258-.093-9.387.183-2.513-.52-5.125.812-7.511 1.54-1.938 3.698-2.42 6.014-2.521a27.355 27.355 0 0 0 4.979-.25c.953-.22 2.097-.503 1.944-1.775-.138-1.153-1.274-1.028-2.123-1.08a16.96 16.96 0 0 0-7.22.992 7.492 7.492 0 0 1-2.786.864c-1.567-.47-.99-1.719-.853-2.666a19.454 19.454 0 0 1 1.885-5.8c2.12-3.24 4.63-6.07 8.25-7.713a28.676 28.676 0 0 1 3.944-1.502c4.741-1.154 9.548-.425 14.325-.532a6.84 6.84 0 0 1 2.768.84c3.51 3.267 7.36 6.149 10.866 9.426a11.62 11.62 0 0 1 2.262 3.065c2.322 4.203 3.654 8.849 5.895 13.095 1.142 2.165.606 4.605.74 6.932.098 1.685-.399 3.456.594 5.322 2.407-2.453.48-5.797 2.21-8.131 3.046-4.575 6.749-7.755 12.77-6.001 1.37.84 1.633 2.27 1.958 3.668a5.673 5.673 0 0 1 .09.923 17.306 17.306 0 0 1-.635 4.475 5.891 5.891 0 0 1-.233.867c-1.903 4.695-3.878 9.343-8.388 12.26-3.679.201-4.62-.427-5.355-3.41-1.338 5.484-2.27 11.007-1.278 16.708-.062 4.935.765 9.603 4.066 13.53a2.02 2.02 0 0 1 .229.895c-.182 1.849-.24 3.727-1.225 5.396a39.606 39.606 0 0 0-5.752 17.346 44.225 44.225 0 0 1-5.407 18.336c-.502.949-.955 1.923-1.447 2.876-.822 1.521-1.962 2.868-2.495 4.549a13.828 13.828 0 0 0-.7 7.146c-.119 1.117-.994 1.633-1.785 2.195a78.166 78.166 0 0 0-11.57 9.913c-.85.898-1.657 1.998-3.15 1.884a14.48 14.48 0 0 1-7.384-8.998 21.19 21.19 0 0 1-1.145-9.782 9.02 9.02 0 0 0-1.612-6.088c-1.594-2.082-4.196-2.865-6.02-4.655a5.668 5.668 0 0 1-1.038-1.585c-1.913-6.906-2.076-13.97-1.917-21.059.69-1.207 1.674-.817 2.535-.342 2.07 1.143 4.149.857 6.271.25a110.74 110.74 0 0 0 7.538-2.469c4.523-1.652 4.786-1.518 5.653 3.189a.942.942 0 0 0 .44-.972c-.39-4.254 2.063-6.266 5.624-7.787a18.575 18.575 0 0 0 6.141-4.476c.386-.412.863-.999 1.468-.71.737.35.619 1.155.498 1.832-.19 1.062-.586 2.073-.82 3.125a18.027 18.027 0 0 0 .006 9.568c-1.311-3.888.103-7.41 1.273-10.977a15.902 15.902 0 0 0 1.058-6.912 5.368 5.368 0 0 1 .774-3.091 2406.9 2406.9 0 0 0 4.782-9.45c-1.065 1.93-3.285 3.366-5.66 4.547a81.521 81.521 0 0 0-9.878 5.768c-7.139 4.894-10.275 4.72-17.157-.577-.413-3.302-3.443-5.396-3.996-8.634Z" class="colord1a08c svgShape"></path><path fill="#a1bbe5" d="M166.91 193.894c1.854 2.205 2.235 4.666 2.048 7.557-.384 5.92.954 11.42 5.56 15.655.785.722 1.616 1.394 2.426 2.09.23 2.004-1.677 2.565-2.57 3.814a3.12 3.12 0 0 1-.694.45c-.135.03-.271.056-.407.084a1.631 1.631 0 0 1-.658-.482c-.351-.467-.261-1.297-1.163-1.517.123 1.06 1.036 1.25 1.463 1.854a1.171 1.171 0 0 1 .219.866 2.914 2.914 0 0 1-1.999 2.005c-17.93 1.413-35.716 3.989-53.505 6.552a6.698 6.698 0 0 1-2.329-.022c-1.83-.518-2.776-2.055-3.89-3.405a47.153 47.153 0 0 1-7.231-11.676c-1.305-3.085-1.005-5.54 1.113-8.354 5.525-7.341 9.702-15.378 10.533-24.773a.857.857 0 0 0-.045-.55c-.128-.187-.322-.184-.517-.022-.196.154-.386.296-.572.453-1.308 1.042-2.09 2.524-3.177 3.743-.601.673-.916 1.795-2.18 1.558-.338-2.415.583-4.641 1.114-6.908 1.228-5.24 2.572-10.432 5.38-15.14 5.968-10.005 14.41-16.301 26.094-18.05 3.085-.461 6.106-1.346 9.162-2.01a15.371 15.371 0 0 1 1.737-.184c-.032 2.046-1.684 3.228-2.602 4.793-1.287 2.195-2.89 4.198-4.062 6.472-.672 1.302-1.631 2.412-3.227 1.986-11.405-3.045-16.89 4.278-21.946 12.366 2.569-3.684 4.817-7.648 8.686-10.324a14.277 14.277 0 0 1 11.186-2.328c3.126.58 3.524 1.454 1.776 4.1a108.481 108.481 0 0 0-8.25 14.23 46.87 46.87 0 0 0-3.685 13.567 13.202 13.202 0 0 0 .886 6.283c1.519-.188 1.589-1.51 2.222-2.292 1.05-1.3 1.902-1.199 2.665.244a6.156 6.156 0 0 1 .371.8c3.4 9.528 9.88 16.812 15.807 22.251-6.913-5.389-11.79-14.293-15.463-24-1.255-3.315-.928-4.412 2.074-6.733 1.354-.274 1.57.697 1.902 1.654a102.335 102.335 0 0 0 9.506 19.219.665.665 0 0 1 .173.613c.444-.399-.307-.419-.227-.708-3.771-6.517-7.538-13.027-9.755-20.287a3.773 3.773 0 0 1-.326-1.984 4.402 4.402 0 0 1 2.182-2.635c.794-.467 1.715-.764 2.368.138 1.805 2.492 4.337 4.445 5.02 7.759a33.84 33.84 0 0 0 5.333 11.945c2.315 3.215 4.42 6.59 7.194 9.461-2.855-3.016-5.018-6.549-7.445-9.89a38.48 38.48 0 0 1-4.672-10.097c-1.002-3.166-.261-4.006 2.949-3.659 4.653.504 9.444.458 13.449 3.468Z" class="colora1aee5 svgShape"></path><path fill="#7b3933" d="M114.546 232.16c4.985-.203 9.863-1.27 14.801-1.865 6.778-.815 13.525-1.883 20.296-2.753a213.9 213.9 0 0 1 21.87-1.932c3.324-1.512 6.941-.95 10.393-1.223 5.43-.431 10.878-1.125 16.354-.794 1.574.324 3.046-.414 4.584-.468 1.503-.084 3.008-.067 4.512-.026.814.004 1.628-.04 2.441.012.636 0 1.272-.032 1.907-.012a39.636 39.636 0 0 0 6.52-.168 6.044 6.044 0 0 1 .948-.238 21.415 21.415 0 0 1 2.525-.215c11.437-.789 22.873.052 34.308.027a57.843 57.843 0 0 1 15.092 2.084c1.44.386 2.841.818 3.6 2.274a.262.262 0 0 1 .075.382c.666 2.219.225 3.858-2.301 4.41a68.492 68.492 0 0 1-17.289 3.167c-8.604.537-17.132 1.85-25.714 2.627-3.023.273-6.034.67-9.061.882-1.176-.168-2.268.336-3.41.448a28.988 28.988 0 0 1-3.38.073 11.522 11.522 0 0 0-3.727.342 11.514 11.514 0 0 1-2.384.251c-1.915.08-3.853-.256-5.738.337a7.755 7.755 0 0 1-1.475.22c-2.176.179-4.393-.264-6.53.467-11.115.173-22.107 1.922-33.186 2.545a11.978 11.978 0 0 0-1.714.34c-5.255.784-10.517 1.521-15.812 1.996a13.514 13.514 0 0 0-3.98.383c-4.045.86-8.13.582-12.21.444-8.169.38-16.288 1.363-24.432 2.027a19.09 19.09 0 0 0-2.566.56c-3.38 1.551-7.064 1.62-10.634 1.816a250.471 250.471 0 0 0-37.51 4.7 83.478 83.478 0 0 1-11.941 1.296 70.643 70.643 0 0 1-8.633.323 6.494 6.494 0 0 1-.865.056 5.885 5.885 0 0 1-1.253-.127 7.083 7.083 0 0 1-.784-.207 7.874 7.874 0 0 0-2.392-.243 4.428 4.428 0 0 1-1.713-.389 2.443 2.443 0 0 1-1.367-1.793c-.503-2.893 2.69-8.033 5.549-8.938.886-.376 1.805.214 2.696-.09 9.584-2.336 19.332-3.772 29.058-5.345 5.778-.935 11.529-2.033 17.292-3.058 4.6-1.879 9.52-2.143 14.349-2.876 6.632-.618 13.252-1.363 19.887-1.935a7.178 7.178 0 0 1 2.944.206Z" class="color7b4933 svgShape"></path><path fill="#ea4335" d="M153.91 97.462c-1 2.439-.145 5.012-.545 7.495-.924 1.721-2.025 2.482-3.603.666l-.54-.553c-1.782-4.313-2.131-8.845-1.822-14.015a14.597 14.597 0 0 0-1.449 6.484c-.021 1.219.288 2.572-.888 3.52a14.971 14.971 0 0 1-4.047-9.105c-.078-1.162-.72-2.232-.507-3.43a61.433 61.433 0 0 0 2.769-9.76c-1.98.776-.71 3.413-2.76 3.835a33.796 33.796 0 0 1-.665-9.481c.33-2.977.85-5.913 2.852-8.328a51.763 51.763 0 0 0 6.587-6.774c-2.276.97-3.285 3.726-6.048 3.372.312-3.341 2.32-5.479 5.087-7.015a18.244 18.244 0 0 1 5.456-2.037 7.79 7.79 0 0 0 4.413-2.619c1.121-1.22 2.327-2.362 3.499-3.534.275-.276.553-.552.852-.802 3.81-3.19 8.688-4.205 13.014-6.347a2.693 2.693 0 0 1 2.011-.028c.218 1.892-1.64 2.196-2.525 3.229a27.551 27.551 0 0 1-4.967 4.208c3.101-1.492 6.675-2.051 10.064-3.182.796-.266 1.819-.149 2.11-1.259 2.766-.04 5.528-.66 8.3-.044a2.085 2.085 0 0 1 1.285.54c-1.61 2.417-3.509 4.61-5.251 7.074 2.684-1.329 5.468-2.384 7.902-4.144 4.967-1.624 9.274-.324 13.133 2.965-.53 2.432-2.768 3.147-4.209 4.282 2.7-1.064 5.634-2.288 8.87-2.453 2.416.658 3.942 2.404 5.258 4.372a14.153 14.153 0 0 1 1.94 3.25c-1.848 1.493-4.07 1.29-6.238 1.444 2.918.009 5.565 1.532 8.5 1.466.794.7.75 1.738 1.048 2.636a14.733 14.733 0 0 0 .852 2.753 17.507 17.507 0 0 1 2.374 11.118c-.026.221.263.48.406.722a5.13 5.13 0 0 1-.365 4.025c-2.905.612-5.313-1.088-6.884-2.79-1.447-1.566 1.167-1.613 1.885-2.037.688-.185.124-.605.33-.27.034.054-.043.098-.218.163-2.903 1.072-5.973 1.092-9.596 1.58 6.84-1.267 10.602 2.892 14.655 6.444a4.482 4.482 0 0 1-.46 3.686 26.343 26.343 0 0 0-2.539 6.53c-.504 2.178-2.1 3.196-4.284 3.347a4.285 4.285 0 0 1-2.64-.597c-3.335-2.627-7.565-3.819-9.66-5.85 1.907 1.644 5.325 3.455 8.728 5.292-1.11 1.647-2.924 1.73-4.615 2.093-4.75-2.207-8.178-6.149-12.19-9.325-.678-.536-1.163-1.295-1.886-1.795-.958-2.008-2.717-3.268-4.34-4.657-2.66-2.276-5.575-4.268-7.83-6.998.761-1.034 1.926-.753 2.953-.886a19.158 19.158 0 0 0 7.444-2.716 29.794 29.794 0 0 1-12.633 2.881c-3.195.002-6.391.033-9.587-.006a22.472 22.472 0 0 0-5.744.557c.268-2.484 1.739-3.729 4.113-4.235a64.036 64.036 0 0 1 9.922-1.008 29.035 29.035 0 0 0 11.434-2.804c-3.786 2.22-9.13 1.552-14.198 2.373-.768.125-1.561.1-2.34.209-1.228.173-2.757.851-3.51-.477-.643-1.132.539-2.17 1.222-3.084a76.245 76.245 0 0 0 4.598-7.357c-4.632 5.765-9.105 12.21-14.773 17.665-3.139 1.723-5.377 4.409-7.601 7.11-1.441-1.945-.807-4.12-.583-6.196a25.851 25.851 0 0 1 4.387-11.293c-5.828 7.504-10.777 15.758-5.857 26.285a5.337 5.337 0 0 1 .144 3.62Z" class="colorc95353 svgShape"></path><path fill="#a1bbe5" d="M302.383 163.243a7.177 7.177 0 0 0-1.175 5.012c.42 3.177.72 6.374 1.255 9.532a13.799 13.799 0 0 0 4.045 7.306c1.874 2.906 4.068 5.62 5.321 8.897-2.02 1.302-4.417 1.92-6.196 3.717-.675.682-1.974.72-3.033.947a99.936 99.936 0 0 1-11.9 1.45 8.971 8.971 0 0 1-5.825-1.558 21.614 21.614 0 0 0-8.955-3.462 14.274 14.274 0 0 0-13.465 4.823c-2.4-1.362-3.01-3.962-4.281-6.106a21.988 21.988 0 0 0 4.126 6.555l-1.766 4.017a33.59 33.59 0 0 1-11.956-5.737 29.276 29.276 0 0 1-8.329-20.35c-.06-8.24 1.357-16.332 2.038-24.495.102-1.217.19-2.569 1.326-3.449a79.142 79.142 0 0 0 9.826 2.349 2.803 2.803 0 0 1 1.34.475c-2.71 5.664-1.12 11.552-.888 17.365a32.456 32.456 0 0 0 .89 5.904c-.858-5.94-2.037-12.604-.875-19.389.232-1.352.362-2.732 1.38-3.795 4.506-.03 9.123-.117 13.355 1.369 5.686 1.996 11.476 1.964 17.322 2.34 6.064.39 12.114.49 18.179.454.51 2.274-1.111 3.905-1.759 5.83Z" class="colora1aee5 svgShape"></path><path fill="#86423c" d="M243.613 150.342c-.834 7.644-1.69 15.286-2.495 22.933a30.814 30.814 0 0 0 8.285 25.29c-.086 1.417-1.182 1.214-1.909.942-5.139-1.925-10.302-3.844-13.182-9.08-.892-1.622-4.494-2.935-6.177-2.338-1.139.404-1.23 1.445-1.359 2.395-1.283 9.397-2.882 18.745-4.281 28.124-.243 1.63-.265 3.335-1.374 4.718-.785 0-1.57.002-2.395-.038-.957-1.344-.301-2.81-.102-4.218 1.302-9.22 2.93-18.39 4.286-27.601.15-1.019.495-2.072-.25-3.072-1.033.585-.99 1.548-1.11 2.376-1.408 9.696-2.564 19.426-3.808 29.144-.165 1.287-.325 2.578.984 3.37-1.015 1.095-2.342.517-3.548.608-1.153.088-2.319.017-3.479.015 2.589-2.982 2.812-6.746 3.138-10.36.652-7.226 1.898-14.37 2.668-21.575.128-1.192 1.267-3.207-.552-3.448-1.53-.203-1.465 2.021-1.655 3.301-1.441 9.69-2.868 19.38-4.395 29.056a5.207 5.207 0 0 1-.964 3.025l-2.363.003c-.977-1.14-.516-2.42-.314-3.649 1.479-8.969 2.604-17.991 4.067-26.962a22.582 22.582 0 0 0 .397-3.706c-.708-.025-.77.423-.833.75-1.96 10.175-5.534 19.98-6.95 30.283a5.516 5.516 0 0 1-1.076 3.29c-1.412-.083-2.683.844-4.12.58 1.538-3.194 1.855-6.681 2.46-10.105 1.257-7.125 3.718-13.957 5.16-21.04.412-2.025.867-3.75-2.248-3.223-.475.08-.85-.407-1.044-.895a2 2 0 0 1 .152-1.381c.113-.161.22-.396.38-.432 4.255-.972 4.787-4.299 5.423-7.902 1.777-10.076 3.43-20.175 5.661-30.212-1.757.49-3.11 2.497-4.807.367l-.18-.58a1.2 1.2 0 0 1 .153-.873c.114-.158.221-.38.388-.429 7.235-2.116 4.391-8.796 5.986-13.434.464-1.35-.972-1.029-1.803-.925-.962.121-2.051.488-2.487-.8-.421-1.246.215-2.058 1.354-2.545 8.074-3.168 16.6-3.113 25.478-3.01-1.617-1.99-3.534-2.349-6.604-2.207a48.361 48.361 0 0 0-19.008 4.506 1.51 1.51 0 0 1-.952-.167 1.874 1.874 0 0 1-.313-1.388c.341-1.768 1.653-2.522 3.172-3.145a49.172 49.172 0 0 1 21.54-3.364c-7.106-.681-13.942.66-20.68 2.825-1.178.378-2.579 1.549-3.481-.467a2.035 2.035 0 0 1 .063-.873 5.23 5.23 0 0 1 2.512-1.927 2.86 2.86 0 0 0 1.765-1.829c.263-1.039.406-2.261 1.716-2.479 1.485-.246 1.232 1.546 2.076 2.064 1.102-.131.956-1.17 1.401-1.743.797-1.027 1.628-1.492 2.54-.154 1.35 1.982 2.516 1.303 3.651-.213 1.831-2.446 1.904-2.494 3.59-.099.842 1.198 1.45 1.214 2.134.028 1.143-1.982 2.188-2.128 3.236.058.3.626.649 1.292 1.504 1.136.819-.15.94-.91 1.142-1.557a18.826 18.826 0 0 0 .539-6.993c-.09-1.283-.951-1.69-2.08-1.326a25.027 25.027 0 0 1-9.758 1.622c-1.886-.134-4.206 1.042-6.433 1.054-.62.004-1.67.546-1.602-.851a1.025 1.025 0 0 1 .084-.48c.304-.272.198-.863.454-.992 2.28-1.154.945-2.436.185-3.707l-.01-.606a28.762 28.762 0 0 0 3.016-4.283c.721-1.574 2.018-1.983 2.887.06.638 1.499 1.368 1.461 2.325.342.191-.223.486-.637.616-.586 3.126 1.225 5.9-2.59 9.128-.567 1.596 1 1.804-.532 1.946-1.54a103.51 103.51 0 0 0 1.01-11.094c.088-2.739.015-5.484-.003-8.226-.006-.957-.383-2.465 1.576-1.833.657.167 1.328.291 1.969.508 2.538.858 3.126 1.564 3.248 4.196.203 4.39-.037 8.775-.258 13.158-.103 2.049-.149 1.989 1.954 1.983 2.205-.007 4.432-.715 6.615.163-2.34 1.124-3.004 3.071-2.865 5.524.075 1.337.22 2.765-.82 3.903-1.462.076-2.924.162-4.387.225a1.464 1.464 0 0 0-1.623 1.594c-.171 2.529-.42 5.057-.768 7.567-.155 1.125.304 1.353 1.241 1.404 2.44.13 4.877.299 7.313.467a4.514 4.514 0 0 1 2.547.482c-4.098 2.696-5.361 5.436-4.343 9.425-2.06.232-4.053-.404-6.091-.484-.953-.037-1.394.254-1.492 1.265-.736 7.63-1.517 15.257-2.284 22.884Z" class="color86533c svgShape"></path><path fill="#e2e2e2" d="M148.847 377.485c-3.117.117-6.225.353-9.336.594-4.578.354-9.109-.59-13.635-1.305a51.792 51.792 0 0 0-13.722-.06 13.225 13.225 0 0 1-1.73.254c-9.585-.263-19.137 1.04-28.726.616-2.337-.104-4.605-.778-6.983-.616a124.835 124.835 0 0 1-13.74.641 24.186 24.186 0 0 1-13.705-5.332c-2.69-2.027-2.72-4.619-.365-7.34a27.737 27.737 0 0 1 4.793-4.741c2.402-1.68 3.895-4.054 5.707-6.197 2.001 1.756 1.882 4.19 2.013 6.509.189 3.324-.21 6.666.333 9.988.272 1.665 1.002 2.136 2.63 1.55 8.751-3.152 17.967-3.912 27.074-5.324 13.662-2.118 27.401-3.738 41.017-6.118a64.413 64.413 0 0 0 25.742-10.348c5.37-3.697 6.846-3.597 12.124.293 2.804 2.066 6.035 3.22 9.066 4.796a1.44 1.44 0 0 1 .285 1.87c-2.075 3.489-3.528 7.533-7.516 9.443-7.193 3.445-14.284 7.087-21.326 10.827Z" class="colore2e2e2 svgShape"></path><path fill="#924741" d="M221.12 223.326c.214-3.594 1.037-7.104 1.468-10.665.572-4.723 1.647-9.363 2.114-14.107.331-3.37 1.121-6.693 1.617-10.05.205-1.389.833-1.976 2.152-1.476a14.707 14.707 0 0 0 2.879.44c1.838.32 3.624.733 3.902 3.11.149 1.27 1.212 2.022 2.116 2.713a38.353 38.353 0 0 0 10.5 5.71 1.176 1.176 0 0 0 1.535-.436 14.004 14.004 0 0 0 4.332 2.393 47.592 47.592 0 0 1 6.8 3.415c7.515 5.12 11.585 12.533 13.987 21.048a9.21 9.21 0 0 1 .176 1.441c-3.718-1.887-7.804-2.345-11.834-2.913-7.278-1.024-14.617-.538-21.933-.63a20.38 20.38 0 0 1-5.23-.435 8.034 8.034 0 0 0-3.783-.077c-3.586.834-7.2.383-10.797.519Z" class="color925941 svgShape"></path><path fill="#86413b" d="M272.342 230.987c2.273-1.098 2.273-1.098 2.43-3.741a64.964 64.964 0 0 1 3.419 18.505c.02 1.165.062 2.329.093 3.493a3.125 3.125 0 0 1 .477 1.962c-.944 7.292-2.09 14.524-5.858 21.04a14.614 14.614 0 0 1-2.489 2.845c-3.24 4.025-6.39 8.13-10.386 11.473a90.635 90.635 0 0 1-25.958 15.561c-1.02-1.043-.842-2.342-.582-3.543a12.993 12.993 0 0 0-1.894-10.212c-.12-1.726 1.4-1.934 2.426-2.53 7.461-4.343 14.88-8.812 20.773-15.209 7.06-7.662 13.64-15.713 15.661-26.411a78.523 78.523 0 0 0 1.134-9.893c.07-1.155-.166-2.377.754-3.34Z" class="color86533b svgShape"></path><path fill="#d1908b" d="M148.847 377.485c2.133-2.034 4.931-3.048 7.284-4.754a33.498 33.498 0 0 1 7.08-3.456 67.437 67.437 0 0 0 6.083-2.889 11.59 11.59 0 0 0 5.604-5.765c.705-1.717 2.186-3.002 2.717-4.82.102-1.05 1.017-1.28 1.728-1.716 3.7-2.819 8.17-2.993 12.5-3.557a7.324 7.324 0 0 1 5.736 1.757c.893.266.9 1.07 1.075 1.771 1.733 3.587 2.936 7.41 5.512 10.612a21.626 21.626 0 0 0 5.704 4.943c2.56 1.57 5.375 2.844 7.038 5.558a122.344 122.344 0 0 1-13.729 1.273 63.144 63.144 0 0 1-17.434-2.09 62.273 62.273 0 0 0-11.222-2.152 25.32 25.32 0 0 0-10.392 1.488 101.61 101.61 0 0 1-11.796 3.583 9.128 9.128 0 0 1-3.488.214ZM39.203 255.786a147.61 147.61 0 0 0 19.106-2.628 180.912 180.912 0 0 1 23.205-2.89 145.637 145.637 0 0 0 16.307-1.512 11.857 11.857 0 0 1 2.042.007c-2.737 2.174-5.8 3.882-8.509 6.112a56.202 56.202 0 0 0-8.66 8.657c-1.08 1.38-2.169 2.497-4.082 2.257-5.592-.733-11.18-1.49-16.776-2.192a97.729 97.729 0 0 0-14.855-.937 5.164 5.164 0 0 0-4.068 1.905c-2.008 2.367-4.035 4.717-6.054 7.074a1.831 1.831 0 0 1-.054-2.199c1.915-3.44 1.649-7.153 1.469-10.864-.051-1.049-.396-2.198.929-2.79Z" class="colord19f8b svgShape"></path><path fill="#a1bbe5" d="m160.384 188.597.734 1.168c-.815.853-1.802.557-2.76.4-1.644-.27-3.259-.693-4.924-.85-3.403-.32-5.713-2.052-6.44-5.452-.443-2.075-1.069-2.305-2.897-1.138a29.944 29.944 0 0 0-9.966 10.202c-.148.254-.282.517-.445.762-.436.657-.93 1.534-1.761 1.309-.978-.264-.599-1.297-.566-2.039a35.405 35.405 0 0 1 3.738-14.114c5.58-11.39 12.706-21.825 20.005-32.148 1.3-.713 1.936-2.074 2.97-3.038 1.31-1.222 2.304-2.839 4.133-3.44.436.874-.12 1.511-.58 2.11-5.018 6.506-6.312 14.202-6.728 22.054a77.855 77.855 0 0 0 .25 14.322c.524 3.978 2.602 7.066 5.237 9.892Z" class="colora1aee5 svgShape"></path><path fill="#924741" d="M243.657 76.078c-.45.13-1.038.144-.915.85a39.76 39.76 0 0 1 .158 5.845 97.567 97.567 0 0 1-1.164 15.67c-.104.77.02 1.687-1.068 1.764-.912.065-1.827.339-2.512-.853-.9-1.564-1.047-1.48-2.055-.196-1.556 1.98-2.14 2.094-4.138.566-.867-.663-1.403-.47-1.852.387-.179.34-.22.756-.412 1.086-.536.923-1.442.91-2.328.778-.896-.133-.918-.867-.948-1.57a3.48 3.48 0 0 0-.12-1.155.614.614 0 0 0-1.13-.19 2.758 2.758 0 0 0-.593 1.295 4.005 4.005 0 0 1-3.424 3.45 11.213 11.213 0 0 0-1.297-3.477c-.581-.685-1.97-.99-1.109-2.355 3.035-.572 3.623-.957 4.007-3.727a11.705 11.705 0 0 1 1.866-4.835 6.942 6.942 0 0 0 1.18-4.423 2.387 2.387 0 0 1-.009-2.98c.103-1.359-.233-2.787.634-4.025a37.757 37.757 0 0 1 11.252-2.56 16.909 16.909 0 0 1 5.977.655Z" class="color925941 svgShape"></path><path fill="#4285f4" d="M155.102 146.696c.394.304.333.626.072.993-1.075 1.511-2.24 2.986-3.201 4.546-5.382 8.728-11.542 16.988-15.929 26.32-2.093 4.454-3.721 9.019-3.854 14.01a17.89 17.89 0 0 1-.453 2.42c1.844-1.785 2.41-3.9 3.762-5.508a29.018 29.018 0 0 1 7.526-6.873 3.974 3.974 0 0 0 1.62-1.219c.377-.609.847-1.087 1.685-.73a1.717 1.717 0 0 1 1.198 1.808 4.467 4.467 0 0 0 .065 1.17c.548 2.529 2.076 4.461 4.584 4.747 3.008.343 5.906 1.298 8.94 1.384 2.016 1.258 4.206 2.272 5.794 4.13-5.336-1.808-13.106-3.07-16.257-2.586a48.886 48.886 0 0 0 5.124 13.17c.172.566-.055.735-.592.593a34.003 34.003 0 0 1-6.008-12.944 5.874 5.874 0 0 0-2.136-3.739c-.467-.346-.813-.851-1.252-1.241-.727-.646-.704-2.206-1.68-2.203-1.451.003-2.305 1.308-3.07 2.47a2.421 2.421 0 0 1-1.755 1.767c-.357.463-.688.948-1.075 1.383a3.497 3.497 0 0 0-.601 4.26c1.616 3.558 3.126 7.164 4.799 10.702a44.186 44.186 0 0 0 7.698 10.633c1.902 2.094 3.991 4.019 6.232 6.254-3.268-.928-4.649-2.233-12.717-11.508-3.834-4.407-6.013-9.723-8.296-15.228-1.173.92-1.377 2.14-2.01 3.067-.425.62-.77 1.469-1.779 1.194-.922-.25-.95-1.027-1.116-1.836-1.408-6.846.589-13.127 3.164-19.297 2.307-5.528 5.668-10.464 8.94-15.444a2.027 2.027 0 0 0 .604-1.524c-4.6-1.606-8.95-1.331-13.154 1.582-3.589 2.487-5.64 6.141-7.933 9.641-.518.792-.715 1.85-1.99 2.207-.442-2.313 1.045-3.9 2.027-5.543a26.199 26.199 0 0 1 6.08-6.724c3.597-2.929 7.622-4.772 12.464-3.346.743.219 1.555.208 2.29.444a1.721 1.721 0 0 0 2.339-1.131 56.381 56.381 0 0 1 4.641-7.466c.916-1.38 1.95-2.682 2.93-4.02l2.28-.785Z" class="color8693cc svgShape"></path><path fill="#c3c3c3" d="M179.343 354.085a4.51 4.51 0 0 1-1.728 1.715 24.423 24.423 0 0 1-9.925-4.784c-4.383-3.404-6.091-3.497-10.681-.308-8.421 5.85-17.807 9.163-27.802 11.017-5.939 1.102-11.928 1.745-17.93 2.375-3.67.386-7.307 1.136-10.937 1.838-5.45 1.054-10.982 1.505-16.46 2.309-7.783 1.141-15.668 2.041-23 5.247-.345.151-.713.252-1.327.466a35.537 35.537 0 0 1-.918-6.026c.014-1.665-.068-3.334.015-4.996A24.17 24.17 0 0 0 57.406 354c.161-.975.73-1.856.66-2.883 2.276.938 2.45 3.184 2.808 5.07.67 3.533 1.175 7.114.198 10.739a7.254 7.254 0 0 0 .065 3.656c.236.055.36.127.423.091 4.912-2.764 10.418-2.945 15.804-3.74 9.813-1.45 19.702-2.386 29.423-4.485 3.412-.736 6.949-.883 10.42-1.36 11.121-1.531 22.275-2.967 32.283-8.645 2.378-1.35 4.697-2.804 7.05-4.2a20.267 20.267 0 0 1 2.553-1.432c3.92-1.612 5.599-1.68 8.975 1.574 3.172 3.058 6.76 5.297 11.275 5.701Z" class="colorc3c3c3 svgShape"></path><path fill="#a1bbe5" d="M112.187 232.627c-6.855.904-13.74 1.52-20.635 2.017-2.753-.466-3.67-1.691-3.566-4.77a5.875 5.875 0 0 1 1.15-6.47 89.376 89.376 0 0 1 11.93-11.189 1.577 1.577 0 0 1 1.088 1.262c1.378 6.28 5.035 11.286 8.93 16.176.661.83 1.927 1.548 1.103 2.974ZM270.414 275.09c.61-1.111 1.2-2.235 1.834-3.332 3.197-5.535 4.46-11.652 5.4-17.866.233-1.546.425-3.099.636-4.649a11.661 11.661 0 0 1 2.865 3.619c3.318 6.023 8.178 10.536 13.744 14.4 1.494 1.038 3.253 1.828 3.914 3.747a8.773 8.773 0 0 1-3.416-.706c-8.116-2.258-15.607-.772-22.65 3.595a7.93 7.93 0 0 1-2.327 1.193Z" class="colora1aee5 svgShape"></path><path fill="#4285f4" d="M160.384 188.597c-2.743-.977-3.986-3.371-5.014-5.752a17.327 17.327 0 0 1-1.362-6.824c-.008-4.005-.242-8.028.055-12.011.523-6.995 1.516-13.901 5.396-20.055.839-1.33 2.164-2.254 2.746-3.736a4.165 4.165 0 0 1 1.977-1.072c1.598 1.693 2.396 3.923 3.844 5.717.64.792.225 1.658.148 2.498-.113 2.09-1.767 2.726-3.317 3.194-3.861 1.168-5.2 3.826-5.403 7.653a32.548 32.548 0 0 1-1.1 8.612c-.407 4.702.386 9.353.676 14.02a23.942 23.942 0 0 0 1.354 7.756Z" class="color8693cc svgShape"></path><path fill="#bc7973" d="M28.685 245.789c-2.952 1.073-2.94 1.077-3.985 4.224a15.757 15.757 0 0 1-.998 2.437c-.722 1.359-.579 2.424.838 3.19-.71 5.299-4.295 8.462-8.38 11.242a1.139 1.139 0 0 1-1.581-.017 3.293 3.293 0 0 0-1.853-1.25c-.775-1.354.452-1.773 1.186-2.179 4.28-2.366 6.24-6.273 7.305-10.777.277-1.17 1.136-2.494-.061-3.555-1.081-.958-2.206.163-3.325.27-2.519.168-5.027.357-7.532.646-1.408.162-2.93.356-4.123-.814.218-1.16-.346-2.336.073-3.492 1.854-.405 3 1.712 5.074 1.319-.512-1.545.314-3.315-1.313-4.693-.758-.642.127-1.108.707-1.473.928-.583 1.898-.028 2.84-.162 4.425.851 9.021.965 13.133 3.133.874.46 1.793.825 1.995 1.95Z" class="colorbc8873 svgShape"></path><path fill="#7b3934" d="M6.176 249.206c4.116.353 8.162-.958 12.281-.517a1.352 1.352 0 0 1 .598.713 3.228 3.228 0 0 1 .049 1.43q-2.705 9.429-11.746 7.311a8.434 8.434 0 0 0-3.792.018 2.25 2.25 0 0 1-2.207-.42 5.179 5.179 0 0 1-1.12-5.184c.536-2.146 1.292-2.903 3.296-3.176.872-.12 1.76-.12 2.641-.175Z" class="color7b4a34 svgShape"></path><path fill="#d1908b" d="M7.358 258.143c2.078-.395 4.144-.886 6.239-1.158a4.142 4.142 0 0 0 3.845-3.33 34.324 34.324 0 0 1 1.215-3.241.902.902 0 0 0-.02-1.187q-.101-.265-.179-.538c.931-1.353 2.14-1.04 3.291-.447 1.222.63 1.014 1.697.668 2.787a94 94 0 0 0-1.207 4.174 13.803 13.803 0 0 1-6.964 8.85c-.657.362-1.498.57-1.52 1.561-5.311.028-6.398-1.29-5.46-6.614.05-.282.062-.571.092-.857Z" class="colord19f8b svgShape"></path><path fill="#88a2ce" d="M112.187 232.627c-.575-1.939-2.168-3.175-3.363-4.65a44.154 44.154 0 0 1-6.567-11.292 35.097 35.097 0 0 1-1.19-4.47l.022-.051q.232-.33.486-.643l.731-1.109c1.464-.251 2.22-1.304 2.99-2.454a60.475 60.475 0 0 0 9.256-24.075 13.921 13.921 0 0 1 .897-1.136c.262-.273.59-.546 1.022-.33a.85.85 0 0 1 .386 1.008c-1.13 6.11-2.105 12.22-5.497 17.687-2.309 3.72-4.32 7.623-7.128 11.013a2.008 2.008 0 0 0-.358 1.866 23.355 23.355 0 0 0 2.54 6.797c2.147 4.19 5.22 7.725 8.132 11.372a3.703 3.703 0 0 1-2.359.467Z" class="color8895ce svgShape"></path><path fill="#a1bbe5" d="M114.552 183.883a1.352 1.352 0 0 1 .523 1.564c-1.605 6.536-3.034 13.119-6.85 18.881-1.178 1.78-2.266 3.657-3.28 5.536-.836 1.55-1.613 1.096-2.64.548 1.157-3.095 2.36-6.174 3.457-9.29 1.195-3.395 2.291-6.823 3.43-10.237 2.08-2.116 3.406-4.809 5.37-7.012Z" class="colora1aee5 svgShape"></path><path fill="#d1908b" d="M14.579 266.865c3.939-2.127 7.273-4.824 8.763-9.269a3.492 3.492 0 0 1 1.198-1.957l1.708.146c.713.51 1.657-.073 2.356.5l.005.005c.745.943.267 1.91-.09 2.764-2.114 5.051-4.56 9.887-9.31 13.068-1.806.185-2.874-.823-3.561-2.31-.438-.944-.718-1.962-1.07-2.947Z" class="colord19f8b svgShape"></path><path fill="#bc7973" d="M39.203 255.786a2.239 2.239 0 0 0-.403 1.374c.837 4.729.816 9.342-1.809 13.617a2.352 2.352 0 0 0-.133.862 7.517 7.517 0 0 1-2.9 2.976c-.79-1.076-.822-1.09-.361-2.165.696-1.623 1.592-3.152 2.28-4.78a3.778 3.778 0 0 0-.873-4.775c-1.38 4.395-2.12 9.054-6.406 11.67l-.6-.112c-1.998-.46-1.191-1.54-.52-2.518a26.378 26.378 0 0 0 3.516-6.647c.687-2.09 1.057-4.09-.44-6.061a2.163 2.163 0 0 1-.188-2.927 6.153 6.153 0 0 1 3.683-.149c1.721.553 3.4-.656 5.154-.365Z" class="colorbc8873 svgShape"></path><path fill="#d1908b" d="M30.366 256.3a4.052 4.052 0 0 0 1.004 2.976 4.577 4.577 0 0 1 .834 4.58 23.018 23.018 0 0 1-4.425 8.78c-.761.917-.403 1.28.22 1.817-2.926.517-5.397-.56-7.71-2.195 1.129-2.298 3.31-3.751 4.67-5.89 1.676-2.636 3.382-5.214 3.747-8.423a2.216 2.216 0 0 1 1.065-1.664Z" class="colord19f8b svgShape"></path><path fill="#87a1cc" d="M311.83 193.99c-2.304-2.65-4.425-5.408-5.323-8.898a21.629 21.629 0 0 0 7.769-.924c1.188-.35 2.463-.783 3.543.347a28.84 28.84 0 0 1-2.856 6.634c-.723 1.245-1.554 2.487-3.134 2.84Z" class="color8794cc svgShape"></path><path fill="#bd7a74" d="M149.762 105.623a2.766 2.766 0 0 0 3.604-.666c.019 2.736.132 5.476.035 8.209a16.64 16.64 0 0 0 2.852 9.653 27.35 27.35 0 0 1 3.01 5.647 1.227 1.227 0 0 1-1.062.747c-1.053.292-1.304-.616-1.735-1.198-2.971-4.019-4.545-8.817-7.225-13.001a1.794 1.794 0 0 1-.071-2.194c.818-1.016 1.523.007 2.32.274-.062-1.17.363-2.462-.728-3.259-1.092-.797-1.943 1.414-3.17.432a.98.98 0 0 1 .003-.575c.528-.718-.068-1.672.502-2.381.218-.895 1.263-.974 1.665-1.688Z" class="colorbd8974 svgShape"></path><path fill="#d2928d" d="M285.843 44.906c-.295-1.76.481-3.229 1.261-4.7a2.13 2.13 0 0 1 2.437-1.172c.997.164 1.366.88 1.7 1.77.878 2.349.105 4.662-.192 6.926a18.282 18.282 0 0 0 .145 6.628c-3.224-1.341-3.505-4.595-4.675-7.256-.303-.69-.153-1.552-.676-2.196Z" class="colord2a18d svgShape"></path><path fill="#7c3a35" d="M253.48 126.677c-1.11-.51-1.86-1.019-1.253-2.558.484-1.23.77-2.563 1.26-3.82.777-2.004 2.033-3.251 4.336-3.047a1.786 1.786 0 0 1 1.737 1.93 11.634 11.634 0 0 1-1.857 6.573c-.989 1.621-2.713 1.046-4.223.922Z" class="color7c4b35 svgShape"></path><path fill="#d0908b" d="M28.598 274.564a22.546 22.546 0 0 0 5.675-13.551c3.308 3.104 3.57 4.214 1.99 7.6-.699 1.5-1.498 2.955-2.209 4.45-.226.477-.74.996-.096 1.551-1.8 1.405-3.588 1.513-5.36-.05Z" class="colord09f8b svgShape"></path><path fill="#d0928d" d="M147.592 110.267c.824.01 1.048-.76 1.558-1.165 1.448-1.151 2.914-.533 3.054 1.322.115 1.528.023 3.07.023 4.66-1.342-.064-1.008-1.183-1.46-1.705-.255-.295-.534-.634-.969-.457a.755.755 0 0 0-.382.971 1.59 1.59 0 0 0 .201.543c3.266 4.691 4.828 10.372 8.584 14.777-2.152.34-3.399-.16-3.935-2.266-.749-2.946-2.517-5.285-3.982-7.809a18.11 18.11 0 0 1-2.692-8.87Z" class="colord0a18d svgShape"></path><path fill="#ab4a42" d="M182.258 42.002c.49.573 1.251 1.14-.18 1.53-2.707.738-5.386 1.587-8.106 2.273a18.19 18.19 0 0 0-4.345 1.608 1.986 1.986 0 0 1-1.919.186c3.486-2.855 6.808-5.578 9.868-8.593 2.407-.323 3.576 1.287 4.682 2.996Z" class="colorab4242 svgShape"></path><path fill="#7d3b36" d="M253.5 105.513c.001-1.858-.038-3.717.012-5.573.088-3.25.478-3.632 3.673-3.854 1.615.318 1.757 1.713 1.96 2.914a11.712 11.712 0 0 1-.581 4.894 2.18 2.18 0 0 1-2.151 1.684c-.969.034-1.942-.039-2.912-.065Z" class="color7d4c36 svgShape"></path><path fill="#ab4a42" d="M145.063 101.06c.26-3.372-.327-6.854 1.313-10.046.222-.43.402-.883.646-1.3.083-.143.302-.207.46-.307.787.236.631.907.62 1.45-.087 4.482-.109 8.952 1.563 13.229.165.422-.134.727-.444.983a8.472 8.472 0 0 1-4.158-4.01Z" class="colorab4242 svgShape"></path><path fill="#88a2ce" d="M255.286 153.251a12.2 12.2 0 0 1-.696 4.6c-1.272 5.1.414 10.103.169 15.155a18.616 18.616 0 0 0 .883 4.564c.12.559.383 1.109-.105 1.75a6.88 6.88 0 0 1-1.397-3.49 36.112 36.112 0 0 1-1.25-9.53c.084-2.147-.744-4.207-.6-6.394a26.903 26.903 0 0 1 1.11-5.422 1.632 1.632 0 0 1 1.379-1.318 1.576 1.576 0 0 1 .507.085Z" class="color8895ce svgShape"></path><path fill="#d1918c" d="M13.291 240.986c-1.063.016-2.151-.069-3.031.762.282 1.032 1.481.701 2.116 1.47 5.225 3.256 1.383 4.316-.088 4.66-2.525.63-4.175-1.082-6.04-2.164-.675-3.35.347-4.805 3.652-5.418a6.605 6.605 0 0 1 3.39.117q.29.19.194.381c-.063.128-.128.192-.193.192Z" class="colord1a08c svgShape"></path><path fill="#d0908b" d="M87.986 229.875c.79 1.889 1.19 4.069 3.568 4.768-3.498.551-6.987 1.168-10.496 1.617-1.232.157-2.404.78-3.692.505a65.067 65.067 0 0 0 10.62-6.89Z" class="colord09e8b svgShape"></path><path fill="#ab4a42" d="M194.494 45.428c.38.28.5.694.072.918-3.068 1.6-6.046 3.415-9.879 4.473 2.157-2.81 4.03-5.24 5.89-7.682a2 2 0 0 1 1.266-.638 1.979 1.979 0 0 1 1.751 1.616c.135.565.237 1.122.9 1.313Z" class="colorab4242 svgShape"></path><path fill="#d1908b" d="M285.843 44.906c1.52 1.58 1.694 3.834 2.816 5.631a18.82 18.82 0 0 0 2.535 3.82 7.289 7.289 0 0 1 1.194 3.476v4.906a2.205 2.205 0 0 1-1.264-1.857 33.56 33.56 0 0 0-3.2-7.759c-.761-1.533-1.41-3.122-2.11-4.685l.029-3.532Z" class="colord19f8b svgShape"></path><path fill="#be7c76" d="M270.539 26.247c.12 1.443-.532 2.05-1.988 2.238-2.232.288-3.852-1.122-5.748-1.758-.712-.671-1.076-1.498-.346-2.276a3.257 3.257 0 0 1 3.15-1.07 9.195 9.195 0 0 1 4.932 2.866Z" class="colorbe8a76 svgShape"></path><path fill="#d3938e" d="m13.291 240.986-.001-.573a26.35 26.35 0 0 1 17.726 4.755c-.66.645-1.53.506-2.331.62-1.536-1.37-3.663-1.58-5.338-2.811-1.244-.913-3.116.44-4.497-.004-1.39-.447-2.363-2.015-4.095-1.973-.487.012-.976-.009-1.464-.014Z" class="colord3a28e svgShape"></path><path fill="#bd7a74" d="M29.77 256.281a3.944 3.944 0 0 0-.433 1.072c-.55 6.47-4.34 10.964-9.048 14.904l-1.08-.135a65.52 65.52 0 0 0 6.89-9.35 30.684 30.684 0 0 0 2.51-6.482l1.162-.009Z" class="colorbd8974 svgShape"></path><path fill="#ac4c44" d="M140.517 82.599c.8-1.711.707-3.814 2.292-5.185a.795.795 0 0 1 .935-.266 3.512 3.512 0 0 1 .112 2.634c-.7 2.815-1.481 5.61-2.223 8.414-.2.755-.686.44-1.124.328a9.556 9.556 0 0 1 .008-5.925Z" class="colorac4444 svgShape"></path><path fill="#ac4b43" d="M221.747 60.754c-.126.583-.249 1.298-1.067.988-3.107-1.18-6.423-1.474-9.933-2.28 1.426-1.54 3.025-.88 4.412-.964 1.471-.09 2.83-.823 4.327-.653a7.451 7.451 0 0 1 2.261 2.91Z" class="colorac4343 svgShape"></path><path fill="#be7b75" d="M255.85 28.48a2.92 2.92 0 0 1-3.603 3.354 10.856 10.856 0 0 0-2.233-.45c-1.1-2.74-.353-3.934 2.462-3.745a6.432 6.432 0 0 1 3.375.841Z" class="colorbe8a75 svgShape"></path><path fill="#88a1cb" d="M302.383 163.243c-.61-2.303 1.158-3.89 1.758-5.83a5.209 5.209 0 0 1 5.278.709c-.142.352-.195.921-.44 1.021-2.436.996-4.221 3.023-6.596 4.1Z" class="color8894cb svgShape"></path><path fill="#ad4b43" d="M143.244 61.388c2.613-1.167 4.394-3.516 6.977-4.97.554 1.501-.64 2.327-1.262 3.076-1.622 1.95-3.516 3.676-5.318 5.475-.344.343-.69.234-.936-.179.297-1.116-.183-2.354.539-3.402Z" class="colorad4343 svgShape"></path><path fill="#ae4c44" d="M212.287 50.222c-3.385 1.642-7.049 2.373-10.772 3.181a43.341 43.341 0 0 0 6.111-5.01 26.695 26.695 0 0 1 4.661 1.829Z" class="colorae4444 svgShape"></path><path fill="#be7c76" d="M250.077 40.84c2.449-.525 4.081.976 5.774 2.328.158.114-.97 1.93-1.888 1.626-1.384-.457-2.72-1.06-4.076-1.601-.759-.85-.386-1.61.19-2.354Z" class="colorbe8b76 svgShape"></path><path fill="#8da7d2" d="M262.3 200.356c-.284-.058-.68-.016-.834-.19a14.023 14.023 0 0 1-3.816-7.778c1.708 2.448 2.957 5.174 4.804 7.518a1.11 1.11 0 0 1-.155.45Z" class="color8d99d2 svgShape"></path><path fill="#88a2ce" d="M114.563 183.873c-1.212 2.615-3.116 4.784-4.663 7.183-.168.26-.51.073-.707-.17q.07-.557.142-1.112a16.776 16.776 0 0 0 2.827-3.524 7.65 7.65 0 0 1 2.4-2.377Z" class="color8895ce svgShape"></path><path fill="#d0928d" d="M148.097 107.31c-.03.823.252 1.712-.502 2.382-.114-.853-.273-1.716.502-2.381Z" class="colord0a18d svgShape"></path><path fill="#a1bbe5" d="m101.575 211.52-.486.644a.706.706 0 0 1 .486-.643Z" class="colora1aee5 svgShape"></path><path fill="#924741" d="M158.716 242.622a2.153 2.153 0 0 1 1.64-.464c5.46.075 10.8-1.01 16.183-1.675a6.173 6.173 0 0 1 .874-.069c5.552.11 11.06-1.002 16.621-.607a1.972 1.972 0 0 1 .822-.273c3.862-.196 4.293.27 3.87 4.058a125.358 125.358 0 0 0-.901 14.957c.08 9.905-.01 19.811.054 29.717.016 2.525-.697 4.488-3.294 5.23-6.033 1.722-9.486 5.592-10.128 11.884-.727.966-1.173.374-1.605-.292l-2.29-5.255c-1.844-2.541-2.515-5.637-4.036-8.369a62.064 62.064 0 0 0-15.974-18.318c-1.546-1.149-3.457-1.891-4.27-3.85-1.357-2.816-.84-5.777-.463-8.65a75.808 75.808 0 0 1 3.06-14.658 3.59 3.59 0 0 0-.163-3.366Z" class="color925941 svgShape"></path><path fill="#a1bbe5" d="m182.852 305.089 1.078.877c5.647 4.29 11.993 3.894 18.488 2.867 6.177-.976 12.392-1.718 18.334-3.811 1.766-.622 3.662-.578 5.469-.998 1.83-.192 3.483-1.762 5.474-.718a71.802 71.802 0 0 1-10.025 7.923c-3.921 2.578-6.004 6.302-7.335 10.574a14.78 14.78 0 0 0-.94 4.56q-.227.286-.442.581l-.036.596a2.331 2.331 0 0 1-2.387 1.74 18.732 18.732 0 0 0-8.912 8.99c-.757 1.584-1.963 2.918-2.429 4.674-.24.907-.972 1.138-1.865.664a2.575 2.575 0 0 1-1.437-1.384c-.811-2.405-1.968-4.813-1.788-7.362.635-9.023-3.32-16.281-8.513-23.11a12.402 12.402 0 0 1-2.734-6.663ZM158.716 242.622c.636.176 1.365-.113 2.017.354-2.834 8.575-4.832 17.249-4.452 26.319-3.094-1.5-5.571-3.886-8.303-5.892a99.947 99.947 0 0 1-15.162-13.307 7.64 7.64 0 0 1-1.384-1.504c-.953-1.968-2.563-2.533-4.573-2.414a4.509 4.509 0 0 1 1.081-.365c3.758-.271 7.517-.513 11.276-.763a1.404 1.404 0 0 1 1.59.426c3.109 3.219 7.131 4.698 11.455 6.017a24.818 24.818 0 0 1-7.48-3.818c-.921-.772-2.144-1.488-1.915-3.042l15.85-2.011Z" class="colora1aee5 svgShape"></path><path fill="#a2bbe5" d="M160.552 273.146a11.715 11.715 0 0 1 3.988 2.406 52.957 52.957 0 0 1 15.772 22.848 8.478 8.478 0 0 1 .25 1.433c-1.452-.796-2.851-1.716-4.367-2.363a14.774 14.774 0 0 1-8.018-8.518c-2.179-5.456-4.972-10.592-7.625-15.806Z" class="colora2aee5 svgShape"></path><path fill="#c3c3c3" d="M162.82 318.727c-5.948-4.801-11.554-9.92-15.65-16.49a55.555 55.555 0 0 1-5.456-11.337 278.353 278.353 0 0 1-8.687-30.66c-.19-.866-.434-1.723.58-2.435 1.8 1.9 2.001 4.453 2.557 6.712a216.861 216.861 0 0 0 9.623 29.785 50.021 50.021 0 0 0 10.536 16.413c2.39 2.444 4.946 4.73 7.092 7.408.145.54-.03.764-.595.604Z" class="colorc3c3c3 svgShape"></path><path fill="#c4c4c4" d="M276.002 369.625a9.348 9.348 0 0 1-4.365 1.594c-4.322.535-8.56 1.122-13.031.7-7.551-.71-15.002-2.464-22.685-2.079a54.073 54.073 0 0 0-12.99 1.738 17.677 17.677 0 0 1-2.28.515.71.71 0 0 1-.874-.574.87.87 0 0 1 .333-.71 11.452 11.452 0 0 1 1.848-.868 29.328 29.328 0 0 1 10.019-1.795 49.405 49.405 0 0 0 5.234-.396c2.288-.252 4.61.535 6.972.436 3.222-.135 6.39.553 9.574.947a110.154 110.154 0 0 0 22.245.492ZM96.5 296.615a3.625 3.625 0 0 1 1.005 2.423 48.012 48.012 0 0 0 6.678 17.689 38.448 38.448 0 0 0 8.214 8.742c3.952 3.315 8.016 6.542 13.068 8.672-1.775.272-1.774.269-2.77-.178a46.345 46.345 0 0 1-10.71-6.59c-3.673-3.05-7.502-5.957-10.278-9.964a34.446 34.446 0 0 1-6.026-13.845c-.366-2.126-.975-4.207.03-6.313a.898.898 0 0 1 .788-.636ZM292.48 347.255a50.17 50.17 0 0 0 1.505-18.286 116.972 116.972 0 0 1-.41-12.303 27.419 27.419 0 0 1 2.972-11.541 4.75 4.75 0 0 1 2.199-2.46c.521 1.319-.108 2.246-.453 3.166a42.185 42.185 0 0 0-2.25 19.656c.654 5.87-.21 11.44-1.263 17.095a13.505 13.505 0 0 1-2.3 4.673ZM87.685 337.01c-4.514-1.163-8.057-3.917-11.684-6.537a60.727 60.727 0 0 1-5.302-4.629c-3.014-2.759-4.5-6.366-5.842-10.052-.735-2.018-.423-3.27.578-3.675.978-.397 1.806.377 2.699 2.488.724 1.712 1.525 3.394 2.193 5.127 2.099 5.445 6.1 9.245 10.71 12.533q3.326 2.37 6.648 4.744ZM110.118 343.769c-.874 2.077-4.147 3.922-11.278 6.36-9.052 3.095-19.169 3.692-23.27 1.382a49.158 49.158 0 0 0 20.172-3.343 89.8 89.8 0 0 1 12.998-4.492 1.449 1.449 0 0 1 1.378.093ZM270.91 335.998c-1.908-7.132-5.173-13.296-10.802-17.896a12.822 12.822 0 0 0-8.421-2.966c-3.238.05-6.46-.026-9.444 1.522-.447.232-1.028.407-1.336-.06-.421-.642.164-1.1.602-1.444a10.83 10.83 0 0 1 4.5-2.073c5.947-1.233 11.235-.372 15.864 4.146a34.372 34.372 0 0 1 9.513 17.177c.09.378.304.742.093 1.122-.082.148-.275.235-.57.472Z" class="colorc4c4c4 svgShape"></path><path fill="#7b3a35" d="M231.695 303.306c-1.828.105-3.359 1.412-5.241 1.299-1.608-.3-.5-1.276-.208-1.56 4.02-3.908 4.55-8.36 2.27-13.324a1.148 1.148 0 0 1 .236-1.094 2.4 2.4 0 0 1 1.109-.56 9.325 9.325 0 0 1 1.17-.251.795.795 0 0 1 .687.274c3.283 2.454 3.163 6.008 2.752 9.454-.182 1.528-.345 3.046-.4 4.581Z" class="color7b4a35 svgShape"></path><path fill="#c4c4c4" d="M308.273 323.155c1.548 10.425-8.4 26.998-17.654 31.89-.488-.422-.032-.694.202-.907 6.908-6.3 12.14-13.655 14.464-22.855a33.558 33.558 0 0 1 2.988-8.128ZM285.295 290.252c7.847 9.669 2.787 28.62-4.852 34.075 3.974-4.816 5.362-10.688 6.467-16.524 1.114-5.884-.973-11.68-1.615-17.551ZM210.53 329.28l2.387-1.74a2.321 2.321 0 0 1 .551 2.186c-.638 7.044 1.312 13.732 2.782 20.487a2.292 2.292 0 0 1-.11 1.737c-2.73-3.275-3.395-7.198-4.59-10.925-1.243-3.87-1.906-7.723-1.02-11.746Z" class="colorc4c4c4 svgShape"></path><path fill="#c4c4c5" d="M198.654 354.056a4.714 4.714 0 0 1-1.075-1.771c.631-.429.938-1.536 2.107-.585 4.177 3.395 9.308 4.387 14.399 5.227 5.254.868 10.57 1.353 15.861 2.11-2.528.393-4.94.993-7.641.44-2.722-.558-5.607-.36-8.428-.651a32.05 32.05 0 0 1-13.524-4.26c-.48-.289-.864-1.278-1.699-.51Z" class="colorc5c4c4 svgShape"></path><path fill="#c4c4c4" d="M140.074 313.3a6.161 6.161 0 0 1-2.81-2.326c-3.67-5.447-6.816-11.146-8.318-17.628a11.924 11.924 0 0 1-.234-2.903c.008-.603.145-1.274.83-1.353.64-.073 1.04.51 1.285 1.04a8.324 8.324 0 0 1 .661 1.935c1.103 5.923 3.574 11.322 6.304 16.626.697 1.356 1.354 2.732 2.282 4.61Z" class="colorc4c4c4 svgShape"></path><path fill="#c5c5c6" d="M268.063 361.148c-8.801.709-17.58 1.599-26.18-1.815-5.626-2.233-8.065-3.416-9.752-5.53.554-.608 1.005-.127 1.512.11 5.473 2.562 10.977 5.03 16.929 6.327a14.98 14.98 0 0 0 3.2.263c4.786.014 9.572.006 14.359.006Z" class="colorc6c5c5 svgShape"></path><path fill="#c6c6c6" d="M178.108 343.144c3.03-.958 4.616-3.411 6.136-5.931 1.375.821.911 1.731.414 2.57-1.446 2.441-3.521 3.776-6.55 3.361Z" class="colorc6c6c6 svgShape"></path><path fill="#cececf" d="M221.15 365.499c-1.761 1.19-3.382.96-4.788 1.413a.648.648 0 0 1-.837-.585.805.805 0 0 1 .625-.874 11.212 11.212 0 0 1 5 .046Z" class="colorcfcece svgShape"></path><path fill="#d0d0d0" d="m162.82 318.727.595-.604c.755.434 1.518.862 1.572 2.073-1.203.146-1.666-.693-2.167-1.469Z" class="colord0d0d0 svgShape"></path><path fill="#c4c4c4" d="m212.953 326.944.444-.58-.444.58Z" class="colorc4c4c4 svgShape"></path><path fill="#bc7973" d="M158.353 166.82c-.582-4.506.467-8.891 1.009-13.313a2.625 2.625 0 0 1 1.627-1.937 19.384 19.384 0 0 1 3.42-1.636 7.421 7.421 0 0 0 3.765-2.571c1.408.267 2.374 1.302 3.511 2.034 3.117 2.005 6.304 2.473 9.625.516a35.748 35.748 0 0 0 4.008-2.428 50.449 50.449 0 0 1 9.099-5.317c2.85-1.402 5.5-3.03 6.804-6.155a1.73 1.73 0 0 1 .58-.64c.135-.1.362-.078.566-.115.706.697.015 1.277-.242 1.805-1.755 3.602-3.559 7.18-5.362 10.76a4.523 4.523 0 0 0-.574 3.595c.45 1.577-.366 3.24-.733 4.84-.283 1.235-.809 2.41-1.177 3.627-.76 2.504-1.6 4.974-.898 7.69a4.328 4.328 0 0 1-.413 3.285 24.372 24.372 0 0 1-1.307-8.411c-.038-2.788 1.171-5.287 1.921-8.575a28.797 28.797 0 0 1-10.519 7.492 3.113 3.113 0 0 0-2.018 3.422c.085 2.684-.319 3.525-2.022 5.445-.642-1.993.215-4.125-1.321-5.914a5.46 5.46 0 0 0-2.45.685c-2.76.997-5.543 1.922-8.31 2.894a8.779 8.779 0 0 1-8.589-1.077Z" class="colorbc8773 svgShape"></path><path fill="#924741" d="M203.365 189.016a1.176 1.176 0 0 0 1.48.603c.923-.278 1.836-.587 3.02-.969a52.763 52.763 0 0 1-1.704 9.182c-1.336 5.566-3.16 11.01-4.169 16.659-.425 2.381-.868 4.761-1.2 7.156a3.529 3.529 0 0 1-2.046 2.851c-5.628-.393-11.217.459-16.813.747-3.473.179-6.938.4-10.419.365l1.34-1.7a2.365 2.365 0 0 1 .545-.591l.03-.033a1.992 1.992 0 0 0 .498-.532l3.017-3.559a12.03 12.03 0 0 0 1.337-1.109c4.344-4.775 9.496-8.607 14.586-12.512.641-1.316 1.955-1.86 3.084-2.566a11.564 11.564 0 0 0 4.722-5.371 14.537 14.537 0 0 0 1.017-4.584c.554-1.348-.12-3.208 1.675-4.037ZM220.443 109.59c.817.813 1.644-.066 2.475-.013.533.034 1.097-.571 1.654-.127.777.617 1.349.605 1.888-.299.509-.85 1.519-.82 2.32-1.084.907-.298 1.35.492 1.874 1.087a.773.773 0 0 0 1.389-.292c.598-1.58 1.379-2.051 2.758-.784.652.6 1.254.396 1.695-.312a2.406 2.406 0 0 1 2.279-1.019c2.056-.035 2.302.168 2.36 2.307a21.261 21.261 0 0 1-.934 8.368c-.242.63-.161 1.822-1.387 1.361-.883-.331-2.364.107-2.374-1.58a3.618 3.618 0 0 0-.074-.874c-.122-.473-.301-.974-.923-.907-.446.047-.63.46-.705.84-.15.758-.116 1.574-.939 2.027a1.758 1.758 0 0 1-2.652-1.103 6.123 6.123 0 0 0-.329-1.4c-.325-.573-.872-.814-1.39-.171a4.096 4.096 0 0 0-.528 1.04c-.243.599.023 1.498-.827 1.73a19.259 19.259 0 0 1-3.139.592c-.566.057-.752-.471-.848-.993-.11-.599.206-1.61-.853-1.499-.78.082-.947.915-.923 1.63.058 1.718-1.265 1.662-2.33 1.944-.932-.545-.485-1.43-.653-2.137-.087-.367-.09-.803-.615-.853-.463-.043-.898.297-.87.603.347 3.71-2.833 3.827-4.997 4.978a.848.848 0 0 1 .027-1.178c3.51-3.333 5.731-7.486 7.57-11.882Z" class="color925941 svgShape"></path><path fill="#924842" d="M209.885 149.675c.427.647.947.515 1.515.204a5.887 5.887 0 0 1 3.686-.778c.57 2.086-.198 4.133-.657 6.008-1.69 6.895-2.559 13.928-3.907 20.876-.517 2.665-1.153 5.318-1.47 8.007-.254 2.148-1.489 3.011-3.354 3.337a6.837 6.837 0 0 0-2.222.674 3.058 3.058 0 0 1-.66-2.999c1.526-9.017 2.289-18.166 4.665-27.04a9.566 9.566 0 0 1 1.22-2.94c.536-1.752.395-3.653 1.184-5.349Z" class="color925942 svgShape"></path><path fill="#3d433f" d="M175.237 116.782c3.078-1.746 5.962-1.161 8.747.716 2.087 1.407 4.369 2.539 6.079 4.469a3.553 3.553 0 0 0 2.533 1.277c.615.034 1.175.325 1.063 1.069-.097.646-.66.935-1.237 1.09-1.097.294-2.105-.214-3.139-.432-.56-.117-1.061-.495-1.677-.39a6.225 6.225 0 0 1-1.852-.872 6.944 6.944 0 0 1-.732-.442c-.324-.218-.667-.542-1.02-.534-5.58.113-11.406-1.35-16.42 2.466a5.63 5.63 0 0 1-1.785.93c-1.083.635-1.873 1.693-3.127 2.094a1.519 1.519 0 0 1-1.845-.385c-.573-.74-.036-1.251.505-1.704a6.724 6.724 0 0 0 2.197-3.685 7.7 7.7 0 0 1 4.005-5.113c1.433-1.19 3.096-.485 4.666-.603 1.025-.078 2.022.687 3.04.05Z" class="color403d43 svgShape"></path><path fill="#a2bbe5" d="M208.702 155.024c-.855 4.51-1.87 8.996-2.527 13.534-.937 6.475-2.22 12.906-2.7 19.445q-.054.507-.11 1.013c-.864 1.304-.218 2.987-1.077 4.292a8.026 8.026 0 0 1-6.554.585c1.228-3.713 3.5-6.946 4.845-10.618a19.383 19.383 0 0 0 1.605-7.068c-.175-6.14 2.117-11.624 4.039-17.228.315-.92.683-1.821 1.04-2.727.259-.66.598-1.242 1.439-1.228Z" class="colora2ade5 svgShape"></path><path fill="#7c524e" d="M165.797 126.13c2.15-2.755 4.767-4.432 8.468-4.103a19.295 19.295 0 0 0 5.779-.402c2.073-.444 4.312-.536 5.797 1.598a23.551 23.551 0 0 1-11.331 2.363c-.585-.028-1.157-.227-1.744-.266-1.068-.072-2.304-.367-3.013.637-.758 1.073.23 2.017.648 2.97a5.581 5.581 0 0 0 .457.754c2.33 2.663 4.368 2.972 7.3 1.144a14.698 14.698 0 0 0 3.768-3.541c1.696-1.095 2.762-2.892 4.443-4.003a1.913 1.913 0 0 1 1.237 1.299c-2.629 4.978-5.714 9.484-11.526 11.18-3.788 1.106-5.998.033-7.916-3.425-1.1-1.983-1.093-4.328-2.367-6.205Z" class="color7c4e4e svgShape"></path><path fill="#3e433f" d="M196.689 88.479c2.62.833 4.174 3.123 6.29 4.648 2.601 1.876 5.033 3.987 7.539 5.997-.076 2.72-2.188 4.593-2.925 7.037-.71 1.385-.402 2.878-.44 4.329a6.451 6.451 0 0 1-1.048 3.891c-.418.559-.946 1.092-1.702.927-.837-.182-.873-.936-.873-1.638-.001-2.738-.007-5.475.004-8.213a6.586 6.586 0 0 0-.74-3.689c-2.645-4.153-3.681-9.04-6.105-13.29Z" class="color413e43 svgShape"></path><path fill="#ab4941" d="M163.42 77.936c-.025-1.002.716-1.544 1.287-2.207 4.388-5.09 8.682-10.255 12.616-15.707a6.386 6.386 0 0 1 2.488-2.496c-.283 2.81-1.921 4.72-3.138 6.774-1.234 2.081-2.668 4.043-4.297 6.48 4.153-.396 7.92-.93 11.7-1.068 3.96-.145 7.535-1.594 11.251-2.92.031 1.062-.651 1.337-1.2 1.637a25.97 25.97 0 0 1-12.482 3.671c-3.769.024-7.533.729-11.3 1.124a1.987 1.987 0 0 0-1.453.87c-.635.862-1.292 1.708-1.94 2.56q-1.766.64-3.531 1.282Z" class="colorab4141 svgShape"></path><path fill="#aa4941" d="M153.564 93.81c-1.923-1.571-2.176-3.901-2.435-6.068a20.64 20.64 0 0 1 1.168-9.8c.983-2.614 5.809-10.048 8.514-13.142.649 1.17-.134 2.07-.582 2.992-.891 1.84-1.976 3.595-2.762 5.476a25.347 25.347 0 0 0-1.648 11.778c-.693 2.414-1.814 4.708-2.009 7.265a1.26 1.26 0 0 0 .245 1.066.478.478 0 0 1-.491.433Z" class="coloraa4141 svgShape"></path><path fill="#bc7973" d="M175.237 116.782a4.48 4.48 0 0 1-3.734.79 22.002 22.002 0 0 0-3.971-.236 5.55 5.55 0 0 0-1.267-2.794c-1.845 1.452-2.473 3.545-3.688 5.476-.663-1.36.042-2.244.493-3.109 1.346-2.582 3.005-5.018 3.45-7.993a2.978 2.978 0 0 1 .48-1.064c2.149-3.439 3.102-7.083 1.732-11.117 1.108-.145 1.094.565 1.13 1.061.236 3.156.404 6.316.636 9.471a15.712 15.712 0 0 0 1.709 7.018c.7 1.192 1.472 2.33 3.03 2.497Z" class="colorbc8873 svgShape"></path><path fill="#3e4440" d="M176.862 90.239a1.927 1.927 0 0 1 1.254-1.13 20.19 20.19 0 0 1 12.922.62 8.005 8.005 0 0 1 2.911 2.404.947.947 0 0 1 .096 1.317 1.031 1.031 0 0 1-1.063.314 9.275 9.275 0 0 1-1.108-.365 17.24 17.24 0 0 0-10.373-.012c-1.44.422-2.91 1.29-4.491.384-.56-1.156-1.002-2.317-.148-3.532Z" class="color423e44 svgShape"></path><path fill="#3f4440" d="m153.564 93.81.49-.434c3.467-2.577 7.478-2.64 11.532-2.488 1.09.04 1.947.432 2.011 1.672a2.181 2.181 0 0 1-1.537 2.515 14.098 14.098 0 0 1-4.668.345c-2.696-.035-5.29.25-7.481 2.041-.844-1.147-.395-2.418-.347-3.651Z" class="color433f44 svgShape"></path><path fill="#bc7973" d="M158.786 103.304c-.488-.04-.977-.062-1.462-.125-.589-.077-.824-.402-.684-1.01.439-1.903 3.99-4.586 6.29-4.733 2.007-.128 4.792 1.857 5.553 3.97.026.074-.048.185-.08.296-.93.788-2.395-.215-3.228.932a7.49 7.49 0 0 1-5.066 1.18 1.766 1.766 0 0 1-1.323-.51Z" class="colorbc8873 svgShape"></path><path fill="#a1bae4" d="M201.227 198.11c-1.619 3.797-4.904 5.727-8.36 7.464-1.288-2.64-.57-5.126.581-7.578a8.175 8.175 0 0 1 5.445-1.349c.967.026 2.227-.081 2.334 1.463Z" class="colora1ade4 svgShape"></path><path fill="#a2bae3" d="M205.307 135.484c1.1 1.095 2.192 2.2 3.306 3.282.687.667 1.262 1.51 2.341 1.615 1.196 2.902.13 5.535-.972 8.164l-.277.55c-1.949-1.09-2.646-3.059-3.28-4.972a20.542 20.542 0 0 1-1.118-8.639Z" class="colora2aee3 svgShape"></path><path fill="#bb7973" d="M179.37 100.32c-.544-.15-1.36-.253-.901-1.051 1.855-3.225 8.354-5.617 11.43-1.662.386.497.696.942.082 1.468-.789.848-1.917.776-2.906 1.08a17.52 17.52 0 0 0-6.016.595 1.998 1.998 0 0 1-1.69-.43Z" class="colorbb8773 svgShape"></path><path fill="#88a1cb" d="M201.227 198.11c-1.447-1.221-3.098-.757-4.646-.413a14.39 14.39 0 0 1-3.133.299c.24-1.66 1.35-2.833 2.287-4.103 2.132-.771 4.352-.573 6.553-.585a8.24 8.24 0 0 1-1.061 4.802Z" class="color8893cb svgShape"></path><path fill="#ba7872" d="M207.593 106.161c.066-2.724 1.579-4.846 2.925-7.037l4.75-1.728a.703.703 0 0 1 1.146-.023c.626.793 1.542.46 2.336.6-.072.994.885 1.501 1.11 2.355-7.281-.221-7.497-.118-12.267 5.833Z" class="colorba8772 svgShape"></path><path fill="#be7b75" d="M218.178 107.394a6.191 6.191 0 0 1-.793 3.1c-.824 1.765-1.798 3.466-2.788 5.148-1.073 1.824-2.129 2.116-3.885 1.203-.514-.267-1.247-.54-1.087-1.197.263-1.079 1.059-.491 1.644-.28a1.43 1.43 0 0 0 1.999-.675c1.083-2.47 3.162-4.519 3.155-7.458-.001-.742-.12-1.86.94-1.778.98.076.737 1.193.815 1.937Z" class="colorbe8a75 svgShape"></path><path fill="#ad4b43" d="M182.283 76.103c.727-.913 1.833-.574 2.742-.733a77.634 77.634 0 0 0 11.995-3.46 10.773 10.773 0 0 1-4.775 3.569 18.193 18.193 0 0 1-7.726 1.344l-2.236-.72Z" class="colorad4343 svgShape"></path><path fill="#be7b75" d="M178.063 80.478a9.1 9.1 0 0 1-5.097 1.543 20.53 20.53 0 0 0-7.46.975 3.734 3.734 0 0 1-2.827-.06c-.022-.208-.104-.524-.052-.547 2.613-1.19 5.174-2.578 8.239-1.722a6.09 6.09 0 0 0 3.735-.115 6.082 6.082 0 0 1 3.462-.074ZM186.823 114.86c-1.788-.183-2.619-1.258-3.728-1.812-2.056-1.026-2.036-1.066-3.059 1.02-.882-.07-.604-.833-.783-1.318-.46-1.25-.6-2.669-2.087-3.317a.916.916 0 0 1-.397-1.46 1.282 1.282 0 0 1 1.81-.343 1.252 1.252 0 0 1 .457.355c1.74 2.713 4.758 3.887 7.076 5.9a6.931 6.931 0 0 1 .71.975Z" class="colorbe8a75 svgShape"></path><path fill="#34a853" d="M181.115 100.222c1.864-1.435 3.96-.697 5.982-.635.83.219.935.65.374 1.276-2.266 1.986-3.445 2.121-5.738.66-.578-.256-1.019-.578-.618-1.3Z" class="color4a474b svgShape"></path><path fill="#bf7c76" d="M179.216 103.378a9.121 9.121 0 0 0 10.978-1.591c-.916 2.692-3.18 3.314-5.397 3.704-2.13.375-4.209-.025-5.581-2.113Z" class="colorbf8b76 svgShape"></path><path fill="#474b48" d="M159.763 103.265c1.822-.055 3.563-.811 5.412-.63-.562 2.976-2.424 3.626-5.1 1.778a.772.772 0 0 1-.312-1.148Z" class="color4b474b svgShape"></path><path fill="#c27e78" d="M156.995 107.23c1.606-.762 3.072-.263 4.421-.502 1.306-.232 2.582-.628 4.067-1.001-2.046 2.33-4.932 2.854-8.488 1.503Z" class="colorc28d78 svgShape"></path><path fill="#bb7b76" d="m176.862 90.239.148 3.533c-2.468-2.272-2.663-5.141-2.205-8.667.769 2.004-.09 4.216 2.057 5.134Z" class="colorbb8976 svgShape"></path><path fill="#c07d77" d="M209.318 112.073c-.884-1.418-.364-2.681-.898-3.77a.936.936 0 0 1 .778-1.317c.685-.128 1.098.401 1.227 1.002a5.24 5.24 0 0 1-1.107 4.085Z" class="colorc08c77 svgShape"></path><path fill="#924741" d="M221.166 104.41c.563.275.71 1.291 1.636.916.507-.205.996-.22 1.155.41.148.582.14 1.255-.56 1.471a6.13 6.13 0 0 0-2.87 1.904c.137-1.577.75-3.09.64-4.7Z" class="color925941 svgShape"></path><path fill="#c27f79" d="m183.711 82.892-7.384 1.505c2.47-1.68 5.437-2.381 7.384-1.505Z" class="colorc28e79 svgShape"></path><path fill="#bf7d77" d="M194.281 120.375a8.12 8.12 0 0 1 2.298 5.972l-3.082-5.463Z" class="colorbf8c77 svgShape"></path><path fill="#c07e78" d="M184.512 139.711a12.325 12.325 0 0 1 1.383-4.163.817.817 0 0 1 1.007-.397.614.614 0 0 1 .378.926c-.58 1.206-.958 2.562-2.768 3.634Z" class="colorc08c78 svgShape"></path><path fill="#c4827c" d="M166.087 84.407c-1.93 1.398-4.176 1.717-6.438 1.983a14.568 14.568 0 0 1 6.438-1.983Z" class="colorc4917c svgShape"></path><path fill="#c07d77" d="M171.288 139.664c1.797.776 1.908 2.727 3.62 2.905-2.319.501-2.82.102-3.62-2.905Z" class="colorc08c77 svgShape"></path><path fill="#f1f2f4" d="M187.471 100.863c-.028-.453.054-.94-.374-1.276.85-.799 1.909-.417 2.883-.512-.107 1.619-1.046 2.071-2.509 1.788Z" class="colorf4f3f1 svgShape"></path><path fill="#c17e78" d="M213.171 108.262a3.33 3.33 0 0 1 .157-3.06c.852 1.78.852 1.78-.157 3.06ZM193.295 98.677c1.26-.585 2.238-.033 3.493.736-1.588.567-2.492-.28-3.493-.736Z" class="colorc18d78 svgShape"></path><path fill="#edeef1" d="m181.115 100.222.618 1.301c-1.702.747-2.006.592-2.363-1.203l1.745-.098Z" class="colorf1f0ed svgShape"></path><path fill="#dcdfe3" d="m159.763 103.265.311 1.147a1.117 1.117 0 0 1-.904.563c-.585.005-1.208-.126-1.311-.749-.087-.521.675-.54.926-.922l.978-.039Z" class="colore3e0dc svgShape"></path><path fill="#c3807a" d="M196.538 101.077c-.228.415-.621.377-.989.324-.412-.059-.745-.277-.571-.752.113-.31.467-.33.756-.272.386.077.75.222.804.7Z" class="colorc38f7a svgShape"></path><path fill="#be7b75" d="M170.752 88.933a2.986 2.986 0 0 1 .06 2.663 2.98 2.98 0 0 1-.06-2.663Z" class="colorbe8a75 svgShape"></path><path fill="#d9dce0" d="M166.452 102.615c.291-.019.66.037.68.315.031.438-.371.605-.752.71a.331.331 0 0 1-.459-.241c-.118-.452.086-.705.531-.784Z" class="colore0dbd9 svgShape"></path><path fill="#c27f79" d="M290.143 85.8a1.248 1.248 0 0 1-1.434.722c-1.032-.432-2.415.013-3.116-1.205a.57.57 0 0 1 .018-.529c1.058-.826 1.974.332 3.01.256a1.981 1.981 0 0 1 1.522.755Z" class="colorc28e79 svgShape"></path><path fill="#c07d77" d="M298.46 92.498c-.792 1.752-2.01 2.763-4.067 2.241.2-1.31 1.362-.99 2.015-1.4a12.205 12.205 0 0 1 2.052-.84Z" class="colorc08b77 svgShape"></path><path fill="#c4827c" d="M299.559 89.383c.27-1.295 1.01-1.533 2.082-1.658-.27 1.224-1.051 1.407-2.082 1.658Z" class="colorc4907c svgShape"></path><path fill="#c2807b" d="M267.445 46.291c-.177.46-.444.828-1.004.746a.482.482 0 0 1-.28-.382c.095-.546.557-.684 1.018-.756.065-.01.173.25.266.392Z" class="colorc28f7b svgShape"></path><path fill="#d1908b" d="M340.945 170.354a57.259 57.259 0 0 0-4.47-14.855c-2.203-5.238-4.58-10.436-5.702-16.02-1.96-9.754-5.57-18.65-11.81-26.53a141.394 141.394 0 0 1-17.548-29.454c-2.597-5.703-5.148-11.428-7.771-17.12a7.823 7.823 0 0 1-.71-3.683c.056-1.628.423-3.332-.546-4.86a8.948 8.948 0 0 0-.564 3.138c-.691-4.337-3.391-7.9-4.878-11.93a.85.85 0 0 0-1.132-.602 8.26 8.26 0 0 1-1.2-2.949c-2.073-8.33-7.796-13.989-14.075-19.242a4.076 4.076 0 0 1-5.022.91c-.846-.362-1.692-1.055-2.714-.43a14.384 14.384 0 0 0 3.63 4.687c6.025 2.575 10.74 6.518 12.75 12.202-2.968-3.652-12.187-11.075-12.734-10.893-3.58-1.296-6.846-3.377-10.598-4.243-.829 1.848-2.146 2.834-4.267 2.476a1.584 1.584 0 0 0-1.57.429 3.45 3.45 0 0 0 1.617 1.84 15.254 15.254 0 0 1 4.229 2.218v.001c3.038 1.236 6.089 2.437 9.107 3.717 2.875 1.219 4.204 3.858 5.656 6.366a.418.418 0 0 1-.68.045c-3.304-2.95-7.237-4.96-10.93-7.33-1.068-.685-2.087-1.446-3.129-2.172l-2.402-1.095c-.05-.038-.099-.07-.148-.103-1.249 1.993-3.522 1.151-5.234 1.863-.138 1.752 1.658 2.572 1.977 4.104a41.107 41.107 0 0 0 5.774 2.329l.644.531s8.749 6.242 12.548 10.052a5.626 5.626 0 0 1-4.335-2.045 59.394 59.394 0 0 0-7.644-6.796c-.493-.202-1.385-1.256-1.484-1.21-2.005 1.033-3.722-1.16-5.693-.507a10.818 10.818 0 0 0 2.752 4.772 62.432 62.432 0 0 0 7.474 7.466c3.067 2.524 5.576 5.48 6.698 9.43a6.754 6.754 0 0 0 1.895 3.277c4.275 3.8 6.862 8.757 9.418 13.723a13.636 13.636 0 0 0 6.12 6.122 5.274 5.274 0 0 1 2.184 1.453c1.83 2.652 3.92 5.145 4.96 8.282 1.695 5.109 3.475 10.19 5.152 15.305 4.725 14.411 9.286 28.873 13.165 43.541.159.601.332 1.133-.286 1.559a32.052 32.052 0 0 0-7.792 5.288 5.48 5.48 0 0 0-1.19 3.516 60.426 60.426 0 0 0 1.094 10.097c.654 3.404 1.813 6.56 5.015 8.477 3.89 1.173 7.504-.806 11.274-.986 2.879-.901 6.118-.834 8.67-2.488 2.492-1.615 5.231-2.181 7.967-2.783a8.01 8.01 0 0 0 6.488-8.89ZM292.32 62.393c.008-.007.017-.012.025-.02.277-.27.12.347-.025.02Z" class="colord19f8b svgShape"></path><path fill="#8ca6d1" d="m139.285 189.181 1.756-1.767a32.99 32.99 0 0 0 3.392 9.612 112.774 112.774 0 0 0 6.065 11.708 7.306 7.306 0 0 1 .559 1.642l.003-.003c-2.532-2.245-3.65-5.418-5.238-8.25a53.731 53.731 0 0 1-5.246-11.63c-.197-.703-.437-1.29-1.291-1.312Z" class="color8c99d1 svgShape"></path><path fill="#8da7d2" d="m155.186 205.071.592-.593c2.164 1.88 3.214 4.593 5.021 6.758a15.444 15.444 0 0 1 2.821 3.8 8.903 8.903 0 0 1-3.466-3.124c-.743-1.174-1.84-2.017-2.565-3.181-.772-1.238-1.6-2.441-2.403-3.66Z" class="color8d99d2 svgShape"></path><path fill="#88a2ce" d="M164.321 199.826a2.15 2.15 0 0 1 1.916 1.867c.13 1.085-.62 1.565-1.632 1.579a1.537 1.537 0 0 1-1.722-1.571 1.572 1.572 0 0 1 1.438-1.875Z" class="color8895ce svgShape"></path><path fill="#8ca5cf" d="M172.846 223.325a2.576 2.576 0 0 1-1.912-.484c-.48-.46-1.11-.89-.715-1.693a1.46 1.46 0 0 1 1.46-.737 1.31 1.31 0 0 1 1.377 1.225 6.307 6.307 0 0 1-.216 1.694Z" class="color8c98cf svgShape"></path><path fill="#8ca6d1" d="M151.057 210.376c.083.044.242.106.236.13-.044.2-.135.152-.232-.133Z" class="color8c99d1 svgShape"></path><path fill="#8ca5cf" d="M173.399 223.319a.668.668 0 0 1-.545.592q-.018-.293-.008-.586l-.006.005q.28-.01.559-.011ZM173.927 222.754a.608.608 0 0 1-.499.533l.499-.533Z" class="color8c98cf svgShape"></path><path fill="#924741" d="M230.537 288.673h-1.172a26.456 26.456 0 0 0-7.468-.946c-1.24.032-2.559.074-3.472-1.075a7.065 7.065 0 0 1-.528-3.728c.117-11.624-.063-23.247-.018-34.871.01-2.748.607-5.437.661-8.177a2.62 2.62 0 0 1 1.406-2.412c3.288-.348 6.58-.66 9.862-1.057 2.225-.268 4.478-.398 6.693-.572 4.567-.357 9.074-1.171 13.663-1.42a94.611 94.611 0 0 0 22.178-3.428 59.37 59.37 0 0 1-1.304 14.207c-1.497 7.021-5.014 13.057-9.45 18.602-2.066 2.582-4.07 5.214-6.385 7.594-5.007 5.145-10.933 9.067-16.97 12.841-2.14 1.338-4.342 2.576-6.515 3.859l-.585.005c-.186.206-.42.362-.596.578Z" class="color925941 svgShape"></path><path fill="#86413b" d="M218.771 286.907c2.06.002 4.12-.045 6.177.021 1.656.054 3.338.173 4.417 1.745-.645.482-.354.918-.032 1.476a10.152 10.152 0 0 1-1.592 12.282c-.545.58-1.946.825-1.287 2.173-8.91 2.147-17.725 4.752-26.952 5.322-2.144.133-4.264.547-6.433.487-2.856-.08-5.286-1.318-7.672-2.677a2.978 2.978 0 0 1-1.466-1.77 28.34 28.34 0 0 1 .335-4.077 10.845 10.845 0 0 1 7.554-8.26c1.65-.57 3.651-.853 4.694-2.167 1.171-1.476.435-3.599.443-5.43.05-10.478.033-20.958.02-31.437a75.411 75.411 0 0 1 1.093-11.9c.369-2.324.015-2.799-2.273-2.878-.587-.02-1.175-.008-1.763-.01 2.068-1.24 4.331-.285 6.483-.58a3.334 3.334 0 0 1 .525 2.794c-1.686 12.77-1.382 25.614-1.408 38.446-.005 2.368.565 4.673.602 7.026a2.548 2.548 0 0 0 2.065 2.495c2.11 1.866 1.405 4.513 1.866 6.838.178.902-.508 1.916.607 3.078a62.747 62.747 0 0 1-.349-7.454c.038-1.49-1.467-1.71-2.058-2.68a6.46 6.46 0 0 1-.385-2.596c.045-14.434-.6-28.895 1.631-43.242.316-2.036-.009-3.663-1.927-4.714 1.867-1.19 3.937-.322 5.896-.579.626 1.346.204 2.699.009 4.043-2.034 14.009-2.302 28.102-2.072 42.223.034 2.074.64 3.463 3.022 3.296a2.18 2.18 0 0 1 .871.33c1.32 2.675.535 5.507.597 8.278.018.799-.849 1.683.19 2.379a.596.596 0 0 0 .784-.152c.64-.858.028-1.674-.16-2.489a19.176 19.176 0 0 1-.17-8.078 1.714 1.714 0 0 1 .581-.7c1.8-.566 3.586-1.254 5.522-.659a1.501 1.501 0 0 1 .64.622 20.765 20.765 0 0 1-.049 8.91c-.114.51-.744 1.004-.054 1.525a.59.59 0 0 0 .562.004c.75-.302.54-.907.464-1.474a23.914 23.914 0 0 1 .133-9.499c.105-.098.212-.195.32-.291Z" class="color86533b svgShape"></path><path fill="#924741" d="M216.994 287.494c-2.006-.264-3.87.876-5.879.592a3.381 3.381 0 0 1-.865-2.708c-.017-4.404-.362-8.841.083-13.206.814-7.998.064-16.04.985-24.029.279-2.423.574-4.856.73-7.297a3.808 3.808 0 0 1 1.425-2.792l3.526-.01c1.078 1.223.967 2.733.948 4.188-.18 13.892.02 27.785-.075 41.677-.009 1.256.168 2.575-.878 3.585Z" class="color925941 svgShape"></path><path fill="#924741" d="M209.343 288.676c-4.189 1.112-4.699.709-4.705-3.762-.006-4.6.041-9.201-.012-13.802a177.32 177.32 0 0 1 1.083-18.945c.36-3.775.842-7.529 1.257-11.293a6.333 6.333 0 0 1 .616-2.235l2.349-.01c2.364-.263 1.797 1.523 1.714 2.684-.403 5.67-.584 11.356-.955 17.018-.578 8.826-.293 17.64-.475 26.456-.028 1.346.255 2.781-.872 3.889ZM201.686 239.218a10.489 10.489 0 0 1 3.293.282c-.576 4.021-1.051 7.968-1.366 11.906-.264 3.296-.759 6.591-.751 9.916.022 9.708.007 19.416.007 29.123l-3.492.278c.23-3.135-.584-6.153-.613-9.24-.052-5.664.131-11.334-.056-16.993-.19-5.763.803-11.455.71-17.215-.042-2.676.708-5.365 1.1-8.048l1.168-.01ZM209.94 223.909c-.062-4.015.966-7.892 1.477-11.835.636-4.906 1.717-9.743 2.092-14.693.204-2.701.762-5.378 1.216-8.057a2.78 2.78 0 0 1 1.73-2.208c1.455-.614 2.207-.184 2.296 1.422a15.531 15.531 0 0 1-.39 3.463c-.585 3.441-.922 6.924-1.362 10.39-.793 6.256-1.632 12.506-2.362 18.768-.217 1.868-1.765 2.047-2.938 2.751l-1.76-.001Z" class="color925941 svgShape"></path><path fill="#d08f8a" d="M33.913 252.794c9.781-1.32 19.517-2.92 29.263-4.477 10.892-1.741 21.774-3.864 32.884-3.847 1.474.002 2.87-.72 4.366-.41a1.65 1.65 0 0 1 1.179 2.113c-7.653.964-15.305 1.787-23.036 2.049a124.258 124.258 0 0 0-15.374 1.955c-9.051 1.453-18.007 3.565-27.23 3.77-.683.014-1.367-.031-2.05-.048a.697.697 0 0 1-.002-1.105Z" class="colord09e8a svgShape"></path><path fill="#924741" d="M202.868 223.917c-.09-3.342.828-6.545 1.412-9.787 1.327-7.37 3.964-14.428 5.305-21.801.121-.667.293-1.319.363-2.002.19-1.86.217-1.857 2.661-2.517.683 2.142-.203 4.234-.556 6.187-.899 4.972-1.302 10.001-2.133 14.973-.718 4.302-1.455 8.602-2.165 12.906-.11.67-.122 1.357-.179 2.036l-4.708.005Z" class="color925941 svgShape"></path><path fill="#86413b" d="M209.343 288.676c0-5.856.137-11.716-.032-17.567-.211-7.314.703-14.579.787-21.885a30.354 30.354 0 0 1 .858-8.647c.283-.92.234-1.783-1.025-1.948 1.04-1.05 2.357-.407 3.542-.575-.882 2.706-.79 5.56-1.114 8.334-.822 7.062-.303 14.208-.78 21.276-.461 6.819-.318 13.616-.464 20.422l-.006.008c-.44.633-.885 1.256-1.76.588Z" class="color86533b svgShape"></path><path fill="#86423c" d="m216.994 287.494.005-49.45c1.01-.057 1.89-.765 2.947-.58-.182.451-.549.916-.517 1.352.238 3.232-.696 6.372-.675 9.588.044 6.93 0 13.86.023 20.79a13.373 13.373 0 0 0 .41 4.63c.512 1.436-.528 2.807-.46 4.3.136 2.922.043 5.855.044 8.783l-.007.007c-.499.463-.964 1.028-1.764.589Z" class="color86533c svgShape"></path><path fill="#914741" d="M162.62 238.178c5.291-.616 10.571-1.402 15.88-1.779a70.697 70.697 0 0 0 8.395-.784c3.365-.65 6.779-.226 10.134-.936a31.326 31.326 0 0 1 5.836-.17c1.08-.36 2.288-.709 3.1.268.657.79.064 1.578-.743 2.082-5.571-.082-11.11.596-16.68.736-4.939.123-9.907.63-14.848 1.094-4.059.38-8.086 1.094-12.128 1.66-.292-1.035.35-1.618 1.054-2.171Z" class="color915941 svgShape"></path><path fill="#904640" d="M214.646 233.343c4.87-.002 9.685-.808 14.524-1.061 8.057-.422 16.124-1.243 24.232-.344-2.715.255-5.44.312-8.145.75-4.494.728-9.047 1.28-13.57 1.6-4.33.305-8.629 1.299-13.009.915-.983-.086-1.84.674-2.852.493-.725.395-1.5.51-1.96-.274-.531-.902-.044-1.595.78-2.079Z" class="color905840 svgShape"></path><path fill="#9fb7e0" d="M162.62 238.178a3.995 3.995 0 0 1-1.054 2.172c-4.468.491-8.943.93-13.402 1.502a37.175 37.175 0 0 1-4.67.388 5.585 5.585 0 0 1-3.116.127c-1.129-.23-1.817-.868-.504-1.892l22.746-2.297Z" class="color9fabe0 svgShape"></path><path fill="#dedede" d="M126.987 243.845q-10.61 1.144-21.26 1.828c.116-1.89 1.812-1.692 2.95-2.232 5.461-.501 10.903-1.239 16.393-1.401 1.407-.213 2.327.09 1.917 1.805Z" class="colordedede svgShape"></path><path fill="#87a1cc" d="M142.866 244.633c2.569 3.768 6.693 5.042 10.607 6.698-.495.675-1.129.714-1.993.506-4.02-.971-7.78-2.389-10.695-5.502a14.828 14.828 0 0 0-1.569-1.284c1.154-.688 2.414-.447 3.65-.418Z" class="color8794cc svgShape"></path><path fill="#89433d" d="M214.646 233.343c-.826 2.02-.803 2.065 1.18 2.353-.85.94-1.977.548-2.987.563a48.147 48.147 0 0 0-7.617.6c.757-2.298.757-2.298-2.357-2.35.332-.182.677-.544.993-.52 3.628.27 7.177-.707 10.788-.646Z" class="color89543d svgShape"></path><path fill="#9fb6dd" d="M126.987 243.845c-.138-1.134-.911-1.593-1.917-1.805a88.332 88.332 0 0 1 11.265-1.066c.704.413 1.626.68 1.216 1.832-3.474.827-7.037.757-10.564 1.04Z" class="color9faadd svgShape"></path><path fill="#9eb5da" d="m108.677 243.44-2.95 2.233c-1.374.162-2.706.683-4.122.5l-1.179-2.114c2.758-.103 5.468-.848 8.25-.618Z" class="color9ea9da svgShape"></path><path fill="#8aa2c9" d="m137.55 242.806-1.215-1.832a6.812 6.812 0 0 1 3.54-.499c-.512.908-.211 1.496.77 1.627.94.126 1.899.098 2.849.137-1.914.888-3.967.332-5.943.567Z" class="color8a94c9 svgShape"></path><path fill="#b37570" d="M33.913 252.794q0 .553.002 1.105c-2.555.031-5.116.297-7.665-.262 2.557-.315 5.052-1.091 7.663-.843Z" class="colorb38570 svgShape"></path><path fill="#bc7973" d="M28.604 256.285c-.819-.01-1.694.244-2.356-.5.83-.045 1.695-.25 2.356.5Z" class="colorbc8873 svgShape"></path><path fill="#ad4b43" d="m225.794 82.008.01 2.98c-2.984-1.67-5.518-4.022-8.584-5.587a3.977 3.977 0 0 0-2.693-.456c-1.536.231-3.222.524-4.688-.63a76.866 76.866 0 0 0 13.327-2.251c-1.105 1.677-2.951 1.454-4.431 2.821 2.713.788 4.788 2.146 7.06 3.123Z" class="colorad4343 svgShape"></path><path fill="#ad4a42" d="M202.159 72.875c2.036-3.47 11.988-6.714 18.544-5.965-.474 1.213-1.534 1.306-2.516 1.578-2.357.65-4.81.612-7.206 1.026a21.835 21.835 0 0 0-7.825 3.101 5.756 5.756 0 0 1-.767.39c-.05.021-.152-.083-.23-.13Z" class="colorad4242 svgShape"></path><path fill="#ae4b43" d="M216.414 97.373q-.574.01-1.147.023c-2.377.282-4.065-1.274-5.774-2.435-1.922-1.305-4.067-2.498-5.174-4.788 2.784 1.511 5.437 3.211 8.158 4.79 1.323.767 2.89 1.183 3.937 2.41Z" class="colorae4343 svgShape"></path><path fill="#88a2cd" d="M285.88 187.13c-1.386-.657-1.8-2.003-2.252-3.233a71.034 71.034 0 0 1-3.153-13.324 20.384 20.384 0 0 1 .149-8.085 7.976 7.976 0 0 1 .991-2.726.716.716 0 0 1 .755-.308.602.602 0 0 1 .496.626 6.23 6.23 0 0 1 0 1.751c-1.082 4.778-.374 9.459.448 14.194a99.688 99.688 0 0 0 2.567 11.105Z" class="color8894cd svgShape"></path><path fill="#8ba5d1" d="M266.608 166.018a32.337 32.337 0 0 1-1.682 9.636 24.915 24.915 0 0 1 1.682-9.636Z" class="color8b98d1 svgShape"></path><path fill="#8aa4d0" d="M291.536 180.272c-2.014-2.155-1.731-4.757-2.521-6.964-.06-.17.196-.589.403-.688.493-.236.703.227.792.565a62.57 62.57 0 0 1 .92 3.938c.18.92.245 1.862.406 3.149Z" class="color8a97d0 svgShape"></path><path fill="#8da7d2" d="M268.777 183.735c.92 2.725.507 5.722 1.595 8.413-1.708-1.908-2.405-5.338-1.595-8.413Z" class="color8d9ad2 svgShape"></path><path fill="#924741" d="M234.654 185.74c-2.392.151-4.32-.826-6.397-.735-1.04.047-1.166-.753-1.257-1.604-.254-2.375.438-4.66.733-6.96.729-5.675 1.954-11.286 2.67-16.962a41.321 41.321 0 0 0 .713-6.076 8.97 8.97 0 0 1 .811-3.244c.642-.347 1.078-.05 1.53.089 3.875 1.19 3.776 1.175 3.127 5.312a36.946 36.946 0 0 0-.643 6.368c.11 5.095-.815 10.112-.742 15.198.04 2.885-.795 5.739-.545 8.615ZM215.798 182.641c.453-2.566.937-5.244 1.398-7.926.922-5.36 1.804-10.725 2.756-16.08.528-2.965 1.161-5.912 1.759-8.865a2.923 2.923 0 0 1 .358-1.097 1.543 1.543 0 0 1 1.823-.572c.723.215.794.847.73 1.422-.445 3.956-.832 7.923-1.42 11.859-.805 5.378-1.788 10.729-2.664 16.097a21.736 21.736 0 0 0-.629 5.21 1.841 1.841 0 0 1-1.243 1.816c-.712.344-1.43.762-2.223.358-.898-.459-.52-1.366-.645-2.222ZM218.767 223.329c-2.457-.282-2.355-.267-2.018-2.55.554-3.754.936-7.532 1.435-11.294.665-5.015 1.313-10.034 2.093-15.032.316-2.02.23-4.078.789-6.085.285-1.024.57-1.577 1.687-1.52 1.273.066 1.374.945 1.294 1.861-.187 2.135-.315 4.287-.701 6.389-1.34 7.275-2.54 14.569-3.452 21.912-.263 2.12-.745 4.213-1.127 6.319ZM239.372 133.321c-.228 1.543-.47 3.673-.69 5.8-.3 2.891-.837 5.77-1.086 8.677-.108 1.257-.718 1.393-1.8 1.028-3.9-1.319-4.042-1.327-3.435-5.435a70.139 70.139 0 0 0 1.17-11.615c-.034-1.794.537-2.064 2.456-1.712.383.07.762.166 1.147.224 2.23.335 2.23.333 2.238 3.033ZM229.356 151.487c-.48 3.419-.975 7.071-1.508 10.718q-.987 6.767-2.028 13.527a32.998 32.998 0 0 0-.636 5.794 6.182 6.182 0 0 1-.648 2.23c-.32.817-1.077.713-1.756.663-.911-.069-1.095-.738-1.043-1.467.098-1.356.451-2.678.653-4.022 1.039-6.906 2.416-13.764 3.296-20.687a47.903 47.903 0 0 0 .746-7.541c-.03-.954-.18-2.132 1.33-2.073 1.245.048 1.594.94 1.594 2.037ZM212.875 129.124c3.023-2.324 6.662-3.112 10.219-4.113 3.219-.906 6.593-.302 9.844-1.108 1.804-.447 3.6.648 5.484.639 1.141-.006 1.461 1.19 1.462 2.205 0 1.312-1.046 1.19-1.914 1.195-2.545.015-5.094.098-7.633-.013-5.852-.256-11.384 1.195-16.87 2.961a1.895 1.895 0 0 1-.592-1.766Z" class="color925941 svgShape"></path><path fill="#924842" d="M212.875 129.124c.693.423.572 1.118.592 1.766-1.033.118-1.335.76-1.03 1.647.29.843.927.374 1.457.243 3.773-.935 3.83-.922 3.056 2.968a37.43 37.43 0 0 0-1.134 8.9c.054 1.28-.582 1.89-1.796 2.254a42.368 42.368 0 0 0-4.038 1.644c-.036-2.766.795-5.428.972-8.167.561-3.736.387-7.56 1.33-11.253Z" class="color925942 svgShape"></path><path fill="#914741" d="M211.114 183.617c.452-2.35.897-4.742 1.374-7.126 1.525-7.627 2.54-15.35 4.435-22.907.33-1.312-.13-2.728.442-4.057.36-.837.565-1.798 1.765-1.434 1.17.355.558 1.194.422 1.93q-2.438 13.19-4.832 26.387-.675 3.73-1.218 7.483c-.135.94-.204 1.863-1.47 1.65-1.077-.183-.862-1.13-.918-1.926Z" class="color915941 svgShape"></path><path fill="#924741" d="M231.715 133.118c-.518 3.936-.683 7.92-1.641 11.796-.202.815-.08 1.89-1.398 1.814-1.446-.082-1.599-1.103-1.682-2.269a17.132 17.132 0 0 1 .684-6.064c.67-2.273.346-4.643 1.02-6.913.314-1.06.432-1.854 1.766-1.737 1.274.112 1.237 1.011 1.25 1.907.007.489.001.977.001 1.466Z" class="color925941 svgShape"></path><path fill="#914741" d="M212.33 127.942a11.711 11.711 0 0 1 .474-4.902c.133.94.466 1.446 1.544.935a40.262 40.262 0 0 1 9.254-2.604c4.968-1.03 9.975-1.64 15.017-.424.365.088.766.201.823 1.115-1.783 0-3.568.026-5.351-.005a46.065 46.065 0 0 0-16.08 2.334 21.02 21.02 0 0 1-2.712 1.072 4.2 4.2 0 0 0-2.969 2.48Z" class="color915941 svgShape"></path><path fill="#924741" d="m222.313 133.448-1.73 10.617a7.355 7.355 0 0 1-.146.867 1.532 1.532 0 0 1-1.761 1.196c-1.111-.096-1.162-.96-1.058-1.734.26-1.926.537-3.843.694-5.787a49.96 49.96 0 0 1 1.026-5.429c.35-1.804.944-2.49 2.02-2.198 1.38.377.775 1.578.955 2.468Z" class="color925941 svgShape"></path><path fill="#914741" d="M222.639 144.365a106.548 106.548 0 0 0 1.417-12.434c.034-1.313.68-1.724 1.86-1.587.684.08 1.068.454.95 1.176q-1.077 6.593-2.17 13.184c-.111.682-.129 1.486-1.114 1.357-.996-.13-1.235-.805-.943-1.696ZM234.18 102.664c.763.023 1.285.018 1.48.59a1.083 1.083 0 0 1-.644 1.443 14.114 14.114 0 0 1-2.81.679c-.35.05-.712-.308-.834-.714a.802.802 0 0 1 .361-1.008c.873-.406 1.785-.727 2.447-.99Z" class="color915941 svgShape"></path><path fill="#914741" d="M228.1 103.935c.818-.063 1.2.28 1.198.981-.003 1.668-1.51 1.112-2.345 1.511-.703.337-1.08-.13-1.065-.832.03-1.56 1.516-1.145 2.213-1.66Z" class="color915841 svgShape"></path><path fill="#914741" d="M239.228 104.458c-.655-.065-1.362.516-1.533-.44-.142-.794.233-1.371 1.054-1.337.963.041 2.553-.567 2.702.698.204 1.731-1.607.585-2.223 1.08Z" class="color915941 svgShape"></path><path fill="#c4c4c5" d="M159.42 364.535c-2.52 2.034-5.012 2.356-7.3 2.88-4.545 1.04-9.174 1.741-13.791 2.425-2.05.303-4.033-.473-5.993-1.04-.476-.138-.994-.48-.899-1.005.124-.68.794-.817 1.4-.786a15.22 15.22 0 0 1 1.728.257 31.511 31.511 0 0 0 9.336.036c4.989-.652 9.931-1.59 15.519-2.767Z" class="colorc5c4c4 svgShape"></path><path fill="#c6c6c6" d="M109.986 373.138a15.118 15.118 0 0 1-1.805-4.561 1.061 1.061 0 0 1 .855-1.324c.563-.124.852.37 1.03.828a7.287 7.287 0 0 1-.08 5.057Z" class="colorc6c6c6 svgShape"></path><path fill="#cccccd" d="M99.815 371.579a6.339 6.339 0 0 1-2.155-1.565c1.521.26 1.521.26 2.155 1.565Z" class="colorcdcccc svgShape"></path><path fill="#87423c" d="M238.747 82.43c.353 2.569-.778 5.004-.649 7.57a1.192 1.192 0 0 1-1.575 1.259c-.737-.18-.753-.894-.588-1.444.95-3.179.283-6.43.506-9.637.055-.79-.376-2.028.92-2.063 1.067-.028 1.244 1.112 1.363 1.968a17.33 17.33 0 0 1 .023 2.347Z" class="color87533c svgShape"></path><path fill="#bc7973" d="M18.637 249.227c.551.387.56.782.02 1.187l-.02-1.187Z" class="colorbc8873 svgShape"></path><path fill="#86413b" d="m230.537 288.673.596-.578-.596.578Z" class="color86533b svgShape"></path><path fill="#7e4540" d="M170.5 130.309c-1.035-.956-1.385-2.31-2.028-3.493-.665-1.22.048-1.867 1.09-2.166a7.69 7.69 0 0 1 4.312.022 8.477 8.477 0 0 0 4.573-.04 37.165 37.165 0 0 1 7.393-1.409 2.472 2.472 0 0 1 .53.057c-.918 1.817-1.912 3.554-4.106 4.086-.682.385-1.332.072-1.975-.112a7.252 7.252 0 0 0-7.066 1.69c-.78.662-1.429 1.689-2.723 1.365Z" class="color7e4040 svgShape"></path><path fill="#955651" d="M170.5 130.309a12.458 12.458 0 0 0 1.545-1.295 7.81 7.81 0 0 1 10.219-1.648 8.826 8.826 0 0 1-8.701 5.302c-1.544-.17-2.324-1.208-3.063-2.359Z" class="color955151 svgShape"></path><path fill="#7b3934" d="M217 287.503a3.938 3.938 0 0 1 1.764-.589c0 2.243-.027 4.487.013 6.73.021 1.228-.232 2.455.78 3.58.778.866.103 1.703-.882 1.932a5.113 5.113 0 0 1-2.308-.034 1.102 1.102 0 0 1-.357-2.094 2.174 2.174 0 0 0 .986-2.21q.004-3.657.004-7.315Z" class="color7b4a34 svgShape"></path><path fill="#7c3a34" d="m209.35 288.682 1.759-.588c.207 2.702-.45 5.451.46 8.115.185.544.174 1.253.528 1.624 1.08 1.134.29 1.764-.544 2.308a2.54 2.54 0 0 1-3.13-.713c-.112-.229-.165-.672-.031-.81 1.599-1.644.793-3.686.932-5.555.108-1.453.024-2.92.025-4.381Z" class="color7c4a34 svgShape"></path><path fill="#7c3a35" d="M199.322 293.997a6.956 6.956 0 0 1-.35 2.57 2.93 2.93 0 0 0 .348 2.752c.882 1.332.389 2.122-1.2 2.282a5.208 5.208 0 0 1-1.744-.098c-.632-.156-1.156-.704-.548-1.257 1.466-1.333 1.113-3.022 1.152-4.653.012-.49-.004-.98.006-1.468.02-1.097.008-2.476 1.5-2.315 1.414.154.539 1.625.836 2.187ZM206.156 299.534a1.067 1.067 0 0 1-.45 1.158 1.825 1.825 0 0 1-1.94.117 1.308 1.308 0 0 1-.732-1.713 7.768 7.768 0 0 0-.035-5.151 16.094 16.094 0 0 1-.145-2.326c-.139-.928.144-1.482 1.094-1.624 1.166-.174 1.258.612 1.269 1.45.01.78-.033 1.564.015 2.343.122 2-.568 4.134.924 5.746Z" class="color7c4b35 svgShape"></path><path fill="#c2817c" d="M253.482 34.975c-1 2.168-1.531 2.53-3.41 2.228-.665-.107-1.314-.31-1.972-.468-.783-1.428.093-2.049 1.235-2.54 1.421.05 3.037-.926 4.147.78ZM277.777 47.968a.859.859 0 0 1-.603-.07c-.114-.054-.23-.127-.254-.223-.118-.469.254-.618.649-.626a.474.474 0 0 1 .533.48.416.416 0 0 1-.325.439ZM282.299 43.226a.859.859 0 0 1-.603-.07c-.114-.054-.23-.127-.254-.222-.118-.47.253-.619.649-.627a.474.474 0 0 1 .533.48.416.416 0 0 1-.325.439ZM271.965 52.77c-.08-.048-.439-.146-.483-.324-.118-.469.253-.618.648-.626a.474.474 0 0 1 .534.48c0 .305-.194.498-.7.47ZM265.818 57.363c-.08-.05-.438-.147-.483-.324-.118-.47.253-.619.649-.627a.474.474 0 0 1 .533.48c0 .305-.193.498-.699.471Z" class="colorc2907c svgShape"></path><path fill="#7b3933" d="m1.139 378.156 11.012-.332 11.013-.25 22.025-.494q22.025-.388 44.05-.64c14.683-.204 29.367-.25 44.05-.369l44.05-.122 44.05.116c14.683.123 29.367.162 44.05.368q22.025.223 44.05.64l22.025.497 11.013.252 11.012.334-11.012.333-11.013.252-22.025.497q-22.025.387-44.05.64c-14.683.206-29.367.245-44.05.368l-44.05.116-44.05-.122c-14.683-.12-29.367-.165-44.05-.368q-22.025-.222-44.05-.64l-22.025-.494-11.013-.251Z" class="color7b4933 svgShape"></path></g></g></svg>