<svg xmlns="http://www.w3.org/2000/svg" viewBox="0 0 469.785 408.482" id="Trailer"><g fill="#000000" class="color000000 svgShape"><g fill="#000000" class="color000000 svgShape"><path fill="#c4d5f2" d="M451.105 261.07a343.917 343.917 0 0 1-25.853 34.656c-12.806 15.172-21.03 22.35-26.785 37.357-3.446 8.982-6.433 16.786-4.148 26.098 2.25 9.207-4.8 29.14-12.624 45.313H44.362c-12.879-29.74-8.332-54.755-8.332-54.755 3.543-19.533 14.197-35.352 26.314-53.34 17.086-25.368 22.6-24.048 33.242-43.204 4.958-8.935 12.939-50.629-5.103-96.343-12.939-32.794-9.783-40.126-9.082-55.438 1.633-35.706 25.673-59.494 28.394-62.111 27.982-26.889 63.884-26.971 77.573-27.007 38.019-.094 55.239 7.698 67.258 15.608 8.598 5.646 71.963 64.893 81.057 72.036 15.03 11.812 32.371 15.124 52.167 18.896 16.131 3.077 17.389 1.285 27.704 4.503 1.692.53 23.87 7.674 37.861 23.411 26.519 29.824 17.184 83.353-2.31 114.32Z" class="colordff2c4 svgShape"></path><path fill="#c4d5f2" d="M383.786 99.843a49.14 49.14 0 0 1-32.22-4.304c-8.445-4.174-15.293-10.11-21.752-16.637-3.145-3.178-6.679-5.931-10.07-8.842a61.027 61.027 0 0 1-9.241-9.21 27.748 27.748 0 0 1-5.594-11.916c-1.454-8.5-.302-16.64 4.432-24.174 3.109-4.946 6.637-9.517 11.425-12.972a53.372 53.372 0 0 1 15.18-7.882 81.427 81.427 0 0 1 9.115-2.511C357.422-.986 369.666-.445 381.428 4c14.389 5.44 24.464 15.441 30.783 29.162a51.816 51.816 0 0 1 3.325 9.66 48.557 48.557 0 0 1 .505 20.316 52.985 52.985 0 0 1-9.673 22c-5.65 7.61-12.948 12.844-22.582 14.705ZM57.969 228.042c-10.352-.63-18.265-3.939-24.813-10.26-3.528-3.405-5.06-7.72-6.046-12.342-1.276-5.978.265-11.579 2.14-17.145 1.41-4.183 3.283-8.195 4.514-12.462 1.09-3.784.695-7.408-.04-11.094-.946-4.75-2.348-9.449-2.858-14.24-.753-7.088-.608-14.208 4.368-20.166 5.856-7.01 13.397-10.345 22.715-9.278a11.437 11.437 0 0 1 6.211 3.211 37.708 37.708 0 0 1 7.307 9.487 66.334 66.334 0 0 1 6.932 18.565c2 8.873 5.251 17.316 8.465 25.79a47.066 47.066 0 0 1 3.305 14.454c.273 5.927-1.528 11.537-4.14 16.868a39.367 39.367 0 0 1-11.013 13.297 22.833 22.833 0 0 1-8.203 3.896c-3.211.909-6.54 1.918-8.844 1.419Z" class="colordff2c4 svgShape"></path><path fill="#787878" d="M255.788 355.003a7.836 7.836 0 0 0 1.142-3.214c1.033-.297.547.643.9.9a122.378 122.378 0 0 0 4.717 20.168c.26.827.464 1.668.693 2.502a24.412 24.412 0 0 1-.506 11.58c-3.356.239-6.718.088-10.077.108a3.086 3.086 0 0 1-.77-.868 4.517 4.517 0 0 0-.58-.678c-.183-.124-.358-.248-.55-.365-.226-.103-.44-.21-.663-.314-9.511-3.167-11.53-10.302-10.384-18.246a25.623 25.623 0 0 1 1.737-5.879 3.491 3.491 0 0 1 1.728-2.243 19.811 19.811 0 0 1 4.344-.635 12.38 12.38 0 0 0 8.27-2.816ZM154.646 384.208c.206-5.092.508-10.18.786-15.269 1.293-23.664 1.214-47.347 1.25-71.029a4.695 4.695 0 0 0-.264-2.087l9.194.008c.771.914.553 2.085.99 3.088 1.09 9.034 2.977 17.993 3.621 27.056.461 6.489 1.415 12.936 1.741 19.423.303 6.044-.892 12.021-1.522 18.017a3.024 3.024 0 0 0 2.224 2.882c4.069 1.699 8.233 2.914 12.798 1.87a7.366 7.366 0 0 1 1.611-.155.779.779 0 0 1 .61.432 17.788 17.788 0 0 1-2.247 8.311 6.005 6.005 0 0 1-3.814 2.964c-2.923.928-5.762 2.079-8.907 2.32a4.892 4.892 0 0 0-2.17.709 5.764 5.764 0 0 0-.726.653c-.108.167-.222.331-.322.5a3.903 3.903 0 0 0-.263.83 1.926 1.926 0 0 1-.597 1.347c-7.15.022-6.465.061-13.616.072-.67 0-.427-.721-.377-1.942ZM229.95 389.95s16.33.18 25.35.368a45.973 45.973 0 0 0 8.528-.353c-.694.305-1.43.529-1.422 1.45.008.859-.16 1.718-.203 2.578-.179 3.604-.312 7.21-.519 10.812-.107 1.88-.438 2.09-2.556 1.726a16.32 16.32 0 0 0-3.108.132c-4.785.065-9.574.28-14.353.169-2.23-.052-4.452-.627-6.726-.51-.955.049-1.918.027-2.865.127-2.215.234-2.26.257-2.284-1.844-.05-4.157-.029-8.315-.061-12.473a5.287 5.287 0 0 1 .218-2.181Z" class="color787878 svgShape"></path><path fill="#fbbc05" d="M276.265 399.31a1.273 1.273 0 0 0-.152-.444c-2.471-2.9-4.506-6.057-6.69-9.127-1.242-.787-1.295-2.196-2.083-3.222-1.818-3.724-3.278-7.569-4.758-11.408a106.574 106.574 0 0 1-5.38-22.321 28.112 28.112 0 0 0-.933-4.315c-1.407-13.059-2.586-26.128-2.275-39.265.092-3.9.575-7.784.713-11.685a6.62 6.62 0 0 0 .386-2.112c.088-3.121.088-3.13-3.306-3.185-4.779-.079-9.558-.01-14.337-.036-3.804-.022-4.373-.471-4.317-3.976.035-2.161-.547-4.389.573-6.478 1.54-.265 1.309.892 1.409 1.578a33.68 33.68 0 0 1 .104 4.882c-.001 1.447.682 2.133 2.323 2.12 1.633-.014 3.27-.048 4.902.029.29 0 .582.004.872.005 3.041-.021 6.088-.077 9.127.023 2.112.07 3.183-.488 3.365-2.557a50.863 50.863 0 0 1 1.353-8.37c.472-1.814-.08-2.862-2.13-3.212-.73-.682-.03-1.09.48-1.104 2.523-.07 2.99-1.63 3.241-3.404.02-.246.057-.488.099-.731 1.062-5.167 2.705-10.226 3.472-15.447a204.802 204.802 0 0 0 5.533-26.225c.566-5.832.822-11.628-2.228-17.07-.9-.898-2.102-.602-3.18-.59a173.973 173.973 0 0 1-19.117-.717c-1.244-.601-.433-1.307-.13-1.99.818-1.295.377-2.533-.208-3.766-.467-.985-1.18-1.903-1.011-3.061a14.562 14.562 0 0 1 1.44-3.987 6.373 6.373 0 0 1 6.909-3.039 33.702 33.702 0 0 0 9.75.779 55.987 55.987 0 0 1 16.66.753 17.237 17.237 0 0 0 3.913.233 20.25 20.25 0 0 1-3.157-.13c-2.968-.074-5.764-1.065-8.702-1.287-3.3-.25-6.518.606-9.829.531a67.515 67.515 0 0 1-7.477-.67c-5.087-.683-7.087.27-8.9 4.65-.121.293-.294.567-.42.857-.277.366-.729.568-1.085.274-2.887-2.385-6.18-4.47-7.54-8.026a20.083 20.083 0 0 1 3.398-6.487c1.34-.901 2.9-.656 4.407-.689a9.515 9.515 0 0 1 1.23.097 4.492 4.492 0 0 1 .793.186c.386.123.757.277 1.126.435a9.435 9.435 0 0 1 1.626.727c5.187 3.627 11.244 4.469 17.566 4.59a21.936 21.936 0 0 0 6.072-1.084 4.926 4.926 0 0 1 .777-.161 7.037 7.037 0 0 1 1.297-.052c3.695.183 3.686.187 2.402-3.144-.57-1.48-1.225-2.966-.24-4.521 1.599-1.302 3.522-.805 5.358-.796a7.254 7.254 0 0 1 1.905.556 6.982 6.982 0 0 0 1.751.487 6.956 6.956 0 0 1 .72.154c.6.176 1.224.254 1.84.373a11.39 11.39 0 0 0 2.78.425c-1.32-5.432-.564-6.096 5.417-4.828a16.43 16.43 0 0 0 6.972.206c8.014-1.788 15.474-.35 22.698 2.832a5.427 5.427 0 0 0 3.458.762c2.698.922 4.463.15 5.927-2.123 1.116-1.731 3.06-2.53 5.509-2.601 1.986-.058 3.92-.358 5.835.328.849.303 1.302-.25 1.721-.74 2.142-2.504 5.369-3.136 8.473-3.663a6.555 6.555 0 0 1 7.44 4.252 19.413 19.413 0 0 1 1.05 5.061 9.746 9.746 0 0 0 5.63 7.72 33.74 33.74 0 0 0 7.216 2.666 28.847 28.847 0 0 1 6.501 2.385c3.305 1.779 4.393 3.982 3.867 7.469a7.61 7.61 0 0 0 1.17 5.42 3.238 3.238 0 0 1 .166 3.939c-1.002 1.575-.6 3.52-.837 5.288-.65 4.815-1.623 9.583-2.33 14.387-.75 5.113-1.66 10.207-2.49 15.31-1.358 8.357-3.162 16.64-4.96 24.926-2 9.205-4.058 18.407-5.382 27.712-.605 4.259-.945 8.56-1.319 12.85a125.538 125.538 0 0 0-.359 13.147 98.993 98.993 0 0 0 4.413 25.91c2.474 8.505 6.168 16.622 9.642 24.81 2.7 6.363 5.322 12.753 6.59 19.504a26.025 26.025 0 0 1 .305 7.236c-.108 1.165-.549 1.651-1.918 1.597a59.025 59.025 0 0 0-10.661.451 1.042 1.042 0 0 1-1.178.016c-6.875.002-13.765-.26-20.622.059-15.31.712-30.62.197-45.927.352-3.917.04-7.807.549-11.721.424-6.708-.214-13.056-1.566-18.693-5.035-2.137-.017-2.77-1.598-3.69-2.882Z" class="colorffad84 svgShape"></path><path fill="#cb5f56" d="M97.618 330.559c1.738 2.771 4.468 4.178 7.844 4.859a44.516 44.516 0 0 0 14.65.877 35.84 35.84 0 0 1 10.807-.07 1.536 1.536 0 0 1 .636 1.464c-.365 11.16-1.077 22.309-1.382 33.471a4.386 4.386 0 0 1-.39 1.592c-4.088 6.742-8.343 13.396-13.95 19.255a17.742 17.742 0 0 1-4.132 2.75.689.689 0 0 1-.543.153c.237.379.25-.096.397-.089.065.003.135-.058.206-.092 4.082-1.825 6.361-5.232 8.931-8.35a98.413 98.413 0 0 0 6.88-9.963c.409-.642.851-2.308 1.944-.337a26.625 26.625 0 0 1 .148 6.776q-.758 10.268-.973 20.554c-.025 1.142.226 2.374-.879 3.295a3.348 3.348 0 0 0-2.008-.109c-8.773 1.586-17.612 1.492-26.481.844q-9.353-.683-18.724-1.158c-10.405-.536-20.835-.756-31.206-1.774a49.47 49.47 0 0 1-7.912-1.38 114.227 114.227 0 0 0-14.21-2.941 69.93 69.93 0 0 0-20.241.32c-1.175.185-2.817 1.2-3.55-.124-.557-1.008 1.114-1.776 1.805-2.627a14.1 14.1 0 0 1 4.161-3.173c5.197-2.926 9.627-6.7 14.189-10.328a26.762 26.762 0 0 0 7.68-10.227c2.102-4.641 3.87-9.397 6.153-13.979 4.961-9.954 13.03-16.85 24.365-20.687 6.38-2.16 13.113-3.031 19.679-4.51a19.13 19.13 0 0 0 6.04-2.049 17.967 17.967 0 0 0 7.182-1.61c.907-.366 1.755-1.05 2.884-.633Z" class="colorcb9b56 svgShape"></path><path fill="#713b37" d="M242.81 210.484c7.08.326 14.168.446 21.257.522.878.01 1.998-.323 2.344.894-1.05.96-2.418.744-3.692.755-8.95.077-17.9.066-26.836-.512-1.216-.079-2.432-.01-3.647-.025-16.59-.206-33.189-.055-49.757-1.048-3.986-.644-8.056-.304-12.055-.827-.845-.11-1.717-.015-2.578-.102-.161-.016-.747-.733-.698.166-1.026 1.227-2.507.981-3.83.801a52.593 52.593 0 0 0-8.328-.33c-11.218.26-22.41-.723-33.628-.523-3.192.057-3.544.279-3.637 3.222-.008.235-.006.47-.007.705-.02 3.578.016 3.592 4.095 3.624 4.85.038 9.709-.174 14.55.302.287 1.148-.409 1.586-1.52 1.566a42.604 42.604 0 0 1-6.611-.164c-3.465-.036-6.932-.015-10.393-.128-2.458-.08-2.5-.161-2.417-2.318.096-2.5.363-4.995.395-7.494.016-1.308.698-1.598 1.922-1.56 1.214.036 2.43.012 3.644.024l23.944.222c1.843.015 1.867-.008 1.899-1.639.08-4.144.131-8.288.21-12.433a4.757 4.757 0 0 1 .2-2.085c1.089.835.848 1.996.864 3.06.052 3.444 0 6.888.03 10.331.009 1.154.078 2.283 1.896 2.15 1.468.092 2.92.323 4.398.285 2.622-.069 3.03-.361 3.068-2.719.076-4.678-.021-9.357.048-14.035.024-1.675.186-3.338 2.383-3.981 2.706-.033 3.523-1.891 4.344-3.704.87-1.92.704-3.998.836-5.994.366-5.572 1.291-11.134.623-16.737a3.388 3.388 0 0 1-.225-.726c3.274-2.88 7.475-3.009 11.658-3.19a2.803 2.803 0 0 1 2.165-.551c5.551.56 11.141.897 16.548 2.29 5.16 1.365 10.538 1.719 15.772 2.747 1.206.237 1.738-.21 1.877-1.31.085-.673-.16-1.685 1.192-1.694a.99.99 0 0 1 .325.357c1.214 3.302 1.212 3.309 5.252 3.605 2.996.22 6.008.877 8.964-.216 3.598-1.956 7.63-3.07 11.357-4.787a1.897 1.897 0 0 1 1.299-.046 1.875 1.875 0 0 1 .5.717c.42 6.385.052 12.774.196 19.16a84.508 84.508 0 0 1-.718 8.592 2.355 2.355 0 0 1-.546.744c-1.49.293-3.104-.318-4.523.503-1.415-.272-1.773-1.36-2.25-2.359-.287-2.634-.275-5.345-2.365-7.518-1.019-.956-2.414-1.154-3.737-1.498a12.874 12.874 0 0 0-3.702-.142c-3.85.268-7.639-.545-11.474-.49a147.235 147.235 0 0 0-15.272.575 21.905 21.905 0 0 0-7.74 1.809 9.42 9.42 0 0 0-1.445.749c-4.935 3.098-3.994 7.593-3.33 11.915.453 2.948 2.16 5.595 3.09 8.44.279.916.616 1.814.985 2.704.506 1.387 1.196 2.71 1.742 4.086 1.487 3.621 1.509 3.398 5.705 3.728 6.956.546 13.91.352 20.867.401a26.919 26.919 0 0 1 4.635.201c3.373.56 6.784.095 10.169.31.606-.003 1.213.009 1.818-.02 1.042-.01 2.084.008 3.127.001 1.04.06 2.082.023 3.124.045a2.409 2.409 0 0 1 1.644.597Z" class="color714137 svgShape"></path><path fill="#2d342f" d="M270.002 191.146a10.535 10.535 0 0 1-7.14 1.294 23.65 23.65 0 0 0-4.116-.249 14.63 14.63 0 0 1-9.027-2.315 59.326 59.326 0 0 0-5.83-3.025c2.558-1.749 2.32-4.284 2.317-6.743-.006-7.172.445-14.326.988-21.478a18.85 18.85 0 0 0 .038-2.339c-.127-2.626-.474-2.991-3.327-3.548-.795-.835-.232-1.635.136-2.396a47.118 47.118 0 0 0 4.494-14.142c.14-1.019-.14-2.777 2.141-2.496a65.29 65.29 0 0 1 19.982 7.605c.576.332 1.156.71 1.262 1.408-.168 8.906-.604 17.804-1 26.703-.275 6.189-.096 12.382-.249 18.572-.026 1.076.236 2.218-.67 3.15Z" class="color342d2d svgShape"></path><path fill="#a0bae4" d="M270.002 191.146c-.047-7.742-.027-15.484.291-23.224.132-3.205.14-6.415.247-9.621q.166-5.04.42-10.079a19.599 19.599 0 0 1 .96-5.501c.182.26.3.665.555.757a18.282 18.282 0 0 1 5.795 3.86c4.94 4.346 10.109 8.461 15.21 12.645a30.321 30.321 0 0 1 4.493 12.578c.197.83.517.36.222.527-.14.079-.23.045-.232-.101-.072-3.316-1.256-6.383-2.568-9.426-.329-.763-.93-1.521-.395-2.412 2.851 2.16 5.787 4.236 8.537 6.495a78.32 78.32 0 0 0 16.622 10.424 18.8 18.8 0 0 1 6.738 5.067c-.075 1.343-.92 1.062-1.782.67-2.485-1.135-5.11-1.96-7.678-2.915a27.468 27.468 0 0 0-15.087-.92 22.444 22.444 0 0 1-10.278-.333c-1.05-.282-2.338-1.099-3.37.064-.984 1.107-.352 2.207.198 3.297.342.677 1.057 1.27.673 2.345l-4.402-1.156c-.505-.465-1.27-.132-1.813-.482l-.216-.01a1.358 1.358 0 0 1-.48-.371 12.8 12.8 0 0 1-5.865-4.02c.688 1.423 2.707 1.83 3.104 3.457-1.894.159-3.853-.377-5.685.436-2.698.257-3.27 1.739-3.058 3.936.127 1.313.463 2.783-.735 3.95a1.938 1.938 0 0 1-.421.063Z" class="colora0aee4 svgShape"></path><path fill="#d18f8a" d="M255.283 112.596c-1.525 5.043-3.204 10.034-6.063 14.628-.916.092-.63.801-.787 1.27-1.206 3.598-2.371 7.21-5.048 10.22-1.526 1.717-2.28 1.757-3.248-.258-.807-1.677-2.582-1.957-3.906-2.883a14.011 14.011 0 0 0-2.296-4.419 6.244 6.244 0 0 1-1.269-4.859 13.695 13.695 0 0 0 .16 3.932 11.772 11.772 0 0 1-.734 7.137 2.882 2.882 0 0 1-1.995 2.001c-2.748-.05-3.835-2.321-5.747-3.49-.882-1.535-.207-2.674 1.16-3.633-1.599.83-1.64 2.614-2.803 3.71a7.136 7.136 0 0 0-1.714 2.31c-.271.65-.502 1.53-1.32 1.608-1.008.096-1.31-.891-1.743-1.522a58.688 58.688 0 0 1-4.453-7.89c-.417-.87-.753-1.767-1.98-1.952a2.571 2.571 0 0 1-2.816-1.575c-1.43-3.393-2.888-6.777-4.317-10.17a3.727 3.727 0 0 1-.144-.905c2.402-1.526 3.53.485 5.033 1.467 1.132 2.24 1.049 4.662 1.368 6.94.21-.31-.05-.795.18-1.231a13.023 13.023 0 0 0 .626-10.235 2.057 2.057 0 0 1-.041-1.6 7.48 7.48 0 0 1 3.396-1.637 48.62 48.62 0 0 1 20.472-2.068c3.6.404 7.277.243 10.793 1.247.967.276 2.092.314 2.627 1.305a12.236 12.236 0 0 0-.108 5.767 12.126 12.126 0 0 1-.101 4.859c-.1.248-.22.51-.29.753-.079.272.536.047.192-.003s.137-.488-.023-.224a26.963 26.963 0 0 1 2.282-6.048c1.239-1.315 2.359-2.81 4.657-2.552Z" class="colord19e8a svgShape"></path><path fill="#713d39" d="M128.94 373.409c.846-2.608.23-5.304.571-7.934.715-5.522.106-11.095.887-16.613a28.27 28.27 0 0 0 .066-3.52 77.995 77.995 0 0 1 .455-9.117c.435-12.25.933-24.498 1.701-36.736.657-2.683-.17-5.433.447-8.118a15.552 15.552 0 0 1 .077-3.652c.648-2.714-.158-5.492.435-8.209a17.192 17.192 0 0 1 .087-4.03c.354-.302.08-.963.761-1.081a3.72 3.72 0 0 1 2.808 1.898 16.2 16.2 0 0 1 .28 3.489 12.7 12.7 0 0 1-.224 2.826c-.728 2.81-.065 5.677-.413 8.498a2.29 2.29 0 0 1-.257.71 3.693 3.693 0 0 1-1.083.94c-.399.284-.87.58-.758 1.097.144.666.83.676 1.406.755a8.643 8.643 0 0 1 1.996.287c.829.321 1.028.76.226 1.328a2.273 2.273 0 0 0-1.314 2.159c.03 3.372-.553 6.708-.62 10.084-.176 8.92-.776 17.829-1.213 26.743a6.289 6.289 0 0 0-.368 2.076c.454 6.421-.435 12.815-.477 19.227-.047 7.272-.919 14.517-1.014 21.788-.073 5.584.368 5.962 6.653 6.566.431.042.865.068 1.298.096a18.757 18.757 0 0 1 3.867.185c3.187.63 6.414.271 9.62.272 4.349.001 8.698-.089 13.041.034.29.026.582.072.869.124a11.223 11.223 0 0 0 5.192.224c.132-.035.264-.063.397-.099a6.103 6.103 0 0 1 .822-.142c.426-.05.853-.067 1.281-.075 3.37.015 6.74-.09 10.108.05a5.545 5.545 0 0 1 .852.143 7.05 7.05 0 0 0 2.114.281 33.503 33.503 0 0 0 10.224-.042c8.422-.3 16.821.097 25.217.565 2.234.55 4.465 1.164 6.816.52a13.23 13.23 0 0 1 1.768-.115 24.077 24.077 0 0 1 4.461.15c2.537.605 5.124.213 7.684.302a8.924 8.924 0 0 0 1.578-.244 7.906 7.906 0 0 1 1.154-.116c.377-.022.756-.02 1.134-.017.377-.012.754-.014 1.132-.028a8.268 8.268 0 0 0 1.914-.355 5.663 5.663 0 0 1 .846-.14c3.017-.127 6.032-.093 9.047-.05 1.767.263 3.604-.733 5.332.234a6.347 6.347 0 0 1 1.599 3.112l-5.593.225c-2.506 1.416-5.31 1.153-8.063 1.156-6.765.008-13.617.626-20.274-.133-12.068-1.376-24.146-.409-36.195-1.03l-12.212.009c-2.808 1.234-5.806.754-8.685.55-6.644-.469-13.31-.332-19.95-.811-1.367-.099-2.795.13-3.976-.75l-11.627-.604c-2.9.114-5.785.541-8.709-.01-1.197-.227-1.325.8-1.283 1.592.207 3.898-.793 7.746-.553 11.645a4.847 4.847 0 0 1-.73 3.376c-.02.076-.046.15-.06.228-.426 2.498-1.005 2.736-3.698 1.523-.196-7.045.554-14.065.744-21.1.093-3.427.354-6.862.353-10.3a1.523 1.523 0 0 1 .028-1.896Z" class="color714139 svgShape"></path><path fill="#e3e3e3" d="M248.537 110.209a24.744 24.744 0 0 0-7.97-1.76c-4.742-.253-9.493-.874-14.25-.494a43.594 43.594 0 0 0-14.88 3.662 3.665 3.665 0 0 1-3.084 1.978c-1.966-7.094-1.792-13.807 3.431-19.986 4.149-4.908 9.696-7.74 15.995-9.466a13.07 13.07 0 0 1 10.425 1.728 33.08 33.08 0 0 1 11.558 11.522 13.698 13.698 0 0 1 1.86 7.215c-.052 2.027.436 4.007.387 6.028a1.665 1.665 0 0 0 .646 1.48c.262.815-.24 1.028-1.002 1.036-.556-1.394-2.34-1.735-3.116-2.943Z" class="colore3e3e3 svgShape"></path><path fill="#cb5f56" d="M87.709 332.447a1.247 1.247 0 0 0-1.27-.953c-4.61-.464-9.2-1.175-13.874-.647-2.22.25-4.458.379-6.69.54a2.378 2.378 0 0 1-1.722-.32 6.122 6.122 0 0 1 .79-2.934c1.044-2.75 1.865-3.435 5.12-3.328a57.27 57.27 0 0 1 15.282 2.46c-5.316-1.488-12.2-3.243-19.536-2.353-.035-1.795-.091-3.589-.096-5.383a2.947 2.947 0 0 1 .465-2.245c1.812-.59 2.586-2.227 4.005-3.252a64.283 64.283 0 0 1 13.771-7.543 18.621 18.621 0 0 0 4.226-2.254c.599.374.496.958.516 1.489a2.363 2.363 0 0 0 .596 1.74 56.912 56.912 0 0 0 4.422 10.965 68.244 68.244 0 0 1-3.594-8.438c-.29-.792-.808-1.578-.365-2.467l4.194-.952a40.152 40.152 0 0 1 9.032 1.721c1.623.425 3.198.619 4.632-.45.703.837.266 1.633-.108 2.432a14.788 14.788 0 0 1-2.549 3.537 70.727 70.727 0 0 0-5.444 6.892c-1.702 2.436-2.895 5.004-2.47 7.977-3.043 1.392-5.895 3.17-9.334 3.766Z" class="colorcb9b56 svgShape"></path><path fill="#34a853" d="M211.498 128.506c.49-.67 1.013-1.231 1.616-.103.633 1.185 1.195 2.4 1.82 3.59a57.276 57.276 0 0 0 4.639 7.702c.931-1.447 1.09-3.232 2.845-4.035.695-.432 1.386-.944 2.135-.07a10.836 10.836 0 0 1 2.839 2.004 3.866 3.866 0 0 0 2.3 1.411c1.788.342 2.726-.896 3.877-1.714.916-.651 1.583-1.654 2.957-1.62 3.305-.378 3.827 2.048 4.967 4.287 1.877-2.168 3.568-4.156 4.475-6.59.766-2.058 1.416-4.15 2.185-6.206.34-.907.76-.648 1.067.063.125 1.776.292 3.551.356 5.33.026.729.702.799 1.1 1.154a1.41 1.41 0 0 0-1.168 1.062c-.411 1.37-.401 2.777-.682 4.154a47.585 47.585 0 0 1-4.654 12.606 10.012 10.012 0 0 0-.426 1.099 3.732 3.732 0 0 1-.606 1.425 8.84 8.84 0 0 1-1.873 2.389 17.725 17.725 0 0 1-10.403 3.83c-6.015-.186-9.793-3.492-12.952-7.61a16.848 16.848 0 0 1-2.188-3.45c-.401-.678-.125-1.725-1.329-1.973-1.437-4.743-2.898-9.48-3.126-14.429a5.94 5.94 0 0 0-.925-2.4c.839-.412 1.55-.887 1.154-1.906Z" class="color6c6c6c svgShape"></path><path fill="#2d342f" d="M210.344 130.413c.966.043 1.61.299 1.608 1.366a41.66 41.66 0 0 0 2.671 13.468c.257.751-.196 1.555.393 2.221 1.445 3.326.754 6.752.586 10.155a1.38 1.38 0 0 1-.616.651c-.683.85-.322 1.821-.362 2.737-.042.937-.16 1.41-1.502 1.157-3.716-.702-7.467-1.26-11.215-1.817-1.958-.29-3.972-.33-5.774-1.214-1.845-2.508-1.074-5.437-1.54-8.16-.54-3.154-.711-6.362-1.618-9.466-1.134-3.888-2.265-4.516-6.632-3.754-.683.12-1.363.308-1.923-.263a8.738 8.738 0 0 1 5.078-3.372 101.305 101.305 0 0 1 14.212-2.635c2.23-.295 4.42-.728 6.634-1.074Z" class="color342d2d svgShape"></path><path fill="#787878" d="M154.474 388.955c7.005-.234 13.982.454 20.976.61 3.864.086 7.764.097 11.634.401l-.6 14.81c-.08 1.964-.105 2.023-2.215 1.868a52.797 52.797 0 0 0-5.994-.007 23.312 23.312 0 0 1-6.224-.25 9.274 9.274 0 0 0-3.113.06 62.322 62.322 0 0 1-8.595.341c-1.601-.02-3.1.543-4.718.517-1.453-.024-1.993-.166-2.029-1.44-.036-1.325.2-2.655.266-3.985.216-4.308.41-8.616.612-12.925Z" class="color787878 svgShape"></path><path fill="#a0bae4" d="M184.42 137.494c.863.29 1.475-.277 2.17-.534 3.092-1.142 5.183-.443 6.447 2.384a24.176 24.176 0 0 1 1.726 7.274c.468 4.172.915 8.346 1.37 12.52a142.442 142.442 0 0 0-18.575-2.298c1.487-5.086 2.36-10.313 4.45-15.26a14.67 14.67 0 0 1 2.412-4.086Z" class="colora0aee4 svgShape"></path><path fill="#713e3a" d="M134.156 274.545a.96.96 0 0 1-.49.936c-.211-4.467.342-8.911.486-13.368.32-9.936.76-19.87 1.16-29.804.146-3.598.35-7.195.471-10.795.055-1.635-.007-1.618-1.856-1.733-1.896-.118-3.818.202-5.694-.27 1.95-.018 3.902-.051 5.854-.045 1.127.003 2.05-.182 2.155-1.415-.587-.636-.668-1.384.03-1.875a2.319 2.319 0 0 1 2.89.198c2.073 2.359 4.92 1.816 7.62 2.036a156.932 156.932 0 0 0 17.323.423c1.298-.037 3.26-.395 3.307 1.773a6.857 6.857 0 0 1-3.548.53c-6.438.116-12.864-.125-19.293-.429-3.88-.183-4.352.315-4.354 3.866-.007 9.957-.804 19.89-1.216 29.83-.236 5.696.143 11.462-1.123 17.113-.72 1.523-2.499 1.999-3.722 3.029Z" class="color71423a svgShape"></path><path fill="#2c2c2c" d="M150.348 208.17c-2.442.71-2.61.634-2.612-1.493-.004-4.001.046-8.002.05-12.004 0-.858-.097-1.717-.15-2.574l-.034-3.14c-1.142-2.402-.902-4.958-.635-7.407.784-7.18.283-14.367.432-21.548.064-3.124 0-6.251.017-9.377a4.113 4.113 0 0 1 .909-3.097 2.198 2.198 0 0 1 2.48-.049c1.009 1.137.864 2.493.906 3.819.363 11.582-.657 23.146-.57 34.725.008.939-.082 1.877 0 2.816.1 5.481.033 10.962.033 16.443a3.714 3.714 0 0 1-.826 2.886Z" class="color2c2c2c svgShape"></path><path fill="#cb5f56" d="M131.572 404.954c-.317-5.853.636-11.66.566-17.737 3.682.9 7.245.572 10.712 1.134-2.127.262-2.123.263-2.43 1.951a47.95 47.95 0 0 1-1.93 7.514 10.945 10.945 0 0 1-6.918 7.138Z" class="colorcb9b56 svgShape"></path><path fill="#713c38" d="M148.325 147.53c-.03 9.375.07 18.753-.147 28.124-.103 4.433-.421 8.869-.576 13.305a5.042 5.042 0 0 1-2.08-4.105c-.171-2.818.053-5.628.036-8.442q-.061-10.32-.071-20.641a17.322 17.322 0 0 1 .587-5.58 3.559 3.559 0 0 1 2.25-2.661Z" class="color714238 svgShape"></path><path fill="#af463d" d="M88.18 304.235c-.126 1.326-1.265 1.798-2.397 2.186a59.268 59.268 0 0 0-16.68 9.18 21.205 21.205 0 0 0-2.668 2.957l-.257-1.274a11.481 11.481 0 0 1 3.328-6.75 22.663 22.663 0 0 1 13.905-7.187c1.6-.243 3.49-.732 4.769.888Z" class="coloraf7f3d svgShape"></path><path fill="#713c38" d="M150.367 188.792c.001-5.327-.339-10.675.083-15.974.673-8.452.271-16.892.356-25.337 2.18.829 2.478 2.676 2.655 4.406.213 2.07.06 4.17.066 6.258.643 1.917.167 3.873.216 5.808.116 4.597-.076 9.197.117 13.793a30.441 30.441 0 0 1-1.02 8.29c-.36 1.16-.416 2.747-2.473 2.756Z" class="color714138 svgShape"></path><path fill="#20522d" d="M153.484 178.063c-.8-.608-.523-1.443-.525-2.194-.017-5 .008-10.002-.006-15.002a4.833 4.833 0 0 1 .574-2.722 4.996 4.996 0 0 1 2.029 1.524c1.636.962 1.356 2.58 1.173 3.842a89.642 89.642 0 0 0-.422 11.73 4.484 4.484 0 0 1-.224 1.393 2.424 2.424 0 0 1-2.599 1.429Z" class="color522920 svgShape"></path><path fill="#713b37" d="M158.154 163.495c1.67.846 3.481.175 5.209.398 1.415-.007.942.98 1.07 1.652.436-.401.753-1.379 1.505-.244.528 4.862-.114 9.667-.797 14.468-1.488.496-1.394-.525-1.557-1.316a39.255 39.255 0 0 1-.62-6.723c-.531-1.73-.116-3.524-.36-5.328-.283 1.888.425 3.8-.62 5.57-.988.72-2.19.556-3.327.667a1.124 1.124 0 0 1-.754-.399c-1.017-2.94-.085-5.835.251-8.745Z" class="color714137 svgShape"></path><path fill="#b24940" d="M65.81 324.912a2.628 2.628 0 0 1 1.95-.95 51.722 51.722 0 0 1 19.368 3.546 7.668 7.668 0 0 1 1.316.736 6.678 6.678 0 0 1 .828.963 33.335 33.335 0 0 0-9.37-2.609c-3.316-.447-6.571-1.287-9.97-1.203-3.045.076-3.255.229-4.264 2.757-.401 1.005-.47 2.174-1.515 2.915-1.94-.922-2.241-1.765-.984-3.103.927-.988 2.1-1.794 2.64-3.052Z" class="colorb28340 svgShape"></path><path fill="#b0483f" d="M107.613 307.843c-.072.962-.377 1.705-1.71 1.55a12.885 12.885 0 0 1-1.555-.104c-3.004-.738-5.978-1.576-9.04-2.115a1.84 1.84 0 0 1-1.359-.602 29.755 29.755 0 0 1 6.952-1.753c3.324-.478 5.534.572 6.712 3.024Z" class="colorb0813f svgShape"></path><path fill="#434443" d="M208.353 113.595a14.002 14.002 0 0 1 3.083-1.978c1.53 2.212 1.609 4.707 1.395 7.15-.138 1.582-.293 3.304-1.52 4.634-.497.54.051 1.193-.476 1.838-1.68-2.516-.983-5.42-2.057-7.933-.457-.942-1.295-1.827-.539-2.95Z" class="color444343 svgShape"></path><path fill="#75423e" d="M276.265 399.31c1.483.697 2.313 2.074 3.69 2.882-.045 1.251-.084 2.502-.137 3.753-.023.534.074 1.224-.76 1.27-.791.044-1.747.423-2.293-.552a3.406 3.406 0 0 1-.69-1.958c.127-1.795.134-3.596.19-5.395Z" class="color75463e svgShape"></path><path fill="#af463d" d="M87.709 332.447a4.434 4.434 0 0 1 2.098-1.202 14.371 14.371 0 0 0 5.395-2.524 1.455 1.455 0 0 1 1.84-.04.541.541 0 0 1 .078.41c.23.302.152.702.39 1.002l.108.466a34.737 34.737 0 0 1-6.696 2.554c-1.168.277-2.348.69-3.37-.31a.645.645 0 0 1 .156-.356Z" class="coloraf803d svgShape"></path><path fill="#733f3b" d="M155.56 177.011c.006-3.03.072-6.063-.004-9.092-.049-1.95.758-3.814.544-5.777a4.804 4.804 0 0 0-.544-2.473c.902-.128 1.497.117 1.647 1.016.127.762.323 1.515.489 2.272a37.09 37.09 0 0 0-.027 10.401 4.035 4.035 0 0 1-.265 2.733c-.345.673-.647 1.562-1.84.92Z" class="color73443b svgShape"></path><path fill="#225530" d="M157.072 173.327a1.45 1.45 0 0 1-.46-1.273c.002-2.396.013-4.791 0-7.187-.004-.817.113-1.552 1.08-1.91l.462.538a6.843 6.843 0 0 1 .24 4.057 23.814 23.814 0 0 0-.196 4.833c.147.821-.482.888-1.126.942Z" class="color552b22 svgShape"></path><path fill="#b44a41" d="M89.755 307.524c1.226 3.074 2.425 6.158 3.693 9.218.504 1.218 1.162 2.385 2 4.082a5.698 5.698 0 0 1-2.105-2.187 72.686 72.686 0 0 1-4.377-9.729c-.219-.568-.302-1.056.326-1.443a.829.829 0 0 1 .463.06Z" class="colorb48541 svgShape"></path><path fill="#723d39" d="M165.476 164.851c-.97.584-.05 1.83-1.144 2.485-1.055-.991.296-2.557-.97-3.443.132-.74.317-1.477.382-2.222.107-1.236.866-1.705 2.157-1.642l.229.222a4.412 4.412 0 0 1-.654 4.6Z" class="color724339 svgShape"></path><path fill="#8ba5d0" d="M295 161.15a78.82 78.82 0 0 1 2.865 8.256 9.79 9.79 0 0 1 .058 3.929c-.477-4.34-2.39-8.26-4.177-12.217a5.81 5.81 0 0 1-.266-1.134q.76.581 1.52 1.165Z" class="color8b97d0 svgShape"></path><path fill="#b97873" d="M208.239 114.357c.218.977.751 1.908.539 2.95-1.509-.511-2.611-2.059-4.558-1.451.041-2.05.845-2.613 2.878-1.988a11.116 11.116 0 0 1 1.141.489Z" class="colorb98673 svgShape"></path><path fill="#b57d78" d="M251.709 113.016a2.02 2.02 0 0 0 .947-.9 3.583 3.583 0 0 1 1.641-.514c.703.04 1.117.292.987.994a9.446 9.446 0 0 0-4.186 2.803c-.748-.992-.595-1.797.61-2.383Z" class="colorb58878 svgShape"></path><path fill="#713e3a" d="M133.067 291.37c.014 2.14.034 4.279.037 6.417.001.6.128 1.24-.484 1.702.065-2.71-.236-5.436.447-8.118ZM133.58 279.51c.016 2.162.04 4.324.046 6.487.002.604.136 1.253-.482 1.722.07-2.74-.25-5.496.435-8.209Z" class="color71423a svgShape"></path><path fill="#cb5f56" d="M97.51 330.093a.862.862 0 0 1-.39-1.002.97.97 0 0 1 .39 1.002Z" class="colorcb9b56 svgShape"></path><path fill="#657d6b" d="m376.918 406.392 1.178-.016c-.382.646-.774.677-1.178.016Z" class="color7d6566 svgShape"></path><path fill="#92ab99" d="m110.892 172.979.081.159-.188-.013.107-.146z" class="colorab9293 svgShape"></path><path fill="#713b36" d="M134.156 274.545c.293-1.696 1.785-2.067 3.291-2.422 2.57-1.089 5.363-.982 8.08-1.096 3.354-.141 6.722-.085 10.084.009 4.517-.115 9.033-.073 13.55-.034 8.775-.028 17.55-.101 26.326.026a4.514 4.514 0 0 1 1.012-.004c7.433.077 14.867.004 22.3.025q18.4-.017 36.797.02c1.266.003 2.643-.29 3.71.678-.114 1.204.052 2.599-.743 3.511-.808.926-2.437.057-3.612.548-.764.982-1.95.859-3.033.872-2.738.032-5.476.084-8.211-.026-.321-.007-.645-.013-.966-.01-2.926.062-5.854.045-8.68-.03a5.151 5.151 0 0 1-.005 5.146c-.029 2.73-.008 5.46-.109 8.187-.048 1.299.625 1.562 1.884 1.55 5.714-.056 11.43-.056 17.144-.078.433-.002.866-.024 1.298-.014 2.032.047 2.066.088 1.852 1.868-.103.852-.192 1.705-.287 2.557-1.059.734-2.308.555-3.503.56-7.181.027-14.363-.015-21.544.028q-15.663.19-31.325.007c-11.277-.06-22.553-.02-33.829-.015-3.028.115-6.057.089-9.087.019-4.936.13-9.872.052-14.809.038a3.726 3.726 0 0 1-2.886-.78c-.799-.708-1.804-.363-2.723-.416-1.036-.059-2.204.11-2.44-1.183-.223-1.21.786-1.617 1.781-1.966a5.81 5.81 0 0 1 1.015-.167c1.117-.797 2.455-.687 3.741-.692q7.547-.035 15.094-.01c2.899.25 5.74-.82 8.652-.32a5.576 5.576 0 0 1 .886.174c4.658.445 9.328.124 13.991.173a1.575 1.575 0 0 0 1.29-.673c.633-4.141.156-8.29.237-12.426-.15-1.175-.999-1.524-2.18-1.53-3.12-.014-6.243.061-9.358-.028-1.63-.047-2.057 1.267-3.145 1.793-2.82-2.144-5.815-1.578-8.848-.46a8.078 8.078 0 0 0-5.064-1.326c-4.222.013-8.448.188-12.665-.104-.809-.11-1.563-.411-2.361-.569l-2.602-1.41Z" class="color714036 svgShape"></path><path fill="#e2e2e2" d="M255.368 297.173c-.14 7.437-.914 14.866-.534 22.308.347 6.788.614 13.58 1.394 20.35a61.908 61.908 0 0 1 .776 9.12c.301.893-.025 1.848.336 2.736.042 1.376.04 2.736-1.607 3.478-1.081-.306-.742-1.103-.644-1.723a18.927 18.927 0 0 0-.27-5.453 102.284 102.284 0 0 0-2.17-14.577c-1.187-5.914-2.38-11.83-3.983-17.665a6.538 6.538 0 0 0-.592-1.844 13.423 13.423 0 0 1 .743 2.666c1.824 6.59 3.092 13.274 4.405 19.95.813 4.134 1.344 8.305 1.78 12.485-.082 1.241.244 2.46.173 3.712-.09 1.593-.9 2.038-2.5 1.654-1.92-.46-3.76-1.172-5.725-1.487a90.035 90.035 0 0 1-9.155-1.799 4.496 4.496 0 0 1-2.656-1.349 59.601 59.601 0 0 1-.332-19.845c-1.073 5.681-.74 11.372-.13 17.066.288 2.683.271 2.685-2.666 3.191a3.838 3.838 0 0 1-.942.177 1.819 1.819 0 0 1-1.695-.666c-.085-.303-.106.09-.094-.213.264-6.942-2.552-13.679-1.541-20.701a34.348 34.348 0 0 0-.176-9.816c-.764-5.254.231-10.439 1.017-15.62.223-1.47.25-2.96.61-4.414a6.42 6.42 0 0 1 1.694-2.603c3.693-.683 7.427-.173 11.14-.297.993-.033 1.097.682.997 1.316a82.54 82.54 0 0 0-.508 12.183c.399-.362-.01-1.035-.01-1.591a79.389 79.389 0 0 1 .523-10.535c.127-.947.37-1.419 1.519-1.405 3.213.037 6.426.002 9.64.019.854.004 1.655.097 1.183 1.192Z" class="colore2e2e2 svgShape"></path><path fill="#713b36" d="M167.58 220.396a2.613 2.613 0 0 0-2.03-.899c-2.926.097-5.855-.298-8.79.273-1.643.32-3.411.519-4.993-.522-.728-.479-1.685-.243-2.542-.25-2.41-.017-4.82-.024-7.23.003-1.115.012-2.025-.02-2.219-1.35-.098-.669-2.348-1.533-3.02-1.26-.831.336-.398 1.088-.514 1.66-.93.554-1.763 1.194-3.068.619a6.212 6.212 0 0 0-2.308-.143c-3.992-.01-7.984.016-11.975-.016-1.847-.015-1.922-.094-1.962-1.718-.043-1.72-.086-3.445.018-5.161.113-1.866.97-2.396 3.024-2.166a21.019 21.019 0 0 0 2.59.105c12.653-.154 25.288.835 37.943.48 1.563-.045 3.024.699 4.62.478.668-.092 1.407.115 1.932-.456 5.055-.112 10.097.168 15.138.444 10.045.766 20.126.197 30.176.65 6.233.281 12.464.284 18.698.292 3.363.005 6.76-.272 10.083.058 8.42.833 16.843.198 25.26.383 1.222 1.32 1.428 2.99 1.754 4.566a42.47 42.47 0 0 1 .626 12.082 3.17 3.17 0 0 1-.346.863c-1.63-1.973-.457-4.235-.943-6.457-6.801.162-13.728-1.134-20.677-.018a12.293 12.293 0 0 0-5.3-.865c-10.913.36-21.752-1.306-32.673-.979-2.413.072-4.812.595-7.24.252a15.21 15.21 0 0 0-4.849-.698q-11.58.036-23.16.007a9.035 9.035 0 0 0-4.286.737c-.969.225-1.391-.33-1.737-.994Z" class="color714036 svgShape"></path><path fill="#d18f89" d="m238.092 210.472-3.136-.016c-3.025-.795-4.622-3.128-6.567-5.049-2.315-2.287-4.029-5.042-6.422-6.813 1.195 1.198 3.053 2.372 3.778 4.355a3.516 3.516 0 0 1-1.758 1.737 8.277 8.277 0 0 1-2.561.497c-1.83-.53-1.942-2.581-3.394-3.046 1.377.924 2.236 2.624 3.692 3.868a8.05 8.05 0 0 1 .735 1.162c.314.821 1.192 1.345 1.473 2.158.325.942-.215 1.08-1.075.758a28.096 28.096 0 0 1-4.635-.083c-1.657-.243-2.486-1.398-3.384-2.482a5.734 5.734 0 0 1-.622-.75c-.286-1.09-1.746-1.625-1.681-2.88.288-2.789-2.397-2.702-3.657-3.321a5.31 5.31 0 0 1 3.082 1.522c.672.651 1.31 1.373.157 2.169a76.724 76.724 0 0 1-9.583 1.745c-1.317-.038-2.635-.007-3.953-.023-1.821-.053-3.538-.333-4.696-1.796a1.662 1.662 0 0 1-.246-.898c.68-5.29 4.243-12.889 11.628-13.963a22.21 22.21 0 0 1 3.065.28c4.937.682 9.914.312 14.868.47 1.186.035 2.374.018 3.56.039 2.634.445 5.203 1.027 7.127 2.897a17.765 17.765 0 0 0 5.402 5.766c1.028.653 1.3 1.843 2.438 2.333a1.129 1.129 0 0 1 .561 1.384c.525.97 1.074 1.93 1.568 2.912a3.5 3.5 0 0 1 .05 3.74c-3.783.453-4-2.992-5.934-4.387 1.102 1.399 2.99 2.587 2.427 4.8-.578.697-1.583.517-2.307.915Z" class="colord19d89 svgShape"></path><path fill="#2d342f" d="M246.9 222.697c.177-.79.816-.917 1.565-.886 4.478.19 8.966-.3 13.45.37a44.057 44.057 0 0 0 6.31.05c.446 2.38-.07 4.796.22 7.18-.221 4.457-1.31 8.8-2.206 13.163-.803 3.906-1.743 7.79-2.627 11.682a3.442 3.442 0 0 1-.779 1.711 5.832 5.832 0 0 1-2.944-2.217c-2.278-2.612-5.262-4.542-7.835-6.866-4.739-3.449-6.902-7.679-5.186-13.224.987-3.189 1.547-6.433-.124-9.631a1.147 1.147 0 0 1 .156-1.332Z" class="color342d2d svgShape"></path><path fill="#e2e2e2" d="M252.68 246.795a56.682 56.682 0 0 1 10.151 9.17c.472.71-.03 1.362-.186 2.013-1.06 4.441-2.164 8.874-3.255 13.31a5.579 5.579 0 0 1-2.286.173 9.153 9.153 0 0 1-5.145-3.586c-.151-.31-.43.23-.21-.012.028-.033.109-.002.193.12a13.37 13.37 0 0 0 2.5 2.342c.604.517.861 1.1-.415 1.156-3.589-.008-7.173.002-10.755-.005-.868-.101-1.044-.73-1.193-1.335a46.53 46.53 0 0 0-3.787-9.132 1.116 1.116 0 0 1-.049-.692c2.476-5.208 5.517-10.057 10.815-13.406a3.147 3.147 0 0 1 3.622-.116Z" class="colore2e2e2 svgShape"></path><path fill="#ea4335" d="M279.874 284.442c.037 2.914-.967 5.695-1.339 8.557-.432 3.327-.748 6.67-1.317 9.978-.505 2.937-.183 5.93-.902 8.845a6.972 6.972 0 0 0-.085 1.64c-.01 4-.06 8.001-.006 12a89.817 89.817 0 0 0 2.285 18.107 77.189 77.189 0 0 0 4.591 14.877 57.27 57.27 0 0 0 30.06 30.463 46.994 46.994 0 0 0 9.366 2.808c5.243 1.002 10.513 1.891 15.788 2.749 1.34.217 2.741.135 4.115.324a20.656 20.656 0 0 1-6.49.205 141.669 141.669 0 0 1-19.823-3.594 47.472 47.472 0 0 1-19.242-10.384 56.177 56.177 0 0 1-13.736-17.248 75.257 75.257 0 0 1-6.37-18.304 92.079 92.079 0 0 1-2.238-17.177c-.05-2.32-.707-4.712-.316-6.999.637-3.727.333-7.477.779-11.212.416-3.482.835-6.976 1.263-10.46.428-3.482 1.127-6.937 1.756-10.396.405-2.227.897-4.442 1.35-6.663 1.363.365.713 1.174.51 1.884Z" class="coloreb8455 svgShape"></path><path fill="#e2e2e2" d="M243.32 275.978c3.87-.294 7.75-.093 11.628-.172 3.418.27 3.475.278 2.96 3.41-.582 3.537-1.299 7.056-1.57 10.627-.084 1.106-.833 1.19-1.78 1.183-3.724-.024-7.447-.027-11.17-.037-1.536-1.987-.837-4.24-.685-6.332.175-2.4.633-4.767.095-7.17a1.648 1.648 0 0 1 .521-1.51Z" class="colore2e2e2 svgShape"></path><path fill="#ea4335" d="M313.308 330.088c-2.794-4.51-5.702-8.974-7.496-13.917a64.105 64.105 0 0 1-3.035-12.313c-.943-6.198-1.198-12.423-1.632-18.652-.409-5.876.147-11.766-.513-17.588-.486-4.284.014-8.584-.813-12.854-.473-2.437-.307-4.972-.533-7.467a102.304 102.304 0 0 0-3.481-18.416q-.922-3.287-1.854-6.572c-.274-.521-.455-1.001.53-.954a80.477 80.477 0 0 1 5.232 18.096q1.083 5.757 1.97 11.544a57.79 57.79 0 0 1 .537 6.06c.262 5.547.607 11.094.741 16.65.148 6.1.073 12.221.518 18.301.55 7.53 1.1 15.103 3.517 22.419a51.936 51.936 0 0 0 3.634 9.03 38.911 38.911 0 0 1 3.207 6.156c.2.497-.055.586-.529.477Z" class="coloreb8455 svgShape"></path><path fill="#eb6256" d="M360.84 239.258c.15 5.58-1.205 10.994-2.376 16.413-2.53 11.71-6.229 23.169-9.33 34.757a169.714 169.714 0 0 0-3.852 17.394 56.005 56.005 0 0 0-.732 7.92c-.04 2.788.012 5.57.036 8.357a41.78 41.78 0 0 0 .974 8.351 14.514 14.514 0 0 1 .127 2.34c.161.574.767 1.281-.523 1.42-.8-2.8-1.02-5.688-1.578-8.526-.903-4.587-.68-9.228-.438-13.827a90.583 90.583 0 0 1 1.745-13.459c2.652-12.917 6.86-25.487 10.453-38.194a194.416 194.416 0 0 0 4.358-19.011c.34-1.922.419-3.88.617-5.822 1.365.362.693 1.18.519 1.887Z" class="coloreb8556 svgShape"></path><path fill="#a0bae4" d="M233.887 193.009c-2.339-.661-4.398-1.972-6.843-2.385-3.568-.287-3.891-.553-3.742-3.865a20.945 20.945 0 0 1 3.118-10.282c.63-1.015 1.302-1.905 2.832-1.292a4.62 4.62 0 0 1 3.613 1.436c-.004.099-.009.197-.012.297-.01.202-.029.402-.044.602 1.129 2.319.858 5.053 2.657 7.166l1.752 2.264c-1.302 1.933-1.923 4.172-3.331 6.059Z" class="colora0aee4 svgShape"></path><path fill="#703b37" d="M242.844 153.575a1.438 1.438 0 0 1 .903-.945 5.45 5.45 0 0 1 1.716-.502 1.817 1.817 0 0 1 2.098 1.326 15.326 15.326 0 0 1 .249 6.504 11.521 11.521 0 0 0-.286 1.608c.284 6.647-.898 13.258-.576 19.905a11.259 11.259 0 0 1-.03 1.876c-.323 2.697-.336 2.696-3.028 3.504a.638.638 0 0 1-.597-.345c-1.014-1.062-.833-2.362-.736-3.578.473-5.91.19-11.827.196-17.74.003-2.642.623-5.271.171-7.916-.597-1.22-.011-2.465-.08-3.697Z" class="color704137 svgShape"></path><path fill="#e1e1e2" d="m234.056 281.758-.307-5.85c3.04-.028 6.03-.145 9.03.063 1.048 5.012.257 10.017-.065 15.023-2.173.026-4.347.015-6.518.091-1.338.047-1.865-.426-1.831-1.64.06-2.194.007-4.39.003-6.584a1.392 1.392 0 0 0-.312-1.103Z" class="colore2e1e1 svgShape"></path><path fill="#eb6256" d="M375.184 203.665a2.028 2.028 0 0 1 2.55.774c1.965 2.443 3.472 5.063 3.46 8.183-.006 1.338.583 2.583.537 3.944a67.807 67.807 0 0 1-2.809 15.904 138.017 138.017 0 0 1-5.103 13.771q-2.59 6.512-5.168 13.028a2.27 2.27 0 0 1-.96 1.354 67.55 67.55 0 0 1 2.755-9.515c2.721-8.069 5.834-16.039 7.727-24.317a57.182 57.182 0 0 0 1.546-8.762 32.885 32.885 0 0 0 .013-6.725 9.923 9.923 0 0 0-4.548-7.64ZM374.42 391.287c-1.327-3.737-4.628-5.744-8.207-7.419-4.008-1.875-8.061-3.66-11.9-5.824a65.436 65.436 0 0 1-15.182-12.016 48.146 48.146 0 0 1-8.39-11.53 13.867 13.867 0 0 1-1.594-8.905c.488 1.97.81 3.473 1.235 4.951 1.201 4.184 3.85 7.68 6.673 11.063a77.803 77.803 0 0 0 10.44 9.834 69.902 69.902 0 0 0 11.702 7.376c3.655 1.954 7.518 3.6 10.955 5.874 2.34 1.548 4.468 3.272 4.801 6.118.192.495-.058.588-.533.478Z" class="coloreb8556 svgShape"></path><path fill="#ec6358" d="M369.183 360.224a11.991 11.991 0 0 1-2.388-4.876 176.745 176.745 0 0 1-5.517-22.596c-.768-4.079-1.148-8.183-1.645-12.285-.584-4.814.234-9.473.604-14.198.619-7.893 2.598-15.554 4.751-23.188a6.434 6.434 0 0 1 1.058-2.59c.817.401.325.84.21 1.22a160.79 160.79 0 0 0-4.316 18.524 90.887 90.887 0 0 0-.999 22.455 120.882 120.882 0 0 0 3.259 18.677q1.456 6.174 2.906 12.349c.522 2.215 1.817 4.23 2.068 6.515Z" class="colorec8758 svgShape"></path><path fill="#ef695e" d="M323.756 227.935a19.36 19.36 0 0 0-4.745-11.48 13.383 13.383 0 0 0-9.394-4.49 50.235 50.235 0 0 1-19.284-5.18 34.057 34.057 0 0 1-8.362-5.917c-.223-.218-.501-.442-.188-.943a64.083 64.083 0 0 0 6.843 4.886 46.103 46.103 0 0 0 16.124 5.707c2.298.358 4.607.664 6.918.954a12.725 12.725 0 0 1 8.602 5.275c2.553 3.296 4.204 7.015 3.994 11.19-.17.22-.34.208-.508-.002Z" class="coloref8b5e svgShape"></path><path fill="#ed6459" d="M279.874 284.442c-.086-.646.239-1.384-.511-1.884.994-5.295 2.127-10.573 2.934-15.891.56-3.7 1.393-7.39 1.247-11.163a8.27 8.27 0 0 1 .36-3.488 3.893 3.893 0 0 0-.133-2.077c-.449-2.763-.092-5.58-.703-8.348a16.493 16.493 0 0 1 1.5 6.528c.038 3.371.22 6.758-.06 10.111-.33 3.954-1.028 7.886-1.672 11.814-.744 4.544-2.005 9.011-2.5 13.595-.03.278-.302.536-.462.803Z" class="colored8859 svgShape"></path><path fill="#ed6459" d="M370.763 206.03c-1.94 4.533-1.656 9.078-1.565 13.588.08 3.905-.068 7.803.336 11.724a16.032 16.032 0 0 1-1.46 7.948c.381-2.147-.328-4.335.42-6.46a1.737 1.737 0 0 0 .124-.925c-.667-2.776-.234-5.623-.662-8.405a35.037 35.037 0 0 1 1.49-16.674c.115-.344.283-.762 1.317-.796Z" class="colored8759 svgShape"></path><path fill="#1f522d" d="M243.322 156.843c.92 1.384.62 2.908.329 4.314a17.192 17.192 0 0 0-.33 3.488q-.026 10.93-.028 21.861a1.203 1.203 0 0 1-.505-.06c-.297-.24-.783-.103-1.038-.424.786-9.561.436-19.139.52-28.71-.004-.804.453-.767 1.052-.469Z" class="color52281f svgShape"></path><path fill="#ef665b" d="M242.288 202.492a2.88 2.88 0 0 1-.56-1.384 12.682 12.682 0 0 1 1.314-3.304 6.671 6.671 0 0 1 7.17-3.175 45.38 45.38 0 0 0 9.285.846 41.481 41.481 0 0 0 5.953-.432c3.244-.541 6.357.496 9.486 1.077a18.75 18.75 0 0 0 2.832.284c.129.427.022.648-.523.485a18.84 18.84 0 0 1-5.121-.518 26.924 26.924 0 0 0-8.715-.109 29.682 29.682 0 0 1-8.775-.143 63.045 63.045 0 0 0-4.586-.634 6.094 6.094 0 0 0-6.694 3.713c-.484 1.077-.245 2.323-1.066 3.294Z" class="coloref895b svgShape"></path><path fill="#ee675c" d="M329.484 287.256c-.189-5.078.93-10.127.492-15.205-.628-7.282-.503-14.633-2.438-21.798a3.378 3.378 0 0 1 .076-2.293c1.146 2.29 1.393 4.587 1.88 6.83 1.324 6.1 1.051 12.275 1.049 18.435-.002 4.681.174 9.37-.551 14.028q-.251.322-.508.003Z" class="coloree8a5c svgShape"></path><path fill="#e2e2e2" d="m256.881 271.173 2.51.114-.084.46q-18.612.002-37.224-.001c-1.125 0-2.25-.065-3.376-.1a.515.515 0 0 1 .282-.67c2.183-.717 4.453-.365 6.676-.346 2.187.018 4.083-.313 5.607-1.864a2.019 2.019 0 0 1 2.238-.796c.54 2.187 2.05 2.92 4.47 2.647a11.639 11.639 0 0 1 4.09.173 4.138 4.138 0 0 1 .728.405c3.992.2 7.985.11 11.978.014a2.416 2.416 0 0 1 2.105-.036Z" class="colore2e2e2 svgShape"></path><path fill="#f06c61" d="M303.369 355.523a2.101 2.101 0 0 1-1.168-1.202c-3.22-6.567-6.804-13.008-8.54-20.088a28.742 28.742 0 0 1-.52-10.215 23.697 23.697 0 0 1 .695 5.643c.385 5.093 2.155 9.773 4.25 14.407 1.731 3.829 3.523 7.635 5.288 11.45Z" class="colorf08e61 svgShape"></path><path fill="#ef675c" d="M346.215 203.447c4.331.089 8.66.148 12.768-1.401a72.214 72.214 0 0 0 8.571-3.89c.694-.371 1.337-1.045 2.504-.556a16.694 16.694 0 0 1-5.335 3.318 60.012 60.012 0 0 1-8.066 2.548c-3.066.691-6.196 1.402-9.43.578a12.763 12.763 0 0 0-2.587-.127c.156-1.16.939-.616 1.575-.47Z" class="coloref8a5c svgShape"></path><path fill="#cecece" d="M255.368 297.173a1.103 1.103 0 0 0-1.24-.957c-3.129.007-6.258.018-9.388-.004-1.416-.01-1.353.834-1.448 1.74a87.497 87.497 0 0 0-.517 11.697 5.384 5.384 0 0 1-.303 1.074 35.477 35.477 0 0 1-.188-6.416c.026-2.178-.303-4.374.43-6.533.227-.67.106-1.528-1.025-1.527a100.73 100.73 0 0 0-10.146.13 2.472 2.472 0 0 0-.698.31c-.3-.308-.417-.603.068-.86h24.926c-.051.48.032.996-.471 1.346Z" class="colorcecece svgShape"></path><path fill="#f16c61" d="M358.494 194.357c-9.285-.214-17.669-2.552-24.439-8.484 2.758 1 4.734 3.139 7.494 4.233a47.692 47.692 0 0 0 8.317 2.596c2.872.569 5.752 1.105 8.628 1.655Z" class="colorf18e61 svgShape"></path><path fill="#f5776c" d="M251.506 204.489h19.07a2.167 2.167 0 0 1-1.99.844q-7.83.005-15.66-.004a1.238 1.238 0 0 1-1.42-.84Z" class="colorf5976c svgShape"></path><path fill="#f37065" d="M328.684 197.027c2.045.178 3.4.837 4.955.842a71.198 71.198 0 0 0 13.547-1.687c.419-.08.836-.177 1.26-.22.13-.014.279.122.541.248-1.467.885-3.137.966-4.7 1.285a42.876 42.876 0 0 1-10.736 1.263 7.332 7.332 0 0 1-4.867-1.731Z" class="colorf39265 svgShape"></path><path fill="#f26d62" d="M307.114 184.442a22.486 22.486 0 0 1 11.424 1.199c4.02 1.42 8.01 2.908 12.328 4.482-2.093.241-3.579-.612-5.12-1.104-2.284-.728-4.485-1.664-6.748-2.447a36.389 36.389 0 0 0-11.884-2.13Z" class="colorf28f62 svgShape"></path><path fill="#ef6a5f" d="M281.401 229.28c-2.377-5.09-2.862-16.201-.83-18.957a59.168 59.168 0 0 0 .83 18.957Z" class="coloref8d5f svgShape"></path><path fill="#f26f64" d="M346.215 203.447c-.57.034-1.196-.083-1.575.47a66.81 66.81 0 0 1-10.873-2.08c-2.554-.625-5.099-1.284-7.62-2.156a8.852 8.852 0 0 1 3.262.23c2.337.57 4.674 1.143 6.997 1.761a39.865 39.865 0 0 0 8.136 1.316c.605.033 1.229-.032 1.673.459Z" class="colorf29064 svgShape"></path><path fill="#f06b60" d="M360.84 239.258c-.108-.644.233-1.388-.519-1.888-.204-4.4.393-8.817-.501-13.239a.91.91 0 0 1 .858.85 63.356 63.356 0 0 1 .566 13.7c-.012.199-.264.385-.404.577Z" class="colorf08e60 svgShape"></path><path fill="#f0695e" d="M323.318 202.688c-4.916-2.196-8.844-5.656-13.434-8.27 5.111 1.926 9.05 5.398 13.434 8.27Z" class="colorf08c5e svgShape"></path><path fill="#bc7973" d="M240.182 209.57a4.38 4.38 0 0 0-1.772-3.744c-.817-.745-1.933-1.315-2.273-2.424.702-.486 1.015.006 1.391.276a8.996 8.996 0 0 1 2.4 2.752c.654 1.082 1.023 2.24 2.859 1.836.47-.104.863.45 1.118.877l-1.095 1.341-1.607.003c-.397-.255-.901-.413-1.021-.918Z" class="colorbc8673 svgShape"></path><path fill="#f16b60" d="M310.379 192.13a48.952 48.952 0 0 1-15.043-6.26c5.022 2.075 9.827 4.573 15.043 6.26Z" class="colorf18d60 svgShape"></path><path fill="#ef6a5f" d="M342.543 226.525c-.207-1.656.375-3.246.496-4.873.2-2.662-.416-5.269-.808-7.887-.081-.54-.336-1.05.176-1.684a3.12 3.12 0 0 1 1.115 2.689c.06 3.738.428 7.5-.538 11.198-.054.205-.291.372-.443.556Z" class="coloref8c5f svgShape"></path><path fill="#cdcdcd" d="m242.714 290.994.064-15.023.541.007a17.03 17.03 0 0 1 .416 6.68c-.596 2.788-.343 5.552-.348 8.331l-.673.005Z" class="colorcdcdcd svgShape"></path><path fill="#f06a5f" d="M290.995 191.362c-3.873-1.412-6.866-4.446-11.543-4.537a1.59 1.59 0 0 1 2.103-.74c3.672.985 6.53 3.172 9.44 5.277Z" class="colorf08d5f svgShape"></path><path fill="#ef685d" d="M301.74 202.533c-.103-4.294 1.079-4.699-5.278-8.914 3.312.702 5.158 2.297 6.088 4.7a3.44 3.44 0 0 1-.81 4.214Z" class="coloref8b5d svgShape"></path><path fill="#8fa8d1" d="M279.901 182.761c-1.013-.834-2.088-1.618-3.02-2.52-.669-.65-1.412-1.385-.947-2.447.253.038.509.013.56.093a10.36 10.36 0 0 0 6.539 4.925c.052.012.105.133.1.2-.007.068-.085.13-.131.196a1.61 1.61 0 0 1-1.692.003Z" class="color8f9cd1 svgShape"></path><path fill="#f16e63" d="M298.967 190.623c3.32 1.716 6.373 3.685 8.541 6.688-.44-.158.057-.002-.252.141a.271.271 0 0 1-.216.007c-2.711-2.26-5.204-4.733-8.073-6.836Z" class="colorf19063 svgShape"></path><path fill="#f16f64" d="m374.42 391.287.533-.478c.06.057.164.108.175.17a9.868 9.868 0 0 1-3.563 9.84 28.903 28.903 0 0 0 2.443-4.406c.608-1.71.237-3.423.412-5.126Z" class="colorf19164 svgShape"></path><path fill="#f16d62" d="M325.752 296.822v9.666c-.8-3.11-1.589-6.22 0-9.666Z" class="colorf18f62 svgShape"></path><path fill="#f06c61" d="M294.481 221.355a.997.997 0 0 0-.53.954l-4.172-8.957.026-.02c.802.283 1.07.966 1.378 1.582 1.077 2.157 2.62 4.12 3.298 6.441Z" class="colorf08e61 svgShape"></path><path fill="#f06d62" d="m323.756 227.935.508.003a27.386 27.386 0 0 1 .494 7.827 13.202 13.202 0 0 1-1.017 5.356l-.002-.002c-.302-2.496.654-4.908.56-7.41-.073-1.94-.904-3.812-.543-5.774Z" class="colorf08f62 svgShape"></path><path fill="#f26d62" d="M325.206 194.267a81.098 81.098 0 0 0-9.577 1.158c2.99-1.657 6.292-1.37 9.577-1.158Z" class="colorf28f62 svgShape"></path><path fill="#ef6a5f" d="M345.164 336.21c.615-.34.484-.905.523-1.42.972 1.291.429 2.858.949 4.261a27.617 27.617 0 0 0 .81 3.044c-1.272-1.323-1.77-2.732-2.282-5.884Z" class="coloref8d5f svgShape"></path><path fill="#f5786d" d="m277.245 196.889.524-.485h5.098c-1.636 1.122-3.396 1.21-5.622.485Z" class="colorf5986d svgShape"></path><path fill="#f37267" d="m343.373 181.703-4.05 3.833a5.705 5.705 0 0 1 4.05-3.833Z" class="colorf39367 svgShape"></path><path fill="#f26f64" d="M348.696 190.49c1.484-1.585 2.12-3.519 2.888-5.534a5.494 5.494 0 0 1-2.888 5.534Z" class="colorf29064 svgShape"></path><path fill="#f16d62" d="m313.308 330.088.529-.477 2.37 3.319a5.214 5.214 0 0 1-2.899-2.842Z" class="colorf18f62 svgShape"></path><path fill="#f37267" d="M240.482 191.218a3.861 3.861 0 0 1 3.295-1.234 6.536 6.536 0 0 1-3.295 1.234Z" class="colorf39367 svgShape"></path><path fill="#9da3ad" d="m257.83 352.688-.9-.9.073-2.837a9.74 9.74 0 0 1 .828 3.737Z" class="colorada29d svgShape"></path><path fill="#f16e63" d="M329.484 287.256q.254 0 .508-.003c.125 1.182-.795 2.165-.63 3.355-.847-1.189-.045-2.25.122-3.352Z" class="colorf19063 svgShape"></path><path fill="#f06c61" d="M305.981 359.288a3.71 3.71 0 0 1-2.09-2.824l.005-.005a4.834 4.834 0 0 1 2.088 2.826Z" class="colorf08e61 svgShape"></path><path fill="#f27166" d="M323.218 243.003c.064-.653-.25-1.39.52-1.883h.003c-.06.654.245 1.39-.523 1.883Z" class="colorf29266 svgShape"></path><path fill="#dadfe6" d="m281.31 183.211 1.692-.003c.045.162.091.324.139.487a2.225 2.225 0 0 1-1.831-.484Z" class="colore6e2da svgShape"></path><path fill="#f06c61" d="M289.78 213.352c-.313-.11-.593-.26-.66-.58-.01-.043.222-.194.288-.17.358.128.366.44.397.73Z" class="colorf08e61 svgShape"></path><path fill="#dadfe6" d="M283.358 183.706a2.047 2.047 0 0 1 1.811.48 2.227 2.227 0 0 1-1.81-.48Z" class="colore6e2da svgShape"></path><path fill="#f16d62" d="M322.696 243.944a.906.906 0 0 1 .522-.941.906.906 0 0 1-.522.941Z" class="colorf18f62 svgShape"></path><path fill="#703b37" d="M241.75 186.022a1.276 1.276 0 0 1 1.038.424l-1.046.001q0-.213.008-.425Z" class="color704137 svgShape"></path><path fill="#ef6a5f" d="M281.963 230.286a.553.553 0 1 0-.012.01Z" class="coloref8d5f svgShape"></path><path fill="#f37166" d="m342.54 226.524-.192.619c-.479-.346-.037-.455.195-.618Z" class="colorf39266 svgShape"></path><path fill="#ec6358" d="M369.174 360.23a.892.892 0 0 1 .519.945l.014-.013a.902.902 0 0 1-.524-.938Z" class="colorec8758 svgShape"></path><path fill="#f37065" d="M322.696 244.15c-.07.15-.124.39-.197.395-.204.014-.288-.15-.167-.314a1.75 1.75 0 0 1 .364-.287Z" class="colorf39265 svgShape"></path><path fill="#f06c61" d="M303.89 356.464a.91.91 0 0 1-.521-.941l.005-.004a.908.908 0 0 1 .522.94Z" class="colorf08e61 svgShape"></path><path fill="#ef6a5f" d="M281.951 230.296c.073.033.213.08.209.098-.038.155-.115.116-.197-.108Z" class="coloref8d5f svgShape"></path><path fill="#ec6358" d="M369.693 361.175c.075.034.22.083.215.1-.042.16-.12.12-.201-.112Z" class="colorec8758 svgShape"></path><path fill="#f06c61" d="m305.984 359.285.218.195c-.046-.01-.11-.007-.135-.033a.615.615 0 0 1-.086-.16Z" class="colorf08e61 svgShape"></path><path fill="#b64c43" d="M44.322 374.353c.337-2.9 1.99-5.334 3.645-7.69a75.296 75.296 0 0 1 11.234-12.54 143.933 143.933 0 0 1 11.66-10.044c3.442-2.499 6.846-5.055 11.178-6.265.326-.091.65-.237 1.014.029.053.735-.7.785-1.176.954a39.063 39.063 0 0 0-10.204 5.917 158 158 0 0 0-14.718 12.937c-4.867 4.65-9.427 9.594-11.89 15.77a4.193 4.193 0 0 1-.746.93Z" class="colorb68643 svgShape"></path><path fill="#b34940" d="M69.393 362.113a2.87 2.87 0 0 1 .741-1.731c4.931-6.232 9.902-12.438 14.815-18.681a48.502 48.502 0 0 0 4.503-6.31c.252-.455.333-1.1 1.22-1.18.398 1.394-.535 2.435-1.27 3.419-2.76 3.693-5.566 7.363-8.472 10.964-3.515 4.355-7.145 8.635-10.74 12.937a4.055 4.055 0 0 1-.802.578Z" class="colorb38440 svgShape"></path><path fill="#b94f46" d="m128.94 373.409-.03 1.896c-2.63 3.65-4.783 7.57-7.69 11.058-2.322 2.785-4.4 5.777-7.707 7.775a5.076 5.076 0 0 1-2.341.928h.001c.144-.191.239-.462.44-.563 3.892-1.973 6.254-5.25 8.738-8.397a82.618 82.618 0 0 0 7.7-11.578 2.231 2.231 0 0 1 .888-1.12Z" class="colorb98a46 svgShape"></path><path fill="#b54b42" d="M94.01 335.562c-.29 4.261-1.87 8.295-2.86 12.446a36.335 36.335 0 0 1 2.86-12.446Z" class="colorb58642 svgShape"></path><path fill="#b64c43" d="M97.007 337.119c2.943-.37 5.41 3.35 5.092 7.362a11.012 11.012 0 0 0-5.092-7.362Z" class="colorb68643 svgShape"></path><path fill="#ba5047" d="M40.763 382.62c-1.473 3.163-2.654 6.398-3.933 9.784-.288-2.434 1.518-7.036 3.933-9.784Z" class="colorba8b47 svgShape"></path><path fill="#b94e45" d="M79.854 390.65c2.344-1.195 4.408-2.803 6.899-3.769a15.881 15.881 0 0 1-6.899 3.768Z" class="colorb98945 svgShape"></path><path fill="#bb4f46" d="M114.74 341.257a7.148 7.148 0 0 1 5.528 3.579l-5.528-3.579Z" class="colorbb8a46 svgShape"></path><path fill="#b64c43" d="m44.32 374.35-.191.614c-.48-.343-.018-.445.193-.611Z" class="colorb68643 svgShape"></path><path fill="#b34940" d="M69.388 362.109c-.04.067-.096.195-.116.19-.179-.037-.135-.11.12-.186Z" class="colorb38440 svgShape"></path><path fill="#b94f46" d="M111.172 395.066c-.04.065-.095.19-.117.186-.174-.036-.132-.109.118-.186Z" class="colorb98a46 svgShape"></path><path fill="#2c332e" d="M207.696 190.212c-.774-.021-1.419-.618-2.245-.41-1.517-.322-3.03.44-4.548.02a15.437 15.437 0 0 0-1.95-.373 9.617 9.617 0 0 1-1.157-.2 7.579 7.579 0 0 0-2.338-.232 16.293 16.293 0 0 1-3.341-.295c-3.337-.635-3.803-1.235-3.107-4.308a4.76 4.76 0 0 0-.296-2.74 3.518 3.518 0 0 1 .38-3.775 2.329 2.329 0 0 1 .908-.783c2.266-1.849 5.23-2.086 7.968-2.268 5.224-.349 10.466-.901 15.73-.513.723 2.049-.617 3.804-1.084 5.66a55.781 55.781 0 0 1-3.452 8.611 3.418 3.418 0 0 1-1.468 1.606Z" class="color332c2c svgShape"></path><path fill="#a0bae4" d="M207.696 190.212a103.045 103.045 0 0 0 6.003-15.877l11.858.473c.884.24 1.705.514 1.06 1.585a20.65 20.65 0 0 0-2.905 13.864c.018.127-.154.26-.278.374a83.466 83.466 0 0 1-15.738-.42Z" class="colora0aee4 svgShape"></path><path fill="#a0b9e3" d="M216.145 148.85a45.405 45.405 0 0 0 3.957 5.427 15.18 15.18 0 0 0 10.637 5.468 2.688 2.688 0 0 1-.472 2.784 11.691 11.691 0 0 1-5.497.814c-2.755-.202-5.492-.6-8.247-.806-1.14-.086-1.478-.51-1.44-1.464.038-.931-.059-1.867-.096-2.8h.17c.488-2.521.043-5.066.25-7.59.05-.622-.683-1.62.738-1.833Z" class="colora0aee3 svgShape"></path><path fill="#fedf85" d="M215.116 207.228c1.183.79 1.763 2.128 3.106 2.772-6.224.052-12.445.104-18.663-.292a49.297 49.297 0 0 0-5.443.032 1.391 1.391 0 0 1-1.573-.862 15.316 15.316 0 0 1-1.637-4.168c1.328-.558 2.357.401 3.545.56a12.26 12.26 0 0 0 4.725.543 10.042 10.042 0 0 0 3.412-.47c2.432-.03 4.68-.968 7.093-1.165.93-.076 1.868-.22 2.814-.249l-.003-.002c1.01.75 2 1.512 2.117 2.808-3.593 1.269-7.38.683-10.376 1.201 3.178.006 7.015-.686 10.883-.708Z" class="colorfeac85 svgShape"></path><path fill="#a0b9e3" d="M189.59 177.566c-.681 1.57-1.092 3.084.188 4.642.746.908.268 1.911-.2 2.88-.873 1.813-.43 2.5 1.794 2.846 1.448.226 2.915.355 4.373.527.228 1.221-1.118 1.453-1.695 2.165a37.699 37.699 0 0 0-3.839 6.387c-.377.715-.39 1.774-1.724 1.735-1.856-4.361-3.83-8.655-3.833-13.493a8.298 8.298 0 0 1 4.285-7.759.505.505 0 0 1 .65.07Z" class="colora0aee3 svgShape"></path><path fill="#a0bae4" d="M194.204 205.74c-1.212-.046-2.12-.883-3.296-1.028a10.605 10.605 0 0 1-1.463-3.518c-.544-3.31 2.92-10.012 6.01-11.728a4.832 4.832 0 0 1 2.435-.633l1.026.085c.496.34 1.162.054 1.665.368 1.62.193 3.324-.256 4.87.515a11.283 11.283 0 0 0-7.544 4.58c-1.908 2.921-3.629 6.027-3.774 9.57-.283.607.856 1.167.07 1.789Z" class="colora0aee4 svgShape"></path><path fill="#20522d" d="M177.463 178.038c-5.47.22-9.989-4.097-9.917-8.833.082-5.422 5.363-9.09 9.686-8.985 6.472.158 9.58 3.765 10.038 9.095.395 4.606-4.549 8.73-9.807 8.723Z" class="color522920 svgShape"></path><path fill="#20532e" d="m160.825 187.502 1.118-1.458c1.568-1.797 1.334-4.192 2.506-6.12a1.175 1.175 0 0 0 .498-1.036c-.242-4.692.904-9.341.53-14.037-.162-1.577.625-3.045.652-4.6.673 0 .933.368.905.905-.157 3.118.355 6.246-.357 9.367a31.984 31.984 0 0 0-.158 4.22 55.248 55.248 0 0 1-1.047 8.584 7.268 7.268 0 0 1-2.852 4.106c-.573.426-1.164.742-1.795.069Z" class="color532920 svgShape"></path><path fill="#cf8d87" d="M222.857 210.083c.519-.088 1.105-.15.515-.804-.574-.637-1.485-1.072-1.477-2.05 1.302-.241 2.482-.626 2.84-1.972.494-.617.84-1.384 1.849-1.478a49.109 49.109 0 0 1 6.772 6.696l-9.037-.036a2.355 2.355 0 0 1-1.462-.356Z" class="colorcf9a87 svgShape"></path><path fill="#1f512c" d="M239.496 165.406a3.704 3.704 0 0 1-2.963 2.6c-1.56.019-3.248-1.546-3.113-2.883.12-1.19 2.008-2.608 3.293-2.476 1.207.123 2.845 1.747 2.783 2.76Z" class="color51281f svgShape"></path><path fill="#89a3cf" d="M223.434 190.631a18.721 18.721 0 0 1 .538-9.647 12.328 12.328 0 0 1 2.064-4.496c.716-.896.086-1.218-.48-1.68a7.878 7.878 0 0 1 3.696.377 2.051 2.051 0 0 0-2.019 1.176 21.47 21.47 0 0 0-3.237 11.454c.026 2.119.038 2.112 2.369 2.5a2.83 2.83 0 0 1 .68.31q-1.806.002-3.61.006Z" class="color8996cf svgShape"></path><path fill="#98b0d8" d="M230.267 162.53a4.268 4.268 0 0 1 .472-2.786 19.214 19.214 0 0 0 10.503-3.859l.254.26a1.327 1.327 0 0 1-.327 1.592 17.086 17.086 0 0 1-3.93 1.762 37.218 37.218 0 0 0-6.972 3.03Z" class="color98a6d8 svgShape"></path><path fill="#285e36" d="M194.497 171.192a7.158 7.158 0 0 1 4.68-1.586c5.442-.366 10.848.659 16.296.489.32-.01.675.155.788.842-7.086-.366-14.14-1.026-21.764.255Z" class="color5e3228 svgShape"></path><path fill="#bb7872" d="M233.356 210.475a36.246 36.246 0 0 1-6.767-6.536c-.447-.234-.98-.393-1.053-.96-1.634-1.83-2.792-4.063-5.99-5.096a2.892 2.892 0 0 1 3.012.744 48.87 48.87 0 0 1 5.848 5.91 45.166 45.166 0 0 0 6.55 5.92l-1.6.018Z" class="colorbb8572 svgShape"></path><path fill="#235631" d="M180.116 198.275a6.17 6.17 0 0 1-1.724-3.09c-.64-2.102-1.387-4.19-1.81-6.33-.522-2.64.377-4.976 2.367-7.129.269.385.458.571.423.617-2.222 2.869-2.154 5.956-1.17 9.165.687 2.245 1.275 4.514 1.907 6.773Z" class="color562c23 svgShape"></path><path fill="#275e36" d="M186.426 160.363a156.83 156.83 0 0 1 19.863 3.694 164.79 164.79 0 0 1-19.863-3.694Z" class="color5e3027 svgShape"></path><path fill="#255432" d="M235.466 184.686c-.536.05-1.217.068-1.337-.454-.549-2.385-1.634-4.664-1.76-7.132q.238-.245.493-.476l.003-.003c2.04 1.49 2.257 3.661 2.596 5.765a14.016 14.016 0 0 1 .005 2.3Z" class="color542c25 svgShape"></path><path fill="#8aa4cf" d="M197.89 188.833c-5.784 2.472-7.553 7.173-8.445 12.36a5.247 5.247 0 0 1-.958-2.445c1.213-1.01 1.304-2.517 2.014-3.755 1.394-2.428 2.724-4.855 5.244-6.532a2.858 2.858 0 0 1 2.145.372Z" class="color8a97cf svgShape"></path><path fill="#275e36" d="M182.194 210.517c-4.042 0-8.085-.005-12.128.006a6.403 6.403 0 0 1-3.01-.45c-.217-.106-.799-.392-.32-.428a25.075 25.075 0 0 1 5.9.011 53.213 53.213 0 0 0 7.667.39c.671.015 1.394-.12 1.891.47Z" class="color5e3027 svgShape"></path><path fill="#255933" d="M167.292 191.521c-.088 3.35.912 6.607.788 10.245-.797-2.051-1.471-8.825-.788-10.245Z" class="color592e25 svgShape"></path><path fill="#2e3730" d="M243.322 156.843a1.151 1.151 0 0 0-1.052.469q-.215-.008-.43-.03c-.668-.297-.098-1.027-.592-1.385l-.006-.012 1.601-2.31c.923.998.296 2.181.48 3.268Z" class="color372e2e svgShape"></path><path fill="#225630" d="M226.724 169.04c-.586.03-1.034-.157-1.106-.722-.08-.631.204-1.06.986-1.058.604.002.954.276.982.837a.823.823 0 0 1-.862.944Z" class="color562b22 svgShape"></path><path fill="#f3d785" d="M240.182 209.57a1.807 1.807 0 0 1 1.02.917l-3.11-.015a3.281 3.281 0 0 1 2.09-.903Z" class="colorf3aa85 svgShape"></path><path fill="#34a853" d="M241.248 155.897c.569.333.484.892.592 1.385l-.67.455.078-1.84Z" class="color6c6c6c svgShape"></path><path fill="#7b8699" d="m189.59 177.566-.65-.07c.235-.395.637-.414 1.062-.38a.48.48 0 0 1-.413.45Z" class="color7b7c99 svgShape"></path><path fill="#235631" d="M180.11 198.28c.072.035.21.083.206.102-.038.155-.116.117-.2-.107Z" class="color562c23 svgShape"></path><path fill="#b5736d" d="M236.526 135.671c-1.066.88-2.091 1.805-3.211 2.625-1.044.764-2.139 1.635-3.623.709 1.38-.23 1.652-1.34 1.96-2.25a11.45 11.45 0 0 0 .372-6.886 5.072 5.072 0 0 1 .471-4.063c.338-.025.4.204.418.401a12.132 12.132 0 0 0 3.119 6.747c.673.794.465 1.79.494 2.717Z" class="colorb5816d svgShape"></path><path fill="#434443" d="M251.709 113.016a4.004 4.004 0 0 0-.611 2.383l-2.606 6.584c-.475.106-.73.015-.533-.483.312-3.242-.396-6.438-.546-9.66-.036-.77-.184-1.61 1.124-1.631.553.187 1.094.414 1.661.555a1.794 1.794 0 0 1 1.51 2.252Z" class="color444343 svgShape"></path><path fill="#444645" d="M223.415 123.966c-2.635-1.416-4.976-.165-7.457.863 1.45-3.122 3.898-4.378 7.09-3.732 1.099.223 2.173.554 3.243.875 2.089.626 2.196.956.873 2.582a3.235 3.235 0 0 1-.593.454c-1.29.238-2.524.338-3.156-1.042Z" class="color464544 svgShape"></path><path fill="#444645" d="M233.89 121.522a17.189 17.189 0 0 1 6.088-2.545 5.749 5.749 0 0 1 4.856 1.441c-.339.949-1.066.656-1.584.617a7.65 7.65 0 0 0-5.98 1.754 2.94 2.94 0 0 1-.435.257c-1.933 1.183-1.933 1.183-3.474-.554-.268-.52.13-.745.528-.97Z" class="color464444 svgShape"></path><path fill="#b4736e" d="M223.415 123.966c1.03.4 1.95 1.076 3.156 1.041q-.51.387-1.02.771c-.461.385-.592 1.187-1.522.977l-.61.496c-1.04 1.363-2.233.725-3.418.215-.935-.277-1.283-1.048-1.764-1.707a2.924 2.924 0 0 1 2.984-1.42c.74.026 1.57.246 2.194-.373Z" class="colorb4816e svgShape"></path><path fill="#bd7973" d="M239.527 116.091a4.012 4.012 0 0 1-3.361 1.203 21.017 21.017 0 0 0-7.862 1.105 9.042 9.042 0 0 1-8.143-1.363 19.284 19.284 0 0 0 6.432.743 5.225 5.225 0 0 0 1.78-.186c2.628-1.325 5.465-1.29 8.33-1.24a27.51 27.51 0 0 0 2.824-.262Z" class="colorbd8773 svgShape"></path><path fill="#b5736e" d="M237.062 125.644c-.289-.357-1.067-.432-.427-1.222.906-1.118 4.686-1.678 6.166-.82.873.506-.439.746-.543 1.191a1.289 1.289 0 0 1-.45.968l-.186.055a2.54 2.54 0 0 1-3.477.456l-.599-.47c-.247.162-.405.098-.484-.158Z" class="colorb5816e svgShape"></path><path fill="#be7a74" d="M225.074 116.084c2.292-.053 3.954-1.585 6.118-1.853a3.221 3.221 0 0 1 3.052.684 14.703 14.703 0 0 0-6.957 1.302 2.521 2.521 0 0 1-2.213-.133Z" class="colorbe8874 svgShape"></path><path fill="#b87873" d="M224.552 135.59c-.726-.344-1.422.076-2.135.07a11.493 11.493 0 0 1 4.851-5.193c-1.071 2.017-3.517 2.93-2.716 5.123Z" class="colorb88573 svgShape"></path><path fill="#4d514e" d="M219.9 127.234c1.173-.095 2.342.734 3.52.016.24 1.257-.71 1.607-1.761 1.747-1.067.143-1.8-.268-1.9-1.331-.134-.192-.096-.338.14-.432Z" class="color514f4d svgShape"></path><path fill="#bd7b75" d="m233.89 121.522-.53.97c-.567.306-.428.93-.84 1.356-.029-1.654-.693-3.351.756-5.127.484 1.036-.41 2.136.613 2.801Z" class="colorbd8975 svgShape"></path><path fill="#4a4f4b" d="M238.145 126.272a15.845 15.845 0 0 0 3.477-.456 2.532 2.532 0 0 1-2.602 1.798c-.98-.08-.928-.712-.875-1.342Z" class="color4f4c4a svgShape"></path><path fill="#bf7a74" d="M238.125 113.388c-2.584.268-4.566.283-6.946-.996a32.975 32.975 0 0 1 6.946.996Z" class="colorbf8874 svgShape"></path><path fill="#bc7a74" d="M228.701 125.451v-4.306a5.344 5.344 0 0 1 0 4.306Z" class="colorbc8874 svgShape"></path><path fill="#c2807a" d="M224.114 114.34c.883-.485 1.766-.972 3.094-1.704-.743 1.582-1.935 1.62-2.824 2.098Z" class="colorc28e7a svgShape"></path><path fill="#dce1ea" d="M219.9 127.234a1.672 1.672 0 0 1-.14.432c-1.346-.092-1.624-.877-1.523-1.907.798.268 1.15.945 1.662 1.475Z" class="coloreae1dc svgShape"></path><path fill="#e8ebef" d="m224.029 126.755 1.522-.977a1.622 1.622 0 0 1-.93 1.533c-.697.362-.532-.243-.592-.556Z" class="colorefebe8 svgShape"></path><path fill="#58715f" d="m247.96 121.5.532.483c-.05.41-.394.84-.728.636-.496-.303-.142-.774.195-1.119Z" class="color715f58 svgShape"></path><path fill="#d9dfe8" d="M241.808 125.76c-.17-.443.128-.709.45-.967.98.75.222.843-.45.968Z" class="colore8ded9 svgShape"></path><path fill="#f7f7f8" d="M237.062 125.644a1.49 1.49 0 0 0 .484.158c.03.282.113.601-.29.713-.106.03-.31-.097-.41-.2-.301-.306-.098-.51.216-.67Z" class="colorf7f8f7 svgShape"></path><path fill="#d18f89" d="M225.486 387.145a42.873 42.873 0 0 0-1.133-6.776 15.055 15.055 0 0 1-.366-7.402 13.475 13.475 0 0 1 1.138-3.107c1.14-2.282 2.162-4.617 3.415-6.846 1.744-3.105 1.848-6.458 2.145-9.797a2.458 2.458 0 0 1 .64-3.324h-.019a7.943 7.943 0 0 1 4.188-.066 111.793 111.793 0 0 0 11.41 2.437c.011 2.73-1.93 4.59-3.604 6.57-1.88 2.363-2.383 5.197-2.904 7.916a16.11 16.11 0 0 0 1.882 11.839 12.321 12.321 0 0 0 6.144 4.84 14.528 14.528 0 0 1 2.742 1.308q.245.223.496.439l.006.008c-1.169 1.896-3.196 1.212-4.615.804a3.529 3.529 0 0 0-4.013.992c-1.375.355-1.48-.74-1.921-1.405-1.727-2.601-3.8-2.803-5.867-.387a7.9 7.9 0 0 1-3.437 2.323c-2.188.98-4.255.266-6.327-.366ZM169.15 383.76l.036-.47.457-.463c1.292-1.802 3.515-1.506 5.391-1.785a9.684 9.684 0 0 0 3.63-1.041 6.78 6.78 0 0 1 2.415-.828 5.04 5.04 0 0 0 4.194-3.425 42.618 42.618 0 0 0 2.094-7.474c-.95-1.934-.18-3.788.326-5.656 1.216-1.085 2.775-1.128 4.34-1.156.465-.007.93-.007 1.397-.013a38.25 38.25 0 0 1 4.674.026c1.087.087 2.355.105 2.366 1.573l.003-.002a.345.345 0 0 0-.145.346q.044.184.101.184a44.49 44.49 0 0 0 1.217 6.44 32.728 32.728 0 0 1-.436 13.45 7.891 7.891 0 0 1-1.721 3.09 30.935 30.935 0 0 1-10.496-.006c-.438-.378-1.13-.016-1.555-.434l-.012-.006a6.9 6.9 0 0 1-2.898-2.61c-1.732-2.222-2.742-2.385-5.116-.85a4.205 4.205 0 0 1-2.34.914c-2.643-.004-5.277.272-7.923.197Z" class="colord19d89 svgShape"></path><path fill="#cb5f56" d="M134.56 335.365c-.349 2.427.712 4.182 2.627 5.949a15.28 15.28 0 0 1 4.912 11.322 85.456 85.456 0 0 1-.824 11.012 21.726 21.726 0 0 0 .319 7.006 34.695 34.695 0 0 1-.048 14.004 5.557 5.557 0 0 0-.02.937 19.987 19.987 0 0 1-6.883-.984c-1.978-.579-2.113-.822-2.094-2.708.067-6.797.703-13.577.92-20.363.238-7.5.86-14.993.72-22.504-.024-1.228-.319-2.495.37-3.671Z" class="colorcb9b56 svgShape"></path><path fill="#bc7a74" d="M169.15 383.76a16.606 16.606 0 0 1 6.46-.604 4.605 4.605 0 0 0 3.69-1.132c1.907-1.731 3.807-1.362 5.434.674.905 1.133 1.795 2.275 2.692 3.413l-11.493-.015c-.25-.383.1-.713.118-1.073a3.314 3.314 0 0 1-1.165 1.106l-.243.038-.246-.017c-.348-.156-.206-.604-.557-.757.044.338.32.536.56.756a7.753 7.753 0 0 1-5.303-.001 1.28 1.28 0 0 0-.403-1.892Z" class="colorbc8774 svgShape"></path><path fill="#d08e89" d="m238.03 387.574-4.615-.076c.51-1.67 1.934-2.7 3.319-3.717a2.512 2.512 0 0 1 3.103.22c1.128.769 1.974 1.945 1.568 3.017-.553 1.458-2.176.603-3.374.556Z" class="colord09d89 svgShape"></path><path fill="#b97670" d="M238.03 387.574c.257-.017.516-.02.77-.054.723-.096 1.59.281 2.136-.38.355-.427-.623-2.16-1.442-2.8a1.92 1.92 0 0 0-2.546-.178 19.497 19.497 0 0 0-3.533 3.337l-1.602.012c1.178-1.092 2.407-2.126 3.513-3.298a3.755 3.755 0 0 1 6.28.85c.372.681.441 1.498 1.183 2.002.116-.013.231-.027.347-.042a7.593 7.593 0 0 1 3.13.265.385.385 0 0 1 .227.331q-.002.21-.06.21c-2.807.084-5.628.548-8.402-.255Z" class="colorb98370 svgShape"></path><path fill="#b87671" d="M246.433 387.828q-.007-.173-.025-.345c-.994-1.636-2.472.102-3.625-.422l.006.004c1.113-2.327 1.367-2.32 3.884-1.653a6.709 6.709 0 0 0 4.993-.228.93.93 0 0 1 .551.917c-.038.085-.077.17-.111.254a.669.669 0 0 0 .036.5c.03.081.059.164.088.247a1.768 1.768 0 0 1-1.645.379c-.352-.211-.7-.38-1.007.057l-1.035.01c-.365-.275-.728-.476-1.068.03l-1.042.25Z" class="colorb88371 svgShape"></path><path fill="#713e3a" d="M136.77 282.548c-.034 3.049.203 6.11-.478 9.133-.017-2.474-.04-4.95-.046-7.427-.002-.606-.128-1.257.524-1.706Z" class="color71423a svgShape"></path><path fill="#cb8c87" d="M168.694 384.256c.573.029 1.24-.088 1.412.636.177.74-.177 1.16-1.009 1.256a2.426 2.426 0 0 1-.457-.07l.054-1.822Z" class="colorcb9a87 svgShape"></path><path fill="#cd8b85" d="M174.886 386.13c.651-.783.612-2.106 2.14-2.336.282 1.114-.737 1.574-1.093 2.302l-1.047.033Z" class="colorcd9985 svgShape"></path><path fill="#713e3a" d="M138.323 275.917c-.677.058-1.083.29-1.11 1.004a7.056 7.056 0 0 1-.398 3.003l-.057-3.968a.924.924 0 0 1 1.565-.04Z" class="color71423a svgShape"></path><path fill="#c88883" d="M249.578 387.538c-.043-.264-.458-.637-.061-.766.574-.188.83.319 1.068.71l-1.007.056Z" class="colorc89783 svgShape"></path><path fill="#cd8c87" d="M247.475 387.577c.002-.293-.526-.734.096-.84.513-.088.76.422.972.812l-1.068.028Z" class="colorcd9b87 svgShape"></path><path fill="#bc7a74" d="M187.438 386.117c.573-.015 1.158-.064 1.555.433a1.589 1.589 0 0 1-1.555-.433Z" class="colorbc8774 svgShape"></path><path fill="#b87671" d="M252.217 386.101a.905.905 0 0 1 .44.946q-.213.034-.428.055l-.11-.104a.56.56 0 0 1 .049-.859Z" class="colorb88371 svgShape"></path><path fill="#c6c6c7" d="M232.557 85.754c7.827 1.513 15.017 8.468 15.741 15.1-3.098-6.857-7.884-12.268-15.741-15.1Z" class="colorc7c6c6 svgShape"></path><path fill="#c8c8c9" d="M238.346 102.155c-.673-5.26-2.065-10.24-6.045-14.518 3.825 1.381 6.808 8.658 6.045 14.518Z" class="colorc9c8c8 svgShape"></path><path fill="#cacacb" d="M230.243 87.658c-3.384 3.706-6.251 7.25-8.147 11.65.014-3.487 4.428-9.859 8.147-11.65Z" class="colorcbcaca svgShape"></path><path fill="#c8c8c9" d="M219.083 93.893c3.014-4.244 6.154-6.646 9.348-7.048a77.772 77.772 0 0 0-9.348 7.048Z" class="colorc9c8c8 svgShape"></path><path fill="#cbcbcc" d="M215.621 93.29a15.884 15.884 0 0 1 6.426-5.904 7.97 7.97 0 0 1 4.4-1.516c-.783 1.094-1.988 1-2.848 1.475a25.657 25.657 0 0 0-5.665 4.074 8.135 8.135 0 0 1-2.301 1.88Z" class="colorcccbcb svgShape"></path><path fill="#cfcfd0" d="M215.633 93.3c-.676 1.854-2.234 3.22-3.324 4.845a7.955 7.955 0 0 1 3.312-4.854Z" class="colord0cfcf svgShape"></path><path fill="#cccccc" d="M230.513 92.843a3.575 3.575 0 0 1 .456-3.466c.828 1.388-.378 2.355-.456 3.466Z" class="colorcccccc svgShape"></path><path fill="#c6c7c9" d="M231.059 85.804a.48.48 0 0 1-.525.358c-.365-.014-.668-.178-.538-.539.047-.13.4-.222.62-.235a.385.385 0 0 1 .443.416Z" class="colorc9c6c6 svgShape"></path><path fill="#7c524f" d="M229.775 140.866c2.347-.112 4.44.212 6.467-.43a1.225 1.225 0 0 1 .96.179c.375.32.08.716-.111 1.057-.975 1.739-4.978 3.215-7.224 2.758a12.519 12.519 0 0 1-4.859-2.584c-.522-.379-.332-.928.373-.959 1.556-.067 3.118-.02 4.394-.02Z" class="color7c4f4f svgShape"></path><path fill="#92a8cc" d="M216.145 148.85c-.729.525-.489 1.264-.497 1.93-.024 1.846.004 3.693-.015 5.539-.007.674.183 1.402-.476 1.953l-.14-10.804c1.162-.06.925.807 1.128 1.382Z" class="color92a0cc svgShape"></path><path fill="#8ba5d1" d="M190.039 149.787c-.272-.488-.556-.97-.813-1.464-1.29-2.478-2.608-4.931-6.31-6.101 3.476-.34 6.823 3.352 7.652 7.564a.345.345 0 0 1-.53.001Z" class="color8b97d1 svgShape"></path><path fill="#8ba5d1" d="m190.039 149.787.53-.001a.972.972 0 0 1 .483.75c.015.367.004.733.004 1.547a4.835 4.835 0 0 1-1.017-2.296Z" class="color8b98d1 svgShape"></path><path fill="#723d39" d="M164.449 179.923c.027 2.327-.234 4.558-2.506 6.12 1.19-4.14.98-8.376 1.063-12.594.02-.995-.503-1.175-1.434-1.128-.95.048-1.907.006-2.86.004.954-.767 2.144-.239 3.195-.472a1.151 1.151 0 0 1 1.466.047c.736.077 1.19.384.726 1.054a2.953 2.953 0 0 0 .062 3.673 1.622 1.622 0 0 1 .058 1.773c-.324.578-.006 1.036.23 1.523Z" class="color724339 svgShape"></path><path fill="#20522d" d="m163.373 171.9-1.467-.047c-.017-2.113-.042-4.226-.047-6.338-.001-.486.115-1.017.791-.999.674.019.743.561.743 1.042.001 2.114-.012 4.228-.02 6.342Z" class="color522920 svgShape"></path><path fill="#a0bae4" d="M233.382 267.917a5.023 5.023 0 0 0-1.884 1.556c-1.274 1.504-1.649 2.39-3.711 2.276-2.571-.142-4.94-.003-7.52 0-2.795.35-7.02-.314-9.87-.609 3.823-1.791 8.133-2.431 10.854-4.305-5.743 2.652-12.447 4.986-19.983 4.664a22.613 22.613 0 0 0-4.92.11l-.572-.019c-7.02-4.07-14.79-7.158-20.644-12.758-.603-.578-1.506-.764-2.042-1.403.86-5.745 2.81-10.853 9.475-13.222a11.858 11.858 0 0 0 3.454-2.088c6.695-5.425 12.297-11.526 14.65-19.597.173-.593.269-1.25.96-1.602a105.145 105.145 0 0 1 19.518-.325c7.722.414 15.435.96 23.176.786 1.27-.028 2.156.178 2.577 1.317a11.645 11.645 0 0 1 .918 10.192c-1.968 5.539-.228 9.916 4.576 13.523a1.658 1.658 0 0 1 .286.382c-2.579-.462-4.428.956-5.87 2.387a36.27 36.27 0 0 0-8.226 11.7 5.139 5.139 0 0 1-.52 1.47c-1.337 2.008-2.427 4.186-4.682 5.565Z" class="colora0aee4 svgShape"></path><path fill="#2d342f" d="M201.629 220.92c-.942 5.322-3.654 9.914-7.256 14.118a61.897 61.897 0 0 1-7.517 7.167 12.987 12.987 0 0 1-5.255 2.932 7.53 7.53 0 0 0-4.12 3.1 20.81 20.81 0 0 0-4.01 9.318c-.125 2.488-1.194 4.796-1.711 7.21-.179.835-.677 1.605-.355 2.503.744 2.068-.165 3.486-2.202 4.44l-13.75-.016a.936.936 0 0 1 .02-.408c-.288-.43-.021-.961-.316-1.39-1.602-8.412-.5-16.65 2.131-24.751a100.992 100.992 0 0 1 11.34-23.809 2.849 2.849 0 0 1 2.861-1.43c8.939.077 17.878.044 26.817.035 1.239-.001 2.442.03 3.323.98Z" class="color342d2d svgShape"></path><path fill="#e2e2e2" d="M165.58 278.36c.748-2.29.748-2.292 3.644-2.302 3.45-.01 6.9-.037 10.348-.02 1.594.007 1.594.045 1.55 1.807-.08 2.798-2.643 3.839-4.653 5.217a11.196 11.196 0 0 1-2.821 1.722c2.244-.915 4.226-2.974 7.244-4.45-.04 3.862.113 7.415-.129 10.973-.024.365-.466.398-.823.42-4.323-.013-8.64.013-12.958-.018a4.445 4.445 0 0 1-2.515-.254l.016.009c-.626-.635-.217-1.313-.11-1.98.626-2.684.194-5.402.342-8.1.058-1.054-.205-2.2.865-3.025ZM169.203 271.709c.311-.361.61-.732.937-1.082.83-.887 1.28-1.818.632-2.973a2.38 2.38 0 0 1 .19-2.636 2.822 2.822 0 0 0 .631-1.505c-.157-2.205 1.025-4.032 1.877-5.958a1.032 1.032 0 0 1 1.358.2c4.946 4.805 11.093 8.098 17.416 11.156a10.236 10.236 0 0 1 3.532 2.68l-26.573.118Z" class="colore2e2e2 svgShape"></path><path fill="#2e3530" d="M165.58 278.36c-.059 3.233-.125 6.467-.172 9.702a3.012 3.012 0 0 1-.483 1.99c-1.723.956-2.589-.307-3.445-1.2a16.186 16.186 0 0 1-4.33-9.606l-.08-1.399c.058-.867.324-1.495 1.525-1.45 1.56.058 3.125-.006 4.687.013 1.956.024 1.955.037 2.298 1.95Z" class="color352e2e svgShape"></path><path fill="#cccccc" d="M199.312 295.825a.584.584 0 0 1-.097.405 3.415 3.415 0 0 1-1.71.601 33.596 33.596 0 0 1-4.415.047c-2.145-.128-3.067.66-2.812 2.6a19.594 19.594 0 0 1-.006 2.112c.136 3.768-.043 7.535.074 11.299q.452 14.568 1.42 29.116.586 8.932 1.788 17.798a2.484 2.484 0 0 1-.362 2.253l-1.085.008c-1.858-2.507-1.434-5.451-1.737-8.2-.963-8.726-1.26-17.497-1.787-26.252-.544-9.017-.217-18.02-.401-27.026-.073-3.542-.13-3.637-4.155-3.645-4.522-.009-9.045.05-13.566-.027-1.863-.031-3.408.325-4.522 1.74a3.334 3.334 0 0 1-.327-2.823l33.7-.006Z" class="colorcccccc svgShape"></path><path fill="#797979" d="M157.15 279.246a21.516 21.516 0 0 1 1.532 3.944 17.29 17.29 0 0 0 3.802 5.836 2.485 2.485 0 0 0 2.44 1.027l-.44 1.41c-2.985-.211-5.905.707-8.892.41 1.281-.29 1.127-1.217 1.132-2.07.02-3.523.12-7.043.427-10.557Z" class="color797979 svgShape"></path><path fill="#265e35" d="M207.161 292.304c-3.48-.191-6.88.506-10.329.693a67.855 67.855 0 0 0-10.062.785 1.453 1.453 0 0 1-.258.036c-6.332.14-12.647.795-18.993.476-.152-.008-.296-.137-.458-.352 2.867.205 5.632-.67 8.479-.548 4.525.196 9.01-.403 13.508-.601 5.527-.244 11.036-.875 16.586-.821.507.005 1.044-.14 1.527.332Z" class="color5e2f26 svgShape"></path><path fill="#225830" d="M212.307 273.9c3.394-.111 6.675-.862 10.065-.799 8.578.16 17.138-.77 25.722-.432a5.287 5.287 0 0 1 2.53.224c-.178.083-.331.22-.475.212-5.292-.268-10.534.711-15.824.504-6.067-.237-12.097.788-18.168.474a7.307 7.307 0 0 0-2.03.35 1.495 1.495 0 0 1-1.82-.533Z" class="color582c22 svgShape"></path><path fill="#8aa4cf" d="M196.347 271.61a3.876 3.876 0 0 1 2.755-.34c7.12.443 13.648-1.59 20.12-3.852a12.211 12.211 0 0 0 2.002-1.07 3.291 3.291 0 0 1 2.444-.81c-3.823 3.093-8.296 4.146-12.652 5.701 1.3 0 2.6-.008 3.9.002 1.3.01 2.6.039 3.9.06l-.11.346-22.359-.037Z" class="color8a96cf svgShape"></path><path fill="#205a2f" d="M167.687 273.285c10.68.057 21.413-.644 32.186.441-2.6.624-23.079.446-32.186-.44Z" class="color5a2920 svgShape"></path><path fill="#1f592e" d="M222.32 287.732c-3.46 0-6.923-.057-10.383.011-7.282.144-14.554.671-21.847.461a10.767 10.767 0 0 1-2.59-.241c2.258-.083 4.452-.657 6.677-.674 9.128-.072 18.257-.031 27.385-.026a5.236 5.236 0 0 1 .741.104Z" class="color59281f svgShape"></path><path fill="#1f542d" d="M189.875 277.524c2.622-.223 24.608-.213 27.193-.003-.464.603-1.147.28-1.722.307a36.426 36.426 0 0 1-3.383.012c-6.328-.3-12.62.56-18.94.457-1.009-.016-2.091.207-3.148-.773Z" class="color54281f svgShape"></path><path fill="#d0d0d0" d="M180.616 291.38v-10.488c-3.35 1.507-5.552 4.503-9.321 4.666 3.882-1.984 7.983-3.616 9.827-7.713l-.075 13.574q-.267.445-.43-.038Z" class="colord0d0d0 svgShape"></path><path fill="#275f36" d="M250.978 293.12a152.323 152.323 0 0 1-23.911.402c7.838.375 15.625-1.315 23.911-.402Z" class="color5f3127 svgShape"></path><path fill="#255b33" d="M204.504 281.304h10.958c-3.65.106-7.247 1.33-10.946.55Z" class="color5b2e25 svgShape"></path><path fill="#797979" d="M180.616 291.38a1.695 1.695 0 0 0 .431.039c-.265.521-.79.528-1.31.53q-6.967.015-13.934.025a1.394 1.394 0 0 1-1.336-.519c5.384.132 10.767.168 16.15-.074Z" class="color797979 svgShape"></path><path fill="#285d36" d="M222.071 291.06c-2.152.357-4.321.835-6.412-.248a14.876 14.876 0 0 1 6.412.247Z" class="color5d3128 svgShape"></path><path fill="#215a30" d="M196.742 282.918h-12.404l-.003-.24h12.33Z" class="color5a2a21 svgShape"></path><path fill="#2a6239" d="M221.956 279.537a2.332 2.332 0 0 1 3.042-.3c-1.104.744-2.097.382-3.042.3Z" class="color62342a svgShape"></path><path fill="#296138" d="M228.872 285.047a1.93 1.93 0 0 1-2.052.643c.565-.882 1.218-.826 2.052-.643Z" class="color613229 svgShape"></path><path fill="#c7c7c7" d="M243.3 358.834c.849-2.348 2.65-4.27 3.605-6.57 2.123.024 3.95 1.022 5.943 1.477 1.772.405 1.885.38 1.938-1.298.037-1.167.005-2.335.004-3.502-.301-.53-.45-.992.525-.95-.17 2.071.686 4.134.043 6.213-.096.31.153.59.43.799-.667 2.507-3.115 2.796-5.261 3.18-2.364.422-4.814.45-7.227.65Z" class="colorc7c7c7 svgShape"></path><path fill="#cccccc" d="M255.315 347.992a.975.975 0 0 0-.525.949c-.555-.394-.484-.956-.516-1.501a98.353 98.353 0 0 0-1.79-12.467c-1.042-5.509-2.305-10.984-3.412-16.484a7.218 7.218 0 0 1-.544-2.511c-.32-.531-.441-.973.514-.932.382 2.93 1.307 5.763 1.931 8.65 1.2 5.55 2.582 11.068 3.342 16.69.343 2.534 1.028 5.031 1 7.606Z" class="colorcccccc svgShape"></path><path fill="#cbcbcc" d="m235.494 349.827-4.188.065a2.719 2.719 0 0 1 .61-.411c.774-.264 1.891.272 2.352-.61a3.871 3.871 0 0 0 .06-2.318 50.353 50.353 0 0 1 .478-16.935c-.921 6.775-.302 13.498.688 20.21Z" class="colorcccbcb svgShape"></path><path fill="#c9c9ca" d="m231.325 349.893-.64 3.324c-1.369-.873-1.961-1.928-.964-3.353l1.604.03Z" class="colorcac9c9 svgShape"></path><path fill="#d4d4d5" d="M249.042 315.046a.942.942 0 0 0-.514.932c-.758-.868-.715-1.915-1.046-3.113 1.325.503 1.018 1.57 1.56 2.18Z" class="colord5d4d4 svgShape"></path><path fill="#265a34" d="M121.496 214.701c.136-.696.513-.85.821-.835 2.787.139 5.487-.577 8.28-.554 10.69.088 21.393-.232 32.069.137 6.503.224 13.02.017 19.49.469 3.796.265 7.593.218 11.38.63-7.934.082-15.846.248-23.797-.166-7.97-.416-15.988-.154-23.983-.082-8.045.073-16.098-.38-24.26.401Z" class="color5a3026 svgShape"></path><path fill="#265c34" d="M267.672 217.103c-10.218 0-19.885.316-29.51-.118-5.818-.262-11.623-.146-17.428-.352a3.847 3.847 0 0 1-2.367-.403 1.733 1.733 0 0 1 1.935-.433 12.27 12.27 0 0 0 4.122.366c9.656.009 19.318-.162 28.966.085 4.499.116 9.001.37 13.509.421.142.002.282.152.773.434Z" class="color5c2f26 svgShape"></path><path fill="#296138" d="M248.646 214.446c5.013.009 10.03-.617 14.956.645-5-.076-10.03.66-14.956-.645Z" class="color613329 svgShape"></path><path fill="#275e36" d="M200.598 217.358c4.19.029 8.263-1.198 12.748-.553-4.428 1.283-8.64.584-12.748.553Z" class="color5e3127 svgShape"></path><path fill="#4285f4" d="M225.088 205.294c-.519 2.359-.996 2.648-3.193 1.936l-.605-.965a1.266 1.266 0 0 1 .045-1.407 4.616 4.616 0 0 1 2.706-.56c.762-.02 1.139.288 1.047.996Z" class="color5f8ec6 svgShape"></path><path fill="#f47368" d="M215.116 207.228a2.519 2.519 0 0 1-.715.273c-3.87.211-7.707.968-11.612.594-.135-.012-.251-.174-.594-.428 4.285-.194 8.362-.447 12.414-.932l.507.493Z" class="colorf49468 svgShape"></path><path fill="#bb7872" d="M212.495 203.93a3.976 3.976 0 0 0-3.335-2.86c-.9-.171-1.779-.443-2.648-.664.033-.696.49-.69.903-.587a16.48 16.48 0 0 1 4.122 1.31 3.85 3.85 0 0 1 1.765 1.948c.283.69-.276.77-.81.85Z" class="colorbb8672 svgShape"></path><path fill="#8fa4c8" d="M194.204 205.74c.153-.602-.866-1.167-.07-1.789a6.635 6.635 0 0 0 4.25 1.411c.228.399 1.332-.028 1.02.88-1.763.082-3.546.332-5.2-.502Z" class="color8f95c8 svgShape"></path><path fill="#f6d986" d="M235.07 202.223a9.705 9.705 0 0 1-4.917-3.712c2.314.477 3.464 2.261 4.918 3.712Z" class="colorf6aa86 svgShape"></path><path fill="#bc7c77" d="m221.335 204.858-.045 1.407c-1.575-1.599-2.547-3.688-5.2-4.796 1.841.14 1.794.196 2.7.813 1.05.715 1.398 1.961 2.545 2.576Z" class="colorbc8977 svgShape"></path><path fill="#e4685e" d="m225.088 205.294-1.048-.995a3.183 3.183 0 0 1 1.497-1.32 1.64 1.64 0 0 1 1.053.96c-.634.333-.724 1.153-1.502 1.355Z" class="colore4875e svgShape"></path><path fill="#99a3b3" d="m199.404 206.241-1.02-.879 4.204-.019a4.505 4.505 0 0 1-3.184.898Z" class="colorac99b3 svgShape"></path><path fill="#c17e78" d="M227.205 192.826c-.295.89-.994 1.238-2.123 1.46.384-1.225 1.336-1.23 2.123-1.46Z" class="colorc18c78 svgShape"></path><path fill="#c3817b" d="M216.821 199.966c.053-.909.54-1.169 1.276-1.494-.053.91-.538 1.172-1.276 1.494Z" class="colorc38e7b svgShape"></path><path fill="#bc7c77" d="M215.265 201.992c-.209.333-.43.66-.92.652a.486.486 0 0 1-.1-.39.857.857 0 0 1 .756-.535c.083-.002.173.174.264.273Z" class="colorbc8977 svgShape"></path><path fill="#c07c76" d="M223.608 196.358a1.723 1.723 0 0 1-.506.338.332.332 0 0 1-.451-.337c.014-.244.236-.362.484-.38.236-.017.46.034.473.379Z" class="colorc08976 svgShape"></path><path fill="#b87671" d="m251.66 385.176-.496-.44.496.44Z" class="colorb88371 svgShape"></path><path fill="#cccccd" d="M237.632 261.853a1.522 1.522 0 0 1 .952-.971 21.443 21.443 0 0 1 4.214 10.313h-.547c-1.165-.783-1.154-2.054-1.592-3.136a25.069 25.069 0 0 0-3.027-6.206Z" class="colorcccccd svgShape"></path><path fill="#cccccd" d="m256.881 271.173-2.105.036c-.303-.745-1.2-.862-1.75-1.345-.733-.645-1.657-1.215-1.18-2.574a16.605 16.605 0 0 0 5.035 3.883Z" class="colorcdcccc svgShape"></path><path fill="#88a2ce" d="M228.242 178.874c-.467-.101-.813-.267-.796-.6.03-.556.255-1.095 1.01-1.093a.632.632 0 0 1 .667.787 1.134 1.134 0 0 1-.88.906Z" class="color8894ce svgShape"></path><path fill="#713b37" d="M232.862 176.624a.592.592 0 0 1-.493.476l.493-.476Z" class="color714137 svgShape"></path><path fill="#e2e2e2" d="M237.632 261.853c1.346.04 1.573 1.049 1.95 1.882a39.76 39.76 0 0 1 2.669 7.46c-2.325.047-4.652.061-6.975.152-1.28.05-1.968-.298-1.843-1.567a14.101 14.101 0 0 0-.051-1.863c1.142-1.545 2.275-3.095 3.434-4.63a3.568 3.568 0 0 0 .816-1.434Z" class="colore2e2e2 svgShape"></path><path fill="#8aa4cf" d="M200.58 189.286a1.689 1.689 0 0 1-1.664-.368 2.199 2.199 0 0 1 1.665.368Z" class="color8a97cf svgShape"></path><path fill="#713b37" d="M177.465 162.016a7.75 7.75 0 0 1 8.463 7.307c-.132 4.253-3.642 7.585-8.607 7.727a8.094 8.094 0 0 1-8.485-7.623c-.176-3.376 2.77-7.958 8.63-7.411Z" class="color714137 svgShape"></path><path fill="#e2e2e2" d="M193.192 362.056q-1.1-6.34-1.655-12.736c-.476-5.442-.702-10.89-1.1-16.328-.274-3.75.004-7.514-.463-11.222-.858-6.798-.222-13.597-.45-20.39a2.473 2.473 0 0 0 1.174-1.75c.024-1.802 1.186-2.226 2.866-2.145a5.47 5.47 0 0 0 3.782-1.229l1.869-.026c.07 1.06.527 1.709.624 2.812.247 2.808.915 5.55 1.404 8.315a65.548 65.548 0 0 1 1.3 11.145c.016 4.616.5 9.211.673 13.82.204 5.452 1.15 10.9.836 16.357-.196 3.41-.117 6.877-1.002 10.234-.413 1.567-.67 3.292-2.58 4.135-.393-.864-1.175-1.025-2.108-1.009-1.723.03-3.446.014-5.17.017Z" class="colore2e2e2 svgShape"></path><path fill="#e2e2e2" d="M200.43 363.576c-.275-.196-.353-.379.043-.53ZM165.94 298.653c.032-.47.08-.938.095-1.408.023-.678.426-.986 1.148-1.002.435-.01.87-.016 1.305-.016q9.005-.005 18.01-.004c2.46.005 2.484.025 2.487 2.193.012 7.843-.22 15.693.1 23.526.171 4.215.11 8.453.54 12.642.272 2.659.094 5.325.464 7.945.646 4.562.57 9.17 1.368 13.729a26.468 26.468 0 0 1 .65 5.806l-4.154.522a3.489 3.489 0 0 1-2.689.64 33.325 33.325 0 0 0-8.039-.122 2.084 2.084 0 0 1-2.644-2.156c-.407-5.864-.244-11.728-.107-17.59.15-6.4 1.187-12.747 1.53-19.136a82.808 82.808 0 0 0 1.197-8.98c.584-4.474 1.356-8.92 2.137-13.365.226-.776.706-1.488.597-1.956a14.094 14.094 0 0 1-.614 1.916c-1.216 5.942-1.832 11.957-2.793 17.929a15.82 15.82 0 0 0-.075 2.1 225.397 225.397 0 0 0-2.086 35.512c.026 1.015.03 2.03.096 3.046.18 2.705-1.59 3.989-4.79 3.568.404-4.124.704-8.26 1.255-12.369a34.895 34.895 0 0 0 .177-6.798c-.215-3.51-.584-7.02-1.085-10.506a32.864 32.864 0 0 1-.4-4.437 106.838 106.838 0 0 0-1.712-15.625c-.805-5.183-1.584-10.375-1.969-15.604Z" class="colore2e2e2 svgShape"></path><path fill="#c7c7c7" d="M176.465 323.988a77.74 77.74 0 0 1-1.01 12.102 4.375 4.375 0 0 0-.028.47c-.302 7.26-.716 14.517-.564 21.789.025 1.172.478 2.256.428 3.46-.043 1.023 1.331.883 2.09.671a13.103 13.103 0 0 1 5.668-.245 38.464 38.464 0 0 0 4.904.35c.27 1.936-.41 3.791-.586 5.69l-.224-.005-.224.004c-.297.228-.732.13-1.03.356-5.436 1.498-10.223-.248-14.882-2.482a2.336 2.336 0 0 1-1.334-2.156c5-1.753 4.106-.664 4.16-5.083q.078-6.446-.005-12.894a104.992 104.992 0 0 1 .963-13.96c.422-3.468.748-6.952 1.15-10.426 1.36.572.709 1.508.524 2.36Z" class="colorc7c7c7 svgShape"></path><path fill="#d18f89" d="M185.889 368.63a1.082 1.082 0 0 1 1.03-.357 1.082 1.082 0 0 1-1.03.357Z" class="colord19d89 svgShape"></path><path fill="#bc7a74" d="m169.643 382.827-.457.464.457-.464Z" class="colorbc8774 svgShape"></path><path fill="#b97771" d="M228.157 370.397c.116 1.841-.81 3.526-.713 5.364-.283-1.855-.797-3.73.713-5.364Z" class="colorb98471 svgShape"></path><path fill="#bb7872" d="M199.366 377.891c.822 2.443.225 3.575-2.664 5.207a12.465 12.465 0 0 0 2.664-5.207Z" class="colorbb8572 svgShape"></path><path fill="#cf8c86" d="M177.341 385.464c1.391-1.781 1.975-3.719 4.548-3.58 2.447.13 2.597 2.136 4.107 3.675a62.339 62.339 0 0 1-8.655-.095Z" class="colorcf9a86 svgShape"></path><path fill="#ce8c87" d="M172.269 384.993c-.021.482-.082 1.002-.758 1.014-.687.013-.783-.494-.752-.984.03-.496.275-.994.831-1.033.74-.053.648.554.679 1.003ZM174.4 386.15c-.479-.086-1.225.086-1.336-.42a1.598 1.598 0 0 1 .98-1.719c.349-.183.747-.008.72.355a12.937 12.937 0 0 1-.367 1.784Z" class="colorce9b87 svgShape"></path><path fill="#ce8d88" d="M242.783 387.06a3.413 3.413 0 0 0 .92-.366c1.767-1.448 1.821-1.438 2.705.79-1.214-.098-2.52.432-3.625-.423Z" class="colorce9c88 svgShape"></path><path fill="#cb8d88" d="m252.168 386.14-.05.858c-.53.006-1.176-.038-1.084-.63.056-.36.725-.214 1.134-.229Z" class="colorcb9c88 svgShape"></path><path fill="#713b36" d="M155.157 269.894c.526.386.443.885.317 1.39a1.275 1.275 0 0 1-.317-1.39Z" class="color714036 svgShape"></path><path fill="#8aa4cf" d="M249.057 246.294c-4.7.09-9.306.533-13.564 2.571a22.469 22.469 0 0 0-8.488 6.727c-.467.622-.692 1.471-1.681 1.69-.481-.474-.13-.847.15-1.243a24.021 24.021 0 0 1 16.987-10.085c2.122-.301 4.456-.664 6.59.347Z" class="color8a96cf svgShape"></path><path fill="#8fa9d3" d="M239.067 231.358c-3.992 2.042-17.75-.723-20.929-4.228 6.465 3.474 13.563 4.298 20.93 4.228Z" class="color8f9bd3 svgShape"></path><path fill="#8ba5d0" d="M198.914 263.248c-1.02-1.204-1.308-2.703-1.904-4.063a13.241 13.241 0 0 0-7.148-7.106c-.745-.325-1.686-.447-2.106-1.272 4.673-.012 10.777 6.217 11.16 12.439Z" class="color8b97d0 svgShape"></path><path fill="#8ca6d1" d="M211.45 252.89c-1.728-1.08-2.711-2.782-4.196-4.084a23.558 23.558 0 0 0-6.676-4.355 2.119 2.119 0 0 1-1.316-.908 8.157 8.157 0 0 1 4.459 1.713 28.088 28.088 0 0 1 7.301 6.554 1.853 1.853 0 0 1 .429 1.079Z" class="color8c98d1 svgShape"></path><path fill="#8ea8d3" d="M213.025 246.504c.631-3.132 2.673-5.492 5.193-7.58-1.791 2.487-3.845 4.825-5.193 7.58Z" class="color8e9bd3 svgShape"></path><path fill="#8fa9d4" d="M206.18 225.93a29.508 29.508 0 0 1 4.88-3.145c-1.138 1.743-2.098 2.377-4.88 3.145Z" class="color8f9bd4 svgShape"></path><path fill="#90aad5" d="M225.959 250.746c.66-2.065.862-2.28 3.502-4.053-.33 1.12-1.183 1.513-1.71 2.1-.591.655-1.194 1.302-1.792 1.953Z" class="color909cd5 svgShape"></path><path fill="#90aad4" d="M230.746 235.204c-1.197.32-2.177 1.43-3.986 1.07a6.058 6.058 0 0 1 3.986-1.07Z" class="color909cd4 svgShape"></path><path fill="#8ba5d0" d="M198.916 263.246a2.32 2.32 0 0 1 .43.494.336.336 0 0 1-.227.518.81.81 0 0 1-.179-.356 4.886 4.886 0 0 1-.026-.654Z" class="color8b97d0 svgShape"></path><path fill="#8ca6d1" d="M211.45 252.889c.233.102.5.424.38.468-.6.224-.247-.302-.38-.467Z" class="color8c98d1 svgShape"></path><path fill="#8aa4cf" d="M249.05 246.301c.072.034.21.082.206.101-.038.154-.116.116-.199-.108Z" class="color8a96cf svgShape"></path><path fill="#e2e2e2" d="M197.346 296.256c-.234 1.307-1.15 1.837-2.548 1.829-1.03-.007-2.06-.002-3.293-.002.01 1.064.264 2.106-.54 2.922a1.922 1.922 0 0 1-1.44.375c-.001-1.231.036-2.463-.014-3.693-.044-1.101.512-1.504 1.69-1.476 2.047.05 4.096.034 6.145.045Z" class="colore2e2e2 svgShape"></path><path fill="#225530" d="M176.919 166.262c2.13-.041 3.177.784 3.203 2.529a2.964 2.964 0 0 1-2.833 3.066c-1.395.031-3.317-1.65-3.285-2.873a2.802 2.802 0 0 1 2.915-2.722Z" class="color552b22 svgShape"></path><path fill="#cccccd" d="M176.465 323.988c-.143-.792.344-1.698-.524-2.36.27-2.075.591-4.148.802-6.229.48-4.714 1.554-9.345 2.337-14.016a.303.303 0 0 1 .514-.003c-.386 2.858-.626 5.74-1.207 8.565a59.513 59.513 0 0 0-.791 6.253c-.226 2.325-.881 4.628-.674 6.991.023.254-.296.532-.457.8Z" class="colorcdcccc svgShape"></path><path fill="#d0d0d1" d="m179.594 301.38-.514.002a6.23 6.23 0 0 0 .714-1.894c.345.682.562 1.332-.2 1.892Z" class="colord1d0d0 svgShape"></path><path fill="#703a36" d="M177.284 167.262c1.054.023 2.235 1.115 2.144 1.982a2.238 2.238 0 0 1-4.374-.08c-.044-.874 1.187-1.924 2.23-1.902Z" class="color704036 svgShape"></path><path fill="#2d342f" d="m0 406.376 12.797-.316 12.797-.24 25.595-.471q25.594-.37 51.188-.611c17.063-.195 34.126-.238 51.189-.352l51.188-.116 51.189.11c17.063.118 34.126.155 51.189.351q25.594.213 51.188.612l25.595.474 12.797.24 12.797.319-12.797.318-12.797.24-25.595.475q-25.594.37-51.188.611c-17.063.196-34.126.234-51.189.351l-51.189.111-51.188-.116c-17.063-.114-34.126-.158-51.189-.352q-25.594-.212-51.188-.611l-25.595-.472-12.797-.239Z" class="color342d2d svgShape"></path></g></g></svg>