<svg width="455" height="257" viewBox="0 0 455 257" fill="none" xmlns="http://www.w3.org/2000/svg">
<rect width="454.198" height="257" fill="#F5F5F5"/>
<path fill-rule="evenodd" clip-rule="evenodd" d="M235.167 146.808L235.827 155.087L248.37 158.067L257.942 162.373L265.534 168.996L269.165 166.015L273.786 155.749L279.067 154.756L298.212 156.743L304.814 158.73L302.503 169.989L300.193 178.268L338.482 175.95L337.162 156.743L329.24 139.192L297.882 123.958L274.446 126.939L257.942 145.152L250.68 149.126L237.807 148.464" fill="#FFB33D"/>
<path fill-rule="evenodd" clip-rule="evenodd" d="M393.046 70.7119C395.626 73.848 391.825 78.2825 389.67 80.4708C388.624 81.533 387.757 82.7609 386.735 83.8496C385.724 84.9254 384.457 85.7722 383.549 86.8109C382.597 87.9016 381.498 89.0954 380.701 90.3223C380.197 91.0998 379.45 91.968 379.199 92.8703C378.84 94.1677 379.14 93.4185 379.616 94.1518C380.102 94.901 380.265 94.9442 380.43 95.9882C380.59 97.0037 380.818 97.7464 381.366 98.6135C382.27 100.042 383.245 101.385 383.882 102.964C384.729 105.065 385.328 107.198 386.003 109.359C386.266 110.202 386.443 111.167 386.867 111.943C387.47 113.046 387.556 112.954 388.453 112.266C391.132 110.212 393.841 108.042 396.634 106.085C398.234 104.964 399.896 103.866 401.584 102.884C402.743 102.21 405.232 101.01 405.812 99.7589C406.581 98.0995 405.384 96.5771 407.032 95.0493C408.105 94.054 409.854 93.5026 411.252 93.2609C413.229 92.9196 415.412 93.4071 417.385 93.5837C419.381 93.762 421.332 93.5678 423.289 93.1593C426.285 92.5346 432.04 89.0765 433.982 93.2308C434.832 95.0485 434.258 97.0628 434.097 98.926C433.958 100.55 433.482 102.274 432.471 103.609C431.314 105.136 429.631 105.216 427.881 105.621C425.813 106.099 423.692 106.274 421.622 106.74C420.602 106.97 419.596 107.082 418.549 107.13C417.617 107.174 416.273 106.796 415.455 106.915C414.68 107.028 414.945 107.518 414.4 107.857C414.179 107.995 413.729 107.896 413.591 108.007C413.213 108.311 413.103 108.576 412.827 109.128C411.95 110.879 410.624 112.586 409.496 114.19C408.547 115.542 407.447 117.197 406.33 118.403C403.961 120.96 401.662 123.778 399.324 126.45C398.135 127.809 396.708 129.256 395.326 130.424C394.9 130.785 394.038 131.11 393.82 131.615C393.509 132.335 394.355 133.919 394.552 134.643C395.022 136.364 395.085 138.141 395.583 139.835C396.06 141.456 396.233 143.223 396.339 144.912C396.578 148.731 397.099 152.352 396.977 156.173C396.871 159.467 396.751 162.627 395.607 165.862C394.565 168.806 391.445 172.012 388.544 173.097C386.816 173.743 385.212 174.33 383.474 174.68C381.757 175.026 379.949 175.38 378.244 175.867C375.048 176.778 371.774 177.395 368.465 177.711C364.262 178.107 359.877 178.144 355.685 177.999C353.773 177.933 351.808 177.928 349.921 177.934C347.966 177.94 346.124 178.325 344.169 178.53C337.272 179.254 329.983 178.672 323.089 179.38C319.682 179.73 316.281 180.402 312.814 180.443C309.711 180.479 306.564 180.274 303.53 180.26C302.567 180.256 301.729 180.333 300.767 180.112C300.26 179.996 299.547 179.542 299.035 179.803C298.587 180.031 298.25 180.994 297.973 181.404C297.367 182.3 296.628 183.019 295.849 183.763C292.754 186.712 289.687 187.706 285.625 188.787C283.761 189.283 282.84 189.542 281.274 190.678C279.999 191.603 278.709 192.268 277.241 192.813C274.362 193.883 270.966 193.056 268.26 192.127C266.95 191.678 265.573 191.27 264.234 190.736C262.411 190.01 260.906 188.803 259.109 188.061C259.315 189.978 257.236 190.622 256.605 191.911C256.197 192.743 256.444 194.051 256.009 194.992C255.606 195.865 254.983 196.69 254.011 196.919C252.687 197.229 250.319 195.756 249.389 194.897C248.872 194.419 248.411 193.148 247.779 192.936C246.954 192.66 245.442 193.881 244.661 194.156C240.925 195.475 237.139 196.097 233.127 195.572C229.062 195.039 225.336 193.596 221.524 192.227C214.059 189.547 207.561 185.134 201.715 179.821C201.39 179.525 200.919 179.262 200.694 178.874C200.498 178.536 200.515 177.737 200.388 177.548C200.007 176.986 199.436 177.086 198.722 177.032C196.515 176.865 194.762 176.332 193.051 174.853C190.358 172.525 189.362 167.097 193.49 165.656C194.553 165.288 195.695 165.213 196.797 165.441C197.246 165.534 198.92 166.549 199.347 166.481C199.995 166.378 199.869 165.544 200.041 165.098C200.478 163.969 201.093 162.974 201.833 162.016C203.064 160.422 204.565 158.821 206.104 157.524C207.776 156.116 209.618 155.49 211.609 154.71C212.951 154.185 215.569 153.282 216.99 153.752C218.84 154.365 217.934 156.387 216.768 157.094C215.103 158.105 213.105 158.519 211.417 159.541C209.556 160.669 207.855 162.215 206.151 163.571C204.779 164.662 203.591 166.009 202.198 167.056C201.829 167.333 201.225 167.818 201.111 167.972C201.071 168.025 201.12 168.456 200.937 168.648C200.127 169.499 200.317 169.403 199.096 169.104C197.658 168.752 194.223 167.956 193.253 169.74C192.381 171.345 195.954 172.792 197.127 173.281C198.849 173.999 199.251 174.721 200.482 176.09C201.742 177.493 203.836 178.447 205.415 179.493C208.828 181.754 212.665 183.358 216.32 185.154C219.877 186.902 223.701 188.16 227.407 189.383C229.644 190.121 232.326 190.913 234.675 191.141C237.041 191.37 239.26 190.984 241.582 190.533C242.51 190.352 243.211 190.214 244.182 189.871C244.614 189.719 245.32 189.696 245.663 189.43C246.195 189.016 245.974 188.686 246.068 187.979C246.48 184.881 248.63 188.34 249.581 189.371C250.314 190.167 251.037 191.145 252.003 191.65C253.214 192.281 253.424 191.984 253.821 190.942C254.563 188.991 254.843 186.774 257.649 187.061C255.433 185.165 253.321 183.554 251.425 181.276C249.554 179.028 247.804 176.613 246.01 174.303C244.539 172.41 243.258 169.797 241.349 168.304C240.745 167.831 238.91 166.744 238.212 166.767C237.167 166.801 236.239 168.508 235.113 168.65C233.869 168.807 233.297 168.373 232.941 167.364C232.573 166.316 233.454 165.11 233.156 164.349C233.073 164.137 232.544 163.883 232.381 163.575C232.134 163.113 232.117 162.505 232.19 161.993C232.3 161.229 232.57 160.918 232.512 160.149C232.445 159.256 232.054 158.603 232.362 157.669C232.686 156.688 233.682 156.151 234.303 155.426C235.243 154.329 234.763 153.502 234.386 152.093C233.578 149.079 232.635 146.098 231.816 143.085C229.93 143.682 228.087 144.358 226.191 144.914C224.368 145.449 222.112 145.929 220.42 146.773C219.404 147.28 219.686 146.814 219.762 147.94C219.81 148.669 220.118 149.484 220.261 150.203C220.525 151.53 220.64 154.957 221.68 155.591C222.31 155.975 223.322 155.417 224.015 156.193C224.598 156.845 224.423 157.794 224.774 158.519C224.992 158.97 225.414 159.142 225.676 159.556C226.224 160.423 226.166 161.151 226.263 162.122C226.323 162.733 226.229 164.564 226.534 165.039C226.939 165.672 227.743 165.562 228.421 165.76C230.128 166.257 231.701 167.122 233.151 168.13C233.904 169.051 239.29 174.44 236.951 175.125C235.821 175.456 233.823 172.912 233.01 172.22C231.75 171.148 230.43 170.444 228.893 169.852C225.143 168.409 221.75 167.112 217.666 167.712C215.915 167.968 213.789 168.744 212.03 168.573C210.26 168.401 210.718 166.822 211.825 165.941C212.815 165.154 214.192 165.375 214.626 164.054C215.065 162.72 214.594 161.034 215.297 159.697C215.898 158.555 217.314 157.37 218.407 156.708C218.883 156.42 219.7 156.218 219.949 155.794C220.154 155.445 219.312 153.447 219.195 153.031C218.624 150.996 218.002 148.959 217.518 146.902C217.069 144.996 216.953 144.008 218.961 143.316C222.025 142.26 225.239 141.765 228.305 140.794C227.761 139.378 226.062 140.57 224.842 140.521C223.348 140.46 221.618 139.969 220.195 139.509C216.963 138.467 214.765 135.866 214.265 132.514C214.155 131.778 214.502 130.303 214.234 129.653C213.981 129.038 213.267 128.74 212.745 128.302C211.399 127.174 210.207 125.626 209.481 124.023C208.754 122.417 208.703 120.613 209.126 118.918C209.359 117.984 209.49 117.856 209.161 116.973C208.78 115.951 208.158 115.042 207.807 113.992C207.231 112.273 206.917 110.419 206.948 108.603C206.984 106.567 207.801 105.653 208.342 103.857C208.769 102.439 208.186 100.48 208.284 98.9068C208.409 96.8941 208.924 95.2769 209.813 93.4854C211.18 90.7328 213.344 87.7821 216.161 86.3388C216.718 86.0533 217.634 86.0364 218.131 85.7047C218.75 85.2922 218.798 84.6845 219.04 83.962C219.618 82.2395 220.338 80.8441 221.587 79.527C225.637 75.2563 232.733 73.7437 238.424 74.1041C239.446 74.169 240.42 74.6528 241.389 74.3686C242.06 74.1716 242.771 73.4724 243.463 73.1826C244.339 72.8163 245.216 72.6021 246.158 72.5082C248.019 72.3228 249.532 72.5188 251.247 73.1473C251.895 73.3845 252.514 73.6436 253.153 73.901C254.16 74.3082 254.103 74.1142 255.05 73.9255C256.939 73.5494 258.024 73.8278 259.697 74.6336C260.143 74.8483 260.848 75.0077 261.231 75.3085C261.774 75.7347 261.996 77.0298 262.6 77.2713C262.935 77.4057 263.971 76.9116 264.403 76.8413C265.166 76.7168 265.912 76.8262 266.671 76.8181C268.014 76.8037 269.434 76.8535 270.66 77.4885C271.584 77.9667 272.696 78.889 273.491 79.5033C274.592 80.353 275.28 81.9599 276.654 82.405C277.192 82.5792 277.774 82.4029 278.324 82.5515C279.04 82.745 279.728 83.2638 280.308 83.722C281.306 84.5102 282.15 86.342 283.167 86.6623C283.845 86.8763 284.9 86.653 285.676 86.8745C286.651 87.1524 287.458 87.5553 288.18 88.2924C289.558 89.6989 289.947 91.7776 290.006 93.6845C290.022 94.1985 289.705 95.6477 290.013 96.1039C290.287 96.5086 291.317 96.742 291.736 97.1573C293.048 98.4557 293.64 100.619 293.772 102.398C293.924 104.428 293.4 105.858 293.039 107.801C292.815 109.011 292.524 108.235 293.546 108.949C294.247 109.438 294.732 109.781 295.186 110.549C296.137 112.156 296.377 114.05 296.219 115.882C296.023 118.166 294.865 119.869 294.344 122.031C296.745 122.031 299.331 122.665 301.676 123.108C302.542 123.271 303.212 123.747 303.98 124.129C304.643 124.458 305.138 124.496 305.763 124.714C307.277 125.242 306.984 125.154 308.037 124.074C312.232 119.771 318.203 117.173 324.224 117.258C327.582 117.304 330.831 117.748 333.97 118.957C335.272 119.458 336.718 119.998 337.873 120.783C339.21 121.694 339.409 121.683 341.177 121.721C347.579 121.853 353.792 125.292 358.451 129.46C358.868 126.664 363.408 124.988 365.607 123.829C366.358 123.433 367.048 123.227 367.418 122.485C367.764 121.79 367.743 120.363 367.974 119.545C368.399 118.043 368.889 116.205 368.851 114.622C368.741 110.037 367.68 105.473 367.543 100.877C367.508 99.7227 367.377 98.4274 367.531 97.2846C367.654 96.3639 368.075 95.7897 367.47 94.9374C366.323 93.3192 364.208 92.9153 363.497 90.7853C362.351 87.353 364.32 83.843 367.008 81.8015C368.555 80.6261 370.067 80.3773 371.308 78.7296C372.425 77.245 373.369 75.4894 374.642 74.1397C375.71 73.0083 376.683 71.4925 377.907 70.551C379.161 69.5855 381.004 68.9331 382.501 68.4746C386.099 67.3732 390.515 67.6357 393.046 70.7119ZM280.62 156.938C279.784 156.973 278.942 157.067 278.103 157.066C277.594 157.066 276.408 156.79 275.949 156.984C275.031 157.373 274.288 159.499 273.859 160.347C272.469 163.098 271.374 165.982 270.018 168.743C269.313 170.18 268.259 171.124 266.595 171.147C264.73 171.173 263.852 169.978 262.669 168.752C260.309 166.306 257.132 164.203 254.202 162.502C251.038 160.665 247.265 158.885 243.662 158.236C241.262 157.804 235.766 155.942 234.306 158.951C235.052 158.851 237.899 158.416 238.02 159.678C238.111 160.624 234.608 160.786 234.175 162.271C235.091 162.2 238.252 161.317 238.475 162.678C238.593 163.402 237.272 163.766 236.807 164.01C235.886 164.494 235.332 164.997 234.607 165.725C235.726 165.725 236.828 164.776 237.89 164.875C238.328 164.916 238.855 165.57 239.253 165.77C239.818 166.053 240.429 166.194 241.052 166.271C242.409 166.439 243.23 166.057 244.312 166.941C245.284 167.734 246.294 168.782 247.19 169.665C249.099 171.551 250.672 173.945 252.311 176.065C254.334 178.681 256.435 180.758 259.127 182.718C261.317 184.313 263.538 185.346 266.02 186.521C268.456 187.672 271.518 189.009 274.281 189.072C276.485 189.123 279.239 188.416 281.245 187.475C282.411 186.928 282.836 186.929 284.003 186.712C285.814 186.376 287.911 185.404 289.588 184.641C294.854 182.245 298.191 177.023 300.566 171.911C301.917 169.002 302.762 166.16 303.325 163.012C303.632 161.298 303.899 160.895 302.229 160.186C300.542 159.47 298.718 159.027 296.962 158.521C291.811 157.038 285.94 156.711 280.62 156.938ZM293.204 125.91C292.678 126.147 292.399 128.674 292.163 129.237C291.111 131.749 289.244 133.316 286.506 133.578C285.656 133.659 284.27 132.885 283.661 133.251C282.845 133.741 282.698 136.082 281.82 136.85C281.012 137.558 279.329 138.306 278.292 138.578C277.492 138.787 276.699 138.73 275.902 138.545C275.447 138.44 274.58 137.878 274.134 138.09C273.376 138.451 273.019 140.374 272.154 141.026C270.888 141.98 268.879 142.686 267.33 142.669C265.732 142.65 263.806 141.388 262.384 141.69C260.696 142.049 260.918 143.62 260.18 144.847C258.615 147.455 256.836 149.7 254.021 150.945C250.977 152.292 246.613 152.463 243.42 151.778C241.684 151.406 239.942 150.879 238.477 149.884C237.31 149.091 236.434 148.035 235.353 147.14L235.176 146.996L235.186 147.028C235.21 147.111 235.234 147.193 235.259 147.272C235.773 148.913 236.002 151.826 237.024 153.164C237.94 154.363 241.117 154.429 242.647 154.591C246.747 155.023 250.273 155.982 253.889 158.039C257.351 160.008 260.512 162.39 263.509 164.958C264.125 165.485 264.617 166.33 265.362 166.669C266.578 167.223 266.48 166.577 266.801 165.494C267.461 163.272 268.161 161.078 269.167 158.984C269.597 158.086 270.577 156.974 270.787 156.021C270.988 155.106 270.575 154.109 270.715 153.127C271.07 150.647 272.19 148.532 273.593 146.526C274.567 145.134 277.482 142.764 277.109 146.268C276.834 148.855 274.945 151.148 274.481 153.69C275.913 153.423 276.812 153.501 278.101 153.582C279.861 153.694 281.862 153.005 283.676 152.999C287.153 152.988 290.578 153.215 293.996 153.835C295.579 154.122 297.087 154.446 298.613 154.988C299.812 155.414 301.407 156.769 302.684 156.873C303.61 156.947 303.287 157.069 303.539 156.279C303.774 155.545 303.522 154.226 303.475 153.457C303.369 151.716 302.952 150.022 302.735 148.293C302.643 147.551 301.757 144.457 302.691 143.858C304.121 142.94 304.719 146.54 304.901 147.185C305.834 150.49 306.434 153.746 306.406 157.202C306.381 160.191 306.183 163.064 305.624 166.035C305.294 167.79 304.688 169.475 304.007 171.121C303.649 171.988 301.548 175.274 301.84 175.853C302.074 176.317 305.645 175.51 306.194 175.463C308.148 175.295 310.108 175.412 312.064 175.295C314.956 175.124 317.87 175.159 320.639 174.649C322.29 174.345 324.043 174.636 325.692 174.646C327.512 174.658 329.27 174.49 331.102 174.664C332.492 174.795 334.579 175.529 335.921 175.224C337.294 174.912 336.889 173.992 336.898 172.594C336.921 169.215 336.62 165.327 335.865 162.041C335.467 160.309 334.932 158.633 334.647 156.872C334.361 155.11 334.376 153.206 333.844 151.5C332.902 148.474 330.311 145.846 328.165 143.61C325.956 141.308 323.499 139.637 320.79 137.986C318.487 136.584 316.053 135.266 313.558 134.169C310.563 132.852 307.163 132.04 304.388 130.306C302.078 128.863 298.737 127.44 296.073 126.772C295.651 126.666 293.502 125.776 293.204 125.91V125.91ZM375.465 97.9383C373.544 98.2086 369.952 97.2699 369.953 99.9193C369.954 101.372 370.436 102.896 370.573 104.35C370.735 106.066 370.623 107.792 370.884 109.502C371.307 112.268 371.928 114.823 371.72 117.665C371.494 120.755 370.85 123.724 370.91 126.858C370.967 129.84 370.806 132.716 372.223 135.453C372.821 136.608 373.306 137.966 373.964 139.047C374.735 140.314 375.403 140.685 376.781 141.195C377.644 141.515 379.77 141.931 380.329 142.792C381.136 144.035 380.058 144.538 378.996 144.496C375.718 144.365 372.351 142.902 369.277 141.834C367.83 141.331 366.438 140.697 365.017 140.148C363.881 139.709 362.955 139.558 361.922 138.809C359.405 136.986 357.462 134.465 354.979 132.594C350.283 129.054 344.652 126.941 338.753 126.314C337.235 126.153 336.06 126.225 334.54 126.354C333.699 126.426 332.867 126.449 332.034 126.603C331.553 126.692 329.744 127.552 329.369 127.373C326.929 126.213 333.838 122.682 334.615 122.488C333.634 121.797 331.595 121.916 330.417 121.762C328.913 121.565 327.451 121.374 325.933 121.457C323.811 121.573 321.553 121.51 319.47 121.968C316.86 122.542 314.388 123.423 312.029 124.66C311.242 125.072 310.134 125.574 310.141 126.724C310.148 127.805 310.579 127.628 311.631 127.867C314.466 128.513 317.09 130.392 319.616 131.824C322.302 133.346 324.977 135.055 327.469 136.879C332.247 140.376 334.974 145.406 337.096 150.874C338.193 153.702 338.989 157.004 339.319 160.018C339.687 163.372 339.38 166.744 339.642 170.094C339.704 170.886 339.81 174.045 340.408 174.537C340.86 174.91 343.109 174.243 343.743 174.199C346.393 174.017 349.059 174.035 351.659 173.885C357.153 173.569 362.785 174.01 368.329 173.684C371.118 173.52 373.818 173.128 376.553 172.565C379.095 172.042 382.263 171.98 384.582 170.772C389.045 168.446 391.767 162.839 391.963 158.091C392.175 152.945 391.823 147.345 390.743 142.218C390.176 139.529 389.685 136.971 389.018 134.314C388.271 131.34 387.434 128.379 386.614 125.442C385.203 120.385 383.007 115.675 381.955 110.492C381.377 107.642 380.557 104.661 379.702 101.879C379.386 100.853 378.765 98.9053 378.031 98.1263C377.26 97.3081 376.613 97.7774 375.465 97.9383ZM218.841 159.52C217.684 160.26 216.849 161.925 216.902 163.298C216.902 165.11 218.406 164.338 219.823 164.404C220.686 164.443 223.876 165.329 224.437 164.474C225.107 163.454 223.093 163.909 222.838 163.362C222.322 162.255 224.686 161.788 224.397 160.828C224.108 159.869 221.707 162.083 221.192 160.969C220.715 159.938 223.141 159.046 222.769 158.336C222.453 157.734 219.25 159.258 218.841 159.52ZM223.866 150.08C223.86 150.852 223.594 151.879 222.634 151.722C221.435 151.525 221.072 149.224 220.962 148.352C221.73 145.485 223.879 148.321 223.866 150.08ZM258.676 125.435C257.29 125.652 257.134 126.273 256.485 127.225C256.19 126.99 256.006 126.677 255.936 126.287C252.658 127.764 249.249 128.917 245.694 129.463C241.734 130.071 237.602 129.151 233.578 128.775C233.057 128.727 231.459 128.083 231.034 128.339C230.683 128.55 230.689 130.326 230.66 130.67C230.465 133.01 230.911 135.077 231.254 137.367C231.346 137.977 231.256 139.297 231.737 139.818C232.075 140.183 232.676 140.05 233.104 140.603C234.258 142.093 234.618 144.979 235.149 146.901L235.163 146.948L235.165 146.913C235.33 144.954 236.861 145.961 238.001 146.474C239.714 147.247 241.509 147.66 243.363 147.92C244.853 148.129 246.544 148.628 248.073 148.548C249.679 148.465 251.654 147.829 253.217 147.371C254.698 146.938 255.516 146.001 256.538 144.793C257.515 143.64 258.577 142.851 259.631 141.821C262.286 139.229 261.559 133.858 259.253 131.321C261.119 130.364 264.355 128.258 261.517 126.123C260.784 125.571 259.56 125.296 258.676 125.435ZM235.163 146.948L235.16 146.983L235.176 146.996L235.163 146.948ZM244.254 142.498C244.99 142.554 245.518 143.107 245.325 143.87C245.08 144.833 243.405 145.437 242.568 145.49C240.349 145.755 242.448 142.362 244.254 142.498ZM237.246 138.791C237.325 139.351 237.246 139.699 237.731 139.881C238.102 140.02 238.802 139.734 239.258 139.927C239.713 140.12 239.727 140.237 240.007 140.691C239.69 141.68 238.239 142.8 237.074 142.204C235.626 141.464 235.491 138.545 235.889 137.299C236.561 135.188 237.127 137.957 237.246 138.791ZM366.01 127.642C365.406 127.862 364.873 128.484 364.333 128.822C362.896 129.723 361.324 130.202 359.947 131.188C360.93 132.249 361.445 133.687 362.405 134.708C363.006 135.347 363.736 135.418 364.459 135.764C366.57 136.777 369.055 138.203 371.388 138.687C370.022 137.089 369.156 135.644 368.345 133.702C368.055 133.008 367.691 132.274 367.474 131.552C367.163 130.52 367.33 129.427 367.066 128.408C366.782 127.308 367.174 127.219 366.01 127.642ZM233.262 133.691C233.876 134.416 234.348 136.05 234.4 136.976C233.752 140.078 231.584 135.797 231.649 134.408C231.711 133.126 232.384 132.655 233.262 133.691ZM239.138 131.993C240.19 132.891 240.534 134.39 240.643 135.629C240.762 136.971 240.455 137.542 239.118 136.679C237.947 135.923 237.361 133.911 237.3 132.733C237.3 131.389 238.118 131.123 239.138 131.993ZM260.309 128.15C260.572 129.551 257.469 130.991 257.976 128.797C257.874 127.397 260.03 126.666 260.309 128.15ZM406.806 102.795C404.462 105.656 401.624 107.473 398.692 109.635C396.094 111.55 393.621 113.619 390.808 115.209C389.982 115.676 388.63 115.948 388.48 116.816C388.34 117.631 389.854 119.822 390.204 120.707C391.385 123.689 392.257 126.75 393.181 129.828C395.933 125.538 398.709 121.176 402.083 117.296C405.061 113.873 408.115 110.291 410.718 106.602C409.142 105.642 407.837 104.319 406.806 102.795ZM423.984 96.1964C421.374 97.0123 418.367 97.4713 415.647 97.1934C414.414 97.0671 413.2 96.9623 411.955 96.8852C411.023 96.8279 409.446 96.3732 408.645 97.0916C407.886 97.7706 407.978 99.1223 408.364 99.9662C408.613 100.512 408.96 100.6 409.186 101.052C409.259 101.198 409.043 101.449 409.231 101.792C409.747 102.734 411.502 104.308 412.447 104.788C413.66 105.404 413.842 104.688 414.787 104.067C416.778 102.762 420.123 102.738 422.455 102.503C422.503 103.005 429.262 100.592 429.929 100.15C431.177 99.3221 432.639 95.5126 431.311 94.3837C429.709 93.0209 425.534 95.7114 423.984 96.1964ZM378.528 78.0382C377.706 79.3474 376.614 80.7532 375.4 81.7328C374.029 82.8392 372.25 83.2686 370.683 84.0254C369.264 84.7107 368.003 85.3976 367.117 86.7199C366.504 87.6346 365.38 88.9183 365.893 90.0973C366.417 91.3032 368.481 92.1489 369.377 93.1972C370.612 94.6401 370.614 94.3567 372.464 93.9581C373.387 93.7585 374.265 93.6966 375.209 93.7297C375.591 93.7428 376.88 94.1172 377.219 93.8661C377.652 93.544 377.226 92.2078 377.281 91.6876C377.365 90.8967 377.646 90.0806 377.912 89.3349C378.969 86.3744 380.978 84.4217 382.932 82.1771C385.027 79.7685 387.898 78.0778 389.963 75.6579C391.104 74.3219 390.585 73.3774 389.02 72.7519C388.225 72.4342 387.293 72.4357 386.477 72.1823C385.634 71.9206 384.882 71.4048 383.978 71.3947C380.137 71.2406 380.014 75.6688 378.528 78.0382Z" fill="black"/>
<path d="M48.176 92.968H53.024V93.544L51.344 94.096V109H50.024L39.032 95.824V107.824L41.024 108.424V109H36.08V108.424L38 107.824V93.76L35.912 93.52V92.968H39.848L50.024 105.28V94.096L48.176 93.544V92.968ZM60.83 109.264C59.182 109.264 57.854 108.704 56.846 107.584C55.838 106.464 55.334 104.984 55.334 103.144C55.334 101.304 55.862 99.824 56.918 98.704C57.99 97.584 59.334 97.024 60.95 97.024C62.566 97.024 63.774 97.392 64.574 98.128C65.374 98.848 65.774 99.856 65.774 101.152C65.774 101.536 65.742 101.92 65.678 102.304H57.926V103.144C57.926 104.936 58.182 106.296 58.694 107.224C59.206 108.136 60.046 108.592 61.214 108.592C62.862 108.592 64.134 107.872 65.03 106.432C65.382 106.544 65.558 106.712 65.558 106.936C65.558 107.336 65.19 107.8 64.454 108.328C64.102 108.584 63.606 108.808 62.966 109C62.326 109.176 61.614 109.264 60.83 109.264ZM63.494 100.648C63.494 99.912 63.342 99.28 63.038 98.752C62.622 98.048 61.95 97.696 61.022 97.696C59.294 97.696 58.286 98.944 57.998 101.44H63.446C63.478 101.168 63.494 100.904 63.494 100.648ZM73.9428 109.264C72.2948 109.264 70.9668 108.704 69.9588 107.584C68.9508 106.464 68.4468 104.984 68.4468 103.144C68.4468 101.304 68.9748 99.824 70.0308 98.704C71.1028 97.584 72.4468 97.024 74.0628 97.024C75.6788 97.024 76.8868 97.392 77.6868 98.128C78.4868 98.848 78.8868 99.856 78.8868 101.152C78.8868 101.536 78.8548 101.92 78.7908 102.304H71.0388V103.144C71.0388 104.936 71.2948 106.296 71.8068 107.224C72.3188 108.136 73.1588 108.592 74.3268 108.592C75.9748 108.592 77.2468 107.872 78.1428 106.432C78.4948 106.544 78.6708 106.712 78.6708 106.936C78.6708 107.336 78.3028 107.8 77.5668 108.328C77.2148 108.584 76.7188 108.808 76.0788 109C75.4388 109.176 74.7268 109.264 73.9428 109.264ZM76.6068 100.648C76.6068 99.912 76.4548 99.28 76.1508 98.752C75.7348 98.048 75.0628 97.696 74.1348 97.696C72.4068 97.696 71.3988 98.944 71.1108 101.44H76.5588C76.5908 101.168 76.6068 100.904 76.6068 100.648ZM90.6556 105.328V98.728C89.8876 98.136 88.9356 97.84 87.7996 97.84C86.3756 97.84 85.3996 98.424 84.8716 99.592C84.4396 100.584 84.2236 101.936 84.2236 103.648C84.2236 106.96 85.1196 108.616 86.9116 108.616C87.9196 108.616 88.7916 108.232 89.5276 107.464C90.2796 106.696 90.6556 105.984 90.6556 105.328ZM86.4556 109.36C85.0796 109.36 83.9196 108.872 82.9756 107.896C82.0316 106.904 81.5596 105.432 81.5596 103.48C81.5596 101.512 82.1276 99.96 83.2636 98.824C84.4156 97.688 85.9436 97.12 87.8476 97.12C88.8396 97.12 89.7756 97.352 90.6556 97.816V91.768L88.5436 91.672L88.5196 91.12L92.9596 90.616V108.448L94.9996 108.544L95.0236 109.096L90.7756 109.384L90.8236 107.08H90.6796C90.2956 107.8 89.7116 108.36 88.9276 108.76C88.1436 109.16 87.3196 109.36 86.4556 109.36ZM105.54 106.408C105.54 107.448 105.964 108.064 106.812 108.256C107.004 108.304 107.188 108.328 107.364 108.328C107.972 108.328 108.604 108.072 109.26 107.56C109.916 107.032 110.26 106.328 110.292 105.448V103.384C107.124 103.416 105.54 104.424 105.54 106.408ZM106.5 109.288C105.588 109.288 104.804 109.04 104.148 108.544C103.508 108.032 103.188 107.32 103.188 106.408C103.204 105.176 103.82 104.256 105.036 103.648C106.268 103.04 108.02 102.736 110.292 102.736V100.672C110.292 98.64 109.556 97.624 108.084 97.624C107.332 97.624 106.724 97.936 106.26 98.56C105.94 98.992 105.78 99.528 105.78 100.168C105.78 100.44 105.812 100.728 105.876 101.032C105.652 101.192 105.42 101.272 105.18 101.272C104.956 101.272 104.732 101.224 104.508 101.128C103.996 100.936 103.74 100.568 103.74 100.024C103.74 99.288 104.004 98.68 104.532 98.2C105.396 97.416 106.588 97.024 108.108 97.024C109.628 97.024 110.732 97.352 111.42 98.008C112.108 98.648 112.452 99.664 112.452 101.056V108.328L114.468 108.424L114.492 108.976L110.484 109.264L110.268 107.128C109.532 108.568 108.276 109.288 106.5 109.288ZM39.68 131.008V137.68C40.448 138.272 41.4 138.568 42.536 138.568C43.144 138.568 43.664 138.44 44.096 138.184C44.544 137.928 44.888 137.608 45.128 137.224C45.384 136.84 45.576 136.352 45.704 135.76C45.928 134.816 46.04 133.624 46.04 132.184C46.04 130.744 45.792 129.648 45.296 128.896C44.8 128.144 44.104 127.768 43.208 127.768C42.312 127.768 41.496 128.152 40.76 128.92C40.04 129.672 39.68 130.368 39.68 131.008ZM44 127.024C45.328 127.024 46.44 127.488 47.336 128.416C48.232 129.328 48.68 130.784 48.68 132.784C48.68 134.768 48.144 136.352 47.072 137.536C46 138.704 44.472 139.288 42.488 139.288C41.448 139.288 40.512 139.056 39.68 138.592V144.304L41.36 144.424V145H35.84V144.424L37.328 144.304V128.056L35.264 127.96V127.408L39.584 127.144L39.512 129.232H39.728C40.16 128.528 40.76 127.984 41.528 127.6C42.296 127.216 43.12 127.024 44 127.024ZM56.4605 139H50.9405V138.424L52.5245 138.304V121.768L50.3885 121.672V121.12L54.8765 120.616V138.304L56.4605 138.424V139ZM60.9048 136.408C60.9048 137.448 61.3288 138.064 62.1768 138.256C62.3688 138.304 62.5528 138.328 62.7288 138.328C63.3368 138.328 63.9688 138.072 64.6248 137.56C65.2808 137.032 65.6248 136.328 65.6568 135.448V133.384C62.4888 133.416 60.9048 134.424 60.9048 136.408ZM61.8648 139.288C60.9528 139.288 60.1688 139.04 59.5128 138.544C58.8728 138.032 58.5528 137.32 58.5528 136.408C58.5688 135.176 59.1848 134.256 60.4008 133.648C61.6328 133.04 63.3848 132.736 65.6568 132.736V130.672C65.6568 128.64 64.9208 127.624 63.4488 127.624C62.6968 127.624 62.0888 127.936 61.6248 128.56C61.3048 128.992 61.1448 129.528 61.1448 130.168C61.1448 130.44 61.1768 130.728 61.2408 131.032C61.0168 131.192 60.7848 131.272 60.5448 131.272C60.3208 131.272 60.0968 131.224 59.8728 131.128C59.3608 130.936 59.1048 130.568 59.1048 130.024C59.1048 129.288 59.3688 128.68 59.8968 128.2C60.7608 127.416 61.9528 127.024 63.4728 127.024C64.9928 127.024 66.0968 127.352 66.7848 128.008C67.4728 128.648 67.8168 129.664 67.8168 131.056V138.328L69.8328 138.424L69.8568 138.976L65.8488 139.264L65.6328 137.128C64.8968 138.568 63.6408 139.288 61.8648 139.288ZM78.7055 136.504C78.7055 136.552 78.6975 136.608 78.6815 136.672C78.4255 137.456 77.9935 138.088 77.3855 138.568C76.7935 139.032 76.0975 139.264 75.2975 139.264C74.4975 139.264 73.8255 139.04 73.2815 138.592C72.7535 138.128 72.4895 137.232 72.4895 135.904C72.4895 135.536 72.5295 132.872 72.6095 127.912H70.9535V127.288H72.6335L72.6575 123.76H75.0095L74.9375 127.288H78.3695V127.912H74.9375C74.8575 133.08 74.8175 136.104 74.8175 136.984C74.8175 138.056 75.1695 138.592 75.8735 138.592C76.3055 138.592 76.7535 138.344 77.2175 137.848C77.6975 137.352 78.0335 136.792 78.2255 136.168C78.5455 136.168 78.7055 136.28 78.7055 136.504ZM81.9528 127.912H80.2728V127.288H81.9528V126.928C81.9528 124.8 82.4008 123.2 83.2968 122.128C84.1928 121.056 85.4728 120.52 87.1368 120.52C88.1288 120.52 88.9528 120.712 89.6088 121.096C90.2808 121.464 90.6168 121.968 90.6168 122.608C90.6168 123.232 90.4008 123.688 89.9688 123.976C89.7128 124.152 89.4568 124.24 89.2008 124.24C88.9608 124.24 88.7288 124.192 88.5048 124.096C88.6008 123.648 88.6488 123.216 88.6488 122.8C88.6488 122.384 88.5048 122.016 88.2168 121.696C87.9288 121.376 87.5288 121.216 87.0168 121.216C86.5048 121.216 86.0648 121.36 85.6968 121.648C85.3448 121.92 85.0808 122.248 84.9048 122.632C84.7288 123 84.5928 123.496 84.4968 124.12C84.3688 124.952 84.3048 126.008 84.3048 127.288H87.9288V127.912H84.3048V138.304L86.9928 138.424L87.0168 139H80.3448L80.3208 138.424L81.9528 138.328V127.912ZM101.503 133.144C101.503 134.92 100.967 136.384 99.8949 137.536C98.8229 138.688 97.3589 139.264 95.5029 139.264C93.6629 139.264 92.2069 138.688 91.1349 137.536C90.0629 136.384 89.5269 134.92 89.5269 133.144C89.5269 131.368 90.0629 129.904 91.1349 128.752C92.2069 127.6 93.6629 127.024 95.5029 127.024C97.3589 127.024 98.8229 127.6 99.8949 128.752C100.967 129.904 101.503 131.368 101.503 133.144ZM92.1429 133.144C92.1429 136.84 93.2629 138.688 95.5029 138.688C97.7589 138.688 98.8869 136.84 98.8869 133.144C98.8869 131.352 98.6309 129.984 98.1189 129.04C97.6069 128.096 96.7429 127.624 95.5269 127.624C94.3109 127.624 93.4389 128.096 92.9109 129.04C92.3989 129.984 92.1429 131.352 92.1429 133.144ZM111.484 127C111.9 127 112.228 127.104 112.468 127.312C112.708 127.504 112.828 127.776 112.828 128.128C112.828 128.736 112.596 129.136 112.132 129.328C111.876 129.12 111.412 129.016 110.74 129.016C110.068 129.016 109.42 129.24 108.796 129.688C108.188 130.12 107.884 130.616 107.884 131.176V138.304L110.044 138.424V139H103.948V138.424L105.532 138.328V128.08L103.636 127.984V127.432L107.884 127.168L107.74 130.12H107.836C108.108 129.256 108.604 128.52 109.324 127.912C110.06 127.304 110.78 127 111.484 127ZM130.514 127.12C133.074 127.12 134.354 128.352 134.354 130.816C134.354 132.592 134.298 135.088 134.186 138.304L135.89 138.424V139H130.538V138.424L131.834 138.328C131.946 134.104 132.002 131.544 132.002 130.648C132.002 129.736 131.834 129.056 131.498 128.608C131.162 128.16 130.618 127.936 129.866 127.936C129.114 127.936 128.418 128.256 127.778 128.896C127.138 129.52 126.706 130.192 126.482 130.912C126.482 132.64 126.426 135.104 126.314 138.304L128.018 138.424V139H122.666V138.424L123.962 138.328C124.074 134.104 124.13 131.544 124.13 130.648C124.13 129.736 123.962 129.056 123.626 128.608C123.29 128.16 122.706 127.936 121.874 127.936C121.058 127.936 120.29 128.376 119.57 129.256C118.85 130.12 118.49 130.888 118.49 131.56V138.304L120.29 138.424V139H114.578V138.424L116.138 138.328V128.152L114.098 128.056V127.504L118.394 127.216L118.274 129.688H118.514C118.946 128.84 119.522 128.2 120.242 127.768C120.978 127.336 121.778 127.12 122.642 127.12C124.802 127.12 126.05 127.984 126.386 129.712V129.688C126.818 128.84 127.394 128.2 128.114 127.768C128.85 127.336 129.65 127.12 130.514 127.12ZM151.804 136.504C151.804 136.552 151.796 136.608 151.78 136.672C151.524 137.456 151.092 138.088 150.484 138.568C149.892 139.032 149.196 139.264 148.396 139.264C147.596 139.264 146.924 139.04 146.38 138.592C145.852 138.128 145.588 137.232 145.588 135.904C145.588 135.536 145.628 132.872 145.708 127.912H144.052V127.288H145.732L145.756 123.76H148.108L148.036 127.288H151.468V127.912H148.036C147.956 133.08 147.916 136.104 147.916 136.984C147.916 138.056 148.268 138.592 148.972 138.592C149.404 138.592 149.852 138.344 150.316 137.848C150.796 137.352 151.132 136.792 151.324 136.168C151.644 136.168 151.804 136.28 151.804 136.504ZM165.708 133.144C165.708 134.92 165.172 136.384 164.1 137.536C163.028 138.688 161.564 139.264 159.708 139.264C157.868 139.264 156.412 138.688 155.34 137.536C154.268 136.384 153.732 134.92 153.732 133.144C153.732 131.368 154.268 129.904 155.34 128.752C156.412 127.6 157.868 127.024 159.708 127.024C161.564 127.024 163.028 127.6 164.1 128.752C165.172 129.904 165.708 131.368 165.708 133.144ZM156.348 133.144C156.348 136.84 157.468 138.688 159.708 138.688C161.964 138.688 163.092 136.84 163.092 133.144C163.092 131.352 162.836 129.984 162.324 129.04C161.812 128.096 160.948 127.624 159.732 127.624C158.516 127.624 157.644 128.096 157.116 129.04C156.604 129.984 156.348 131.352 156.348 133.144ZM40.424 170.664C41.064 170.664 41.616 170.488 42.08 170.136C42.56 169.784 42.8 169.192 42.8 168.36C42.8 167.8 42.544 167.336 42.032 166.968C41.536 166.6 40.912 166.272 40.16 165.984C39.408 165.68 38.896 165.472 38.624 165.36C38.368 165.232 38.024 165.032 37.592 164.76C36.808 164.232 36.416 163.472 36.416 162.48C36.416 161.488 36.808 160.664 37.592 160.008C38.376 159.352 39.52 159.024 41.024 159.024C41.984 159.024 42.8 159.24 43.472 159.672C44.16 160.088 44.504 160.592 44.504 161.184C44.504 161.776 44.28 162.184 43.832 162.408C43.592 162.52 43.352 162.576 43.112 162.576C42.888 162.576 42.664 162.528 42.44 162.432C42.504 162.144 42.536 161.832 42.536 161.496C42.536 161.16 42.456 160.824 42.296 160.488C42.024 159.912 41.504 159.624 40.736 159.624C39.968 159.624 39.384 159.832 38.984 160.248C38.584 160.664 38.384 161.208 38.384 161.88C38.384 162.568 38.672 163.08 39.248 163.416C39.68 163.688 40.216 163.936 40.856 164.16C41.496 164.384 41.928 164.544 42.152 164.64C42.392 164.72 42.704 164.864 43.088 165.072C43.472 165.28 43.76 165.496 43.952 165.72C44.448 166.264 44.696 167 44.696 167.928C44.696 168.856 44.28 169.648 43.448 170.304C42.616 170.944 41.6 171.264 40.4 171.264C39.2 171.264 38.144 171.08 37.232 170.712C36.336 170.344 35.888 169.808 35.888 169.104C35.888 168.448 36.376 168.016 37.352 167.808C37.64 169.712 38.664 170.664 40.424 170.664ZM54.9727 159.12C57.5327 159.12 58.8127 160.352 58.8127 162.816C58.8127 164.592 58.7567 167.088 58.6447 170.304L60.3487 170.424V171H54.9967V170.424L56.2927 170.328C56.4047 166.104 56.4607 163.544 56.4607 162.648C56.4607 161.736 56.2927 161.056 55.9567 160.608C55.6207 160.16 55.0367 159.936 54.2047 159.936C53.3887 159.936 52.6207 160.328 51.9007 161.112C51.1807 161.896 50.8207 162.616 50.8207 163.272V170.304L52.4047 170.424V171H46.8847V170.424L48.4687 170.304V153.768L46.3567 153.672L46.3327 153.12L50.8207 152.616C50.7247 158.104 50.6687 161.032 50.6527 161.4H50.8447C51.2767 160.664 51.8527 160.104 52.5727 159.72C53.3087 159.32 54.1087 159.12 54.9727 159.12ZM64.6314 168.408C64.6314 169.448 65.0554 170.064 65.9034 170.256C66.0954 170.304 66.2794 170.328 66.4554 170.328C67.0634 170.328 67.6954 170.072 68.3514 169.56C69.0074 169.032 69.3514 168.328 69.3834 167.448V165.384C66.2154 165.416 64.6314 166.424 64.6314 168.408ZM65.5914 171.288C64.6794 171.288 63.8954 171.04 63.2394 170.544C62.5994 170.032 62.2794 169.32 62.2794 168.408C62.2954 167.176 62.9114 166.256 64.1274 165.648C65.3594 165.04 67.1114 164.736 69.3834 164.736V162.672C69.3834 160.64 68.6474 159.624 67.1754 159.624C66.4234 159.624 65.8154 159.936 65.3514 160.56C65.0314 160.992 64.8714 161.528 64.8714 162.168C64.8714 162.44 64.9034 162.728 64.9674 163.032C64.7434 163.192 64.5114 163.272 64.2714 163.272C64.0474 163.272 63.8234 163.224 63.5994 163.128C63.0874 162.936 62.8314 162.568 62.8314 162.024C62.8314 161.288 63.0954 160.68 63.6234 160.2C64.4874 159.416 65.6794 159.024 67.1994 159.024C68.7194 159.024 69.8234 159.352 70.5114 160.008C71.1994 160.648 71.5434 161.664 71.5434 163.056V170.328L73.5594 170.424L73.5834 170.976L69.5754 171.264L69.3594 169.128C68.6234 170.568 67.3674 171.288 65.5914 171.288ZM82.5281 159C82.9441 159 83.2721 159.104 83.5121 159.312C83.7521 159.504 83.8721 159.776 83.8721 160.128C83.8721 160.736 83.6401 161.136 83.1761 161.328C82.9201 161.12 82.4561 161.016 81.7841 161.016C81.1121 161.016 80.4641 161.24 79.8401 161.688C79.2321 162.12 78.9281 162.616 78.9281 163.176V170.304L81.0881 170.424V171H74.9921V170.424L76.5761 170.328V160.08L74.6801 159.984V159.432L78.9281 159.168L78.7841 162.12H78.8801C79.1521 161.256 79.6481 160.52 80.3681 159.912C81.1041 159.304 81.8241 159 82.5281 159ZM91.0278 171.264C89.3798 171.264 88.0518 170.704 87.0438 169.584C86.0358 168.464 85.5318 166.984 85.5318 165.144C85.5318 163.304 86.0598 161.824 87.1158 160.704C88.1878 159.584 89.5318 159.024 91.1478 159.024C92.7638 159.024 93.9718 159.392 94.7718 160.128C95.5718 160.848 95.9718 161.856 95.9718 163.152C95.9718 163.536 95.9398 163.92 95.8758 164.304H88.1238V165.144C88.1238 166.936 88.3798 168.296 88.8918 169.224C89.4038 170.136 90.2438 170.592 91.4118 170.592C93.0598 170.592 94.3318 169.872 95.2278 168.432C95.5798 168.544 95.7558 168.712 95.7558 168.936C95.7558 169.336 95.3878 169.8 94.6518 170.328C94.2998 170.584 93.8038 170.808 93.1638 171C92.5238 171.176 91.8118 171.264 91.0278 171.264ZM93.6918 162.648C93.6918 161.912 93.5398 161.28 93.2358 160.752C92.8198 160.048 92.1478 159.696 91.2198 159.696C89.4918 159.696 88.4838 160.944 88.1958 163.44H93.6438C93.6758 163.168 93.6918 162.904 93.6918 162.648Z" fill="black"/>
<path d="M105.212 175.792C104.348 175.792 103.604 175.636 102.98 175.324C102.596 175.108 102.404 174.856 102.404 174.568C102.404 174.28 102.476 174.052 102.62 173.884C102.764 173.692 102.968 173.596 103.232 173.596C103.472 173.596 103.82 173.692 104.276 173.884C104.78 174.076 105.092 174.172 105.212 174.172C105.668 174.172 106.076 173.98 106.436 173.596C106.82 173.188 107.12 172.66 107.336 172.012C107.768 170.812 107.984 169.732 107.984 168.772C107.984 167.74 107.816 166.66 107.48 165.532C107.168 164.38 106.736 163.264 106.184 162.184L105.608 161.032C105.008 159.832 104.54 158.884 104.204 158.188C103.892 157.492 103.616 156.736 103.376 155.92C103.016 154.768 102.836 153.652 102.836 152.572C102.836 151.708 102.98 150.892 103.268 150.124C103.58 149.356 104.036 148.708 104.636 148.18C105.236 147.604 105.98 147.316 106.868 147.316C107.3 147.316 107.72 147.448 108.128 147.712C108.536 147.952 108.824 148.264 108.992 148.648L108.38 149.404C107.756 149.404 107.288 149.284 106.976 149.044C106.544 149.092 106.16 149.308 105.824 149.692C105.512 150.052 105.272 150.472 105.104 150.952C104.96 151.408 104.888 151.864 104.888 152.32C104.888 153.232 105.008 154.168 105.248 155.128C105.512 156.064 105.848 156.952 106.256 157.792L108.776 162.832C109.184 163.696 109.508 164.668 109.748 165.748C109.988 166.828 110.108 167.908 110.108 168.988C110.108 170.572 109.724 172.06 108.956 173.452C108.548 174.172 108.02 174.736 107.372 175.144C106.724 175.576 106.004 175.792 105.212 175.792ZM123.091 175.612C122.539 175.612 121.951 175.012 121.327 173.812C120.391 172.012 119.467 169.048 118.555 164.92C118.291 163.792 118.075 162.748 117.907 161.788C117.043 163.516 116.611 165.604 116.611 168.052V174.712C116.611 175.264 116.371 175.54 115.891 175.54C115.531 175.54 115.231 175.432 114.991 175.216C114.775 175.024 114.667 174.748 114.667 174.388V163.48C114.667 162.424 114.787 160.48 115.027 157.648C115.267 155.176 115.387 153.232 115.387 151.816C115.579 151.36 115.927 151.132 116.431 151.132C116.743 151.132 117.007 151.24 117.223 151.456C117.439 151.672 117.547 151.936 117.547 152.248V152.356C117.235 152.884 117.079 155.068 117.079 158.908V160.204L118.411 157.576C119.227 155.872 119.995 154.408 120.715 153.184C121.387 151.984 121.879 151.384 122.191 151.384C122.575 151.384 122.899 151.468 123.163 151.636C123.451 151.804 123.595 152.044 123.595 152.356L122.731 153.796C120.931 156.7 119.923 158.38 119.707 158.836C119.707 159.244 119.695 159.604 119.671 159.916L119.635 160.996C119.635 162.028 120.043 163.96 120.859 166.792C121.699 169.6 122.395 171.46 122.947 172.372L123.415 173.02C123.871 173.644 124.099 174.196 124.099 174.676C124.099 174.94 123.991 175.156 123.775 175.324C123.583 175.516 123.355 175.612 123.091 175.612ZM129.341 174.964C127.253 174.964 126.209 174.604 126.209 173.884C126.209 173.308 126.581 173.02 127.325 173.02H127.721L128.081 173.056C128.273 173.056 128.405 172.996 128.477 172.876C128.549 172.756 128.585 172.54 128.585 172.228C128.585 171.82 128.561 171.184 128.513 170.32C128.441 169.744 128.357 168.712 128.261 167.224C128.045 163.552 127.937 160.78 127.937 158.908C127.937 158.236 127.949 157.624 127.973 157.072L128.009 155.236C128.009 154.444 127.973 153.784 127.901 153.256C127.517 153.352 127.241 153.4 127.073 153.4C126.497 153.4 126.209 153.112 126.209 152.536C126.209 152.248 126.389 151.996 126.749 151.78C127.109 151.564 127.565 151.408 128.117 151.312C129.077 151.12 129.929 151.024 130.673 151.024C130.961 151.024 131.201 151.132 131.393 151.348C131.609 151.54 131.717 151.768 131.717 152.032C131.717 152.296 131.633 152.524 131.465 152.716C131.321 152.908 131.129 153.004 130.889 153.004C130.745 153.004 130.625 152.992 130.529 152.968H130.241C130.001 152.968 129.821 153.028 129.701 153.148C129.605 153.244 129.557 153.436 129.557 153.724C129.557 156.052 129.701 159.556 129.989 164.236C130.037 165.1 130.133 166.372 130.277 168.052C130.397 169.156 130.457 170.284 130.457 171.436V172.804C130.601 172.78 130.841 172.768 131.177 172.768C132.185 172.768 132.689 173.188 132.689 174.028V174.244L131.789 174.856C131.765 174.856 131.681 174.868 131.537 174.892C131.417 174.892 131.177 174.892 130.817 174.892C130.049 174.94 129.557 174.964 129.341 174.964ZM141.566 175.576C140.702 175.288 139.634 175.144 138.362 175.144C137.978 175.384 137.57 175.504 137.138 175.504C136.85 175.504 136.598 175.372 136.382 175.108C136.19 174.868 136.094 174.604 136.094 174.316C136.094 172.3 136.178 169.612 136.346 166.252C136.49 162.676 136.562 160 136.562 158.224V157.972C136.418 156.46 136.346 155.332 136.346 154.588C136.346 152.308 136.766 151.168 137.606 151.168C137.846 151.168 138.05 151.264 138.218 151.456C138.41 151.624 138.506 151.828 138.506 152.068C138.506 152.356 138.47 152.812 138.398 153.436C138.326 154.036 138.29 154.492 138.29 154.804C138.29 156.412 138.302 157.864 138.326 159.16C138.35 160.432 138.362 161.872 138.362 163.48C138.242 163.84 138.182 164.344 138.182 164.992V165.424L138.11 168.268C138.062 169.108 138.038 170.068 138.038 171.148C138.038 172.804 138.434 173.632 139.226 173.632C139.274 173.632 139.346 173.632 139.442 173.632C139.562 173.608 139.718 173.596 139.91 173.596C140.126 173.572 140.402 173.56 140.738 173.56C142.034 173.56 142.682 173.92 142.682 174.64C142.682 174.88 142.574 175.084 142.358 175.252C142.142 175.42 141.878 175.528 141.566 175.576ZM151.559 175.576C150.695 175.288 149.627 175.144 148.355 175.144C147.971 175.384 147.563 175.504 147.131 175.504C146.843 175.504 146.591 175.372 146.375 175.108C146.183 174.868 146.087 174.604 146.087 174.316C146.087 172.3 146.171 169.612 146.339 166.252C146.483 162.676 146.555 160 146.555 158.224V157.972C146.411 156.46 146.339 155.332 146.339 154.588C146.339 152.308 146.759 151.168 147.599 151.168C147.839 151.168 148.043 151.264 148.211 151.456C148.403 151.624 148.499 151.828 148.499 152.068C148.499 152.356 148.463 152.812 148.391 153.436C148.319 154.036 148.283 154.492 148.283 154.804C148.283 156.412 148.295 157.864 148.319 159.16C148.343 160.432 148.355 161.872 148.355 163.48C148.235 163.84 148.175 164.344 148.175 164.992V165.424L148.103 168.268C148.055 169.108 148.031 170.068 148.031 171.148C148.031 172.804 148.427 173.632 149.219 173.632C149.267 173.632 149.339 173.632 149.435 173.632C149.555 173.608 149.711 173.596 149.903 173.596C150.119 173.572 150.395 173.56 150.731 173.56C152.027 173.56 152.675 173.92 152.675 174.64C152.675 174.88 152.567 175.084 152.351 175.252C152.135 175.42 151.871 175.528 151.559 175.576Z" fill="#FFB33D"/>
</svg>
