<svg width="455" height="257" viewBox="0 0 455 257" fill="none" xmlns="http://www.w3.org/2000/svg">
<g clip-path="url(#clip0_5_16)">
<rect width="454.198" height="257" transform="translate(0.198242)" fill="#F5F5F5"/>
<path fill-rule="evenodd" clip-rule="evenodd" d="M387.451 183.895C388.602 187.793 387.868 192.342 385.231 195.549C383.528 197.619 379.479 199.471 377.206 197.315C376.19 196.351 375.76 193.05 375.325 191.51C374.926 190.093 374.258 187.47 374.555 186.282C374.987 184.55 378.439 184.95 380.052 184.799C382.528 184.566 384.986 184.212 387.451 183.895ZM420.022 185.875C420.564 187.068 421.429 187.859 421.797 189.183C422.038 190.047 422.183 190.914 422.278 191.801C422.394 192.876 422.473 192.835 421.731 193.338C420.6 194.105 417.705 194.046 416.329 194.268C414.531 194.558 412.743 194.9 410.945 195.189C411.381 193.516 411.152 191.714 411.603 190.008C412.041 188.349 412.803 186.712 413.879 185.35C414.679 184.336 415.843 183.122 417.283 183.115C419.138 183.107 419.431 184.576 420.022 185.875ZM305.922 150.02C306.198 153.608 305.686 157.428 303.646 160.511C302.782 161.817 301.523 162.519 300.502 163.643C299.32 164.944 298.679 166.553 296.811 167.109C295.606 167.469 294.192 167.221 292.939 167.382C290.86 167.651 290.246 167.36 288.492 166.283C287.233 165.51 285.781 165.655 284.453 164.807C282.86 163.79 281.473 162.341 279.965 161.189C288.431 157.042 297.158 153.51 305.922 150.02ZM328.679 152.148C331.919 153.672 333.633 156.272 334.559 159.629C325.621 161.672 316.923 164.171 308.145 166.989C310.596 160.754 313.349 155.045 320.054 152.144C321.392 151.565 322.767 150.644 324.29 150.666C325.806 150.688 327.35 151.522 328.679 152.148ZM410.195 161.391C414.801 163.815 412.459 171.563 410.85 175.002C408.802 173.496 406.654 172.028 404.654 170.561C402.468 168.957 400.502 166.893 398.508 165.066C399.564 164.516 400.25 163.64 401.232 163.01C402.203 162.388 403.168 162.343 404.256 162.1C406.341 161.634 408.028 160.25 410.195 161.391ZM374.252 143.934C374.62 144.405 375.059 144.85 375.405 145.335C376.247 146.512 376.974 147.708 377.95 148.8C379.678 150.734 382.194 153.284 385.025 153.461L385.107 154.287C384.272 154.265 383.778 153.546 383.054 153.473C382.485 153.416 381.689 153.851 380.992 153.789C378.836 153.599 376.717 153.491 374.528 153.549C370.208 153.663 365.961 154.352 361.714 154.901C362.526 152.01 364.04 149.048 366.453 147.113C367.287 146.444 368.086 145.525 369.028 144.992C369.595 144.671 370.195 144.647 370.778 144.396C371.454 144.106 372.32 143.138 373.018 143.045C373.747 142.948 373.749 143.289 374.252 143.934ZM408.873 144.197C411.139 146.017 412.88 148.325 414.744 150.51C416.431 152.488 418.717 155.309 419.317 157.855C416.325 159.262 411.195 157.974 409.265 155.371C406.886 152.161 408.052 147.692 408.873 144.197ZM356.995 133.824C356.548 136.841 355.098 140.202 352.922 142.455C351.983 143.426 351.161 144.693 350.095 145.542C348.702 146.651 347.582 146.083 345.966 146.255C344.231 146.44 343.106 147.572 341.256 147.265C339.939 147.046 338.725 146.316 337.487 146.095C336.134 145.853 334.954 145.996 333.609 145.327C331.946 144.499 330.619 142.87 329.326 141.633C330.007 141.093 331.381 141.055 332.252 140.763C333.403 140.378 334.551 139.997 335.708 139.628C338.098 138.866 340.48 138.088 342.874 137.339C347.434 135.913 352.248 134.558 356.995 133.824Z" fill="#FFB33D"/>
<path fill-rule="evenodd" clip-rule="evenodd" d="M428.528 59.3379L428.38 60.3381C429.835 60.589 429.878 59.7099 428.528 59.3379ZM422.194 57.6135C421.413 57.3413 420.136 57.7402 420.75 58.6724C421.616 59.9887 422.011 58.2706 422.194 57.6135ZM359.25 94.064C359.367 93.9467 357.984 91.3035 357.805 90.8601C356.912 91.3696 356.852 91.2464 357.215 92.0984C357.529 92.8332 358.622 93.5793 359.25 94.064ZM277.681 94.7891C277.254 94.7518 276.405 94.4977 276.043 94.6459C275.537 94.8532 275.673 95.3333 275.612 96.0337C277.092 95.9649 277.298 96.1608 277.681 94.7891H277.681ZM275.762 93.3379L277.931 93.7273C278.086 92.899 278.495 91.5292 276.97 92.0293C276.827 92.0763 275.945 93.0683 275.762 93.3379ZM360.959 95.0409C360.19 95.805 363.761 97.4231 364.129 96.9048C364.932 95.7743 361.479 95.2102 360.959 95.0409ZM378.62 86.0073L379.916 85.88C379.766 85.25 379.312 82.9282 378.367 83.0529C377.428 83.1764 378.487 85.516 378.62 86.0073ZM380.196 89.7978C380.208 89.2747 380.422 88.1146 380.217 87.6109C380.078 87.2682 379.506 86.228 378.683 86.9037C378.508 87.0478 378.428 89.1427 378.481 89.2105C378.705 89.4956 379.876 89.6884 380.196 89.7978ZM375.732 96.5168C374.845 95.8392 372.918 94.8394 372.064 96.3715C370.875 98.5074 374.962 97.0799 375.732 96.5168ZM370.665 96.6948C369.501 96.9128 368.325 96.8845 367.147 96.8021C365.827 96.7096 365.513 96.3066 365.129 97.5708C366.545 98.0843 369.56 98.44 370.993 97.9518C370.884 97.5328 370.774 97.1138 370.665 96.6948ZM378.006 90.8923C377.598 91.7273 376.715 92.8211 376.478 93.692C376.303 94.3345 376.234 94.0136 376.381 94.512C376.433 94.6898 377.149 95.4343 377.275 95.6142C378.145 94.9555 379.194 94.2822 379.64 93.2674C380.354 91.6428 379.436 91.5125 378.006 90.8923ZM358.206 87.4728C355.247 88.3936 351.611 89.2953 348.479 89.0211C348.438 89.2892 353.792 90.8496 354.432 90.737C355.086 90.622 355.138 89.7104 355.922 89.2238C356.786 88.6874 357.5 89.0066 358.455 88.923L358.206 87.4728ZM367.948 99.8753C365.224 99.7009 362.791 99.0501 360.381 97.8106C358.997 97.0988 358.003 96.0664 357.078 94.8753C356.361 93.9526 356.508 94.0284 355.383 93.7155C354.552 93.4846 353.529 93.5781 352.676 93.4708C349.818 93.1117 346.971 92.2459 344.253 91.3442C341.203 90.3328 338.576 88.9063 335.225 88.9896C329.473 89.1328 324.807 93.4863 318.807 91.6578C316.426 90.9325 313.96 89.9698 312.034 88.4145C309.53 86.3917 308.009 85.1934 304.481 85.91C301.64 86.4864 299.46 87.9921 297.026 89.3796C294.252 90.9611 291.224 91.9085 288.131 92.7436C286.919 93.0708 285.797 93.2611 284.527 93.3248C283.772 93.3628 280.192 92.8181 279.75 93.2027C279.323 93.5747 279.128 96.1417 279.174 96.6098C279.25 97.3916 278.905 97.4723 279.74 97.8014C280.32 98.0303 282.111 97.799 282.83 97.8808C288.613 98.5415 294.539 98.7394 300.23 99.736C305.579 100.673 310.947 101.43 316.235 102.529C323.115 103.958 330.121 104.61 337.004 105.994C340.332 106.662 343.687 107.604 346.975 108.317C349.969 108.965 352.978 109.567 355.989 110.155C355.879 109.741 355.253 108.234 356.252 108.373C356.885 108.461 357.948 110.647 358.282 111.138C359.818 113.403 361.455 115.122 363.546 116.924C365.654 118.741 367.776 120.538 369.915 122.321C371.662 123.777 375.416 125.949 375.319 128.493C374.255 128.695 372.142 126.809 371.345 126.299C369.732 125.265 368.186 124.138 366.682 122.962C365.268 125.032 368.621 127.43 369.001 129.388C368.139 129.391 366.699 127.019 366.176 126.39C364.786 127.685 363.226 128.828 362.226 130.455C373.441 129.976 375.279 143.886 383.375 148.601C385.169 149.646 387.416 150.077 389.467 149.618C391.603 149.141 393.656 148.466 395.535 147.259C399.732 144.564 402.808 139.383 404.45 134.933C405.357 132.476 406.213 130.095 406.624 127.51C407.078 124.646 406.651 121.736 406.281 118.883C405.622 113.799 402.92 108.666 399.093 105.03C397.377 103.4 395.504 101.973 393.933 100.194C393.385 99.5735 392.134 97.1957 391.446 97.0467C390.179 96.7721 389.525 98.5507 388.648 97.0949C387.789 95.6699 389.427 95.1138 390.424 94.45C391.5 93.7331 392.544 92.9799 393.596 92.2316C395.675 90.752 397.733 89.2972 399.73 87.722C409.468 80.0418 418.076 71.4792 426.797 62.752C425.164 62.3657 422.842 61.2551 421.182 61.5513C419.522 61.8479 418.047 63.0228 416.296 63.2175C414.59 63.4071 412.934 63.039 411.353 62.5031C409.489 61.8709 408.227 61.0574 406.663 62.6346C404.15 65.1688 402.767 68.69 400.129 71.0879C397.463 73.5112 393.731 74.9265 390.26 75.6575C387.046 76.3341 382.589 76.0145 380.234 78.5443C379.703 79.1137 379.231 79.5189 379.2 80.3697C379.147 81.8827 379.49 80.7984 379.977 81.7354C380.769 83.2607 381.079 85.1638 381.258 86.8494C381.619 90.2614 381.163 93.9986 378.429 96.3502C375.484 98.8828 371.842 99.9491 367.948 99.8753ZM367.793 94.3493C369.786 95.3664 373.818 94.0407 375.411 92.8005C377.579 91.1124 377.75 88.1747 377.403 85.7191L374.378 86.4513L373.088 86.7635C373.128 87.1192 373.069 87.4513 372.913 87.7596C371.963 88.9768 371.503 88.3721 370.472 87.3164C368.264 85.0565 366.305 82.509 365.404 79.5049C364.396 80.6829 363.257 81.4428 361.64 81.2791C360.932 81.2074 358.217 80.3622 358.918 79.1229C359.141 78.7289 361.349 79.2251 362.089 79.1878C363.634 79.1096 364.36 79.1394 364.926 77.6863C365.397 76.4768 365.23 75.9796 363.778 75.758C361.934 75.4763 361.881 76.5712 360.567 77.0847C357.231 78.3889 359.509 73.1961 359.033 71.7335C360.673 71.2482 362.404 70.9111 363.854 69.9862C362.248 70.1702 360.72 70.7072 359.164 71.0978C359.296 69.1828 363.095 68.7752 364.516 68.1736C362.981 67.9695 361.522 68.9801 359.981 68.9164C358.541 68.8571 356.522 68.2521 355.133 67.7915C353.704 67.318 352.584 65.9983 351.206 67.147C350.302 67.9002 349.09 69.9515 348.801 71.0433C349.7 70.9137 351.817 70.7389 352.067 71.7592C352.388 73.0697 349.742 72.307 348.927 72.5216C347.689 72.8476 348.068 73.2073 347.619 74.4303C347.177 75.6347 346.383 76.5984 345.127 77.0978C346.524 77.8488 346.908 77.8352 346.626 79.2246C346.35 80.5908 346.532 82.1256 346.668 83.646C347.498 83.306 348.393 83.1963 349.285 83.1072C349.459 84.2101 347.726 84.6768 346.833 84.7412C347.301 86.1929 347.319 86.1471 348.922 86.1427C349.82 86.1401 350.721 86.0885 351.617 86.0451C353.441 85.9565 355.211 85.631 357.01 85.3421C357.697 85.2314 358.669 84.8565 359.353 84.9318C360.606 85.0694 360.362 85.2047 360.155 86.2723C359.875 87.7196 360.191 88.8153 360.554 90.3859C358.41 89.6549 360.132 91.8915 361.144 92.3519C363.137 93.2582 365.576 94.2284 367.793 94.3493ZM250.514 181.82C252.032 182.577 253.466 183.291 254.849 184.26C256.225 185.224 257.693 186.845 259.435 187.156C261.518 187.529 262.02 186.448 262.535 184.851C263.115 183.056 263.645 182.241 265.292 181.256C268.206 179.513 271.62 178.365 274.805 177.11C276.023 176.631 276.116 176.722 275.755 175.488C275.537 174.743 275.271 174.011 274.986 173.286C274.459 171.951 273.881 170.536 272.999 169.371C267.948 172.687 261.925 176.53 255.707 177.328C253.183 177.652 250.695 178.219 248.219 178.435C246.993 178.542 245.988 178.852 244.908 179.379C243.699 179.969 241.699 180.177 240.828 181.147C244.097 181.125 247.282 181.543 250.514 181.82ZM374.379 186.166C373.367 186.583 374.734 188.975 375.026 189.97C375.465 191.466 375.88 192.969 376.322 194.464C377.259 197.629 378.142 200.807 379.03 203.985C384.888 200.806 391.157 198.986 397.662 197.465C404.144 195.95 410.765 194.872 417.388 193.835C421.007 193.267 424.803 192.493 428.154 191.019C430.237 190.102 429.83 189.256 429.796 187.226C429.764 185.32 429.464 183.378 429.172 181.491C428.62 177.926 428.038 174.04 426.598 170.69C425.195 167.427 423.318 164.289 421.513 161.215C419.371 157.567 417.547 153.64 414.752 150.401C411.839 147.027 408.714 143.966 405.555 140.824C403.664 144.41 400.965 148.759 397.478 151.017C393.641 153.5 387.604 154.776 383.241 152.698C378.846 150.605 376.248 146.311 373.511 142.57C370.874 138.964 368.582 135.063 363.908 133.777C358.964 132.416 353.759 134.268 348.94 135.428C343.444 136.752 338.067 138.65 332.726 140.443C323.452 143.557 314.253 146.406 305.214 150.117C294.089 154.684 282.949 159.215 272.196 164.561C274.522 167.888 276.325 170.919 277.64 174.745C278.663 177.723 279.288 180.878 279.527 184.099C280.779 182.854 281.735 181.373 282.998 180.112C284.427 178.686 286.105 177.589 287.786 176.471C290.829 174.447 293.948 172.616 297.304 171.076C304.923 167.583 313.019 165.177 321.074 162.687C322.899 162.123 325.047 161.467 326.938 161.155C328.545 160.89 329.973 160.424 331.609 160.037C335.319 159.16 339.071 158.356 342.813 157.721C350.003 156.501 357.34 155.201 364.63 154.358C369.573 153.786 374.732 152.859 379.81 153.354C380.669 153.438 381.509 153.607 382.373 153.581C382.614 153.573 382.901 153.217 383.15 153.241C383.63 153.288 384.144 153.825 384.633 153.985C385.738 154.346 387.343 154.122 387.945 155.032C388.428 155.76 388.251 156.338 387.533 156.818C388.397 157.915 390.088 158.926 391.246 159.789C392.287 160.565 393.269 161.4 394.319 162.147C395.447 162.951 396.814 163.709 397.994 164.529C399.535 165.598 400.852 166.968 402.307 168.168C404.919 170.321 407.54 172.196 410.292 174.214C411.775 175.301 413.188 176.324 414.798 177.214C415.678 177.7 417.674 179.032 416.632 180.242C415.593 181.448 413.508 179.664 412.373 179.536C411.066 179.387 409.304 180.203 408 180.395C404.551 180.902 401.091 181.347 397.641 181.895C393.702 182.52 389.805 183.364 385.848 183.883C383.804 184.151 381.761 184.41 379.707 184.595C378.647 184.69 377.149 184.547 376.153 184.885C375.4 184.666 375.072 184.88 375.17 185.527C374.985 185.829 374.722 186.042 374.379 186.166V186.166ZM265.243 96.0417C267.397 96.0279 269.535 96.1521 271.692 96.1337C272.523 96.1264 273.238 96.294 273.574 95.7205C273.985 95.0196 273.795 93.1889 273.866 92.3866C271.346 92.5883 269.035 92.6508 266.52 92.4306C263.826 92.195 261.212 91.4265 258.508 91.2602C259.084 91.4786 259.744 92.6682 259.368 93.2471C258.994 93.8232 258.383 93.303 257.79 93.0422C255.503 92.0347 253.598 90.5467 251.029 91.1974C253.394 92.4173 255.639 94.3737 258.109 95.1022C260.439 95.7891 262.789 96.0233 265.243 96.0419V96.0417ZM425.289 56.3779C426.338 56.5736 428.384 57.6203 429.325 57.0931C430.474 56.4489 430.232 53.8373 430.274 52.8209C430.403 49.6964 430.64 45.3974 428.183 42.8646C427.737 45.867 428.701 49.0062 428.632 52.0415C428.58 54.3193 427.719 53.0757 427.415 51.4634C427.136 49.9885 427.167 48.5334 426.787 47.066C426.09 48.2542 425.928 49.8669 425.436 51.1789C424.816 52.833 423.939 54.3338 423.055 55.8676C423.802 56.0299 424.545 56.2013 425.289 56.3779ZM275.475 97.4304C275.462 98.3051 275.337 99.1274 276.432 99.2078C277.882 99.3139 277.407 97.8368 277.315 96.9046C276.793 96.9751 275.598 96.8297 275.475 97.4301V97.4304ZM424.683 57.8051C423.774 57.6927 423.636 57.4874 423.059 58.1226C422.693 58.5259 422.657 59.2575 422.975 59.5113C424.353 60.6133 424.57 58.4239 424.683 57.8051ZM425.533 59.8337C426.24 59.9727 426.933 60.3495 427.33 59.6479C427.913 58.6193 426.52 58.5334 425.756 58.228L425.533 59.8337ZM381.073 156.612C373.25 156.427 365.543 157.653 357.864 159.002C351.072 160.195 344.33 161.19 337.687 162.687C324.299 165.705 310.889 169.082 298.463 174.892C295.444 176.303 292.429 177.714 289.647 179.43C288.151 180.353 286.628 181.265 285.212 182.305C284.433 182.877 283.627 183.442 282.897 184.069C282.228 184.643 281.848 185.436 281.247 185.998C280.965 186.262 279.746 187.24 279.385 187.35C278.608 187.586 278.916 187.605 278.131 187.068C276.49 185.947 276.161 184.452 275.667 182.654C275.319 181.388 275.586 180.969 274.442 181.012C273.861 181.034 272.985 181.625 272.446 181.849C270.705 182.572 268.823 183.148 267.151 184.01C265.8 184.707 264.719 185.604 264.14 186.985C263.457 188.614 263.059 189.945 260.986 190.128C257.287 190.454 255.162 186.767 251.999 185.526C248.617 184.199 244.3 184.46 240.728 184.418C239.427 184.402 238.011 184.527 236.77 184.702C235.017 184.95 232.943 185.902 231.123 185.297C229.029 184.6 229.06 181.625 230.448 180.331C231.899 178.978 234.052 178.792 235.907 178.343C239.659 177.435 243.07 175.365 246.9 174.729C250.709 174.097 254.744 173.959 258.458 172.807C260.35 172.22 262.188 171.761 263.986 170.935C266.227 169.905 268.639 169.235 270.852 168.223C270.09 166.886 269.884 165.645 269.838 164.146C269.807 163.146 269.644 163.146 270.338 162.727L270.751 162.941C271.187 163.251 271.498 163.109 271.684 162.516C274.755 160.653 277.593 158.652 280.87 157.034C286.366 154.321 292.184 152.129 297.678 149.544C308.117 144.633 319.743 141.8 330.725 138.202C337.368 136.026 344.17 134.243 350.976 132.638C352.165 132.357 353.364 132.123 354.572 131.937C356.626 131.621 356.14 131.602 357.177 130.022C358.506 127.994 360.617 125.83 362.759 124.574C364.08 123.799 364.644 123.915 364.603 122.22C364.571 120.924 364.216 120.937 363.156 120.07C361.958 119.089 360.845 118 359.833 116.843C358.677 115.522 358.16 114.026 357.194 112.669C356.026 111.028 352.412 111.306 350.39 111.021C347.222 110.574 344.002 110.254 340.881 109.563C334.58 108.168 328.245 107.681 321.865 106.706C315.452 105.726 309.041 104.832 302.627 103.944C300.324 103.625 297.992 103.351 295.703 102.956C292.497 102.403 289.123 102.347 285.871 101.829C284.197 101.563 282.146 100.617 280.461 100.698C278.653 100.785 280.27 100.764 279.081 101.386C278.547 101.665 277.93 101.915 277.315 101.947C276.346 101.998 275.369 101.583 274.776 100.844C273.789 99.6108 274.265 98.6663 272.252 98.5108C270.926 98.4086 269.379 98.9201 268.033 98.9871C266.713 99.0533 265.341 99.2446 264.02 99.2058C261.38 99.1279 258.234 98.8958 255.836 97.7672C253.296 96.5718 251.028 94.9768 248.355 93.9601C247.014 93.4495 245.106 93.233 244.207 91.9991C243.456 90.969 243.224 88.8739 244.375 88.0291C246.141 86.7334 249.564 88.6942 251.517 88.2045C252.516 87.9541 251.692 87.6523 252.447 87.3035C252.915 87.0873 252.845 87.0548 253.4 86.9766C254.769 86.7828 257.012 87.7414 258.404 87.9693C261.15 88.4181 263.873 89.1032 266.617 89.5229C268.184 89.7627 269.777 89.8228 271.347 90.0776C272.715 90.2996 273.839 90.8356 274.831 89.737C275.25 89.2737 275.122 88.7961 275.793 88.5544C276.395 88.3382 278.123 88.6486 278.704 88.8717C279.339 89.1149 279.48 89.4658 279.991 89.7431C280.004 90.2682 280.225 90.4253 280.654 90.2141C281.052 90.1842 281.453 90.2056 281.847 90.2778C285.333 90.2924 288.802 89.2108 291.973 87.9335C297.227 85.8172 303.75 79.826 309.777 83.0849C311.259 83.8865 312.232 85.2236 313.676 86.0924C314.959 86.8635 316.599 87.5544 318.041 87.9894C320.922 88.8589 323.786 88.7499 326.641 87.8499C330.121 86.7521 332.924 85.6024 336.675 85.7286C340.151 85.8453 342.924 88.2444 346.329 88.3401C345.497 87.0044 345.343 85.4702 345.255 83.9551C345.198 82.964 345.751 80.3702 345.151 79.5681C344.489 78.6821 339.32 78.324 342.203 75.7233C343.147 74.8716 344.889 75.1801 345.864 74.2397C346.849 73.2908 346.869 71.8067 347.394 70.6219C347.988 69.2814 348.968 68.1741 349.973 67.1044C350.398 66.6515 350.685 66.364 350.927 65.8196C351.209 65.1877 351.021 64.6539 351.47 63.9881C352.987 61.7411 355.632 62.5234 357.935 62.8227C359.33 63.0044 361.021 62.8312 362.375 63.2122C363.464 63.5183 364.88 64.4464 365.766 65.1276C367.717 66.628 368.17 69.3969 368.321 71.6657C368.409 72.9939 368.15 74.2455 368.129 75.5691C368.106 76.9544 367.505 77.5821 366.423 78.501C366.403 78.2452 366.278 78.0738 366.048 77.9863C365.577 78.5659 365.698 78.7921 366.411 78.6652C366.438 79.0115 366.561 79.323 366.781 79.5996C367.371 80.2539 367.878 80.9771 368.452 81.6443C369.707 83.1033 371.172 84.3694 372.138 86.0253C373.151 84.8468 374.44 84.6535 375.648 83.8407C376.824 83.05 375.946 82.8146 376.382 81.6717C376.557 81.2137 377.016 81.1328 377.177 80.7783C377.33 80.4421 377.144 80.23 377.238 79.8606C377.709 78.0268 377.513 76.8907 378.978 75.4531C380.937 73.5303 383.351 73.022 386.045 72.657C388.732 72.2925 390.64 72.1627 393.028 71.1012C393.857 70.7331 394.641 70.5648 395.428 70.147C396.492 69.5817 397.483 68.9857 398.408 68.223C400.557 66.4507 401.893 63.9814 403.63 61.8516C405.022 60.1473 406.699 57.9652 409.209 58.4152C412.065 58.9274 414.581 60.6627 417.621 59.7271C418.748 59.38 418.626 59.5934 419.074 58.5002C419.222 58.1362 419.318 57.7693 419.463 57.4113C420.005 56.0718 421.043 55.9039 421.687 54.8134C423.206 52.2384 424.039 49.0275 424.904 46.2014C425.306 44.8892 426.085 43.751 426.559 42.4926C426.758 41.9665 426.668 39.6229 427.284 39.4175C429.272 38.7551 430.88 43.9602 431.243 44.9447C432.19 47.5175 433.024 50.4206 432.65 53.1752C432.497 54.3103 432.374 55.6252 432.07 56.7366C431.794 57.7455 431.735 57.6792 431.893 58.5937C432.053 59.5237 432.244 60.0814 432.106 61.0562C432.068 61.3284 431.944 62.3345 431.827 62.4738C431.282 63.1216 431.208 62.6687 430.53 62.9276C429.434 63.3466 429.163 63.7065 428.387 64.6888C426.446 67.1443 424.421 69.6074 422.324 71.9387C418.645 76.0283 414.776 79.6943 410.647 83.3312C406.594 86.901 402.356 90.5229 397.756 93.4389C396.638 94.1478 394.8 94.7695 393.9 95.6992C392.914 96.7176 394.409 97.1596 395.419 97.8818C397.426 99.3165 399.49 100.786 401.241 102.459C404.973 106.025 407.104 111.279 408.412 116.051C409.092 118.534 409.232 121.381 409.489 123.953C409.791 126.969 409.417 130.271 408.466 133.14C408.105 134.229 407.68 135.295 407.33 136.388C407.169 136.891 406.377 138.454 406.592 139.035C406.947 139.994 409.279 141.16 410.094 141.827C411.207 142.739 412.346 143.682 413.279 144.769C417.247 149.393 420.493 154.246 423.408 159.565C426.373 164.976 429.171 169.858 430.341 175.939C430.647 177.528 430.919 179.119 431.24 180.706C431.585 182.413 431.251 184.876 431.942 186.435C432.37 187.4 433.17 187.704 432.844 189.038C432.562 190.191 431.131 192.239 430.353 193.147C428.581 195.215 425.347 196.03 422.793 196.779C419.694 197.689 416.379 198.109 413.187 198.626C401.691 200.49 390.424 202.527 379.784 207.305C380.142 207.826 380.431 208.954 379.704 209.313C378.739 209.791 378.265 208.373 377.933 207.747C376.967 205.924 376.679 203.566 376.101 201.568C374.693 196.695 373.624 191.77 372.477 186.844C368.564 187.667 364.602 188.105 360.709 188.869C358.913 189.221 357.094 189.254 355.286 189.477C353.344 189.715 353.22 190.326 353.373 192.179C353.711 196.265 355.342 200.184 356.273 204.157C356.724 206.084 357.514 207.919 357.944 209.836C358.084 210.461 357.932 212.142 358.372 212.608C358.353 212.588 359.855 212.886 360.092 212.946C359.964 210.532 360.247 208.164 360.126 205.755C360.002 203.267 359.662 200.004 360.218 197.593C360.724 195.401 362.654 193.084 364.785 192.159C366.641 191.353 370.325 190.061 372.328 191.255C372.681 191.465 373.529 192.117 373.331 192.621C373.063 193.303 370.097 193.825 369.495 194.037C367.137 194.862 364.644 196.31 363.323 198.409C362.134 200.298 362.609 203.218 362.649 205.383C362.671 206.614 362.831 207.758 362.682 208.984C362.471 210.72 362.361 211.348 363.071 212.847C363.902 214.602 363.389 217.168 360.897 216.536C359.407 216.159 359.347 215.346 358.45 214.461C358.111 214.127 357.729 214.275 357.397 213.853C356.951 213.287 356.953 212.034 356.728 211.32C356.006 209.034 354.984 206.81 354.221 204.51C353.194 201.417 352.354 198.286 351.618 195.119C351.047 192.657 350.427 190.164 351.615 187.768C352.67 185.641 355.254 185.799 357.397 185.723C362.359 185.546 367.488 184.47 372.551 184.21C372.915 184.192 373.675 184.316 374.001 184.164C374.453 183.955 374.623 183.345 375.207 182.956C376.323 182.211 378.53 181.952 379.819 181.724C382.744 181.204 385.653 180.783 388.56 180.242C391.902 179.619 395.213 178.875 398.559 178.309C401.762 177.767 404.998 177.665 408.239 177.297C403.097 173.98 398.568 169.937 393.62 166.343C391.326 164.677 389.2 163.038 387.141 161.111C386.283 160.309 385.435 159.529 384.656 158.655C384.244 158.191 383.879 157.306 383.354 156.982C382.695 156.575 381.942 156.684 381.073 156.612Z" fill="black"/>
<path fill-rule="evenodd" clip-rule="evenodd" d="M362.198 63.2362C360.497 63.0879 358.547 63.0773 356.896 62.6985C358.355 62.8247 360.862 62.7428 362.198 63.2362ZM268.705 89.8158L266.534 89.6244C267.273 89.5169 267.995 89.598 268.705 89.8158ZM313.275 105.567C313.759 105.608 314.242 105.65 314.723 105.692C314.238 105.65 313.757 105.609 313.275 105.567ZM299.587 103.633C299.909 103.665 300.232 103.698 300.551 103.73L299.587 103.633ZM360.128 207.761C360.101 208.083 360.072 208.405 360.045 208.726L360.128 207.761ZM381.005 156.712C381.247 156.732 381.489 156.752 381.729 156.773C381.486 156.753 381.245 156.732 381.005 156.712ZM264.404 88.9594L263.451 88.7404L264.404 88.9591V88.9594ZM377.607 156.646C377.768 156.667 377.929 156.688 378.088 156.708L377.607 156.646ZM344.258 79.33C344.418 79.3547 344.579 79.3794 344.737 79.4044L344.258 79.33ZM398.561 178.353L397.583 178.411C397.909 178.391 398.235 178.372 398.561 178.353ZM285.876 101.958C286.038 101.969 286.2 101.98 286.36 101.991C286.197 101.98 286.037 101.969 285.876 101.958ZM260.669 95.5273C261.416 95.5931 262.112 95.6191 262.829 95.8472C262.127 95.7937 261.296 95.8748 260.669 95.5273M268.417 95.8847C268.939 95.7336 269.811 95.7975 270.35 96.0259L268.417 95.8847ZM367.732 94.4522L369.422 94.5944C368.843 94.7322 368.276 94.736 367.732 94.4522ZM248.996 181.712C249.503 181.475 249.974 181.64 250.443 181.836L248.996 181.712ZM279.193 95.8985C279.185 96.3035 279.178 96.7087 279.17 97.1119L279.193 95.8985ZM367.986 99.8876C367.663 99.8668 367.34 99.8464 367.019 99.8251C367.344 99.8457 367.665 99.8665 367.986 99.8876ZM265.805 92.4009C265.481 92.3834 265.157 92.366 264.837 92.3495C265.161 92.3674 265.483 92.3842 265.805 92.4011M345.634 108.066L346.83 108.285C346.422 108.266 345.989 108.394 345.634 108.066ZM279.202 97.6546L280.411 97.7363C279.993 97.9489 279.591 97.899 279.202 97.6546ZM358.906 74.4281C358.936 74.1063 358.966 73.7844 358.996 73.4637L358.906 74.4281ZM359.332 84.8766C359.671 84.7015 359.994 84.7196 360.297 84.9599L359.332 84.8766ZM352.625 155.983C352.949 155.976 353.274 155.969 353.599 155.961L352.625 155.983ZM345.7 157.325C346.025 157.316 346.35 157.306 346.675 157.297C346.35 157.306 346.025 157.316 345.7 157.325ZM352.564 109.435C352.883 109.499 353.201 109.563 353.52 109.628L352.564 109.435ZM412.547 62.9467L412.063 62.9196C412.226 62.9291 412.386 62.9378 412.547 62.9467ZM268.456 92.6561C268.295 92.6375 268.134 92.6193 267.975 92.6012C268.137 92.6193 268.296 92.6375 268.456 92.6561ZM336.589 105.847L337.545 106.044L336.589 105.847M275.416 97.513L275.413 98.2419C275.414 97.9983 275.415 97.7556 275.416 97.513ZM272.038 96.1807L273.013 96.1516L272.038 96.1807M280.899 97.7082C281.234 97.5713 281.563 97.513 281.865 97.7849L280.899 97.7082ZM392.446 117.264C393.612 117.444 394.164 117.708 394.479 118.838C394.626 119.362 394.204 120.348 394.346 120.679C394.535 121.118 394.817 120.886 395.147 121.302C396.352 122.824 396.981 125.855 394.629 126.906C393.747 125.832 394.054 124.586 394.658 123.477C393.387 123.184 392.729 123.14 392.336 121.868C392.289 121.715 392.194 119.847 392.155 119.807C391.892 119.533 390.829 119.81 390.464 119.605C389.659 119.153 389.279 117.639 389.481 116.788C389.761 115.613 391.002 115.013 391.945 114.355C388.918 114.429 386.135 116.715 383.107 116.868C382.266 116.91 382.054 117.285 381.762 116.336C381.503 115.492 381.783 115.602 382.354 115.182C383.486 114.352 385.223 113.804 386.559 113.33C388.501 112.642 391.849 111.03 393.951 111.932C395 112.381 395.745 113.76 395.423 114.838C395.109 115.889 393.298 116.632 392.446 117.264ZM393.658 101.613C394.524 102.963 394.905 104.389 393.968 105.815C395.3 105.706 396.784 105.462 397.652 106.668C398.907 108.411 397.61 108.982 396.147 109.081C394.972 109.161 392.641 109.92 391.611 109.128C389.919 107.826 391.603 105.362 392.255 104.115C391.18 104.149 388.466 104.466 388.935 102.454C389.272 101.003 392.602 101.371 393.658 101.613ZM379.788 110.359L378.74 111.594C379.27 111.713 379.992 111.262 380.46 111.073L379.788 110.359ZM378.195 108.696C376.949 108.521 375.603 110.15 375.316 108.33C375.149 107.263 376.147 105.897 377.321 105.734C379.369 105.448 382.232 110.091 382.744 111.692C383.216 113.167 382.713 112.963 381.63 113.51C380.692 113.983 379.473 115.081 378.255 114.748C377.142 114.444 376.798 112.661 376.804 111.732C376.811 110.299 377.672 109.838 378.195 108.696ZM384.539 108.69C384.727 109.266 386.088 111.958 384.881 111.951C384.21 111.948 382.944 108.063 382.764 107.619C382.516 107.009 381.993 106.168 382.085 105.478C382.244 104.283 382.177 104.66 382.987 104.79C384.565 105.044 385.87 107.446 387.361 108.054C386.744 105.761 385.817 103.248 386.451 100.906C388.228 102.548 388.305 105.93 388.791 108.176C388.94 108.86 389.292 110.261 388.544 110.724C387.697 111.249 385.111 109.054 384.539 108.69ZM373.202 113.636C373.791 112.4 374.424 110.954 372.249 111.411L373.202 113.636V113.636ZM372.497 108.466C374.363 108.317 375.425 110.765 375.618 112.188C375.772 113.323 374.591 117.283 372.999 116.088C372.405 115.642 372.072 114.425 371.683 113.809C371.152 112.966 370.407 112.162 370.004 111.256C369.149 109.336 370.681 108.471 372.498 108.466L372.497 108.466Z" fill="black"/>
<path fill-rule="evenodd" clip-rule="evenodd" d="M396.394 105.865L395.429 105.778C395.769 105.602 396.09 105.634 396.394 105.865ZM351.757 74.2891C353.329 75.417 349.85 79.6415 348.472 76.2165C348.088 75.2605 348.207 74.0733 349.222 74.3213C349.679 74.4327 349.741 75.1215 350.376 75.1472C351.004 75.1731 351.313 74.6328 351.757 74.2891ZM360.885 78.2482C360.91 77.4034 362.533 75.7255 363.457 76.8345C364.385 77.9471 361.588 78.222 360.885 78.2482" fill="black"/>
<path d="M43.656 97.976C43.656 98.872 43.464 99.64 43.08 100.28C42.696 100.92 42.176 101.408 41.52 101.744C40.288 102.352 38.816 102.656 37.104 102.656C36.688 102.656 36.128 102.624 35.424 102.56V109.304L37.272 109.424V110H31.152V109.424L32.952 109.304V94.76L30.864 94.496V93.92H35.352L38.208 93.848C41.84 93.848 43.656 95.224 43.656 97.976ZM36.48 101.912C37.936 101.912 39.056 101.56 39.84 100.856C40.624 100.152 41.016 99.208 41.016 98.024C41.016 96.824 40.736 95.952 40.176 95.408C39.616 94.848 38.72 94.568 37.488 94.568C36.944 94.568 36.256 94.6 35.424 94.664V101.864C35.664 101.896 36.016 101.912 36.48 101.912ZM50.8847 110.264C49.2367 110.264 47.9087 109.704 46.9007 108.584C45.8927 107.464 45.3887 105.984 45.3887 104.144C45.3887 102.304 45.9167 100.824 46.9727 99.704C48.0447 98.584 49.3887 98.024 51.0047 98.024C52.6207 98.024 53.8287 98.392 54.6287 99.128C55.4287 99.848 55.8287 100.856 55.8287 102.152C55.8287 102.536 55.7967 102.92 55.7327 103.304H47.9807V104.144C47.9807 105.936 48.2367 107.296 48.7487 108.224C49.2607 109.136 50.1007 109.592 51.2687 109.592C52.9167 109.592 54.1887 108.872 55.0847 107.432C55.4367 107.544 55.6127 107.712 55.6127 107.936C55.6127 108.336 55.2447 108.8 54.5087 109.328C54.1567 109.584 53.6607 109.808 53.0207 110C52.3807 110.176 51.6687 110.264 50.8847 110.264ZM53.5487 101.648C53.5487 100.912 53.3967 100.28 53.0927 99.752C52.6767 99.048 52.0047 98.696 51.0767 98.696C49.3487 98.696 48.3407 99.944 48.0527 102.44H53.5007C53.5327 102.168 53.5487 101.904 53.5487 101.648ZM70.4535 104.144C70.4535 105.92 69.9175 107.384 68.8455 108.536C67.7735 109.688 66.3095 110.264 64.4535 110.264C62.6135 110.264 61.1575 109.688 60.0855 108.536C59.0135 107.384 58.4775 105.92 58.4775 104.144C58.4775 102.368 59.0135 100.904 60.0855 99.752C61.1575 98.6 62.6135 98.024 64.4535 98.024C66.3095 98.024 67.7735 98.6 68.8455 99.752C69.9175 100.904 70.4535 102.368 70.4535 104.144ZM61.0935 104.144C61.0935 107.84 62.2135 109.688 64.4535 109.688C66.7095 109.688 67.8375 107.84 67.8375 104.144C67.8375 102.352 67.5815 100.984 67.0695 100.04C66.5575 99.096 65.6935 98.624 64.4775 98.624C63.2615 98.624 62.3895 99.096 61.8615 100.04C61.3495 100.984 61.0935 102.352 61.0935 104.144ZM76.6903 102.008V108.68C77.4583 109.272 78.4103 109.568 79.5463 109.568C80.1543 109.568 80.6743 109.44 81.1063 109.184C81.5543 108.928 81.8983 108.608 82.1383 108.224C82.3943 107.84 82.5863 107.352 82.7143 106.76C82.9383 105.816 83.0503 104.624 83.0503 103.184C83.0503 101.744 82.8023 100.648 82.3063 99.896C81.8103 99.144 81.1143 98.768 80.2183 98.768C79.3223 98.768 78.5063 99.152 77.7703 99.92C77.0503 100.672 76.6903 101.368 76.6903 102.008ZM81.0103 98.024C82.3383 98.024 83.4503 98.488 84.3463 99.416C85.2423 100.328 85.6903 101.784 85.6903 103.784C85.6903 105.768 85.1543 107.352 84.0823 108.536C83.0103 109.704 81.4823 110.288 79.4983 110.288C78.4583 110.288 77.5223 110.056 76.6903 109.592V115.304L78.3703 115.424V116H72.8503V115.424L74.3383 115.304V99.056L72.2743 98.96V98.408L76.5943 98.144L76.5223 100.232H76.7383C77.1703 99.528 77.7703 98.984 78.5383 98.6C79.3063 98.216 80.1303 98.024 81.0103 98.024ZM93.4708 110H87.9508V109.424L89.5348 109.304V92.768L87.3988 92.672V92.12L91.8868 91.616V109.304L93.4708 109.424V110ZM101.203 110.264C99.5551 110.264 98.2271 109.704 97.2191 108.584C96.2111 107.464 95.7071 105.984 95.7071 104.144C95.7071 102.304 96.2351 100.824 97.2911 99.704C98.3631 98.584 99.7071 98.024 101.323 98.024C102.939 98.024 104.147 98.392 104.947 99.128C105.747 99.848 106.147 100.856 106.147 102.152C106.147 102.536 106.115 102.92 106.051 103.304H98.2991V104.144C98.2991 105.936 98.5551 107.296 99.0671 108.224C99.5791 109.136 100.419 109.592 101.587 109.592C103.235 109.592 104.507 108.872 105.403 107.432C105.755 107.544 105.931 107.712 105.931 107.936C105.931 108.336 105.563 108.8 104.827 109.328C104.475 109.584 103.979 109.808 103.339 110C102.699 110.176 101.987 110.264 101.203 110.264ZM103.867 101.648C103.867 100.912 103.715 100.28 103.411 99.752C102.995 99.048 102.323 98.696 101.395 98.696C99.6671 98.696 98.6591 99.944 98.3711 102.44H103.819C103.851 102.168 103.867 101.904 103.867 101.648ZM117.602 107.408C117.602 108.448 118.026 109.064 118.874 109.256C119.066 109.304 119.25 109.328 119.426 109.328C120.034 109.328 120.666 109.072 121.322 108.56C121.978 108.032 122.322 107.328 122.354 106.448V104.384C119.186 104.416 117.602 105.424 117.602 107.408ZM118.562 110.288C117.65 110.288 116.866 110.04 116.21 109.544C115.57 109.032 115.25 108.32 115.25 107.408C115.266 106.176 115.882 105.256 117.098 104.648C118.33 104.04 120.082 103.736 122.354 103.736V101.672C122.354 99.64 121.618 98.624 120.146 98.624C119.394 98.624 118.786 98.936 118.322 99.56C118.002 99.992 117.842 100.528 117.842 101.168C117.842 101.44 117.874 101.728 117.938 102.032C117.714 102.192 117.482 102.272 117.242 102.272C117.018 102.272 116.794 102.224 116.57 102.128C116.058 101.936 115.802 101.568 115.802 101.024C115.802 100.288 116.066 99.68 116.594 99.2C117.458 98.416 118.65 98.024 120.17 98.024C121.69 98.024 122.794 98.352 123.482 99.008C124.17 99.648 124.514 100.664 124.514 102.056V109.328L126.53 109.424L126.554 109.976L122.546 110.264L122.33 108.128C121.594 109.568 120.338 110.288 118.562 110.288ZM135.498 98C135.914 98 136.242 98.104 136.482 98.312C136.722 98.504 136.842 98.776 136.842 99.128C136.842 99.736 136.61 100.136 136.146 100.328C135.89 100.12 135.426 100.016 134.754 100.016C134.082 100.016 133.434 100.24 132.81 100.688C132.202 101.12 131.898 101.616 131.898 102.176V109.304L134.058 109.424V110H127.962V109.424L129.546 109.328V99.08L127.65 98.984V98.432L131.898 98.168L131.754 101.12H131.85C132.122 100.256 132.618 99.52 133.338 98.912C134.074 98.304 134.794 98 135.498 98ZM143.998 110.264C142.35 110.264 141.022 109.704 140.014 108.584C139.006 107.464 138.502 105.984 138.502 104.144C138.502 102.304 139.03 100.824 140.086 99.704C141.158 98.584 142.502 98.024 144.118 98.024C145.734 98.024 146.942 98.392 147.742 99.128C148.542 99.848 148.942 100.856 148.942 102.152C148.942 102.536 148.91 102.92 148.846 103.304H141.094V104.144C141.094 105.936 141.35 107.296 141.862 108.224C142.374 109.136 143.214 109.592 144.382 109.592C146.03 109.592 147.302 108.872 148.198 107.432C148.55 107.544 148.726 107.712 148.726 107.936C148.726 108.336 148.358 108.8 147.622 109.328C147.27 109.584 146.774 109.808 146.134 110C145.494 110.176 144.782 110.264 143.998 110.264ZM146.662 101.648C146.662 100.912 146.51 100.28 146.206 99.752C145.79 99.048 145.118 98.696 144.19 98.696C142.462 98.696 141.454 99.944 141.166 102.44H146.614C146.646 102.168 146.662 101.904 146.662 101.648ZM163.253 110H157.733V109.424L159.317 109.304V92.768L157.181 92.672V92.12L161.669 91.616V109.304L163.253 109.424V110ZM177.441 104.144C177.441 105.92 176.905 107.384 175.833 108.536C174.761 109.688 173.297 110.264 171.441 110.264C169.601 110.264 168.145 109.688 167.073 108.536C166.001 107.384 165.465 105.92 165.465 104.144C165.465 102.368 166.001 100.904 167.073 99.752C168.145 98.6 169.601 98.024 171.441 98.024C173.297 98.024 174.761 98.6 175.833 99.752C176.905 100.904 177.441 102.368 177.441 104.144ZM168.081 104.144C168.081 107.84 169.201 109.688 171.441 109.688C173.697 109.688 174.825 107.84 174.825 104.144C174.825 102.352 174.569 100.984 174.057 100.04C173.545 99.096 172.681 98.624 171.465 98.624C170.249 98.624 169.377 99.096 168.849 100.04C168.337 100.984 168.081 102.352 168.081 104.144ZM192.054 104.144C192.054 105.92 191.518 107.384 190.446 108.536C189.374 109.688 187.91 110.264 186.054 110.264C184.214 110.264 182.758 109.688 181.686 108.536C180.614 107.384 180.078 105.92 180.078 104.144C180.078 102.368 180.614 100.904 181.686 99.752C182.758 98.6 184.214 98.024 186.054 98.024C187.91 98.024 189.374 98.6 190.446 99.752C191.518 100.904 192.054 102.368 192.054 104.144ZM182.694 104.144C182.694 107.84 183.814 109.688 186.054 109.688C188.31 109.688 189.438 107.84 189.438 104.144C189.438 102.352 189.182 100.984 188.67 100.04C188.158 99.096 187.294 98.624 186.078 98.624C184.862 98.624 183.99 99.096 183.462 100.04C182.95 100.984 182.694 102.352 182.694 104.144ZM201.651 98.288H206.355V98.84L204.579 99.296L199.995 103.232L205.323 109.256L206.931 109.424V110H201.243V109.424L202.587 109.304L198.123 104.048V109.304L199.611 109.424V110H194.211V109.424L195.771 109.304V92.768L193.659 92.672L193.635 92.12L198.123 91.616V103.76L203.211 99.296L201.651 98.84V98.288ZM212.654 94.376C212.654 94.76 212.518 95.096 212.246 95.384C211.974 95.656 211.63 95.792 211.214 95.792C210.814 95.792 210.478 95.656 210.206 95.384C209.934 95.112 209.798 94.776 209.798 94.376C209.798 93.96 209.934 93.616 210.206 93.344C210.478 93.056 210.814 92.912 211.214 92.912C211.614 92.912 211.95 93.056 212.222 93.344C212.51 93.632 212.654 93.976 212.654 94.376ZM208.574 110V109.424L210.158 109.304V99.104L208.046 99.032V98.48L212.51 98.168V109.304L214.094 109.424V110H208.574ZM220.045 100.832C220.765 98.976 222.213 98.048 224.389 98.048C225.477 98.048 226.357 98.376 227.029 99.032C227.701 99.672 228.037 100.592 228.037 101.792C228.037 103.856 227.973 106.36 227.845 109.304L229.501 109.424V110H224.197V109.424L225.493 109.328C225.621 105.712 225.685 103.64 225.685 103.112C225.685 102.584 225.677 102.184 225.661 101.912C225.645 101.624 225.597 101.28 225.517 100.88C225.453 100.464 225.349 100.136 225.205 99.896C224.853 99.304 224.301 99.008 223.549 99.008C222.525 99.008 221.685 99.432 221.029 100.28C220.373 101.128 220.045 102.048 220.045 103.04V109.304L221.845 109.424V110H216.109V109.424L217.693 109.304V99.152L215.653 99.056V98.504L219.949 98.216L219.829 100.808L220.045 100.832ZM234.519 107.6C234.519 107.968 234.775 108.216 235.287 108.344C235.815 108.456 236.903 108.584 238.551 108.728C240.199 108.872 241.383 109.168 242.103 109.616C242.823 110.048 243.183 110.752 243.183 111.728C243.183 112.976 242.591 114.04 241.407 114.92C240.239 115.8 238.719 116.24 236.847 116.24C234.975 116.24 233.599 115.936 232.719 115.328C231.839 114.736 231.399 113.944 231.399 112.952C231.399 112.296 231.615 111.672 232.047 111.08C232.479 110.504 233.111 110.096 233.943 109.856C232.967 109.504 232.479 108.92 232.479 108.104C232.479 107.624 232.727 107.224 233.223 106.904C233.719 106.568 234.279 106.36 234.903 106.28C233.895 105.992 233.119 105.496 232.575 104.792C232.031 104.072 231.759 103.232 231.759 102.272C231.759 101.04 232.215 100.024 233.127 99.224C234.055 98.424 235.303 98.024 236.871 98.024C237.319 98.024 237.807 98.08 238.335 98.192C238.799 98.08 239.167 97.84 239.439 97.472C239.727 97.072 239.871 96.648 239.871 96.2C239.871 95.752 239.847 95.368 239.799 95.048C240.023 94.952 240.247 94.904 240.471 94.904C240.695 94.904 240.919 94.96 241.143 95.072C241.575 95.296 241.791 95.688 241.791 96.248C241.791 96.792 241.527 97.272 240.999 97.688C240.471 98.104 239.839 98.344 239.103 98.408C239.967 98.728 240.631 99.232 241.095 99.92C241.559 100.592 241.791 101.376 241.791 102.272C241.791 103.616 241.271 104.656 240.231 105.392C239.207 106.128 237.943 106.496 236.439 106.496C235.879 106.512 235.415 106.64 235.047 106.88C234.695 107.104 234.519 107.344 234.519 107.6ZM233.247 112.688C233.247 113.536 233.591 114.208 234.279 114.704C234.983 115.216 235.887 115.472 236.991 115.472C238.111 115.472 239.111 115.192 239.991 114.632C240.871 114.072 241.319 113.368 241.335 112.52C241.335 111.976 241.159 111.568 240.807 111.296C240.503 111.056 240.079 110.896 239.535 110.816C238.991 110.736 238.231 110.64 237.255 110.528C236.295 110.432 235.471 110.312 234.783 110.168C234.351 110.392 233.983 110.736 233.679 111.2C233.391 111.68 233.247 112.176 233.247 112.688ZM236.703 105.992C237.599 105.992 238.263 105.648 238.695 104.96C239.127 104.272 239.343 103.376 239.343 102.272C239.343 99.792 238.519 98.552 236.871 98.552C235.975 98.552 235.303 98.888 234.855 99.56C234.423 100.216 234.207 101.12 234.207 102.272C234.207 104.752 235.039 105.992 236.703 105.992ZM32.4 130.912H30.72V130.288H32.4V129.928C32.4 127.8 32.848 126.2 33.744 125.128C34.64 124.056 35.92 123.52 37.584 123.52C38.576 123.52 39.4 123.712 40.056 124.096C40.728 124.464 41.064 124.968 41.064 125.608C41.064 126.232 40.848 126.688 40.416 126.976C40.16 127.152 39.904 127.24 39.648 127.24C39.408 127.24 39.176 127.192 38.952 127.096C39.048 126.648 39.096 126.216 39.096 125.8C39.096 125.384 38.952 125.016 38.664 124.696C38.376 124.376 37.976 124.216 37.464 124.216C36.952 124.216 36.512 124.36 36.144 124.648C35.792 124.92 35.528 125.248 35.352 125.632C35.176 126 35.04 126.496 34.944 127.12C34.816 127.952 34.752 129.008 34.752 130.288H38.376V130.912H34.752V141.304L37.44 141.424L37.464 142H30.792L30.768 141.424L32.4 141.328V130.912ZM51.9501 136.144C51.9501 137.92 51.4141 139.384 50.3421 140.536C49.2701 141.688 47.8061 142.264 45.9501 142.264C44.1101 142.264 42.6541 141.688 41.5821 140.536C40.5101 139.384 39.9741 137.92 39.9741 136.144C39.9741 134.368 40.5101 132.904 41.5821 131.752C42.6541 130.6 44.1101 130.024 45.9501 130.024C47.8061 130.024 49.2701 130.6 50.3421 131.752C51.4141 132.904 51.9501 134.368 51.9501 136.144ZM42.5901 136.144C42.5901 139.84 43.7101 141.688 45.9501 141.688C48.2061 141.688 49.3341 139.84 49.3341 136.144C49.3341 134.352 49.0781 132.984 48.5661 132.04C48.0541 131.096 47.1901 130.624 45.9741 130.624C44.7581 130.624 43.8861 131.096 43.3581 132.04C42.8461 132.984 42.5901 134.352 42.5901 136.144ZM61.9309 130C62.3469 130 62.6749 130.104 62.9149 130.312C63.1549 130.504 63.2749 130.776 63.2749 131.128C63.2749 131.736 63.0429 132.136 62.5789 132.328C62.3229 132.12 61.8589 132.016 61.1869 132.016C60.5149 132.016 59.8669 132.24 59.2429 132.688C58.6349 133.12 58.3309 133.616 58.3309 134.176V141.304L60.4909 141.424V142H54.3949V141.424L55.9789 141.328V131.08L54.0829 130.984V130.432L58.3309 130.168L58.1869 133.12H58.2829C58.5549 132.256 59.0509 131.52 59.7709 130.912C60.5069 130.304 61.2269 130 61.9309 130ZM75.4768 141.664C76.1168 141.664 76.6688 141.488 77.1328 141.136C77.6128 140.784 77.8528 140.192 77.8528 139.36C77.8528 138.8 77.5968 138.336 77.0848 137.968C76.5888 137.6 75.9648 137.272 75.2128 136.984C74.4608 136.68 73.9488 136.472 73.6768 136.36C73.4208 136.232 73.0768 136.032 72.6448 135.76C71.8608 135.232 71.4688 134.472 71.4688 133.48C71.4688 132.488 71.8608 131.664 72.6448 131.008C73.4288 130.352 74.5728 130.024 76.0768 130.024C77.0368 130.024 77.8528 130.24 78.5248 130.672C79.2128 131.088 79.5568 131.592 79.5568 132.184C79.5568 132.776 79.3328 133.184 78.8848 133.408C78.6448 133.52 78.4048 133.576 78.1648 133.576C77.9408 133.576 77.7168 133.528 77.4928 133.432C77.5568 133.144 77.5888 132.832 77.5888 132.496C77.5888 132.16 77.5088 131.824 77.3488 131.488C77.0768 130.912 76.5568 130.624 75.7888 130.624C75.0208 130.624 74.4368 130.832 74.0368 131.248C73.6368 131.664 73.4368 132.208 73.4368 132.88C73.4368 133.568 73.7248 134.08 74.3008 134.416C74.7328 134.688 75.2688 134.936 75.9088 135.16C76.5488 135.384 76.9808 135.544 77.2048 135.64C77.4448 135.72 77.7568 135.864 78.1408 136.072C78.5248 136.28 78.8128 136.496 79.0048 136.72C79.5008 137.264 79.7488 138 79.7488 138.928C79.7488 139.856 79.3328 140.648 78.5008 141.304C77.6688 141.944 76.6528 142.264 75.4528 142.264C74.2528 142.264 73.1968 142.08 72.2848 141.712C71.3888 141.344 70.9408 140.808 70.9408 140.104C70.9408 139.448 71.4288 139.016 72.4048 138.808C72.6928 140.712 73.7168 141.664 75.4768 141.664ZM94.3935 136.144C94.3935 137.92 93.8575 139.384 92.7855 140.536C91.7135 141.688 90.2495 142.264 88.3935 142.264C86.5535 142.264 85.0975 141.688 84.0255 140.536C82.9535 139.384 82.4175 137.92 82.4175 136.144C82.4175 134.368 82.9535 132.904 84.0255 131.752C85.0975 130.6 86.5535 130.024 88.3935 130.024C90.2495 130.024 91.7135 130.6 92.7855 131.752C93.8575 132.904 94.3935 134.368 94.3935 136.144ZM85.0335 136.144C85.0335 139.84 86.1535 141.688 88.3935 141.688C90.6495 141.688 91.7775 139.84 91.7775 136.144C91.7775 134.352 91.5215 132.984 91.0095 132.04C90.4975 131.096 89.6335 130.624 88.4175 130.624C87.2015 130.624 86.3295 131.096 85.8015 132.04C85.2895 132.984 85.0335 134.352 85.0335 136.144ZM112.87 130.12C115.43 130.12 116.71 131.352 116.71 133.816C116.71 135.592 116.654 138.088 116.542 141.304L118.246 141.424V142H112.894V141.424L114.19 141.328C114.302 137.104 114.358 134.544 114.358 133.648C114.358 132.736 114.19 132.056 113.854 131.608C113.518 131.16 112.974 130.936 112.222 130.936C111.47 130.936 110.774 131.256 110.134 131.896C109.494 132.52 109.062 133.192 108.838 133.912C108.838 135.64 108.782 138.104 108.67 141.304L110.374 141.424V142H105.022V141.424L106.318 141.328C106.43 137.104 106.486 134.544 106.486 133.648C106.486 132.736 106.318 132.056 105.982 131.608C105.646 131.16 105.062 130.936 104.23 130.936C103.414 130.936 102.646 131.376 101.926 132.256C101.206 133.12 100.846 133.888 100.846 134.56V141.304L102.646 141.424V142H96.9343V141.424L98.4943 141.328V131.152L96.4543 131.056V130.504L100.75 130.216L100.63 132.688H100.87C101.302 131.84 101.878 131.2 102.598 130.768C103.334 130.336 104.134 130.12 104.998 130.12C107.158 130.12 108.406 130.984 108.742 132.712V132.688C109.174 131.84 109.75 131.2 110.47 130.768C111.206 130.336 112.006 130.12 112.87 130.12ZM125.858 142.264C124.21 142.264 122.882 141.704 121.874 140.584C120.866 139.464 120.362 137.984 120.362 136.144C120.362 134.304 120.89 132.824 121.946 131.704C123.018 130.584 124.362 130.024 125.978 130.024C127.594 130.024 128.802 130.392 129.602 131.128C130.402 131.848 130.802 132.856 130.802 134.152C130.802 134.536 130.77 134.92 130.706 135.304H122.954V136.144C122.954 137.936 123.21 139.296 123.722 140.224C124.234 141.136 125.074 141.592 126.242 141.592C127.89 141.592 129.162 140.872 130.058 139.432C130.41 139.544 130.586 139.712 130.586 139.936C130.586 140.336 130.218 140.8 129.482 141.328C129.13 141.584 128.634 141.808 127.994 142C127.354 142.176 126.642 142.264 125.858 142.264ZM128.522 133.648C128.522 132.912 128.37 132.28 128.066 131.752C127.65 131.048 126.978 130.696 126.05 130.696C124.322 130.696 123.314 131.944 123.026 134.44H128.474C128.506 134.168 128.522 133.904 128.522 133.648ZM145.427 136.144C145.427 137.92 144.891 139.384 143.819 140.536C142.747 141.688 141.283 142.264 139.427 142.264C137.587 142.264 136.131 141.688 135.059 140.536C133.987 139.384 133.451 137.92 133.451 136.144C133.451 134.368 133.987 132.904 135.059 131.752C136.131 130.6 137.587 130.024 139.427 130.024C141.283 130.024 142.747 130.6 143.819 131.752C144.891 132.904 145.427 134.368 145.427 136.144ZM136.067 136.144C136.067 139.84 137.187 141.688 139.427 141.688C141.683 141.688 142.811 139.84 142.811 136.144C142.811 134.352 142.555 132.984 142.043 132.04C141.531 131.096 140.667 130.624 139.451 130.624C138.235 130.624 137.363 131.096 136.835 132.04C136.323 132.984 136.067 134.352 136.067 136.144ZM151.88 132.832C152.6 130.976 154.048 130.048 156.224 130.048C157.312 130.048 158.192 130.376 158.864 131.032C159.536 131.672 159.872 132.592 159.872 133.792C159.872 135.856 159.808 138.36 159.68 141.304L161.336 141.424V142H156.032V141.424L157.328 141.328C157.456 137.712 157.52 135.64 157.52 135.112C157.52 134.584 157.512 134.184 157.496 133.912C157.48 133.624 157.432 133.28 157.352 132.88C157.288 132.464 157.184 132.136 157.04 131.896C156.688 131.304 156.136 131.008 155.384 131.008C154.36 131.008 153.52 131.432 152.864 132.28C152.208 133.128 151.88 134.048 151.88 135.04V141.304L153.68 141.424V142H147.944V141.424L149.528 141.304V131.152L147.488 131.056V130.504L151.784 130.216L151.664 132.808L151.88 132.832ZM168.97 142.264C167.322 142.264 165.994 141.704 164.986 140.584C163.978 139.464 163.474 137.984 163.474 136.144C163.474 134.304 164.002 132.824 165.058 131.704C166.13 130.584 167.474 130.024 169.09 130.024C170.706 130.024 171.914 130.392 172.714 131.128C173.514 131.848 173.914 132.856 173.914 134.152C173.914 134.536 173.882 134.92 173.818 135.304H166.066V136.144C166.066 137.936 166.322 139.296 166.834 140.224C167.346 141.136 168.186 141.592 169.354 141.592C171.002 141.592 172.274 140.872 173.17 139.432C173.522 139.544 173.698 139.712 173.698 139.936C173.698 140.336 173.33 140.8 172.594 141.328C172.242 141.584 171.746 141.808 171.106 142C170.466 142.176 169.754 142.264 168.97 142.264ZM171.634 133.648C171.634 132.912 171.482 132.28 171.178 131.752C170.762 131.048 170.09 130.696 169.162 130.696C167.434 130.696 166.426 131.944 166.138 134.44H171.586C171.618 134.168 171.634 133.904 171.634 133.648ZM30.048 162.288H34.992V162.84L33.408 163.032L36.816 171.432L38.928 165.84L37.752 163.032L36.768 162.912V162.288H41.616V162.84L40.008 163.032L43.44 171.432L46.416 163.368L44.856 162.912V162.288H48.888V162.912L47.424 163.368L43.344 174H42.384L39.456 167.064L36.72 174H35.76L31.128 163.032L30.048 162.864V162.288ZM54.4575 158.376C54.4575 158.76 54.3215 159.096 54.0495 159.384C53.7775 159.656 53.4335 159.792 53.0175 159.792C52.6175 159.792 52.2815 159.656 52.0095 159.384C51.7375 159.112 51.6015 158.776 51.6015 158.376C51.6015 157.96 51.7375 157.616 52.0095 157.344C52.2815 157.056 52.6175 156.912 53.0175 156.912C53.4175 156.912 53.7535 157.056 54.0255 157.344C54.3135 157.632 54.4575 157.976 54.4575 158.376ZM50.3775 174V173.424L51.9615 173.304V163.104L49.8495 163.032V162.48L54.3135 162.168V173.304L55.8975 173.424V174H50.3775ZM65.2802 171.504C65.2802 171.552 65.2722 171.608 65.2562 171.672C65.0002 172.456 64.5682 173.088 63.9602 173.568C63.3682 174.032 62.6722 174.264 61.8722 174.264C61.0722 174.264 60.4002 174.04 59.8562 173.592C59.3282 173.128 59.0642 172.232 59.0642 170.904C59.0642 170.536 59.1042 167.872 59.1842 162.912H57.5282V162.288H59.2082L59.2322 158.76H61.5842L61.5122 162.288H64.9442V162.912H61.5122C61.4322 168.08 61.3922 171.104 61.3922 171.984C61.3922 173.056 61.7442 173.592 62.4482 173.592C62.8802 173.592 63.3282 173.344 63.7922 172.848C64.2722 172.352 64.6082 171.792 64.8002 171.168C65.1202 171.168 65.2802 171.28 65.2802 171.504ZM74.8155 162.12C77.3755 162.12 78.6555 163.352 78.6555 165.816C78.6555 167.592 78.5995 170.088 78.4875 173.304L80.1915 173.424V174H74.8395V173.424L76.1355 173.328C76.2475 169.104 76.3035 166.544 76.3035 165.648C76.3035 164.736 76.1355 164.056 75.7995 163.608C75.4635 163.16 74.8795 162.936 74.0475 162.936C73.2315 162.936 72.4635 163.328 71.7435 164.112C71.0235 164.896 70.6635 165.616 70.6635 166.272V173.304L72.2475 173.424V174H66.7275V173.424L68.3115 173.304V156.768L66.1995 156.672L66.1755 156.12L70.6635 155.616C70.5675 161.104 70.5115 164.032 70.4955 164.4H70.6875C71.1195 163.664 71.6955 163.104 72.4155 162.72C73.1515 162.32 73.9515 162.12 74.8155 162.12ZM91.4231 178.896C91.1031 179.264 90.6951 179.592 90.1991 179.88C89.7031 180.184 89.1991 180.336 88.6871 180.336C88.1911 180.336 87.7991 180.2 87.5111 179.928C87.2391 179.672 87.1031 179.32 87.1031 178.872C87.1031 178.44 87.3031 178 87.7031 177.552C88.1511 178.064 88.6551 178.32 89.2151 178.32C90.0151 178.32 90.7031 177.968 91.2791 177.264C91.8551 176.576 92.4151 175.488 92.9591 174L88.3511 163.056L87.1271 162.912V162.288H92.2391V162.912L90.5831 163.056L94.0151 171.432L96.9671 163.368L95.0471 162.912V162.288H99.6551V162.912L97.9751 163.368L93.9191 174C93.6311 174.736 93.4071 175.304 93.2471 175.704C93.0871 176.104 92.8231 176.64 92.4551 177.312C92.1031 178 91.7591 178.528 91.4231 178.896ZM112.897 168.144C112.897 169.92 112.361 171.384 111.289 172.536C110.217 173.688 108.753 174.264 106.897 174.264C105.057 174.264 103.601 173.688 102.529 172.536C101.457 171.384 100.921 169.92 100.921 168.144C100.921 166.368 101.457 164.904 102.529 163.752C103.601 162.6 105.057 162.024 106.897 162.024C108.753 162.024 110.217 162.6 111.289 163.752C112.361 164.904 112.897 166.368 112.897 168.144ZM103.537 168.144C103.537 171.84 104.657 173.688 106.897 173.688C109.153 173.688 110.281 171.84 110.281 168.144C110.281 166.352 110.025 164.984 109.513 164.04C109.001 163.096 108.137 162.624 106.921 162.624C105.705 162.624 104.833 163.096 104.305 164.04C103.793 164.984 103.537 166.352 103.537 168.144ZM120.358 174.288C117.798 174.288 116.518 173.056 116.518 170.592C116.518 168.784 116.574 166.272 116.686 163.056L114.766 162.96V162.408L119.038 162.144C118.926 166.368 118.87 169.24 118.87 170.76C118.87 171.672 119.038 172.352 119.374 172.8C119.71 173.248 120.27 173.472 121.054 173.472C121.854 173.472 122.606 173.032 123.31 172.152C124.014 171.256 124.366 170.472 124.366 169.8V163.056L122.374 162.96V162.408L126.718 162.144V173.256L128.758 173.352L128.782 173.904L124.462 174.192L124.63 171.6H124.342C123.51 173.392 122.182 174.288 120.358 174.288ZM137.959 162C138.375 162 138.703 162.104 138.943 162.312C139.183 162.504 139.303 162.776 139.303 163.128C139.303 163.736 139.071 164.136 138.607 164.328C138.351 164.12 137.887 164.016 137.215 164.016C136.543 164.016 135.895 164.24 135.271 164.688C134.663 165.12 134.359 165.616 134.359 166.176V173.304L136.519 173.424V174H130.423V173.424L132.007 173.328V163.08L130.111 162.984V162.432L134.359 162.168L134.215 165.12H134.311C134.583 164.256 135.079 163.52 135.799 162.912C136.535 162.304 137.255 162 137.959 162Z" fill="black"/>
<path d="M148.212 181.792C147.348 181.792 146.604 181.636 145.98 181.324C145.596 181.108 145.404 180.856 145.404 180.568C145.404 180.28 145.476 180.052 145.62 179.884C145.764 179.692 145.968 179.596 146.232 179.596C146.472 179.596 146.82 179.692 147.276 179.884C147.78 180.076 148.092 180.172 148.212 180.172C148.668 180.172 149.076 179.98 149.436 179.596C149.82 179.188 150.12 178.66 150.336 178.012C150.768 176.812 150.984 175.732 150.984 174.772C150.984 173.74 150.816 172.66 150.48 171.532C150.168 170.38 149.736 169.264 149.184 168.184L148.608 167.032C148.008 165.832 147.54 164.884 147.204 164.188C146.892 163.492 146.616 162.736 146.376 161.92C146.016 160.768 145.836 159.652 145.836 158.572C145.836 157.708 145.98 156.892 146.268 156.124C146.58 155.356 147.036 154.708 147.636 154.18C148.236 153.604 148.98 153.316 149.868 153.316C150.3 153.316 150.72 153.448 151.128 153.712C151.536 153.952 151.824 154.264 151.992 154.648L151.38 155.404C150.756 155.404 150.288 155.284 149.976 155.044C149.544 155.092 149.16 155.308 148.824 155.692C148.512 156.052 148.272 156.472 148.104 156.952C147.96 157.408 147.888 157.864 147.888 158.32C147.888 159.232 148.008 160.168 148.248 161.128C148.512 162.064 148.848 162.952 149.256 163.792L151.776 168.832C152.184 169.696 152.508 170.668 152.748 171.748C152.988 172.828 153.108 173.908 153.108 174.988C153.108 176.572 152.724 178.06 151.956 179.452C151.548 180.172 151.02 180.736 150.372 181.144C149.724 181.576 149.004 181.792 148.212 181.792ZM166.091 181.612C165.539 181.612 164.951 181.012 164.327 179.812C163.391 178.012 162.467 175.048 161.555 170.92C161.291 169.792 161.075 168.748 160.907 167.788C160.043 169.516 159.611 171.604 159.611 174.052V180.712C159.611 181.264 159.371 181.54 158.891 181.54C158.531 181.54 158.231 181.432 157.991 181.216C157.775 181.024 157.667 180.748 157.667 180.388V169.48C157.667 168.424 157.787 166.48 158.027 163.648C158.267 161.176 158.387 159.232 158.387 157.816C158.579 157.36 158.927 157.132 159.431 157.132C159.743 157.132 160.007 157.24 160.223 157.456C160.439 157.672 160.547 157.936 160.547 158.248V158.356C160.235 158.884 160.079 161.068 160.079 164.908V166.204L161.411 163.576C162.227 161.872 162.995 160.408 163.715 159.184C164.387 157.984 164.879 157.384 165.191 157.384C165.575 157.384 165.899 157.468 166.163 157.636C166.451 157.804 166.595 158.044 166.595 158.356L165.731 159.796C163.931 162.7 162.923 164.38 162.707 164.836C162.707 165.244 162.695 165.604 162.671 165.916L162.635 166.996C162.635 168.028 163.043 169.96 163.859 172.792C164.699 175.6 165.395 177.46 165.947 178.372L166.415 179.02C166.871 179.644 167.099 180.196 167.099 180.676C167.099 180.94 166.991 181.156 166.775 181.324C166.583 181.516 166.355 181.612 166.091 181.612ZM172.341 180.964C170.253 180.964 169.209 180.604 169.209 179.884C169.209 179.308 169.581 179.02 170.325 179.02H170.721L171.081 179.056C171.273 179.056 171.405 178.996 171.477 178.876C171.549 178.756 171.585 178.54 171.585 178.228C171.585 177.82 171.561 177.184 171.513 176.32C171.441 175.744 171.357 174.712 171.261 173.224C171.045 169.552 170.937 166.78 170.937 164.908C170.937 164.236 170.949 163.624 170.973 163.072L171.009 161.236C171.009 160.444 170.973 159.784 170.901 159.256C170.517 159.352 170.241 159.4 170.073 159.4C169.497 159.4 169.209 159.112 169.209 158.536C169.209 158.248 169.389 157.996 169.749 157.78C170.109 157.564 170.565 157.408 171.117 157.312C172.077 157.12 172.929 157.024 173.673 157.024C173.961 157.024 174.201 157.132 174.393 157.348C174.609 157.54 174.717 157.768 174.717 158.032C174.717 158.296 174.633 158.524 174.465 158.716C174.321 158.908 174.129 159.004 173.889 159.004C173.745 159.004 173.625 158.992 173.529 158.968H173.241C173.001 158.968 172.821 159.028 172.701 159.148C172.605 159.244 172.557 159.436 172.557 159.724C172.557 162.052 172.701 165.556 172.989 170.236C173.037 171.1 173.133 172.372 173.277 174.052C173.397 175.156 173.457 176.284 173.457 177.436V178.804C173.601 178.78 173.841 178.768 174.177 178.768C175.185 178.768 175.689 179.188 175.689 180.028V180.244L174.789 180.856C174.765 180.856 174.681 180.868 174.537 180.892C174.417 180.892 174.177 180.892 173.817 180.892C173.049 180.94 172.557 180.964 172.341 180.964ZM184.566 181.576C183.702 181.288 182.634 181.144 181.362 181.144C180.978 181.384 180.57 181.504 180.138 181.504C179.85 181.504 179.598 181.372 179.382 181.108C179.19 180.868 179.094 180.604 179.094 180.316C179.094 178.3 179.178 175.612 179.346 172.252C179.49 168.676 179.562 166 179.562 164.224V163.972C179.418 162.46 179.346 161.332 179.346 160.588C179.346 158.308 179.766 157.168 180.606 157.168C180.846 157.168 181.05 157.264 181.218 157.456C181.41 157.624 181.506 157.828 181.506 158.068C181.506 158.356 181.47 158.812 181.398 159.436C181.326 160.036 181.29 160.492 181.29 160.804C181.29 162.412 181.302 163.864 181.326 165.16C181.35 166.432 181.362 167.872 181.362 169.48C181.242 169.84 181.182 170.344 181.182 170.992V171.424L181.11 174.268C181.062 175.108 181.038 176.068 181.038 177.148C181.038 178.804 181.434 179.632 182.226 179.632C182.274 179.632 182.346 179.632 182.442 179.632C182.562 179.608 182.718 179.596 182.91 179.596C183.126 179.572 183.402 179.56 183.738 179.56C185.034 179.56 185.682 179.92 185.682 180.64C185.682 180.88 185.574 181.084 185.358 181.252C185.142 181.42 184.878 181.528 184.566 181.576ZM194.559 181.576C193.695 181.288 192.627 181.144 191.355 181.144C190.971 181.384 190.563 181.504 190.131 181.504C189.843 181.504 189.591 181.372 189.375 181.108C189.183 180.868 189.087 180.604 189.087 180.316C189.087 178.3 189.171 175.612 189.339 172.252C189.483 168.676 189.555 166 189.555 164.224V163.972C189.411 162.46 189.339 161.332 189.339 160.588C189.339 158.308 189.759 157.168 190.599 157.168C190.839 157.168 191.043 157.264 191.211 157.456C191.403 157.624 191.499 157.828 191.499 158.068C191.499 158.356 191.463 158.812 191.391 159.436C191.319 160.036 191.283 160.492 191.283 160.804C191.283 162.412 191.295 163.864 191.319 165.16C191.343 166.432 191.355 167.872 191.355 169.48C191.235 169.84 191.175 170.344 191.175 170.992V171.424L191.103 174.268C191.055 175.108 191.031 176.068 191.031 177.148C191.031 178.804 191.427 179.632 192.219 179.632C192.267 179.632 192.339 179.632 192.435 179.632C192.555 179.608 192.711 179.596 192.903 179.596C193.119 179.572 193.395 179.56 193.731 179.56C195.027 179.56 195.675 179.92 195.675 180.64C195.675 180.88 195.567 181.084 195.351 181.252C195.135 181.42 194.871 181.528 194.559 181.576ZM199.656 181.504C199.224 181.432 198.852 181.276 198.54 181.036C198.252 180.796 198.084 180.484 198.036 180.1L198.432 179.488C198.576 179.488 198.804 179.536 199.116 179.632C199.476 179.704 199.752 179.74 199.944 179.74C200.376 179.74 200.76 179.548 201.096 179.164C201.456 178.78 201.72 178.276 201.888 177.652C202.2 176.5 202.356 175.468 202.356 174.556C202.356 172.972 201.852 171.304 200.844 169.552L200.448 168.868C199.992 168.076 199.608 167.368 199.296 166.744C198.984 166.12 198.72 165.448 198.504 164.728C198.216 163.792 198.072 162.856 198.072 161.92C198.072 160.864 198.312 159.76 198.792 158.608C199.032 158.056 199.368 157.612 199.8 157.276C200.256 156.916 200.76 156.736 201.312 156.736C201.744 156.736 202.14 156.88 202.5 157.168C202.884 157.432 203.076 157.756 203.076 158.14C203.076 158.356 202.992 158.524 202.824 158.644C202.656 158.764 202.452 158.824 202.212 158.824C201.948 158.824 201.696 158.752 201.456 158.608C200.928 158.632 200.508 159.1 200.196 160.012C199.932 160.852 199.8 161.548 199.8 162.1C199.8 162.796 199.908 163.504 200.124 164.224C200.34 164.92 200.616 165.556 200.952 166.132L201.744 167.572L203.004 169.948C203.34 170.62 203.604 171.4 203.796 172.288C204.012 173.176 204.12 174.076 204.12 174.988C204.12 176.452 203.784 177.844 203.112 179.164C202.776 179.836 202.296 180.376 201.672 180.784C201.072 181.192 200.4 181.396 199.656 181.396V181.504Z" fill="#FFB33D"/>
</g>
<defs>
<clipPath id="clip0_5_16">
<rect width="454.198" height="257" fill="white" transform="translate(0.198242)"/>
</clipPath>
</defs>
</svg>
