<svg width="455" height="257" viewBox="0 0 455 257" fill="none" xmlns="http://www.w3.org/2000/svg">
<rect width="454.198" height="257" fill="#F5F5F5"/>
<path fill-rule="evenodd" clip-rule="evenodd" d="M286.971 107.876C284.121 108.058 281.248 107.983 278.396 107.893C278.115 107.884 277.443 107.753 277.272 107.921C277.075 108.114 277.117 109.181 277.084 109.445L276.345 115.448L276.005 118.205C275.973 118.466 275.654 119.596 275.806 119.822C276.084 120.235 278.071 120.329 278.594 120.43L284.83 121.632C285.417 121.746 286.916 121.772 287.188 122.236C287.361 122.531 287.256 123.329 287.276 123.663L287.446 126.422C287.668 130.034 287.89 133.647 288.112 137.26L301.352 136.194L304.573 135.935C304.829 135.915 305.365 135.968 305.573 135.827C306.029 135.518 306.418 134.196 306.664 133.721L308.544 130.089L310.356 126.588C310.511 126.29 310.897 125.791 310.887 125.465C310.876 125.097 310.328 124.438 310.157 124.124L308.651 121.358L301.195 107.663C301.069 107.432 300.787 106.59 300.541 106.463C300.062 106.215 298.388 106.714 297.872 106.773C294.247 107.187 290.613 107.643 286.971 107.876" fill="#FFB33D"/>
<path fill-rule="evenodd" clip-rule="evenodd" d="M244.933 100.034L247.576 103.173C249.912 100.286 252.248 97.3999 254.585 94.5133L251.071 92.9413C250.032 92.4764 250.164 92.6976 249.507 93.6193L244.933 100.034ZM289.986 168.125L289.975 172.688L303.916 172.001L303.283 170.087C303.118 169.588 302.91 168.082 302.509 167.747C302.071 167.382 300.145 167.759 299.557 167.78L289.986 168.125ZM278.915 52.9827L262.628 63.2833L266.223 67.4934C266.511 67.8297 266.562 68.0425 266.89 68.0098C267.272 67.9717 267.915 67.3713 268.233 67.1726L279.779 59.9788L283.272 57.8018L278.915 52.9827ZM405.054 106.647C404.857 105.051 404.054 103.429 403.465 101.95C402.772 100.209 402.042 98.4816 401.295 96.7627C400.821 95.6744 400.65 95.942 399.412 95.9906C397.966 96.0469 396.519 96.1038 395.073 96.1605L398.414 108.302C398.607 109.003 398.918 111.629 399.526 111.984C399.736 112.107 400.462 111.948 400.701 111.94L402.748 111.863L405.529 111.758C405.4 110.053 405.262 108.345 405.054 106.647Z" fill="black"/>
<path fill-rule="evenodd" clip-rule="evenodd" d="M313.203 209.124C310.714 208.494 308.007 209.091 305.5 209.109C304.023 209.119 302.549 209.02 301.073 209.097C300.578 209.122 298.316 209.056 298.239 209.354C298.18 209.583 298.629 210.159 298.804 210.253C299.292 210.52 299.636 210.178 300.129 210.051C301.464 209.706 303.026 209.918 304.399 209.853C305.835 209.784 307.271 209.699 308.707 209.633C310.137 209.567 311.963 209.864 313.203 209.124ZM191.291 80.0042C191.1 79.5662 191.022 78.8713 190.583 78.597C190.177 78.3428 189.325 78.5286 188.856 78.5219C187.857 78.5084 185.689 78.5471 185.037 79.457C184.244 80.5628 186.577 81.3518 187.355 81.3304C188.707 81.2939 189.937 80.2541 191.291 80.0042ZM216.143 66.1208C216.246 65.8406 215.885 65.6554 215.624 65.5663C214.96 65.3392 214.523 65.7168 213.939 66.0011C212.464 66.7185 210.86 67.1928 209.308 67.711C207.957 68.1622 206.704 68.7946 205.379 69.3026C204.44 69.6628 202.458 69.5925 201.917 70.5016C200.849 72.2969 203.646 70.9503 204.14 70.7762C205.554 70.2769 207.059 69.9691 208.446 69.3985C209.781 68.8493 211.141 68.2908 212.462 67.696C213.064 67.4247 213.664 67.1941 214.278 66.9574C214.853 66.7357 215.532 66.179 216.143 66.1208ZM256.512 97.237C256.16 97.0207 254.715 95.8131 254.23 95.9723C253.851 96.0971 253.427 97.4842 253.19 97.8484C252.007 99.6722 250.731 101.421 249.463 103.184L251.152 104.093C252.3 101.37 254.513 99.3324 256.512 97.237M278.417 106.97C280.229 106.974 282.024 106.747 283.834 106.772C285.862 106.801 287.854 106.856 289.88 106.69C291.874 106.527 293.859 106.518 295.853 106.397C296.48 106.359 299.972 106.092 297.926 105.093C297.238 104.756 296.411 105.175 295.663 105.326C294.797 105.502 293.923 105.567 293.048 105.672C292.213 105.773 291.327 106.051 290.486 106.031C289.603 106.009 288.94 105.851 288.053 105.979C286.213 106.244 284.382 106.095 282.543 105.925C281.275 105.807 278.492 105.093 278.417 106.97ZM327.724 210.252C328.891 209.31 330.735 209.718 332.121 209.418C333.651 209.086 332.446 207.463 331.859 206.599C331.248 205.697 330.327 203.896 329.299 205.23C328.225 206.623 328.098 208.588 327.724 210.252ZM291.016 169.345C290.977 170.191 290.559 171.062 291.438 171.352C292.282 171.631 293.73 171.207 294.604 171.132C295.744 171.033 296.865 170.845 298.001 170.727C298.508 170.675 299.018 170.636 299.528 170.683C299.879 170.715 300.726 171.097 301.04 170.939C301.425 170.745 301.612 169.698 301.297 169.294C300.956 168.856 298.894 169.29 298.156 169.346C295.752 169.529 293.41 169.237 291.016 169.345ZM290.869 166.63C291.976 166.173 293.29 166.387 294.455 166.381C295.827 166.374 297.182 166.449 298.549 166.538C299.155 166.577 300.92 167.026 301.428 166.638C301.695 166.435 301.791 164.688 301.564 164.42C301.195 163.983 300.036 164.509 299.561 164.58C298.289 164.769 296.991 164.764 295.708 164.753C294.507 164.742 293.302 164.688 292.102 164.685C290.679 164.682 290.872 165.41 290.869 166.63ZM252.802 95.0173C252.35 94.7549 250.866 93.5492 250.311 93.7323C249.84 93.8879 249.339 95.3271 249.058 95.7791C248.521 96.6406 247.954 97.4853 247.398 98.3345C247.042 98.8774 246.095 99.8584 246.257 100.592C246.343 100.983 247.132 101.658 247.531 101.54C247.942 101.417 248.619 99.8858 248.848 99.5836C250.083 97.9499 251.635 96.7206 252.802 95.0173ZM396.69 96.7864C398.273 99.8936 398.477 103.407 399.335 106.742C399.535 107.518 399.843 108.284 400.012 109.065C400.107 109.5 399.933 110.245 400.176 110.615C400.785 111.542 403.602 111.248 404.21 110.432C404.567 109.953 404.289 109.456 404.137 108.958C403.932 108.286 404.031 107.7 403.912 107.03C403.674 105.685 402.464 104.329 401.889 103.088C401.262 101.732 400.974 100.101 400.076 98.8906C399.474 98.0806 397.788 96.4087 396.69 96.7864ZM293.433 217.995C295.552 217.716 298.885 217.085 298.774 214.235C298.664 211.401 294.953 210.898 292.887 210.649C292.282 210.577 292.216 210.542 291.601 210.909C291.179 211.161 290.758 211.431 290.364 211.725C289.597 212.299 288.728 213.08 288.565 214.08C288.149 216.621 291.574 217.77 293.433 217.995ZM281.322 57.0266C282.283 57.1286 281.004 56.1933 280.762 56.08C280.026 55.7365 279.209 55.7987 278.428 55.9294C276.538 56.2456 274.866 57.8337 273.251 58.8158C271.541 59.8553 269.854 61.0309 268.071 61.9381C267.256 62.3533 266.582 62.7057 265.904 63.3246C265.559 63.6402 265.439 63.8593 264.975 63.859C264.718 63.859 264.144 63.257 263.87 63.6054C263.106 64.5775 266.959 64.8921 267.361 64.8263C269.37 64.4972 271.113 63.7342 272.836 62.6992C274.596 61.6431 276.465 60.7856 278.234 59.7573C278.999 59.3126 279.654 58.7232 280.351 58.195C280.451 58.1193 280.631 57.8643 280.732 57.7674C280.894 57.8152 281.03 57.7731 281.139 57.6413C281.196 57.4352 281.257 57.2303 281.321 57.0266M320.185 209.15C318.231 209.845 315.037 210.385 314.12 212.68C313.082 215.279 317.75 217.133 319.581 217.274C321.506 217.422 324.926 216.642 325.194 214.247C325.348 212.868 324.256 211.988 323.236 211.3C322.193 210.597 320.704 210.446 320.185 209.15M195.154 64.3783C193.772 64.5372 192.834 64.6736 191.733 65.5708C190.82 66.3156 190.068 67.068 189.696 68.217C188.836 70.8722 190.962 73.152 193.692 72.8428C193.994 72.8087 194.288 72.6973 194.593 72.7279C194.874 72.7564 195.07 72.958 195.308 72.9985C195.867 73.0935 195.975 72.9953 196.434 72.5597C197.37 71.6705 198.31 70.6938 198.828 69.494C200.077 66.6047 198.199 64.4301 195.154 64.3783ZM226.557 58.8445C226.691 55.8543 222.144 55.3628 220.047 55.5902C217.666 55.8486 213.761 58.2683 214.667 61.237C215.465 63.8499 219.968 63.6507 221.913 63.1196C222.33 63.006 222.977 62.7594 223.386 62.8428C224.002 62.9676 224.031 63.4746 224.611 63.0157C224.976 62.7272 225.305 61.8868 225.562 61.4729C226.075 60.6484 226.34 59.7885 226.557 58.8445ZM290.468 181.647C290.405 182.287 290.161 183.11 290.85 183.415C291.275 183.604 292.456 183.397 292.883 183.413C294.667 183.476 296.498 183.334 298.271 183.476C298.795 183.518 300.362 184.05 300.828 183.693C301.284 183.344 300.928 182.252 300.898 181.763C300.774 179.769 301.041 177.831 301.127 175.847C301.15 175.314 301.369 174.02 300.961 173.626C300.465 173.145 299.362 173.423 298.77 173.483C296.924 173.67 295.024 173.944 293.167 173.948C292.658 173.949 291.529 173.587 291.087 173.778C290.408 174.071 290.568 175.094 290.531 175.747C290.417 177.716 290.342 179.677 290.468 181.647ZM248.947 92.3618C246.525 90.5662 244.015 88.8632 241.594 87.117C240.732 86.4954 240.091 85.6078 239.283 85.0013C238.776 84.6201 238.622 84.4545 237.929 84.8222C237.129 85.2474 236.385 85.9149 235.646 86.4423C235.026 86.8851 234.403 87.3242 233.782 87.7652C233.207 88.1737 233.014 88.2666 233.422 88.9451C234.139 90.1392 235.629 91.2166 236.603 92.1986C239.007 94.6217 241.355 97.1288 244.056 99.2221C244.984 96.5107 246.905 94.3058 248.947 92.3618ZM276.091 50.5078C271.887 48.8448 271.569 43.2149 270.099 39.6264C269.643 42.083 270.851 46.0757 268.812 48.005C267.558 49.1913 266.832 47.517 266.158 46.6058C265.133 45.2182 264.032 43.8912 263.053 42.4685C263.354 44.1851 264.215 46.1117 264.054 47.8574C263.928 49.2278 263.053 51.105 261.779 49.551C260.904 48.4838 259.785 47.4854 258.765 46.5387C257.539 45.4007 256.14 44.6653 254.807 43.695C255.323 46.2623 256.307 48.541 257.757 50.7137C258.501 51.8286 259.316 52.8992 260.018 54.0415C260.592 54.9755 260.863 56.1366 261.624 56.93C262.334 57.6708 263.379 58.2626 264.23 58.8319C265.441 59.6425 265.731 59.4116 266.845 58.6416C269.002 57.1509 271.343 55.9574 273.513 54.4855C273.112 53.9538 272.47 53.4285 272.491 52.7046C272.508 52.1187 272.956 51.5854 273.556 51.6555C274.026 51.7105 274.243 52.203 274.766 52.0369C275.208 51.8962 275.812 50.8401 276.091 50.5078ZM420.84 95.3421C418.892 95.5721 417.073 96.267 415.077 96.1403C414.269 96.0891 413.666 96.2383 413.311 95.4264C413.027 94.7779 413.317 93.7924 412.427 93.6158C411.768 93.4851 410.951 94.0986 410.463 94.4457C409.586 95.0697 408.81 95.6234 407.817 96.0641C406.058 96.8454 404.272 97.5247 402.349 97.6101C402.815 99.0243 403.305 100.441 403.949 101.785C404.566 103.073 405.174 104.169 405.358 105.605C405.436 106.219 405.436 106.888 406.039 107.158C406.629 107.424 407.682 107.205 408.322 107.216C409.787 107.243 411.252 107.277 412.717 107.28C413.833 107.283 414.944 107.549 416.031 107.534C417.382 107.514 418.911 106.926 420.228 106.647C422.726 106.118 426.22 105.79 428.21 104.085C426.368 103.795 424.491 103.992 422.682 104.39C421.854 104.572 419.954 105.519 419.398 104.57C418.737 103.44 420.031 101.88 420.945 101.355C421.975 100.762 423.513 100.826 424.24 99.7573C422.868 99.8732 421.422 99.9239 420.096 100.328C419.08 100.637 417.768 101.519 417.366 99.9924C416.714 97.5185 419.141 96.3454 420.84 95.3421ZM275.462 116.519C275.806 113.245 276.438 109.935 276.494 106.639C276.518 105.215 274.91 105.47 273.785 105.065C272.15 104.477 270.547 103.781 268.941 103.117C267.34 102.455 265.731 101.818 264.125 101.17C262.666 100.582 261.267 99.6928 259.797 99.1703C258.996 98.8858 258.934 99.1636 258.469 99.8987C258.017 100.613 257.544 101.315 257.052 102.002C256.021 103.449 254.916 104.841 253.787 106.212C257.184 108.259 260.73 110.152 264.235 112.007C267.812 113.901 271.703 115.047 275.462 116.519ZM348.028 104.098C349.825 104.102 351.574 103.843 353.363 103.788C355.132 103.734 356.842 103.811 358.596 103.858C360.281 103.902 361.932 104.244 363.612 104.323C364.021 104.343 364.445 104.341 364.852 104.386C365.26 104.432 365.503 104.584 365.882 104.648C366.814 104.807 367.721 104.583 368.661 104.633C372.127 104.818 375.543 105.531 379.011 105.712C382.575 105.898 386.054 106.175 389.602 106.603C391.478 106.829 393.356 106.962 395.24 107.094C395.626 107.121 396.453 107.364 396.665 106.923C396.922 106.387 396.05 104.557 395.889 103.99C395.681 103.252 395.509 102.499 395.229 101.784C395.065 101.366 394.719 100.002 394.387 99.7369C393.923 99.3673 393.229 99.7224 392.688 99.8007C391.591 99.9594 390.475 100.054 389.371 100.163C387.738 100.325 386.103 100.711 384.471 100.76C382.628 100.815 380.795 100.736 378.955 100.667C375.269 100.529 371.493 100.601 367.826 100.224C363.589 99.7878 359.332 99.611 355.084 99.291C354.078 99.2151 353.068 99.196 352.06 99.1354C351.339 99.0924 349.868 98.5857 349.194 98.8205C348.51 99.0594 348.639 99.87 348.562 100.5C348.414 101.703 348.223 102.902 348.028 104.098ZM303.903 137.467C301.346 137.861 298.837 138.015 296.253 138.09C295.112 138.122 293.98 138.177 292.844 138.291C291.895 138.387 291.362 138.428 291.327 139.469C291.173 144.034 290.925 148.549 290.785 153.115C290.705 155.694 290.797 158.275 290.788 160.854C290.784 161.833 290.584 162.538 291.658 162.653C292.964 162.791 294.334 162.609 295.647 162.621C296.856 162.633 298.066 162.663 299.275 162.689C300.051 162.706 301.49 163.093 301.751 162.152C301.834 161.851 301.684 161.322 301.692 160.989C301.707 160.37 301.783 159.745 301.82 159.125C301.906 157.705 301.968 156.283 302.054 154.863C302.407 149.043 303.355 143.272 303.903 137.468M274.625 65.0201C276.312 66.3154 278.23 67.2067 280.033 68.3396C280.898 68.8829 281.732 69.4656 282.579 70.0348C283.45 70.6208 284.462 70.9758 285.285 71.6264C286.878 72.8863 288.849 73.6888 290.599 74.7817C292.378 75.8926 294.15 77.0051 295.969 78.0487C296.774 78.5103 297.653 78.7881 298.479 79.2047C299.468 79.7042 300.366 80.3588 301.369 80.8357C303.515 81.858 305.659 82.8812 307.797 83.9231C311.993 85.9683 316.295 87.8576 320.578 89.7106C321.491 90.1054 322.451 90.2788 323.413 90.512C323.868 90.6221 324.444 90.6792 324.854 90.898C324.981 90.9661 325.116 90.9758 325.217 91.0901C325.41 91.3097 325.246 91.617 325.365 91.7802C326.032 92.6944 327.885 90.1255 328.316 89.5031C328.981 88.5412 328.711 88.3855 327.683 87.9867C326.647 87.5841 325.601 87.2043 324.576 86.7743C322.688 85.982 320.757 85.0855 318.953 84.115C317.076 83.1053 315.122 82.2716 313.266 81.2185C311.183 80.0375 309.117 78.8324 307.012 77.693C303.458 75.771 300.194 73.3477 296.742 71.2614C294.836 70.1097 293.045 68.739 291.201 67.4708C289.401 66.2332 287.695 64.8513 285.857 63.695C284.846 63.0589 283.795 62.5296 282.85 61.7947C282.144 61.2461 281.439 60.6828 280.554 61.1436C279.598 61.6415 278.695 62.4786 277.766 63.0568C276.718 63.7095 275.672 64.3655 274.625 65.0201ZM352.922 86.4418C352.375 86.1548 350.365 85.3894 351.309 84.4513C351.98 83.7838 353.568 84.6709 354.219 84.8915C354.206 83.9687 354.207 83.3321 353.91 82.4523C353.612 81.5682 353.695 80.8996 354.421 80.2294C354.754 79.9229 355.959 79.6585 356.098 79.2565C356.316 78.6316 355.235 78.8297 354.866 78.7425C352.916 78.2808 353.034 76.2346 352.985 74.6679C352.928 72.8259 352.497 71.0548 351.076 69.8577C350.433 69.3169 350.202 69.3161 349.41 69.6712C349.119 69.8019 348.856 70.0126 348.534 70.0705C348.079 70.1524 347.774 69.8558 347.369 69.8757C346.742 69.9068 346.101 70.9458 345.491 71.2778C344.7 71.7078 343.921 71.5795 343.14 71.8871C342.444 72.1608 341.772 72.9029 341.124 73.2978C340.241 73.8354 340.442 74.3628 340.499 75.4192C340.546 76.3003 340.518 76.8785 339.652 77.2054C339.373 77.3108 338.882 77.2633 338.644 77.433C338.293 77.6834 338.483 77.8715 338.371 78.2905C338.084 79.3499 337.477 78.7033 336.702 78.5616C335.758 78.3893 334.719 79.056 335.212 80.07C335.388 80.4329 335.767 80.7632 336.146 80.8762C336.594 81.0096 337.153 80.6422 337.567 80.8081C338.621 81.2311 337.779 82.2333 337.829 82.9161C338.469 82.5685 338.686 81.5719 339.348 82.6767C339.826 83.4749 339.636 84.6878 339.517 85.5593C339.242 87.576 338.624 90.0463 337.314 91.664C337.125 91.8969 336.843 92.3347 336.488 92.2794C336.193 92.2338 336.158 91.8505 335.903 91.7525C335.356 91.5416 334.518 91.854 334.308 92.3613C333.954 93.2185 333.991 94.4763 333.963 95.3837C333.93 96.4283 333.808 97.6098 334.061 98.634C334.493 100.384 336.119 100.993 337.701 101.38C338.582 101.595 339.549 101.846 340.441 101.543C341.414 101.214 342.083 100.328 342.769 99.6139C343.285 99.0771 344.286 98.4657 344.353 97.6887C344.385 97.3253 344.126 96.8239 344.068 96.4517C343.974 95.8606 343.948 95.2635 343.963 94.6652C343.992 93.5669 344.299 92.4501 344.206 91.3516C344.109 90.2278 343.275 90.147 342.82 89.2814C342.55 88.765 342.486 87.9609 343.145 87.7851C343.527 87.6831 344.244 87.9738 344.658 88.0033C345.291 88.0484 345.931 88.0583 346.566 88.0645C347.734 88.0766 348.615 88.0164 349.673 87.507C350.761 86.9831 351.734 86.6562 352.922 86.4418ZM325.827 209.556C325.871 208.598 326.004 207.64 326.3 206.726C326.552 205.948 327.093 205.268 327.184 204.465C327.374 202.789 326.819 201.215 325.205 200.61C323.64 200.024 321.945 200.033 320.311 200.143C319.362 200.207 318.559 199.882 317.628 199.925C316.648 199.97 315.783 199.835 314.81 199.732C313.003 199.54 311.462 198.743 309.707 198.406C308.848 198.241 308.551 198.608 308.026 199.214C307.446 199.88 306.794 200.441 306.061 200.93C304.933 201.683 302.915 203.065 302.808 200.732C302.717 198.774 304.676 197.323 305.886 196.055C304.66 195.534 304.765 193.598 303.342 194.377C302.724 194.715 302.236 195.215 301.665 195.621C301.184 195.962 300.082 196.913 299.45 196.838C298.558 196.734 298.463 195.465 298.597 194.761C298.839 193.483 300.174 192.747 301.122 191.996C301.694 191.542 302.551 191.185 303.038 190.652C303.555 190.085 303.44 189.451 303.422 188.739C303.415 188.415 303.657 187.195 303.525 186.915C303.322 186.484 302.619 186.598 302.118 186.553C301.188 186.47 300.266 186.307 299.339 186.219C298.613 186.15 297.916 186.314 297.189 186.341C295.354 186.408 293.497 186.312 291.66 186.307C291.326 186.306 289.929 186.067 289.697 186.356C289.496 186.605 289.687 187.759 289.686 188.057C289.68 189.908 289.686 191.757 289.741 193.608C289.85 197.26 289.728 201.009 288.979 204.599C288.843 205.249 288.416 205.97 289.075 206.29C289.581 206.536 290.933 206.153 291.485 206.117C293.276 206 295.087 206.115 296.868 205.985C299.969 205.758 303.177 205.967 306.34 206.04C310.548 206.138 314.732 206.594 318.939 206.702C320.768 206.749 322.627 206.415 324.432 206.47C325.142 206.492 325.343 206.671 325.383 207.432C325.43 208.337 325.037 208.822 325.827 209.556ZM237.526 80.4205C235.91 77.6871 234.386 74.8996 232.771 72.1654C232.042 70.9307 231.223 69.757 230.409 68.578C229.992 67.9738 229.53 67.3635 229.212 66.6981C228.919 66.0888 228.832 65.3886 228.488 64.804C227.838 66.2443 226.441 67.0344 224.979 67.5497C223.843 67.9505 222.735 68.524 221.549 68.7715C218.45 69.4189 215.383 70.8135 212.341 71.8245C205.883 73.9712 198.978 75.15 192.76 77.9392C194.882 80.0418 194.223 84.5251 197.763 85.2031C199.172 85.4731 200.643 85.0394 201.991 84.6674C203.693 84.1981 205.397 83.7315 207.101 83.2674C208.95 82.7628 210.817 82.3715 212.681 81.9313C213.617 81.7102 214.559 81.5566 215.497 81.3575C216.279 81.1913 216.288 81.029 216.697 80.2919C217.39 79.0466 218.674 77.7722 219.761 79.4156C220.203 80.085 220.109 80.9251 220.497 81.5886C220.828 82.1549 221.536 82.4491 222.034 82.8318C222.379 81.8556 222.792 80.5332 223.555 79.7833C224.388 78.965 225.215 79.6234 225.515 80.585C225.875 81.7408 225.344 83.1469 225.112 84.2838C224.999 84.8394 224.783 85.4782 224.914 86.0483C225.087 86.8057 225.746 87.5865 226.139 88.2438C229.81 85.5045 233.56 82.7073 237.526 80.4205ZM309.296 126.441C308.22 124.982 307.084 123.689 306.277 122.055C305.415 120.309 304.717 118.427 303.797 116.725C302.884 115.035 302.043 113.312 301.209 111.577C300.627 110.366 299.965 107.458 298.298 107.53C297.466 107.567 296.616 107.867 295.779 107.949C294.797 108.046 293.811 108.041 292.83 108.161C290.679 108.424 288.585 108.895 286.414 109.022C284.549 109.132 282.659 109.188 280.791 109.107C280.282 109.085 278.958 108.688 278.486 108.915C277.935 109.18 278.119 110.215 278.073 110.744C277.897 112.735 277.629 114.727 277.327 116.702C277.275 117.039 276.755 118.721 276.988 119.006C277.346 119.445 278.889 119.151 279.391 119.19C281.375 119.343 283.324 119.797 285.3 120.016C286.303 120.127 287.306 120.153 288.314 120.157C289.293 120.16 290.722 119.89 291.65 120.225C292.248 120.441 292.587 120.949 292.394 121.597C292.181 122.31 291.49 122.469 290.849 122.603C290.379 122.701 289.016 122.646 288.72 123.079C288.399 123.547 288.96 124.43 289.119 124.874C289.422 125.725 289.25 126.091 289.227 126.924C289.203 127.8 289.71 128.571 289.643 129.458C289.577 130.324 289.541 131.016 289.625 131.899C289.699 132.675 289.648 133.525 289.756 134.279C290.008 136.023 293.776 134.968 294.945 134.942C297.362 134.888 299.789 135.279 302.197 135.163C302.905 135.129 304.548 135.258 305.047 134.656C305.554 134.046 305.634 132.654 305.961 131.899C306.813 129.927 308.084 128.198 309.296 126.441ZM330.817 87.6125C330.64 89.6365 330.542 91.1956 329.332 92.8989C328.039 94.7175 326.552 94.5546 324.511 94.7546C322.679 94.9341 321.242 95.5402 319.77 96.6245C318.04 97.8994 316.173 98.9585 314.329 100.056C310.82 102.144 306.636 102.721 302.652 103.342C301.65 103.498 299.801 103.947 300.98 105.135C302.247 106.413 302.956 108.299 303.808 109.897C305.76 113.563 307.256 117.5 309.482 121.01C310.382 122.429 311.458 124.14 312.838 125.141C314.149 126.091 316.78 124.327 318.114 123.743C319.847 122.984 321.667 122.409 323.3 121.472C324.824 120.599 326.375 119.846 327.976 119.126C329.549 118.421 331.072 117.718 332.719 117.202C334.656 116.596 336.704 116.381 338.673 115.852C340.692 115.311 342.286 114.737 343.918 113.396C344.677 112.774 345.601 112.151 345.906 111.167C346.219 110.161 345.989 108.877 345.941 107.845C345.892 106.766 345.724 105.661 345.746 104.582C345.768 103.494 346.301 102.64 346.623 101.63C347.131 100.034 347.709 97.142 346.1 96.0679C345.987 97.7722 345.387 99.3012 344.824 100.9C344.283 102.44 343.394 103.381 342.064 104.279C341.558 104.621 341.011 105.096 340.412 105.251C339.777 105.416 338.888 105.332 338.228 105.339C336.743 105.354 335.134 104.965 333.99 103.963C331.675 101.934 331.17 98.2982 331.394 95.414C331.522 93.7553 331.796 92.084 332.555 90.5874C332.816 90.0726 333.335 89.5235 333.046 88.9209C332.742 88.2902 331.384 87.908 330.817 87.6125ZM285.138 122.957C282.408 122.6 279.564 122.31 276.912 121.538C275.946 121.257 274.782 120.902 274.772 119.743C274.769 119.388 275.035 118.745 274.882 118.411C274.725 118.068 273.747 118.045 273.295 117.955C268.034 116.911 263.148 114.869 258.452 112.313C253.702 109.727 249.314 106.676 244.833 103.662C240.46 100.723 236.827 97.1323 233.193 93.3568C232.686 92.834 232.171 92.3194 231.648 91.8132C231.268 91.4423 230.74 90.687 230.24 90.4857C229.341 90.1239 228.084 91.4946 227.289 91.9029C226.255 92.4335 225.022 92.5137 224.339 91.395C223.889 90.6561 224.308 90.5211 224.372 89.8257C224.425 89.254 224.034 88.9301 223.691 88.532C223.426 89.1585 223.073 90.3048 222.171 90.1623C221.36 90.0345 221.271 88.9153 221.213 88.2773C221.145 87.5333 221.377 86.5883 220.874 85.9863C220.479 85.5126 219.706 85.1663 219.199 85.5955C218.18 86.4587 218.841 89.0296 217.403 89.6706C215.376 90.5737 215.574 86.4517 215.531 85.6277C210.992 86.1301 206.727 88.1147 202.183 88.7642C200.334 89.0286 198.199 88.9419 196.585 87.8852C195.101 86.9136 193.56 84.7763 192.925 83.1362C191.403 84.2656 189.812 85.1314 187.858 84.6276C185.871 84.1153 184.123 83.0119 183.394 81.0129C182.661 79.0066 182.873 77.4786 184.702 76.3462C185.451 75.8827 186.043 75.6556 186.866 75.4318C187.779 75.1841 188.934 75.0048 189.795 74.6124C188.908 73.3133 187.897 72.0411 187.494 70.4887C187.038 68.7382 187.266 66.7687 187.972 65.1135C189.248 62.1219 192.835 60.1205 196.067 60.8041C198.887 61.4007 200.883 63.8448 201.684 66.518C202.048 67.7333 201.728 68.4848 203.213 67.8275C204.9 67.0806 206.375 65.9818 208.117 65.3228C209.629 64.7512 211.276 64.2707 212.676 63.4494C213.401 63.0245 213.367 62.988 213.072 62.2083C212.705 61.24 212.478 60.3384 212.56 59.286C212.794 56.273 215.285 54.1371 217.951 53.1456C220.973 52.0218 224.721 52.4658 226.986 54.8945C228.086 56.0746 228.837 57.6254 228.933 59.2493C228.976 59.9691 228.547 61.0631 228.786 61.7266C228.994 62.3042 229.979 62.747 230.359 63.2988C230.961 64.1752 231.241 65.2238 231.839 66.1151C232.357 66.8868 232.882 67.6523 233.38 68.4379C234.591 70.3448 235.725 72.2988 236.715 74.3305C237.167 75.26 237.592 76.2029 238.007 77.1501C238.292 77.7996 238.527 78.9859 239.039 79.5037C239.556 80.0268 240.327 79.8593 240.771 80.5214C241.331 81.3551 240.8 82.0921 240.356 82.8184C243.728 83.8072 245.798 86.6651 248.496 88.7596C251.22 90.8735 254.21 92.7043 257.138 94.517C260.186 96.4039 263.178 98.2024 266.496 99.5737C269.588 100.851 272.577 102.357 275.66 103.651C276.093 103.833 276.429 104.073 276.857 103.792C277.252 103.531 277.331 102.69 277.745 102.35C278.792 101.487 281.254 101.965 282.501 101.946C284.298 101.918 286.121 101.816 287.916 101.909C288.524 101.94 289.112 102.183 289.707 102.103C290.62 101.98 291.473 101.793 292.422 101.754C293.213 101.722 294.002 101.664 294.794 101.692C295.17 101.706 295.805 101.867 296.142 101.611C296.562 101.292 296.309 100.528 296.596 100.064C296.782 99.7632 297.149 99.681 297.33 99.4438C297.307 99.4741 297.616 98.9392 297.531 99.0071C298.084 98.5699 299.632 98.4375 300.287 98.5935C300.475 98.6383 300.506 98.9566 300.744 98.9574C300.981 98.9582 300.999 98.7186 301.166 98.6614C301.34 98.6015 301.387 98.3608 301.619 98.3243C301.876 98.2837 302.204 98.5728 302.482 98.5889C302.796 98.6069 303.094 98.3992 303.386 98.3178C303.773 98.2105 304.072 98.2894 304.394 98.2513C304.982 98.1815 305.615 98.1152 306.226 98.0435C307.115 97.9394 307.98 97.6616 308.848 97.4504C309.227 97.3578 309.607 97.2499 309.999 97.2204C310.452 97.1855 311.041 97.3991 311.468 97.2982C311.833 97.212 311.536 97.0813 311.852 96.9716C312.195 96.8527 312.565 96.8202 312.912 96.6999C313.709 96.4235 314.445 95.9645 315.161 95.527C316.83 94.5071 318.323 93.2365 319.973 92.1895C319.596 91.6409 318.194 91.548 317.601 91.354C316.785 91.0869 315.984 90.7742 315.185 90.4586C313.37 89.7412 311.568 88.9888 309.767 88.2376C306.349 86.8124 302.913 85.4374 299.647 83.6888C296.579 82.0462 293.302 80.7665 290.26 79.0654C288.705 78.1971 287.171 77.2918 285.659 76.3502C284.257 75.4758 282.749 74.8794 281.297 74.0801C278.461 72.5181 275.856 70.5749 273.008 69.0458C272.336 68.6848 271.589 67.9204 270.864 67.7239C270.24 67.5548 269.607 67.9035 269.044 68.1477C268.447 68.4065 267.886 68.8313 267.216 68.8458C266.478 68.8619 265.634 68.4639 264.937 68.2226C263.643 67.7747 262.52 66.5328 262.049 65.2394C261.819 64.607 261.713 63.9046 261.628 63.2393C261.527 62.4507 261.793 61.5237 261.601 60.7738C261.236 59.3475 259.55 58.0082 258.608 56.985C257.437 55.7147 256.423 54.293 255.499 52.8356C253.433 49.5778 252 45.7134 253.151 41.8788C253.327 41.2942 253.64 40.3285 254.157 39.9396C254.874 39.3991 255.181 40.0298 255.801 40.343C256.572 40.7322 257.302 40.959 258.025 41.488C258.901 42.1287 259.621 42.9105 260.428 43.6271C260.432 41.9719 260.175 40.521 260.532 38.8631C260.715 38.0122 261.125 36.2427 262.206 36.0911C263.328 35.9335 264.132 37.9685 264.62 38.7109C265.527 40.0905 266.542 41.3849 267.551 42.6896C267.682 40.6656 267.414 35.8535 269.956 35.0575C272.234 34.3438 273.411 40.4888 273.963 41.864C274.478 43.147 275.2 44.4141 275.982 45.5537C276.801 46.7481 277.694 46.1396 278.963 46.1957C280.136 46.2475 280.664 47.0602 280.651 48.2122C280.635 49.6696 279.478 50.7346 278.677 51.8342C280.41 52.6727 282.653 53.7632 283.688 55.4898C283.917 55.8723 284.075 56.3114 284.089 56.7628C284.103 57.2092 283.695 58.0264 283.907 58.439C284.062 58.7406 284.584 58.8496 284.862 59.0141C285.437 59.3539 285.948 59.7936 286.517 60.1457C290.242 62.4547 293.745 65.2136 297.339 67.6512C300.585 69.8521 304.022 71.813 307.305 74.0128C311.479 76.8097 315.868 79.1896 320.336 81.489C321.366 82.0196 322.322 82.6088 323.311 83.2025C324.326 83.8117 325.537 84.2232 326.62 84.7162C327.38 85.0619 328.208 85.7195 329.004 85.9347C329.952 86.1911 330.352 85.184 331.456 85.4452C332.41 85.6704 333.448 85.7699 334.021 86.6288C334.523 87.3819 334.476 88.5339 335.284 89.0208C336.221 89.5847 336.484 88.98 336.701 88.1965C336.947 87.3049 337.643 86.2855 336.789 85.6438C335.982 85.0375 334.839 84.9707 333.895 84.7465C333.417 84.633 332.783 84.2186 332.327 84.181C331.758 84.1341 331.625 84.665 331.141 84.6658C330.884 84.6658 330.658 84.417 330.413 84.3378C330.358 84.3201 330.213 84.523 330.146 84.5042C329.907 84.4371 329.887 84.3568 329.654 84.261C328.821 83.9185 327.72 83.3788 327.971 82.3385C328.106 81.7802 329.02 80.8824 328.382 80.3706C327.783 79.8893 326.979 80.8929 326.648 79.8885C326.414 79.1751 326.986 78.9838 326.258 78.3965C325.724 77.9647 325.231 77.8474 325.527 77.0556C325.718 76.5456 326.708 75.7702 326.424 75.1553C326.022 74.2852 324.493 75.165 324.64 73.5927C324.746 72.4668 326.16 71.6538 326.169 70.5459C326.176 69.7528 325.425 69.7584 325.23 69.2431C325.037 68.7339 325.213 68.7358 325.495 68.3783C325.704 68.1126 325.84 68.0243 325.996 67.7113C326.186 67.3307 326.514 66.8379 326.39 66.3954C326.28 65.9973 325.814 65.7609 325.697 65.3199C325.256 63.6593 328.76 59.8862 329.653 62.1726C330.316 61.405 331.185 59.7979 332.356 59.9267C333.064 60.0045 332.761 60.2069 333.008 60.6165C333.186 60.9136 333.681 61.0647 333.821 61.3862C334.099 60.5231 333.804 58.9234 334.576 58.29C335.328 57.6727 335.801 58.7589 336.121 59.3633C336.326 58.793 336.459 57.7229 337.169 57.5184C337.928 57.2999 338.402 58.2513 338.772 58.7358C339.171 58.169 339.918 56.4976 340.779 56.7014C341.425 56.8541 341.744 57.9333 342.046 58.4314C342.753 57.9668 343.866 56.8482 344.781 56.9665C345.672 57.0814 345.593 57.9175 346.635 57.5755C347.39 57.3273 348.176 56.6681 348.977 56.6187C349.823 56.5666 350.27 57.1598 351.209 57.0159C352.205 56.8632 352.357 56.631 353.007 57.4453C353.328 57.8477 353.243 58.024 353.799 58.1083C354.27 58.1794 354.682 57.8681 355.175 58.0643C355.54 58.2092 355.795 58.5477 355.948 58.8955C356.129 59.3062 355.92 60.0182 356.1 60.3416C356.446 60.9632 357.757 60.4146 358.345 60.8462C359.138 61.4292 358.391 62.3138 358.814 62.9596C359.153 63.4779 360.109 63.3461 360.489 64.0455C360.834 64.679 360.753 65.5166 360.353 66.1039C360.185 66.3505 359.713 66.5548 359.602 66.7784C359.374 67.2389 359.565 67.1853 359.698 67.656C359.952 68.5562 359.749 68.896 359.056 69.512C358.655 69.8682 358.571 69.7659 358.544 70.3073C358.523 70.7252 358.879 71.1125 358.813 71.58C358.705 72.3396 357.959 72.8171 357.734 73.5637C357.445 74.5249 356.654 75.0507 356.058 75.8419C356.763 76.2676 357.689 76.6203 358.031 77.419C358.404 78.2905 358.335 79.5308 358.07 80.4146C357.816 81.2619 357.273 81.8025 356.751 82.4748C356.115 83.2934 356.169 83.9427 356.13 84.9417C356.047 87.054 355.141 88.9719 353.072 89.6429C352.251 89.9089 351.51 90.3005 350.677 90.5485C349.659 90.8523 348.913 90.877 347.857 90.8169C347.196 90.7796 346.423 90.6371 346.193 91.3376C346.078 91.6879 346.12 93.0513 346.277 93.3624C346.545 93.8952 347.306 93.8243 347.764 94.2852C348.591 95.1158 348.357 95.8239 349.752 95.8432C354.271 95.9063 358.776 95.5571 363.295 95.8845C365.524 96.0461 367.705 96.4321 369.942 96.5453C372.405 96.6699 374.874 96.7115 377.334 96.8612C379.657 97.0024 381.93 97.307 384.265 97.1865C386.446 97.0741 388.54 96.9243 390.712 96.6833C391.455 96.6006 392.606 96.7193 393.131 96.1505C393.422 95.8351 393.489 95.2943 393.779 94.9473C394.047 94.6268 394.412 94.3949 394.741 94.1448C395.539 93.5382 396.292 92.9928 397.345 93.0127C398.267 93.0304 399.003 93.6976 399.755 94.1883C400.628 94.7581 400.989 95.0198 402.024 94.7989C403.056 94.5788 404.002 94.1711 405.008 93.871C407.131 93.2384 409.12 92.3285 411.054 91.2493C412.007 90.7176 412.678 90.3601 413.775 90.6803C414.9 91.0083 415.219 91.3312 415.233 92.5003C415.237 92.8715 415.096 93.5312 415.522 93.7457C415.831 93.9013 416.512 93.4671 416.775 93.353C417.935 92.849 419.074 92.324 420.287 91.956C421.394 91.62 422.515 91.322 423.626 91.0013C424.556 90.7329 425.796 90.3437 426.722 90.8438C429.063 92.106 425.619 95.3137 424.725 96.3808C425.84 96.1132 428.233 96.2659 428.82 97.4641C429.514 98.8823 428.123 100.288 427.337 101.319C428.437 101.821 430.658 101.389 430.968 102.968C431.228 104.294 429.851 105.629 428.953 106.404C426.63 108.411 423.026 109.817 419.957 109.843C419.179 109.85 418.42 109.698 417.646 109.661C417.079 109.634 416.567 109.83 416.017 109.831C415.241 109.832 414.553 109.679 413.752 109.789C412.83 109.915 411.914 110.07 410.988 110.175C410.128 110.271 409.267 110.36 408.405 110.427C407.836 110.472 406.979 110.346 406.45 110.537C405.767 110.784 405.966 111.032 405.911 111.69C405.842 112.498 405.433 113.229 404.838 113.768C402.677 115.726 398.997 115.256 397.911 112.381C397.647 111.682 397.997 111.317 397.898 110.687C397.798 110.053 397.208 110.074 396.631 110.032C394.875 109.901 393.096 109.889 391.333 109.767C387.919 109.532 384.403 109.053 380.991 109.134C377.429 109.219 373.846 109.005 370.288 108.811C368.629 108.721 366.909 108.138 365.275 108.264C363.54 108.397 361.697 108.023 359.952 107.841C356.052 107.436 351.699 107.318 348.096 105.696C348.38 109.607 348.854 113.577 345.684 116.494C344.355 117.716 342.686 119.116 340.945 119.637C338.741 120.298 336.512 120.874 334.263 121.364C330.015 122.291 325.794 124.509 321.962 126.501C320.159 127.438 318.044 127.804 316.089 128.329C315.159 128.579 314.11 128.909 313.134 128.874C312.172 128.84 311.504 128.185 310.655 127.795C309.843 129.711 308.746 131.465 307.928 133.356C307.523 134.294 307.203 135.292 306.731 136.199C306.37 136.891 305.788 137.262 305.733 138.064C305.599 140.011 305.954 142.042 305.859 144.011C305.755 146.159 305.422 148.338 305.225 150.488C304.8 155.134 304.999 159.812 304.654 164.465C304.339 168.715 304.536 172.933 304.064 177.187C303.934 178.368 303.789 179.547 303.694 180.732C303.633 181.509 303.203 183.299 303.608 183.996C303.785 184.301 304.21 184.333 304.494 184.486C304.938 184.724 305.341 185.089 305.673 185.468C306.373 186.268 306.54 187.222 306.7 188.242C307.606 187.754 311.405 185.25 310.836 187.993C310.66 188.843 309.889 189.302 309.281 189.845C308.835 190.242 308.41 190.664 307.936 191.028C307.616 191.274 306.938 191.579 306.784 191.981C306.508 192.698 307.932 193.723 308.604 193.715C309.548 193.704 310.727 192.286 311.526 191.834C313.65 190.634 313.458 193.226 312.658 194.353C312.054 195.203 312.564 195.138 313.395 195.31C314.694 195.58 315.893 195.811 317.213 195.975C319.735 196.29 322.218 195.884 324.721 196.466C327.213 197.048 328.695 198.604 329.058 201.172C329.25 202.528 329.43 201.847 330.568 202.165C331.618 202.459 332.212 203.661 332.816 204.477C334.023 206.104 336.28 210.203 334.431 212.121C333.646 212.935 331.74 212.728 330.707 212.868C330.042 212.957 329.241 213.267 328.571 213.107C327.933 212.954 327.509 212.383 327.049 211.964C327.043 214.539 327.027 216.776 324.989 218.635C323.344 220.135 321.145 220.824 318.94 220.672C316.778 220.524 314.559 219.643 313.19 217.904C312.467 216.986 311.952 215.861 311.766 214.705C311.68 214.172 311.655 213.612 311.738 213.077C311.788 212.759 312.09 212.182 311.898 211.875C311.562 211.337 309.914 211.784 309.37 211.839C307.935 211.984 306.503 212.165 305.073 212.357C303.89 212.516 302.684 212.684 301.498 212.46C300.478 212.267 300.088 212.157 300.272 213.365C300.64 215.795 300.026 217.95 298.03 219.444C296.033 220.939 294.189 221.235 291.746 220.842C289.514 220.482 287.473 218.372 286.822 216.273C285.957 213.479 286.849 210.935 288.934 209.027C287.669 208.386 286.831 208.007 286.385 206.527C285.919 204.979 286.355 203.351 286.575 201.799C287.048 198.466 286.864 195.222 287.027 191.878C287.098 190.402 287.403 188.9 287.407 187.429C287.41 186.59 287.364 186.62 286.501 186.613C285.966 186.609 285.399 186.646 285.173 186.022C284.629 184.516 287.181 184.643 287.823 184.044C288.589 183.329 288.06 180.509 288.038 179.517C287.965 176.293 288.283 173.145 288.346 169.929C288.374 168.477 288.462 166.95 288.343 165.503C288.294 164.926 287.965 164.459 287.987 163.884C288.014 163.148 288.156 162.46 288.118 161.694C287.785 154.957 287.712 148.096 288.576 141.404C288.627 141.003 288.91 140.101 288.759 139.698C288.53 139.089 287.802 139.305 287.293 139.081C285.87 138.457 285.519 137.466 285.441 136.015C285.395 135.155 285.349 134.294 285.305 133.434C285.282 132.992 285.259 132.55 285.236 132.108C285.208 131.596 285.418 131.02 285.406 130.59C285.402 130.452 285.342 130.246 285.341 130.164C285.177 130.083 285.112 129.964 285.148 129.807C285.141 129.659 285.165 129.512 285.219 129.375C285.228 129.458 285.12 128.9 285.111 128.95C285.126 128.873 285.405 128.421 285.377 128.366C285.247 128.109 284.97 128.421 284.878 127.943C284.801 127.542 285.062 127.071 284.975 126.602C284.741 125.349 284.961 124.225 285.138 122.957Z" fill="black"/>
<path fill-rule="evenodd" clip-rule="evenodd" d="M215.885 142.628C231.692 142.664 247.537 143.054 263.304 143.521C265.042 143.573 266.785 143.72 268.524 143.795C268.826 143.808 269.821 143.681 270.045 144.005C270.409 144.534 269.575 145.072 269.181 145.314C267.828 146.143 266.037 145.998 264.502 146.05C262.386 146.122 260.269 146.13 258.152 146.101C250.796 145.999 243.436 145.439 236.096 145.004C231.574 144.735 227.038 144.571 222.51 144.438C220.275 144.372 218.038 144.336 215.803 144.262C215.2 144.242 214.1 144.43 214.1 143.636C214.1 142.809 215.306 142.673 215.885 142.628ZM234.79 151.529C245.975 152.011 257.169 152.342 268.355 152.789C269.08 152.818 270.624 152.604 270.896 153.495C271.179 154.421 270 155.35 269.22 155.59C268.206 155.902 266.916 155.727 265.858 155.757C264.434 155.797 263.082 155.785 261.663 155.688C256.258 155.322 250.862 154.847 245.455 154.479C242.394 154.271 239.336 154.025 236.28 153.761C235.464 153.691 233.044 153.909 232.473 153.244C232.121 152.835 232.494 152.202 232.842 151.886C233.414 151.366 234.072 151.484 234.79 151.529M267.794 163.77C264.159 163.966 260.483 163.678 256.91 163.077C256.423 162.995 255.298 162.986 254.987 162.533C254.512 161.842 255.405 161.239 256.005 161.178C257.67 161.009 259.649 161.59 261.328 161.693C263.085 161.8 264.865 161.612 266.626 161.599C267.633 161.591 268.64 161.583 269.647 161.58C270.237 161.578 271.086 161.429 271.669 161.563C273.301 161.938 271.226 163.313 270.499 163.472C270.247 163.527 267.802 163.89 267.794 163.77ZM347.117 76.4729C347.141 76.0462 347.031 74.9669 347.558 74.7645C348.588 74.37 348.52 76.8997 348.921 77.2558C350.393 78.5616 349.996 73.5305 351.399 75.1532C352.539 76.4716 351.624 79.6483 350.02 80.2409C348.839 80.6774 348.035 79.8375 347.576 78.8649C347.565 78.8423 346.927 76.4624 347.117 76.4729ZM348.451 70.7131C349.161 70.5778 350.086 71.3167 349.651 72.0323C349.333 72.5556 347.176 73.367 346.592 73.3807C345.875 73.3976 345.935 72.8264 346.165 72.2451C346.523 71.335 347.479 70.7029 348.451 70.7131ZM218.926 59.2503C219.145 58.3399 219.467 57.2615 220.543 58.1392C221.266 58.7286 221.794 60.1825 221.867 61.0915C221.954 62.1807 221.357 62.7344 220.392 62.1235C219.412 61.5038 219.039 60.3612 218.926 59.2503ZM195.601 70.6978C195.251 73.1322 193.094 70.8666 193.191 69.3816C193.241 68.6086 193.684 67.9751 194.523 68.4389C195.275 68.8542 195.537 69.946 195.601 70.6978ZM318.394 212.972C318.555 212.367 318.59 211.123 319.288 210.858C320.321 210.466 320.769 212.185 320.804 212.877C320.841 213.627 320.58 215.22 319.507 215.087C318.628 214.979 318.57 213.628 318.394 212.972ZM292.388 213.937C292.585 213.197 292.624 211.86 293.512 211.636C294.489 211.389 294.789 212.724 294.801 213.478C294.812 214.183 294.418 216.009 293.421 215.895C292.654 215.808 292.552 214.534 292.388 213.937Z" fill="black"/>
<path d="M55.744 97.568C54.208 97.952 52.448 98.144 50.464 98.144C47.136 98.144 44.688 97.344 43.12 95.744C42.544 95.168 42.08 94.424 41.728 93.512C41.392 92.584 41.224 91.456 41.224 90.128C41.224 88.8 41.48 87.576 41.992 86.456C42.52 85.32 43.232 84.424 44.128 83.768C45.904 82.456 48.016 81.8 50.464 81.8L55.408 82.016L55.552 86.384H54.784L53.968 83.24C53.104 82.872 52.08 82.688 50.896 82.688C48.96 82.688 47.352 83.328 46.072 84.608C44.808 85.872 44.176 87.72 44.176 90.152C44.176 92.584 44.792 94.384 46.024 95.552C47.272 96.704 48.864 97.28 50.8 97.28C51.744 97.28 52.608 97.184 53.392 96.992V91.88L51.4 91.664V91.088H57.184V91.664L55.744 91.88V97.568ZM65.0097 98.264C63.3617 98.264 62.0337 97.704 61.0257 96.584C60.0177 95.464 59.5137 93.984 59.5137 92.144C59.5137 90.304 60.0417 88.824 61.0977 87.704C62.1697 86.584 63.5137 86.024 65.1297 86.024C66.7457 86.024 67.9537 86.392 68.7537 87.128C69.5537 87.848 69.9537 88.856 69.9537 90.152C69.9537 90.536 69.9217 90.92 69.8577 91.304H62.1057V92.144C62.1057 93.936 62.3617 95.296 62.8737 96.224C63.3857 97.136 64.2257 97.592 65.3937 97.592C67.0417 97.592 68.3137 96.872 69.2097 95.432C69.5617 95.544 69.7377 95.712 69.7377 95.936C69.7377 96.336 69.3697 96.8 68.6337 97.328C68.2817 97.584 67.7857 97.808 67.1457 98C66.5057 98.176 65.7937 98.264 65.0097 98.264ZM67.6737 89.648C67.6737 88.912 67.5217 88.28 67.2177 87.752C66.8017 87.048 66.1297 86.696 65.2017 86.696C63.4737 86.696 62.4657 87.944 62.1777 90.44H67.6257C67.6577 90.168 67.6737 89.904 67.6737 89.648ZM79.8505 95.504C79.8505 95.552 79.8425 95.608 79.8265 95.672C79.5705 96.456 79.1385 97.088 78.5305 97.568C77.9385 98.032 77.2425 98.264 76.4425 98.264C75.6425 98.264 74.9705 98.04 74.4265 97.592C73.8985 97.128 73.6345 96.232 73.6345 94.904C73.6345 94.536 73.6745 91.872 73.7545 86.912H72.0985V86.288H73.7785L73.8025 82.76H76.1545L76.0825 86.288H79.5145V86.912H76.0825C76.0025 92.08 75.9625 95.104 75.9625 95.984C75.9625 97.056 76.3145 97.592 77.0185 97.592C77.4505 97.592 77.8985 97.344 78.3625 96.848C78.8425 96.352 79.1785 95.792 79.3705 95.168C79.6905 95.168 79.8505 95.28 79.8505 95.504ZM100.928 85.976C100.928 86.872 100.736 87.64 100.352 88.28C99.9676 88.92 99.4476 89.408 98.7916 89.744C97.5596 90.352 96.0876 90.656 94.3756 90.656C93.9596 90.656 93.3996 90.624 92.6956 90.56V97.304L94.5436 97.424V98H88.4236V97.424L90.2236 97.304V82.76L88.1356 82.496V81.92H92.6236L95.4796 81.848C99.1116 81.848 100.928 83.224 100.928 85.976ZM93.7516 89.912C95.2076 89.912 96.3276 89.56 97.1116 88.856C97.8956 88.152 98.2876 87.208 98.2876 86.024C98.2876 84.824 98.0076 83.952 97.4476 83.408C96.8876 82.848 95.9916 82.568 94.7596 82.568C94.2156 82.568 93.5276 82.6 92.6956 82.664V89.864C92.9356 89.896 93.2876 89.912 93.7516 89.912ZM105.103 95.408C105.103 96.448 105.527 97.064 106.375 97.256C106.567 97.304 106.751 97.328 106.927 97.328C107.535 97.328 108.167 97.072 108.823 96.56C109.479 96.032 109.823 95.328 109.855 94.448V92.384C106.687 92.416 105.103 93.424 105.103 95.408ZM106.063 98.288C105.151 98.288 104.367 98.04 103.711 97.544C103.071 97.032 102.751 96.32 102.751 95.408C102.767 94.176 103.383 93.256 104.599 92.648C105.831 92.04 107.583 91.736 109.855 91.736V89.672C109.855 87.64 109.119 86.624 107.647 86.624C106.895 86.624 106.287 86.936 105.823 87.56C105.503 87.992 105.343 88.528 105.343 89.168C105.343 89.44 105.375 89.728 105.439 90.032C105.215 90.192 104.983 90.272 104.743 90.272C104.519 90.272 104.295 90.224 104.071 90.128C103.559 89.936 103.303 89.568 103.303 89.024C103.303 88.288 103.567 87.68 104.095 87.2C104.959 86.416 106.151 86.024 107.671 86.024C109.191 86.024 110.295 86.352 110.983 87.008C111.671 87.648 112.015 88.664 112.015 90.056V97.328L114.031 97.424L114.055 97.976L110.047 98.264L109.831 96.128C109.095 97.568 107.839 98.288 106.063 98.288ZM119.615 82.376C119.615 82.76 119.479 83.096 119.207 83.384C118.935 83.656 118.591 83.792 118.175 83.792C117.775 83.792 117.439 83.656 117.167 83.384C116.895 83.112 116.759 82.776 116.759 82.376C116.759 81.96 116.895 81.616 117.167 81.344C117.439 81.056 117.775 80.912 118.175 80.912C118.575 80.912 118.911 81.056 119.183 81.344C119.471 81.632 119.615 81.976 119.615 82.376ZM115.535 98V97.424L117.119 97.304V87.104L115.007 87.032V86.48L119.471 86.168V97.304L121.055 97.424V98H115.535ZM132.31 94.328V87.728C131.542 87.136 130.59 86.84 129.454 86.84C128.03 86.84 127.054 87.424 126.526 88.592C126.094 89.584 125.878 90.936 125.878 92.648C125.878 95.96 126.774 97.616 128.566 97.616C129.574 97.616 130.446 97.232 131.182 96.464C131.934 95.696 132.31 94.984 132.31 94.328ZM128.11 98.36C126.734 98.36 125.574 97.872 124.63 96.896C123.686 95.904 123.214 94.432 123.214 92.48C123.214 90.512 123.782 88.96 124.918 87.824C126.07 86.688 127.598 86.12 129.502 86.12C130.494 86.12 131.43 86.352 132.31 86.816V80.768L130.198 80.672L130.174 80.12L134.614 79.616V97.448L136.654 97.544L136.678 98.096L132.43 98.384L132.478 96.08H132.334C131.95 96.8 131.366 97.36 130.582 97.76C129.798 98.16 128.974 98.36 128.11 98.36ZM42.4 116.912H40.72V116.288H42.4V115.928C42.4 113.8 42.848 112.2 43.744 111.128C44.64 110.056 45.92 109.52 47.584 109.52C48.576 109.52 49.4 109.712 50.056 110.096C50.728 110.464 51.064 110.968 51.064 111.608C51.064 112.232 50.848 112.688 50.416 112.976C50.16 113.152 49.904 113.24 49.648 113.24C49.408 113.24 49.176 113.192 48.952 113.096C49.048 112.648 49.096 112.216 49.096 111.8C49.096 111.384 48.952 111.016 48.664 110.696C48.376 110.376 47.976 110.216 47.464 110.216C46.952 110.216 46.512 110.36 46.144 110.648C45.792 110.92 45.528 111.248 45.352 111.632C45.176 112 45.04 112.496 44.944 113.12C44.816 113.952 44.752 115.008 44.752 116.288H48.376V116.912H44.752V127.304L47.44 127.424L47.464 128H40.792L40.768 127.424L42.4 127.328V116.912ZM61.9501 122.144C61.9501 123.92 61.4141 125.384 60.3421 126.536C59.2701 127.688 57.8061 128.264 55.9501 128.264C54.1101 128.264 52.6541 127.688 51.5821 126.536C50.5101 125.384 49.9741 123.92 49.9741 122.144C49.9741 120.368 50.5101 118.904 51.5821 117.752C52.6541 116.6 54.1101 116.024 55.9501 116.024C57.8061 116.024 59.2701 116.6 60.3421 117.752C61.4141 118.904 61.9501 120.368 61.9501 122.144ZM52.5901 122.144C52.5901 125.84 53.7101 127.688 55.9501 127.688C58.2061 127.688 59.3341 125.84 59.3341 122.144C59.3341 120.352 59.0781 118.984 58.5661 118.04C58.0541 117.096 57.1901 116.624 55.9741 116.624C54.7581 116.624 53.8861 117.096 53.3581 118.04C52.8461 118.984 52.5901 120.352 52.5901 122.144ZM71.9309 116C72.3469 116 72.6749 116.104 72.9149 116.312C73.1549 116.504 73.2749 116.776 73.2749 117.128C73.2749 117.736 73.0429 118.136 72.5789 118.328C72.3229 118.12 71.8589 118.016 71.1869 118.016C70.5149 118.016 69.8669 118.24 69.2429 118.688C68.6349 119.12 68.3309 119.616 68.3309 120.176V127.304L70.4909 127.424V128H64.3949V127.424L65.9789 127.328V117.08L64.0829 116.984V116.432L68.3309 116.168L68.1869 119.12H68.2829C68.5549 118.256 69.0509 117.52 69.7709 116.912C70.5069 116.304 71.2269 116 71.9309 116ZM83.74 132.896C83.42 133.264 83.012 133.592 82.516 133.88C82.02 134.184 81.516 134.336 81.004 134.336C80.508 134.336 80.116 134.2 79.828 133.928C79.556 133.672 79.42 133.32 79.42 132.872C79.42 132.44 79.62 132 80.02 131.552C80.468 132.064 80.972 132.32 81.532 132.32C82.332 132.32 83.02 131.968 83.596 131.264C84.172 130.576 84.732 129.488 85.276 128L80.668 117.056L79.444 116.912V116.288H84.556V116.912L82.9 117.056L86.332 125.432L89.284 117.368L87.364 116.912V116.288H91.972V116.912L90.292 117.368L86.236 128C85.948 128.736 85.724 129.304 85.564 129.704C85.404 130.104 85.14 130.64 84.772 131.312C84.42 132 84.076 132.528 83.74 132.896ZM105.214 122.144C105.214 123.92 104.678 125.384 103.606 126.536C102.534 127.688 101.07 128.264 99.2138 128.264C97.3738 128.264 95.9178 127.688 94.8458 126.536C93.7738 125.384 93.2378 123.92 93.2378 122.144C93.2378 120.368 93.7738 118.904 94.8458 117.752C95.9178 116.6 97.3738 116.024 99.2138 116.024C101.07 116.024 102.534 116.6 103.606 117.752C104.678 118.904 105.214 120.368 105.214 122.144ZM95.8538 122.144C95.8538 125.84 96.9738 127.688 99.2138 127.688C101.47 127.688 102.598 125.84 102.598 122.144C102.598 120.352 102.342 118.984 101.83 118.04C101.318 117.096 100.454 116.624 99.2378 116.624C98.0218 116.624 97.1498 117.096 96.6218 118.04C96.1098 118.984 95.8538 120.352 95.8538 122.144ZM112.675 128.288C110.115 128.288 108.835 127.056 108.835 124.592C108.835 122.784 108.891 120.272 109.003 117.056L107.083 116.96V116.408L111.355 116.144C111.243 120.368 111.187 123.24 111.187 124.76C111.187 125.672 111.355 126.352 111.691 126.8C112.027 127.248 112.587 127.472 113.371 127.472C114.171 127.472 114.923 127.032 115.627 126.152C116.331 125.256 116.683 124.472 116.683 123.8V117.056L114.691 116.96V116.408L119.035 116.144V127.256L121.075 127.352L121.099 127.904L116.779 128.192L116.947 125.6H116.659C115.827 127.392 114.499 128.288 112.675 128.288ZM130.276 116C130.692 116 131.02 116.104 131.26 116.312C131.5 116.504 131.62 116.776 131.62 117.128C131.62 117.736 131.388 118.136 130.924 118.328C130.668 118.12 130.204 118.016 129.532 118.016C128.86 118.016 128.212 118.24 127.588 118.688C126.98 119.12 126.676 119.616 126.676 120.176V127.304L128.836 127.424V128H122.74V127.424L124.324 127.328V117.08L122.428 116.984V116.432L126.676 116.168L126.532 119.12H126.628C126.9 118.256 127.396 117.52 128.116 116.912C128.852 116.304 129.572 116 130.276 116ZM48.328 157.504C48.328 157.552 48.32 157.608 48.304 157.672C48.048 158.456 47.616 159.088 47.008 159.568C46.416 160.032 45.72 160.264 44.92 160.264C44.12 160.264 43.448 160.04 42.904 159.592C42.376 159.128 42.112 158.232 42.112 156.904C42.112 156.536 42.152 153.872 42.232 148.912H40.576V148.288H42.256L42.28 144.76H44.632L44.56 148.288H47.992V148.912H44.56C44.48 154.08 44.44 157.104 44.44 157.984C44.44 159.056 44.792 159.592 45.496 159.592C45.928 159.592 46.376 159.344 46.84 158.848C47.32 158.352 47.656 157.792 47.848 157.168C48.168 157.168 48.328 157.28 48.328 157.504ZM54.2153 144.376C54.2153 144.76 54.0793 145.096 53.8073 145.384C53.5353 145.656 53.1913 145.792 52.7753 145.792C52.3753 145.792 52.0393 145.656 51.7673 145.384C51.4953 145.112 51.3593 144.776 51.3593 144.376C51.3593 143.96 51.4953 143.616 51.7673 143.344C52.0393 143.056 52.3753 142.912 52.7753 142.912C53.1753 142.912 53.5113 143.056 53.7833 143.344C54.0713 143.632 54.2153 143.976 54.2153 144.376ZM50.1353 160V159.424L51.7193 159.304V149.104L49.6073 149.032V148.48L54.0713 148.168V159.304L55.6553 159.424V160H50.1353ZM73.63 148.12C76.19 148.12 77.47 149.352 77.47 151.816C77.47 153.592 77.414 156.088 77.302 159.304L79.006 159.424V160H73.654V159.424L74.95 159.328C75.062 155.104 75.118 152.544 75.118 151.648C75.118 150.736 74.95 150.056 74.614 149.608C74.278 149.16 73.734 148.936 72.982 148.936C72.23 148.936 71.534 149.256 70.894 149.896C70.254 150.52 69.822 151.192 69.598 151.912C69.598 153.64 69.542 156.104 69.43 159.304L71.134 159.424V160H65.782V159.424L67.078 159.328C67.19 155.104 67.246 152.544 67.246 151.648C67.246 150.736 67.078 150.056 66.742 149.608C66.406 149.16 65.822 148.936 64.99 148.936C64.174 148.936 63.406 149.376 62.686 150.256C61.966 151.12 61.606 151.888 61.606 152.56V159.304L63.406 159.424V160H57.694V159.424L59.254 159.328V149.152L57.214 149.056V148.504L61.51 148.216L61.39 150.688H61.63C62.062 149.84 62.638 149.2 63.358 148.768C64.094 148.336 64.894 148.12 65.758 148.12C67.918 148.12 69.166 148.984 69.502 150.712V150.688C69.934 149.84 70.51 149.2 71.23 148.768C71.966 148.336 72.766 148.12 73.63 148.12ZM86.6181 160.264C84.9701 160.264 83.6421 159.704 82.6341 158.584C81.6261 157.464 81.1221 155.984 81.1221 154.144C81.1221 152.304 81.6501 150.824 82.7061 149.704C83.7781 148.584 85.1221 148.024 86.7381 148.024C88.3541 148.024 89.5621 148.392 90.3621 149.128C91.1621 149.848 91.5621 150.856 91.5621 152.152C91.5621 152.536 91.5301 152.92 91.4661 153.304H83.7141V154.144C83.7141 155.936 83.9701 157.296 84.4821 158.224C84.9941 159.136 85.8341 159.592 87.0021 159.592C88.6501 159.592 89.9221 158.872 90.8181 157.432C91.1701 157.544 91.3461 157.712 91.3461 157.936C91.3461 158.336 90.9781 158.8 90.2421 159.328C89.8901 159.584 89.3941 159.808 88.7541 160C88.1141 160.176 87.4021 160.264 86.6181 160.264ZM89.2821 151.648C89.2821 150.912 89.1301 150.28 88.8261 149.752C88.4101 149.048 87.7381 148.696 86.8101 148.696C85.0821 148.696 84.0741 149.944 83.7861 152.44H89.2341C89.2661 152.168 89.2821 151.904 89.2821 151.648ZM104.265 159.328C104.265 160.24 103.905 161.096 103.185 161.896C102.465 162.696 101.849 163.208 101.337 163.432L100.953 162.904C101.465 162.632 101.897 162.24 102.249 161.728C102.601 161.216 102.809 160.68 102.873 160.12C102.713 160.216 102.481 160.264 102.177 160.264C101.873 160.264 101.617 160.136 101.409 159.88C101.201 159.608 101.097 159.256 101.097 158.824C101.097 158.376 101.249 158.024 101.553 157.768C101.873 157.512 102.265 157.384 102.729 157.384C103.193 157.384 103.561 157.544 103.833 157.864C104.121 158.184 104.265 158.672 104.265 159.328Z" fill="black"/>
<path d="M119.532 164C118.716 164 118.308 162.02 118.308 158.06L118.344 156.008L118.38 154.352V154.244V153.884C118.404 153.692 118.416 153.464 118.416 153.2C118.416 153.152 118.38 153.092 118.308 153.02C118.236 152.948 118.2 152.888 118.2 152.84V152.804C118.08 152.852 117.864 152.876 117.552 152.876C117.24 152.876 116.856 152.828 116.4 152.732C116.256 152.708 115.872 152.648 115.248 152.552V156.692C115.248 157.316 115.284 158.3 115.356 159.644C115.428 160.964 115.464 161.948 115.464 162.596C115.464 162.956 115.368 163.268 115.176 163.532C114.984 163.796 114.732 163.928 114.42 163.928C113.964 163.928 113.64 163.484 113.448 162.596C113.256 161.684 113.16 160.496 113.16 159.032L113.232 156.116C113.256 155.3 113.268 154.436 113.268 153.524V152.912V152.408C113.268 152.024 113.256 151.772 113.232 151.652V151.472L113.34 149.384C113.34 148.472 113.304 147.116 113.232 145.316C113.16 143.516 113.124 142.16 113.124 141.248C113.124 140.96 113.22 140.708 113.412 140.492C113.604 140.276 113.844 140.168 114.132 140.168C114.9 140.168 115.284 140.888 115.284 142.328L115.212 146.792C115.164 148.136 115.14 149.636 115.14 151.292C115.5 151.412 116.148 151.472 117.084 151.472H118.416C118.464 151.328 118.488 151.184 118.488 151.04C118.488 149.888 118.416 148.184 118.272 145.928C118.104 143.816 118.02 142.1 118.02 140.78C118.02 140.516 118.116 140.3 118.308 140.132C118.524 139.94 118.776 139.844 119.064 139.844C119.232 139.844 119.472 139.904 119.784 140.024L120.108 140.168C120.108 143.576 120.228 148.124 120.468 153.812L120.792 162.92C120.792 163.256 120.66 163.52 120.396 163.712C120.156 163.904 119.868 164 119.532 164ZM127.13 164.468C126.818 164.468 126.53 164.36 126.266 164.144C126.026 163.928 125.894 163.664 125.87 163.352V162.416V161.696C125.846 161.48 125.834 161.228 125.834 160.94C125.834 160.436 125.798 159.668 125.726 158.636L125.654 156.332C125.654 155.156 125.69 153.404 125.762 151.076C125.858 148.988 125.906 147.236 125.906 145.82C125.906 145.484 125.87 144.98 125.798 144.308C125.726 143.612 125.69 143.108 125.69 142.796C125.69 141.092 126.194 140.24 127.202 140.24C127.994 140.24 128.906 140.396 129.938 140.708C130.994 141.02 131.522 141.392 131.522 141.824C131.522 142.064 131.414 142.292 131.198 142.508C131.006 142.7 130.766 142.856 130.478 142.976C129.47 142.616 128.558 142.376 127.742 142.256C127.766 142.616 127.778 143.132 127.778 143.804C127.778 144.764 127.766 145.628 127.742 146.396C127.67 147.548 127.634 148.412 127.634 148.988L127.742 149.564L128.318 149.528C128.51 149.504 128.75 149.492 129.038 149.492C130.19 149.492 130.766 149.828 130.766 150.5C130.766 150.764 130.658 150.992 130.442 151.184C130.226 151.352 129.95 151.436 129.614 151.436C129.182 151.436 128.846 151.412 128.606 151.364H127.706C127.754 151.988 127.778 152.9 127.778 154.1C127.778 155.3 127.766 156.38 127.742 157.34C127.67 158.804 127.634 159.896 127.634 160.616C127.634 161.96 127.658 162.632 127.706 162.632L128.894 162.596C129.302 162.572 129.794 162.56 130.37 162.56C131.282 162.56 131.738 162.848 131.738 163.424C131.738 163.76 131.582 164.012 131.27 164.18C130.982 164.372 130.622 164.468 130.19 164.468H127.13ZM141.608 164.576C140.744 164.288 139.676 164.144 138.404 164.144C138.02 164.384 137.612 164.504 137.18 164.504C136.892 164.504 136.64 164.372 136.424 164.108C136.232 163.868 136.136 163.604 136.136 163.316C136.136 161.3 136.22 158.612 136.388 155.252C136.532 151.676 136.604 149 136.604 147.224V146.972C136.46 145.46 136.388 144.332 136.388 143.588C136.388 141.308 136.808 140.168 137.648 140.168C137.888 140.168 138.092 140.264 138.26 140.456C138.452 140.624 138.548 140.828 138.548 141.068C138.548 141.356 138.512 141.812 138.44 142.436C138.368 143.036 138.332 143.492 138.332 143.804C138.332 145.412 138.344 146.864 138.368 148.16C138.392 149.432 138.404 150.872 138.404 152.48C138.284 152.84 138.224 153.344 138.224 153.992V154.424L138.152 157.268C138.104 158.108 138.08 159.068 138.08 160.148C138.08 161.804 138.476 162.632 139.268 162.632C139.316 162.632 139.388 162.632 139.484 162.632C139.604 162.608 139.76 162.596 139.952 162.596C140.168 162.572 140.444 162.56 140.78 162.56C142.076 162.56 142.724 162.92 142.724 163.64C142.724 163.88 142.616 164.084 142.4 164.252C142.184 164.42 141.92 164.528 141.608 164.576ZM146.849 164.252C146.537 162.98 146.381 161.216 146.381 158.96L146.453 155.756C146.501 154.796 146.525 153.728 146.525 152.552C146.381 152.216 146.309 151.916 146.309 151.652V151.544C146.549 151.088 146.669 150.056 146.669 148.448L146.705 146.792C146.729 146.264 146.741 145.676 146.741 145.028C146.741 143.612 146.645 142.496 146.453 141.68C146.525 141.344 146.645 141.056 146.813 140.816C146.981 140.552 147.185 140.42 147.425 140.42H149.009C149.681 140.42 150.269 140.576 150.773 140.888C151.277 141.176 151.661 141.596 151.925 142.148C152.405 143.132 152.645 144.296 152.645 145.64C152.645 146.6 152.633 147.356 152.609 147.908C152.561 148.604 152.441 149.24 152.249 149.816C152.177 150.128 152.069 150.392 151.925 150.608C151.805 150.8 151.625 151.04 151.385 151.328C151.049 151.736 150.497 152.12 149.729 152.48C149.417 152.648 149.009 152.804 148.505 152.948V156.8L148.577 159.104L148.649 160.22C148.745 161.564 148.793 162.704 148.793 163.64C148.793 163.928 148.673 164.168 148.433 164.36C148.193 164.576 147.917 164.684 147.605 164.684L146.849 164.252ZM148.541 151.472C149.957 151.256 150.665 149.228 150.665 145.388C150.665 144.692 150.629 144.152 150.557 143.768C150.485 143.48 150.389 143.252 150.269 143.084C150.149 142.892 149.969 142.736 149.729 142.616C149.465 142.472 149.177 142.4 148.865 142.4C148.865 142.376 148.733 142.364 148.469 142.364V144.416C148.469 145.832 148.481 147.092 148.505 148.196C148.505 149.444 148.517 150.26 148.541 150.644V151.4V151.472ZM158.342 163.964C156.254 163.964 155.21 163.604 155.21 162.884C155.21 162.308 155.582 162.02 156.326 162.02H156.722L157.082 162.056C157.274 162.056 157.406 161.996 157.478 161.876C157.55 161.756 157.586 161.54 157.586 161.228C157.586 160.82 157.562 160.184 157.514 159.32C157.442 158.744 157.358 157.712 157.262 156.224C157.046 152.552 156.938 149.78 156.938 147.908C156.938 147.236 156.95 146.624 156.974 146.072L157.01 144.236C157.01 143.444 156.974 142.784 156.902 142.256C156.518 142.352 156.242 142.4 156.074 142.4C155.498 142.4 155.21 142.112 155.21 141.536C155.21 141.248 155.39 140.996 155.75 140.78C156.11 140.564 156.566 140.408 157.118 140.312C158.078 140.12 158.93 140.024 159.674 140.024C159.962 140.024 160.202 140.132 160.394 140.348C160.61 140.54 160.718 140.768 160.718 141.032C160.718 141.296 160.634 141.524 160.466 141.716C160.322 141.908 160.13 142.004 159.89 142.004C159.746 142.004 159.626 141.992 159.53 141.968H159.242C159.002 141.968 158.822 142.028 158.702 142.148C158.606 142.244 158.558 142.436 158.558 142.724C158.558 145.052 158.702 148.556 158.99 153.236C159.038 154.1 159.134 155.372 159.278 157.052C159.398 158.156 159.458 159.284 159.458 160.436V161.804C159.602 161.78 159.842 161.768 160.178 161.768C161.186 161.768 161.69 162.188 161.69 163.028V163.244L160.79 163.856C160.766 163.856 160.682 163.868 160.538 163.892C160.418 163.892 160.178 163.892 159.818 163.892C159.05 163.94 158.558 163.964 158.342 163.964ZM174.851 164.108C174.563 164.108 174.347 164.036 174.203 163.892C174.059 163.724 173.951 163.448 173.879 163.064L173.663 162.38V162.308V162.2C173.663 161.408 172.835 158.708 171.179 154.1C169.547 149.492 168.263 146.084 167.327 143.876V161.984L167.471 162.236C167.495 162.284 167.543 162.368 167.615 162.488C167.687 162.608 167.723 162.728 167.723 162.848C167.723 163.16 167.615 163.424 167.399 163.64C167.183 163.856 166.919 163.964 166.607 163.964C165.839 163.964 165.455 163.232 165.455 161.768L165.419 155.612C165.395 153.764 165.383 151.7 165.383 149.42C165.383 148.652 165.419 147.536 165.491 146.072C165.563 144.56 165.599 143.444 165.599 142.724C165.599 141.596 166.031 140.708 166.895 140.06V140.276C167.039 140.228 167.135 140.204 167.183 140.204C167.735 140.204 168.431 141.164 169.271 143.084C169.943 144.62 170.543 146.24 171.071 147.944C171.623 149.648 172.343 152.072 173.231 155.216L173.591 156.512C174.143 158.456 174.563 159.848 174.851 160.688C175.331 155.528 175.571 149.432 175.571 142.4V141.932C175.547 141.788 175.535 141.632 175.535 141.464C175.535 140.744 175.823 140.384 176.399 140.384C176.735 140.384 176.987 140.516 177.155 140.78C177.347 141.044 177.443 141.38 177.443 141.788V144.488C177.395 148.184 177.251 152.192 177.011 156.512C176.771 160.832 176.483 163.268 176.147 163.82C175.451 164.012 175.019 164.108 174.851 164.108ZM187.29 164.288C186.618 164.288 186.006 164.168 185.454 163.928C184.902 163.664 184.434 163.328 184.05 162.92C183.738 162.584 183.45 162.092 183.186 161.444C182.922 160.796 182.73 160.172 182.61 159.572C182.49 159.116 182.394 158.456 182.322 157.592C182.25 156.728 182.202 155.984 182.178 155.36V153.272V151.832C182.178 150.44 182.202 149.3 182.25 148.412C182.298 147.332 182.454 146.192 182.718 144.992C182.934 143.912 183.306 142.964 183.834 142.148C184.338 141.332 185.046 140.768 185.958 140.456C186.39 140.288 186.894 140.204 187.47 140.204C188.502 140.204 189.018 140.504 189.018 141.104C189.018 141.392 188.898 141.632 188.658 141.824C188.442 141.992 188.178 142.076 187.866 142.076C187.722 142.076 187.59 142.064 187.47 142.04C187.374 142.016 187.254 142.004 187.11 142.004C186.702 142.004 186.342 142.22 186.03 142.652C185.718 143.084 185.454 143.684 185.238 144.452C184.854 145.94 184.59 147.56 184.446 149.312C184.35 150.944 184.302 152.156 184.302 152.948C184.302 153.764 184.338 154.88 184.41 156.296C184.506 157.616 184.71 158.768 185.022 159.752C185.19 160.328 185.382 160.796 185.598 161.156C185.838 161.492 186.138 161.78 186.498 162.02C186.906 162.284 187.326 162.416 187.758 162.416C188.91 162.416 189.486 160.496 189.486 156.656V155C189.318 154.928 189.042 154.892 188.658 154.892H188.334H187.938C187.098 154.892 186.678 154.616 186.678 154.064C186.678 153.728 186.786 153.476 187.002 153.308C187.242 153.116 187.542 153.02 187.902 153.02V153.056H188.406C190.566 153.056 191.646 153.428 191.646 154.172C191.646 154.388 191.586 154.82 191.466 155.468C191.322 156.044 191.25 156.476 191.25 156.764C191.25 157.172 191.286 157.808 191.358 158.672L191.43 160.58C191.43 161.732 191.022 162.644 190.206 163.316C189.414 163.964 188.442 164.288 187.29 164.288Z" fill="#FFB33D"/>
</svg>
