<svg width="455" height="257" viewBox="0 0 455 257" fill="none" xmlns="http://www.w3.org/2000/svg">
<rect width="454.198" height="257" fill="#F5F5F5"/>
<path d="M57.304 89.936C57.304 92.336 56.576 94.328 55.12 95.912C53.664 97.48 51.712 98.264 49.264 98.264C46.816 98.264 44.856 97.48 43.384 95.912C41.928 94.328 41.2 92.336 41.2 89.936C41.2 87.536 41.928 85.552 43.384 83.984C44.856 82.4 46.816 81.608 49.264 81.608C51.712 81.608 53.664 82.4 55.12 83.984C56.576 85.552 57.304 87.536 57.304 89.936ZM49.288 97.52C52.68 97.52 54.376 94.992 54.376 89.936C54.376 87.504 53.984 85.632 53.2 84.32C52.432 83.008 51.12 82.352 49.264 82.352C47.408 82.352 46.088 83.008 45.304 84.32C44.52 85.616 44.128 87.488 44.128 89.936C44.128 94.992 45.848 97.52 49.288 97.52ZM67.4196 86C67.8356 86 68.1636 86.104 68.4036 86.312C68.6436 86.504 68.7636 86.776 68.7636 87.128C68.7636 87.736 68.5316 88.136 68.0676 88.328C67.8116 88.12 67.3476 88.016 66.6756 88.016C66.0036 88.016 65.3556 88.24 64.7316 88.688C64.1236 89.12 63.8196 89.616 63.8196 90.176V97.304L65.9796 97.424V98H59.8836V97.424L61.4676 97.328V87.08L59.5716 86.984V86.432L63.8196 86.168L63.6756 89.12H63.7716C64.0436 88.256 64.5396 87.52 65.2596 86.912C65.9956 86.304 66.7156 86 67.4196 86ZM82.7176 97.568C83.3256 97.568 83.8456 97.44 84.2776 97.184C84.7256 96.928 85.0696 96.608 85.3096 96.224C85.5656 95.84 85.7656 95.352 85.9096 94.76C86.1176 93.816 86.2216 92.624 86.2216 91.184C86.2216 89.744 85.9736 88.648 85.4776 87.896C84.9816 87.144 84.2856 86.768 83.3896 86.768C82.4936 86.768 81.6696 87.152 80.9176 87.92C80.1816 88.672 79.8136 89.368 79.8136 90.008L79.8616 96.68C80.6296 97.272 81.5816 97.568 82.7176 97.568ZM79.8376 79.616L79.8136 84.752C79.8136 86.384 79.7736 87.544 79.6936 88.232H79.9096C80.3416 87.528 80.9416 86.984 81.7096 86.6C82.4776 86.216 83.3016 86.024 84.1816 86.024C85.5096 86.024 86.6216 86.488 87.5176 87.416C88.4136 88.328 88.8616 89.784 88.8616 91.784C88.8616 93.768 88.3256 95.352 87.2536 96.536C86.1816 97.704 84.6536 98.288 82.6696 98.288C82.2216 98.288 81.7016 98.216 81.1096 98.072C80.5336 97.928 80.0616 97.736 79.6936 97.496L77.4856 98.264V80.768L75.3736 80.672L75.3496 80.12L79.8376 79.616ZM97.0591 98.264C95.4111 98.264 94.0831 97.704 93.0751 96.584C92.0671 95.464 91.5631 93.984 91.5631 92.144C91.5631 90.304 92.0911 88.824 93.1471 87.704C94.2191 86.584 95.5631 86.024 97.1791 86.024C98.7951 86.024 100.003 86.392 100.803 87.128C101.603 87.848 102.003 88.856 102.003 90.152C102.003 90.536 101.971 90.92 101.907 91.304H94.1551V92.144C94.1551 93.936 94.4111 95.296 94.9231 96.224C95.4351 97.136 96.2751 97.592 97.4431 97.592C99.0911 97.592 100.363 96.872 101.259 95.432C101.611 95.544 101.787 95.712 101.787 95.936C101.787 96.336 101.419 96.8 100.683 97.328C100.331 97.584 99.8351 97.808 99.1951 98C98.5551 98.176 97.8431 98.264 97.0591 98.264ZM99.7231 89.648C99.7231 88.912 99.5711 88.28 99.2671 87.752C98.8511 87.048 98.1791 86.696 97.2511 86.696C95.5231 86.696 94.5151 87.944 94.2271 90.44H99.6751C99.7071 90.168 99.7231 89.904 99.7231 89.648ZM111.9 95.504C111.9 95.552 111.892 95.608 111.876 95.672C111.62 96.456 111.188 97.088 110.58 97.568C109.988 98.032 109.292 98.264 108.492 98.264C107.692 98.264 107.02 98.04 106.476 97.592C105.948 97.128 105.684 96.232 105.684 94.904C105.684 94.536 105.724 91.872 105.804 86.912H104.148V86.288H105.828L105.852 82.76H108.204L108.132 86.288H111.564V86.912H108.132C108.052 92.08 108.012 95.104 108.012 95.984C108.012 97.056 108.364 97.592 109.068 97.592C109.5 97.592 109.948 97.344 110.412 96.848C110.892 96.352 111.228 95.792 111.42 95.168C111.74 95.168 111.9 95.28 111.9 95.504ZM121.075 95.504C121.075 95.552 121.067 95.608 121.051 95.672C120.795 96.456 120.363 97.088 119.755 97.568C119.163 98.032 118.467 98.264 117.667 98.264C116.867 98.264 116.195 98.04 115.651 97.592C115.123 97.128 114.859 96.232 114.859 94.904C114.859 94.536 114.899 91.872 114.979 86.912H113.323V86.288H115.003L115.027 82.76H117.379L117.307 86.288H120.739V86.912H117.307C117.227 92.08 117.187 95.104 117.187 95.984C117.187 97.056 117.539 97.592 118.243 97.592C118.675 97.592 119.123 97.344 119.587 96.848C120.067 96.352 120.403 95.792 120.595 95.168C120.915 95.168 121.075 95.28 121.075 95.504ZM128.523 98.264C126.875 98.264 125.547 97.704 124.539 96.584C123.531 95.464 123.027 93.984 123.027 92.144C123.027 90.304 123.555 88.824 124.611 87.704C125.683 86.584 127.027 86.024 128.643 86.024C130.259 86.024 131.467 86.392 132.267 87.128C133.067 87.848 133.467 88.856 133.467 90.152C133.467 90.536 133.435 90.92 133.371 91.304H125.619V92.144C125.619 93.936 125.875 95.296 126.387 96.224C126.899 97.136 127.739 97.592 128.907 97.592C130.555 97.592 131.827 96.872 132.723 95.432C133.075 95.544 133.251 95.712 133.251 95.936C133.251 96.336 132.883 96.8 132.147 97.328C131.795 97.584 131.299 97.808 130.659 98C130.019 98.176 129.307 98.264 128.523 98.264ZM131.187 89.648C131.187 88.912 131.035 88.28 130.731 87.752C130.315 87.048 129.643 86.696 128.715 86.696C126.987 86.696 125.979 87.944 125.691 90.44H131.139C131.171 90.168 131.187 89.904 131.187 89.648ZM143.459 86C143.875 86 144.203 86.104 144.443 86.312C144.683 86.504 144.803 86.776 144.803 87.128C144.803 87.736 144.571 88.136 144.107 88.328C143.851 88.12 143.387 88.016 142.715 88.016C142.043 88.016 141.395 88.24 140.771 88.688C140.163 89.12 139.859 89.616 139.859 90.176V97.304L142.019 97.424V98H135.923V97.424L137.507 97.328V87.08L135.611 86.984V86.432L139.859 86.168L139.715 89.12H139.811C140.083 88.256 140.579 87.52 141.299 86.912C142.035 86.304 142.755 86 143.459 86ZM45.904 130.288C43.344 130.288 42.064 129.056 42.064 126.592C42.064 124.784 42.12 122.272 42.232 119.056L40.312 118.96V118.408L44.584 118.144C44.472 122.368 44.416 125.24 44.416 126.76C44.416 127.672 44.584 128.352 44.92 128.8C45.256 129.248 45.816 129.472 46.6 129.472C47.4 129.472 48.152 129.032 48.856 128.152C49.56 127.256 49.912 126.472 49.912 125.8V119.056L47.92 118.96V118.408L52.264 118.144V129.256L54.304 129.352L54.328 129.904L50.008 130.192L50.176 127.6H49.888C49.056 129.392 47.728 130.288 45.904 130.288ZM59.9776 120.832C60.6976 118.976 62.1456 118.048 64.3216 118.048C65.4096 118.048 66.2896 118.376 66.9616 119.032C67.6336 119.672 67.9696 120.592 67.9696 121.792C67.9696 123.856 67.9056 126.36 67.7776 129.304L69.4336 129.424V130H64.1296V129.424L65.4256 129.328C65.5536 125.712 65.6176 123.64 65.6176 123.112C65.6176 122.584 65.6096 122.184 65.5936 121.912C65.5776 121.624 65.5296 121.28 65.4496 120.88C65.3856 120.464 65.2816 120.136 65.1376 119.896C64.7856 119.304 64.2336 119.008 63.4816 119.008C62.4576 119.008 61.6176 119.432 60.9616 120.28C60.3056 121.128 59.9776 122.048 59.9776 123.04V129.304L61.7776 129.424V130H56.0416V129.424L57.6256 129.304V119.152L55.5856 119.056V118.504L59.8816 118.216L59.7616 120.808L59.9776 120.832ZM80.6678 126.328V119.728C79.8998 119.136 78.9478 118.84 77.8118 118.84C76.3878 118.84 75.4118 119.424 74.8838 120.592C74.4518 121.584 74.2358 122.936 74.2358 124.648C74.2358 127.96 75.1318 129.616 76.9238 129.616C77.9318 129.616 78.8038 129.232 79.5398 128.464C80.2918 127.696 80.6678 126.984 80.6678 126.328ZM76.4678 130.36C75.0918 130.36 73.9318 129.872 72.9878 128.896C72.0438 127.904 71.5718 126.432 71.5718 124.48C71.5718 122.512 72.1398 120.96 73.2758 119.824C74.4278 118.688 75.9558 118.12 77.8598 118.12C78.8518 118.12 79.7878 118.352 80.6678 118.816V112.768L78.5558 112.672L78.5318 112.12L82.9718 111.616V129.448L85.0118 129.544L85.0358 130.096L80.7878 130.384L80.8358 128.08H80.6918C80.3078 128.8 79.7238 129.36 78.9398 129.76C78.1558 130.16 77.3318 130.36 76.4678 130.36ZM92.2666 130.264C90.6186 130.264 89.2906 129.704 88.2826 128.584C87.2746 127.464 86.7706 125.984 86.7706 124.144C86.7706 122.304 87.2986 120.824 88.3546 119.704C89.4266 118.584 90.7706 118.024 92.3866 118.024C94.0026 118.024 95.2106 118.392 96.0106 119.128C96.8106 119.848 97.2106 120.856 97.2106 122.152C97.2106 122.536 97.1786 122.92 97.1146 123.304H89.3626V124.144C89.3626 125.936 89.6186 127.296 90.1306 128.224C90.6426 129.136 91.4826 129.592 92.6506 129.592C94.2986 129.592 95.5706 128.872 96.4666 127.432C96.8186 127.544 96.9946 127.712 96.9946 127.936C96.9946 128.336 96.6266 128.8 95.8906 129.328C95.5386 129.584 95.0426 129.808 94.4026 130C93.7626 130.176 93.0506 130.264 92.2666 130.264ZM94.9306 121.648C94.9306 120.912 94.7786 120.28 94.4746 119.752C94.0586 119.048 93.3866 118.696 92.4586 118.696C90.7306 118.696 89.7226 119.944 89.4346 122.44H94.8826C94.9146 122.168 94.9306 121.904 94.9306 121.648ZM107.203 118C107.619 118 107.947 118.104 108.187 118.312C108.427 118.504 108.547 118.776 108.547 119.128C108.547 119.736 108.315 120.136 107.851 120.328C107.595 120.12 107.131 120.016 106.459 120.016C105.787 120.016 105.139 120.24 104.515 120.688C103.907 121.12 103.603 121.616 103.603 122.176V129.304L105.763 129.424V130H99.6674V129.424L101.251 129.328V119.08L99.3554 118.984V118.432L103.603 118.168L103.459 121.12H103.555C103.827 120.256 104.323 119.52 105.043 118.912C105.779 118.304 106.499 118 107.203 118ZM114.738 129.664C115.378 129.664 115.93 129.488 116.394 129.136C116.874 128.784 117.114 128.192 117.114 127.36C117.114 126.8 116.858 126.336 116.346 125.968C115.85 125.6 115.226 125.272 114.474 124.984C113.722 124.68 113.21 124.472 112.938 124.36C112.682 124.232 112.338 124.032 111.906 123.76C111.122 123.232 110.73 122.472 110.73 121.48C110.73 120.488 111.122 119.664 111.906 119.008C112.69 118.352 113.834 118.024 115.338 118.024C116.298 118.024 117.114 118.24 117.786 118.672C118.474 119.088 118.818 119.592 118.818 120.184C118.818 120.776 118.594 121.184 118.146 121.408C117.906 121.52 117.666 121.576 117.426 121.576C117.202 121.576 116.978 121.528 116.754 121.432C116.818 121.144 116.85 120.832 116.85 120.496C116.85 120.16 116.77 119.824 116.61 119.488C116.338 118.912 115.818 118.624 115.05 118.624C114.282 118.624 113.698 118.832 113.298 119.248C112.898 119.664 112.698 120.208 112.698 120.88C112.698 121.568 112.986 122.08 113.562 122.416C113.994 122.688 114.53 122.936 115.17 123.16C115.81 123.384 116.242 123.544 116.466 123.64C116.706 123.72 117.018 123.864 117.402 124.072C117.786 124.28 118.074 124.496 118.266 124.72C118.762 125.264 119.01 126 119.01 126.928C119.01 127.856 118.594 128.648 117.762 129.304C116.93 129.944 115.914 130.264 114.714 130.264C113.514 130.264 112.458 130.08 111.546 129.712C110.65 129.344 110.202 128.808 110.202 128.104C110.202 127.448 110.69 127.016 111.666 126.808C111.954 128.712 112.978 129.664 114.738 129.664ZM128.927 127.504C128.927 127.552 128.919 127.608 128.903 127.672C128.647 128.456 128.215 129.088 127.607 129.568C127.015 130.032 126.319 130.264 125.519 130.264C124.719 130.264 124.047 130.04 123.503 129.592C122.975 129.128 122.711 128.232 122.711 126.904C122.711 126.536 122.751 123.872 122.831 118.912H121.175V118.288H122.855L122.879 114.76H125.231L125.159 118.288H128.591V118.912H125.159C125.079 124.08 125.039 127.104 125.039 127.984C125.039 129.056 125.391 129.592 126.095 129.592C126.527 129.592 126.975 129.344 127.439 128.848C127.919 128.352 128.255 127.792 128.447 127.168C128.767 127.168 128.927 127.28 128.927 127.504ZM133.086 127.408C133.086 128.448 133.51 129.064 134.358 129.256C134.55 129.304 134.734 129.328 134.91 129.328C135.518 129.328 136.15 129.072 136.806 128.56C137.462 128.032 137.806 127.328 137.838 126.448V124.384C134.67 124.416 133.086 125.424 133.086 127.408ZM134.046 130.288C133.134 130.288 132.35 130.04 131.694 129.544C131.054 129.032 130.734 128.32 130.734 127.408C130.75 126.176 131.366 125.256 132.582 124.648C133.814 124.04 135.566 123.736 137.838 123.736V121.672C137.838 119.64 137.102 118.624 135.63 118.624C134.878 118.624 134.27 118.936 133.806 119.56C133.486 119.992 133.326 120.528 133.326 121.168C133.326 121.44 133.358 121.728 133.422 122.032C133.198 122.192 132.966 122.272 132.726 122.272C132.502 122.272 132.278 122.224 132.054 122.128C131.542 121.936 131.286 121.568 131.286 121.024C131.286 120.288 131.55 119.68 132.078 119.2C132.942 118.416 134.134 118.024 135.654 118.024C137.174 118.024 138.278 118.352 138.966 119.008C139.654 119.648 139.998 120.664 139.998 122.056V129.328L142.014 129.424L142.038 129.976L138.03 130.264L137.814 128.128C137.078 129.568 135.822 130.288 134.046 130.288ZM147.455 120.832C148.175 118.976 149.623 118.048 151.799 118.048C152.887 118.048 153.767 118.376 154.439 119.032C155.111 119.672 155.447 120.592 155.447 121.792C155.447 123.856 155.383 126.36 155.255 129.304L156.911 129.424V130H151.607V129.424L152.903 129.328C153.031 125.712 153.095 123.64 153.095 123.112C153.095 122.584 153.087 122.184 153.071 121.912C153.055 121.624 153.007 121.28 152.927 120.88C152.863 120.464 152.759 120.136 152.615 119.896C152.263 119.304 151.711 119.008 150.959 119.008C149.935 119.008 149.095 119.432 148.439 120.28C147.783 121.128 147.455 122.048 147.455 123.04V129.304L149.255 129.424V130H143.519V129.424L145.103 129.304V119.152L143.063 119.056V118.504L147.359 118.216L147.239 120.808L147.455 120.832ZM168.145 126.328V119.728C167.377 119.136 166.425 118.84 165.289 118.84C163.865 118.84 162.889 119.424 162.361 120.592C161.929 121.584 161.713 122.936 161.713 124.648C161.713 127.96 162.609 129.616 164.401 129.616C165.409 129.616 166.281 129.232 167.017 128.464C167.769 127.696 168.145 126.984 168.145 126.328ZM163.945 130.36C162.569 130.36 161.409 129.872 160.465 128.896C159.521 127.904 159.049 126.432 159.049 124.48C159.049 122.512 159.617 120.96 160.753 119.824C161.905 118.688 163.433 118.12 165.337 118.12C166.329 118.12 167.265 118.352 168.145 118.816V112.768L166.033 112.672L166.009 112.12L170.449 111.616V129.448L172.489 129.544L172.513 130.096L168.265 130.384L168.313 128.08H168.169C167.785 128.8 167.201 129.36 166.417 129.76C165.633 130.16 164.809 130.36 163.945 130.36ZM178.184 114.376C178.184 114.76 178.048 115.096 177.776 115.384C177.504 115.656 177.16 115.792 176.744 115.792C176.344 115.792 176.008 115.656 175.736 115.384C175.464 115.112 175.328 114.776 175.328 114.376C175.328 113.96 175.464 113.616 175.736 113.344C176.008 113.056 176.344 112.912 176.744 112.912C177.144 112.912 177.48 113.056 177.752 113.344C178.04 113.632 178.184 113.976 178.184 114.376ZM174.104 130V129.424L175.688 129.304V119.104L173.576 119.032V118.48L178.04 118.168V129.304L179.624 129.424V130H174.104ZM185.574 120.832C186.294 118.976 187.742 118.048 189.918 118.048C191.006 118.048 191.886 118.376 192.558 119.032C193.23 119.672 193.566 120.592 193.566 121.792C193.566 123.856 193.502 126.36 193.374 129.304L195.03 129.424V130H189.726V129.424L191.022 129.328C191.15 125.712 191.214 123.64 191.214 123.112C191.214 122.584 191.206 122.184 191.19 121.912C191.174 121.624 191.126 121.28 191.046 120.88C190.982 120.464 190.878 120.136 190.734 119.896C190.382 119.304 189.83 119.008 189.078 119.008C188.054 119.008 187.214 119.432 186.558 120.28C185.902 121.128 185.574 122.048 185.574 123.04V129.304L187.374 129.424V130H181.638V129.424L183.222 129.304V119.152L181.182 119.056V118.504L185.478 118.216L185.358 120.808L185.574 120.832ZM200.049 127.6C200.049 127.968 200.305 128.216 200.817 128.344C201.345 128.456 202.433 128.584 204.081 128.728C205.729 128.872 206.913 129.168 207.633 129.616C208.353 130.048 208.713 130.752 208.713 131.728C208.713 132.976 208.121 134.04 206.937 134.92C205.769 135.8 204.249 136.24 202.377 136.24C200.505 136.24 199.129 135.936 198.249 135.328C197.369 134.736 196.929 133.944 196.929 132.952C196.929 132.296 197.145 131.672 197.577 131.08C198.009 130.504 198.641 130.096 199.473 129.856C198.497 129.504 198.009 128.92 198.009 128.104C198.009 127.624 198.257 127.224 198.753 126.904C199.249 126.568 199.809 126.36 200.433 126.28C199.425 125.992 198.649 125.496 198.105 124.792C197.561 124.072 197.289 123.232 197.289 122.272C197.289 121.04 197.745 120.024 198.657 119.224C199.585 118.424 200.833 118.024 202.401 118.024C202.849 118.024 203.337 118.08 203.865 118.192C204.329 118.08 204.697 117.84 204.969 117.472C205.257 117.072 205.401 116.648 205.401 116.2C205.401 115.752 205.377 115.368 205.329 115.048C205.553 114.952 205.777 114.904 206.001 114.904C206.225 114.904 206.449 114.96 206.673 115.072C207.105 115.296 207.321 115.688 207.321 116.248C207.321 116.792 207.057 117.272 206.529 117.688C206.001 118.104 205.369 118.344 204.633 118.408C205.497 118.728 206.161 119.232 206.625 119.92C207.089 120.592 207.321 121.376 207.321 122.272C207.321 123.616 206.801 124.656 205.761 125.392C204.737 126.128 203.473 126.496 201.969 126.496C201.409 126.512 200.945 126.64 200.577 126.88C200.225 127.104 200.049 127.344 200.049 127.6ZM198.777 132.688C198.777 133.536 199.121 134.208 199.809 134.704C200.513 135.216 201.417 135.472 202.521 135.472C203.641 135.472 204.641 135.192 205.521 134.632C206.401 134.072 206.849 133.368 206.865 132.52C206.865 131.976 206.689 131.568 206.337 131.296C206.033 131.056 205.609 130.896 205.065 130.816C204.521 130.736 203.761 130.64 202.785 130.528C201.825 130.432 201.001 130.312 200.313 130.168C199.881 130.392 199.513 130.736 199.209 131.2C198.921 131.68 198.777 132.176 198.777 132.688ZM202.233 125.992C203.129 125.992 203.793 125.648 204.225 124.96C204.657 124.272 204.873 123.376 204.873 122.272C204.873 119.792 204.049 118.552 202.401 118.552C201.505 118.552 200.833 118.888 200.385 119.56C199.953 120.216 199.737 121.12 199.737 122.272C199.737 124.752 200.569 125.992 202.233 125.992ZM44.32 166.896C44 167.264 43.592 167.592 43.096 167.88C42.6 168.184 42.096 168.336 41.584 168.336C41.088 168.336 40.696 168.2 40.408 167.928C40.136 167.672 40 167.32 40 166.872C40 166.44 40.2 166 40.6 165.552C41.048 166.064 41.552 166.32 42.112 166.32C42.912 166.32 43.6 165.968 44.176 165.264C44.752 164.576 45.312 163.488 45.856 162L41.248 151.056L40.024 150.912V150.288H45.136V150.912L43.48 151.056L46.912 159.432L49.864 151.368L47.944 150.912V150.288H52.552V150.912L50.872 151.368L46.816 162C46.528 162.736 46.304 163.304 46.144 163.704C45.984 164.104 45.72 164.64 45.352 165.312C45 166 44.656 166.528 44.32 166.896ZM65.7938 156.144C65.7938 157.92 65.2578 159.384 64.1858 160.536C63.1138 161.688 61.6498 162.264 59.7938 162.264C57.9538 162.264 56.4978 161.688 55.4258 160.536C54.3538 159.384 53.8178 157.92 53.8178 156.144C53.8178 154.368 54.3538 152.904 55.4258 151.752C56.4978 150.6 57.9538 150.024 59.7938 150.024C61.6498 150.024 63.1138 150.6 64.1858 151.752C65.2578 152.904 65.7938 154.368 65.7938 156.144ZM56.4338 156.144C56.4338 159.84 57.5538 161.688 59.7938 161.688C62.0498 161.688 63.1778 159.84 63.1778 156.144C63.1778 154.352 62.9218 152.984 62.4098 152.04C61.8978 151.096 61.0338 150.624 59.8178 150.624C58.6018 150.624 57.7298 151.096 57.2018 152.04C56.6898 152.984 56.4338 154.352 56.4338 156.144ZM73.2546 162.288C70.6946 162.288 69.4146 161.056 69.4146 158.592C69.4146 156.784 69.4706 154.272 69.5826 151.056L67.6626 150.96V150.408L71.9346 150.144C71.8226 154.368 71.7666 157.24 71.7666 158.76C71.7666 159.672 71.9346 160.352 72.2706 160.8C72.6066 161.248 73.1666 161.472 73.9506 161.472C74.7506 161.472 75.5026 161.032 76.2066 160.152C76.9106 159.256 77.2626 158.472 77.2626 157.8V151.056L75.2706 150.96V150.408L79.6146 150.144V161.256L81.6546 161.352L81.6786 161.904L77.3586 162.192L77.5266 159.6H77.2386C76.4066 161.392 75.0786 162.288 73.2546 162.288ZM90.8562 150C91.2722 150 91.6002 150.104 91.8402 150.312C92.0802 150.504 92.2002 150.776 92.2002 151.128C92.2002 151.736 91.9682 152.136 91.5042 152.328C91.2482 152.12 90.7842 152.016 90.1122 152.016C89.4402 152.016 88.7922 152.24 88.1682 152.688C87.5602 153.12 87.2562 153.616 87.2562 154.176V161.304L89.4162 161.424V162H83.3202V161.424L84.9042 161.328V151.08L83.0082 150.984V150.432L87.2562 150.168L87.1122 153.12H87.2082C87.4802 152.256 87.9762 151.52 88.6962 150.912C89.4322 150.304 90.1522 150 90.8562 150ZM105.146 162H99.6261V161.424L101.21 161.304V144.768L99.0741 144.672V144.12L103.562 143.616V161.304L105.146 161.424V162ZM119.334 156.144C119.334 157.92 118.798 159.384 117.726 160.536C116.654 161.688 115.19 162.264 113.334 162.264C111.494 162.264 110.038 161.688 108.966 160.536C107.894 159.384 107.358 157.92 107.358 156.144C107.358 154.368 107.894 152.904 108.966 151.752C110.038 150.6 111.494 150.024 113.334 150.024C115.19 150.024 116.654 150.6 117.726 151.752C118.798 152.904 119.334 154.368 119.334 156.144ZM109.974 156.144C109.974 159.84 111.094 161.688 113.334 161.688C115.59 161.688 116.718 159.84 116.718 156.144C116.718 154.352 116.462 152.984 115.95 152.04C115.438 151.096 114.574 150.624 113.358 150.624C112.142 150.624 111.27 151.096 110.742 152.04C110.23 152.984 109.974 154.352 109.974 156.144ZM120.658 150.288H125.698V150.912L124.066 151.056L127.474 159.432L130.354 151.368L128.434 150.912V150.288H133.042V150.912L131.362 151.368L127.378 162H126.418L121.786 151.032L120.658 150.864V150.288ZM139.807 162.264C138.159 162.264 136.831 161.704 135.823 160.584C134.815 159.464 134.311 157.984 134.311 156.144C134.311 154.304 134.839 152.824 135.895 151.704C136.967 150.584 138.311 150.024 139.927 150.024C141.543 150.024 142.751 150.392 143.551 151.128C144.351 151.848 144.751 152.856 144.751 154.152C144.751 154.536 144.719 154.92 144.655 155.304H136.903V156.144C136.903 157.936 137.159 159.296 137.671 160.224C138.183 161.136 139.023 161.592 140.191 161.592C141.839 161.592 143.111 160.872 144.007 159.432C144.359 159.544 144.535 159.712 144.535 159.936C144.535 160.336 144.167 160.8 143.431 161.328C143.079 161.584 142.583 161.808 141.943 162C141.303 162.176 140.591 162.264 139.807 162.264ZM142.471 153.648C142.471 152.912 142.319 152.28 142.015 151.752C141.599 151.048 140.927 150.696 139.999 150.696C138.271 150.696 137.263 151.944 136.975 154.44H142.423C142.455 154.168 142.471 153.904 142.471 153.648ZM152.488 162H146.968V161.424L148.552 161.304V144.768L146.416 144.672V144.12L150.904 143.616V161.304L152.488 161.424V162ZM157.94 166.896C157.62 167.264 157.212 167.592 156.716 167.88C156.22 168.184 155.716 168.336 155.204 168.336C154.708 168.336 154.316 168.2 154.028 167.928C153.756 167.672 153.62 167.32 153.62 166.872C153.62 166.44 153.82 166 154.22 165.552C154.668 166.064 155.172 166.32 155.732 166.32C156.532 166.32 157.22 165.968 157.796 165.264C158.372 164.576 158.932 163.488 159.476 162L154.868 151.056L153.644 150.912V150.288H158.756V150.912L157.1 151.056L160.532 159.432L163.484 151.368L161.564 150.912V150.288H166.172V150.912L164.492 151.368L160.436 162C160.148 162.736 159.924 163.304 159.764 163.704C159.604 164.104 159.34 164.64 158.972 165.312C158.62 166 158.276 166.528 157.94 166.896Z" fill="black"/>
<path d="M174.988 166.252C174.676 164.98 174.52 163.216 174.52 160.96L174.592 157.756C174.64 156.796 174.664 155.728 174.664 154.552C174.52 154.216 174.448 153.916 174.448 153.652V153.544C174.688 153.088 174.808 152.056 174.808 150.448L174.844 148.792C174.868 148.264 174.88 147.676 174.88 147.028C174.88 145.612 174.784 144.496 174.592 143.68C174.664 143.344 174.784 143.056 174.952 142.816C175.12 142.552 175.324 142.42 175.564 142.42H177.148C177.82 142.42 178.408 142.576 178.912 142.888C179.416 143.176 179.8 143.596 180.064 144.148C180.544 145.132 180.784 146.296 180.784 147.64C180.784 148.6 180.772 149.356 180.748 149.908C180.7 150.604 180.58 151.24 180.388 151.816C180.316 152.128 180.208 152.392 180.064 152.608C179.944 152.8 179.764 153.04 179.524 153.328C179.188 153.736 178.636 154.12 177.868 154.48C177.556 154.648 177.148 154.804 176.644 154.948V158.8L176.716 161.104L176.788 162.22C176.884 163.564 176.932 164.704 176.932 165.64C176.932 165.928 176.812 166.168 176.572 166.36C176.332 166.576 176.056 166.684 175.744 166.684L174.988 166.252ZM176.68 153.472C178.096 153.256 178.804 151.228 178.804 147.388C178.804 146.692 178.768 146.152 178.696 145.768C178.624 145.48 178.528 145.252 178.408 145.084C178.288 144.892 178.108 144.736 177.868 144.616C177.604 144.472 177.316 144.4 177.004 144.4C177.004 144.376 176.872 144.364 176.608 144.364V146.416C176.608 147.832 176.62 149.092 176.644 150.196C176.644 151.444 176.656 152.26 176.68 152.644V153.4V153.472ZM186.337 166.468C186.025 166.468 185.737 166.36 185.473 166.144C185.233 165.928 185.101 165.664 185.077 165.352V164.416V163.696C185.053 163.48 185.041 163.228 185.041 162.94C185.041 162.436 185.005 161.668 184.933 160.636L184.861 158.332C184.861 157.156 184.897 155.404 184.969 153.076C185.065 150.988 185.113 149.236 185.113 147.82C185.113 147.484 185.077 146.98 185.005 146.308C184.933 145.612 184.897 145.108 184.897 144.796C184.897 143.092 185.401 142.24 186.409 142.24C187.201 142.24 188.113 142.396 189.145 142.708C190.201 143.02 190.729 143.392 190.729 143.824C190.729 144.064 190.621 144.292 190.405 144.508C190.213 144.7 189.973 144.856 189.685 144.976C188.677 144.616 187.765 144.376 186.949 144.256C186.973 144.616 186.985 145.132 186.985 145.804C186.985 146.764 186.973 147.628 186.949 148.396C186.877 149.548 186.841 150.412 186.841 150.988L186.949 151.564L187.525 151.528C187.717 151.504 187.957 151.492 188.245 151.492C189.397 151.492 189.973 151.828 189.973 152.5C189.973 152.764 189.865 152.992 189.649 153.184C189.433 153.352 189.157 153.436 188.821 153.436C188.389 153.436 188.053 153.412 187.813 153.364H186.913C186.961 153.988 186.985 154.9 186.985 156.1C186.985 157.3 186.973 158.38 186.949 159.34C186.877 160.804 186.841 161.896 186.841 162.616C186.841 163.96 186.865 164.632 186.913 164.632L188.101 164.596C188.509 164.572 189.001 164.56 189.577 164.56C190.489 164.56 190.945 164.848 190.945 165.424C190.945 165.76 190.789 166.012 190.477 166.18C190.189 166.372 189.829 166.468 189.397 166.468H186.337ZM197.287 165.424L197.251 164.02C197.227 163.612 197.215 163.156 197.215 162.652L197.251 161.428C197.179 161.164 196.999 158.536 196.711 153.544C196.423 148.552 196.255 145.348 196.207 143.932C194.815 143.884 193.927 143.74 193.543 143.5C193.279 143.308 193.147 143.092 193.147 142.852C193.147 142.66 193.267 142.492 193.507 142.348C193.771 142.18 194.035 142.096 194.299 142.096C194.971 142.096 195.787 142.144 196.747 142.24C197.659 142.36 198.475 142.42 199.195 142.42H199.483H199.771C200.515 142.42 200.887 142.708 200.887 143.284C200.887 143.572 200.767 143.812 200.527 144.004C200.287 144.172 200.011 144.256 199.699 144.256C199.483 144.256 199.171 144.22 198.763 144.148L198.043 144.004L198.007 144.184L197.971 144.364C197.971 146.5 198.175 149.908 198.583 154.588C198.967 158.98 199.159 162.388 199.159 164.812C199.159 165.1 199.027 165.352 198.763 165.568C198.523 165.784 198.247 165.892 197.935 165.892L197.287 165.424Z" fill="#FFB33D"/>
<path fill-rule="evenodd" clip-rule="evenodd" d="M279.077 136.719C279.422 139.036 280.289 141.073 281.02 143.243C281.366 144.268 281.906 145.314 282.435 146.256C282.778 146.866 283.213 148.316 283.841 147.469C283.946 147.911 283.808 148.128 283.954 148.537C284.158 149.114 285.22 149.832 285.682 150.276C286.127 150.705 286.616 151.033 287.095 151.412C287.19 151.486 287.387 151.425 287.464 151.512C287.606 151.674 287.473 151.899 287.533 151.975C288.284 152.918 289.586 153.588 290.562 154.281C291.957 155.272 293.346 156.262 294.705 157.3C295.78 158.121 296.804 158.986 297.87 159.807C298.381 160.201 298.767 160.591 299.146 161.104C299.617 161.741 299.688 161.769 299.361 162.427C298.775 163.602 297.719 164.361 297.013 165.416C296.209 166.619 295.692 167.965 294.6 168.969C294.111 167.867 293.48 169.477 294.291 169.307C293.914 170.425 293.072 171.376 292.51 172.427C291.846 173.67 291.12 174.798 290.333 175.966C290.253 175.677 290.173 175.388 290.093 175.098C289.328 175.281 289.94 175.842 289.997 176.074C290.045 176.271 290.211 176.292 290.092 176.72C290.003 177.042 289.694 177.316 289.498 177.583C289.058 178.184 288.648 178.802 288.232 179.421C287.823 180.029 287.68 180.53 287.416 181.125C287.18 181.655 286.963 181.554 286.584 181.945C286.192 182.349 285.802 183.052 285.452 183.516C284.412 184.899 283.478 186.483 282.768 188.057C282.091 189.557 280.842 190.611 280.271 192.202C279.979 193.014 279.872 193.868 279.619 194.689C279.382 195.455 278.995 196.168 278.848 196.963C278.726 197.624 278.804 198.389 278.746 198.968C278.697 199.44 278.499 200.167 278.558 200.834C278.682 202.238 279.265 203.458 279.961 204.628C276.787 205.704 273.176 206.006 269.846 205.928C268.144 205.888 266.205 205.872 264.54 206.266C263.576 206.493 262.837 206.777 261.825 206.697C260.815 206.618 259.805 206.523 258.795 206.436C259.09 205.842 260.053 205.093 260.593 204.638C260.905 204.374 261.42 204.312 261.659 204.058C261.932 203.767 262.016 203.041 262.113 202.691C262.862 200.003 263.415 197.291 263.884 194.541C264.713 189.683 265.035 184.736 265.341 179.848C265.363 179.496 265.535 179.071 265.526 178.737C265.512 178.197 265.405 177.894 265.446 177.381C265.472 177.055 265.86 176.621 265.843 176.334C265.828 176.081 265.396 176.273 265.396 175.894C265.398 175.348 266.177 174.563 266.34 174.074C266.402 173.884 266.17 173.63 266.148 173.418L266.146 173.38C266.156 173.386 266.328 172.614 266.335 172.583C266.392 172.336 266.615 172.258 266.603 171.949C266.594 171.681 266.202 171.333 266.414 171.056C266.558 170.866 267.084 171.17 267.203 170.955C267.356 170.677 266.684 169.73 266.758 169.3C266.88 168.602 267.379 167.893 267.549 167.174C267.624 166.854 267.541 166.354 267.789 166.089C268.194 165.658 268.547 166.1 269.132 165.955C268.535 165.449 268.42 165.006 268.596 164.267C268.734 163.69 269.008 163.049 269.639 163.625C269.545 162.764 269.548 162.63 270.191 161.977C270.503 161.661 270.839 161.129 271.212 160.915L271.551 160.559C271.703 160.719 271.885 160.809 272.096 160.83C273.899 160.734 274.8 160.365 276.456 161.446C277.154 161.902 277.851 162.243 278.451 162.837C279.121 163.5 279.661 164.279 280.378 164.898C281.18 165.59 281.972 166.158 282.687 166.952C283.278 167.609 283.847 168.352 284.64 168.753C284.7 167.803 284.181 166.955 283.728 166.125C283.673 166.026 283.278 165.759 283.287 165.789C283.239 165.622 283.421 165.479 283.365 165.332C284.052 165.953 284.762 166.875 285.549 167.34C286.833 168.099 286.262 166.618 286.017 165.856C285.319 163.684 284.053 161.603 282.59 159.85C280.03 156.784 275.76 153.36 271.673 155.29C267.623 157.203 265.489 160.416 264.327 164.689C262.978 169.65 262.359 174.39 262.231 179.529C262.157 182.47 261.857 185.388 261.548 188.313C261.246 191.168 261.123 194.261 260.547 197.063C260.185 196.537 259.972 196.14 259.791 195.549C259.718 195.31 259.81 195.076 259.685 194.84C259.628 194.732 259.335 194.745 259.28 194.647C258.832 193.837 258.201 192.723 257.995 191.792C257.886 191.301 257.985 191.014 257.776 190.568C257.578 190.149 257.479 190.546 257.404 190.029C257.393 189.958 257.724 189.84 257.622 189.505C257.364 188.66 257.183 189.461 257.059 189.455C256.804 189.445 257.38 187.71 257.334 187.438C257.282 187.125 257.136 187.296 257.065 187.067C256.985 186.808 256.921 186.544 256.874 186.277C256.728 185.404 256.397 185.119 256.382 184.175C256.365 183.035 255.942 182.301 255.753 181.212C255.718 181.012 255.937 180.786 255.897 180.611C255.815 180.246 255.551 179.943 255.448 179.557C255.233 178.75 255.662 178.054 255.602 177.276C255.612 177.404 255.361 176.704 255.345 176.643C255.255 176.287 255.293 175.811 255.222 175.424C255.154 175.061 254.931 174.576 255.131 174.237C255.268 174.005 255.575 174.068 255.755 173.809C255.097 173.597 255.235 173.828 254.997 173.103C254.77 172.409 254.748 171.829 255.5 172.287C255.31 171.819 254.956 171.246 254.879 170.745C254.809 170.287 254.977 169.844 254.929 169.389C254.8 168.169 254.424 167.427 255.118 166.244C254.204 165.777 254.599 164.15 254.458 163.265C254.305 162.304 253.931 161.386 254.652 160.755C253.738 160.099 254.202 157.969 254.219 156.952C254.235 155.979 254.159 154.993 254.171 153.862C254.178 153.224 253.998 152.784 253.845 152.152C253.649 151.338 253.849 150.713 253.782 149.926C253.728 149.3 253.492 148.671 253.459 148.005C253.427 147.325 253.484 146.562 253.388 145.894C253.308 145.341 253.176 144.945 253.162 144.348C253.158 144.171 253.072 143.853 253.108 143.689C253.107 143.695 253.354 143.12 253.352 143.373C253.36 142.428 252.886 141.503 253.134 140.351C253.339 139.404 253.51 139.56 254.465 139.618C255.218 139.664 255.97 139.714 256.725 139.717C257.703 139.721 260.846 139.043 261.554 139.732C262.14 140.303 261.799 143.004 261.839 143.819C261.904 145.147 260.632 145.553 260.28 146.909C259.608 149.494 260.718 152.907 263.747 153.128C266.573 153.334 269.283 151.011 268.895 148.155C268.74 147.009 268.212 145.762 267.215 145.091C266.251 144.442 264.203 144.932 263.531 144.15C263.218 143.785 263.342 142.367 263.306 141.891C263.253 141.198 262.936 139.813 263.392 139.485C263.908 139.114 265.499 139.107 266.087 139.106C266.921 139.103 267.679 139.104 268.507 138.964C270.337 138.654 272.162 138.667 273.96 138.261C275.745 137.859 277.395 137.438 279.077 136.719ZM300.892 136.719C301.264 136.71 302.063 139.787 302.273 140.33C302.849 141.814 303.084 143.311 303.405 144.871C303.734 146.473 304.028 148.101 304.454 149.68C304.774 150.866 304.702 152.015 305.133 153.209C305.019 153.948 305.121 155.225 304.305 155.543C303.566 155.83 303.086 155.129 302.812 154.521C302.072 152.878 302.31 150.686 302.04 148.92C301.721 146.836 301.703 144.782 301.453 142.694C301.232 140.855 300.487 138.532 300.892 136.719ZM268.66 94.543C269.47 95.4568 270.659 95.0734 271.725 94.9719C271.273 96.0003 270.623 97.1008 270.599 98.2521C270.587 98.8496 270.908 99.3798 270.905 99.9499C270.901 100.515 270.443 101.042 270.225 101.566C269.248 103.921 269.012 107.109 268.976 109.637C268.9 114.866 270.466 120.435 273.795 124.535C274.497 125.4 275.287 126.199 276.17 126.882C276.65 127.253 278.86 128.134 278.964 128.655C279.165 129.664 276.896 129.564 276.276 129.655C274.973 129.845 273.686 130.117 272.381 130.293C267.153 130.996 261.991 131.558 256.72 131.274C256.137 131.242 255.047 131.533 254.495 131.299C253.848 131.025 254.069 130.479 254.084 129.841C254.125 128.203 253.889 126.592 253.752 124.965C253.64 123.649 253.942 123.824 254.907 123.095C255.905 122.342 256.881 120.943 257.206 119.745C258.135 120.493 257.462 120.896 257.595 121.856C257.756 123.028 258.548 122.836 259.07 122.052C259.881 120.835 259.809 118.913 259.052 117.697C258.373 116.609 255.953 114.938 254.58 115.435C252.753 116.098 254.741 118.322 255.606 118.803C255.393 119.419 254.212 119.96 253.686 120.298C252.956 120.767 252.009 121.039 251.165 121.298C248.913 121.991 246.725 122.092 244.401 121.752C242.168 121.426 239.611 120.699 238.171 118.869C237.548 118.077 236.975 116.872 237.572 115.881C238.111 114.988 239.442 114.926 240.097 114.061C240.379 113.687 240.515 113.192 240.775 112.83C241.197 112.242 241.027 112.347 241.822 112.414C243.108 112.523 244.479 112.606 245.745 112.296C246.697 112.063 247.624 111.628 248.555 111.351C249.543 111.056 250.48 110.437 251.245 109.769C253.008 108.229 254.734 106.554 256.367 104.875C257.99 103.207 259.029 101.059 260.548 99.2892C262.27 97.2839 263.926 94.7208 266.449 93.6169C267.899 92.9829 267.873 93.6532 268.66 94.543ZM274.791 101.209C275.036 101.466 274.88 102.938 275.114 103.408C276.014 105.212 277.587 104.814 279.215 104.434C279.355 105.881 279.464 107.51 280.047 108.858C280.308 109.459 280.72 109.976 280.931 110.605C281.064 111.004 281.01 111.509 281.161 111.88C281.323 112.281 281.736 112.589 281.977 112.984C282.268 113.461 282.421 113.906 282.804 114.323C283.643 115.236 284.783 116.01 285.424 117.099C285.688 117.546 285.734 117.878 285.726 118.398C285.724 118.584 285.592 119.27 285.651 119.408C285.865 119.915 286.634 120.046 286.719 120.7C286.768 121.068 286.567 121.024 286.499 121.331C286.417 121.7 286.476 121.953 286.341 122.363C286.126 123.015 285.181 124.242 285.28 124.804C283.889 125.569 281.444 126.054 279.886 125.705C278.293 125.348 276.701 123.539 275.672 122.354C273.259 119.573 271.854 115.18 271.722 111.541C271.656 109.695 271.902 107.84 271.989 105.997C272.037 104.958 271.816 102.033 272.696 101.305C272.892 101.143 274.619 101.029 274.791 101.209ZM261.807 104.692C259.66 104.815 257.818 108.176 258.215 110.138C258.542 111.75 259.092 110.504 259.51 109.811C260.003 108.995 260.896 108.007 261.955 108.216C263.133 108.449 263.433 109.884 263.914 110.793C264.789 112.452 265.062 110.671 265.256 109.664C265.102 107.696 264.379 104.545 261.807 104.692V104.692Z" fill="#FFB33D"/>
<path fill-rule="evenodd" clip-rule="evenodd" d="M391.199 205.111C390.08 205.458 389.03 205.97 387.952 206.427C386.728 206.946 385.873 207.037 384.536 207.035C379.361 207.027 374.24 207.293 369.055 207.397C367.639 207.426 366.201 207.44 364.785 207.414C364.213 207.404 363.653 207.339 363.083 207.292C362.716 207.262 361.113 207.482 360.899 207.353C360.298 206.992 360.655 204.663 360.582 203.917C360.455 202.621 360.127 201.372 359.67 200.155C358.035 195.799 355.286 191.55 351.81 188.441C356.51 186.467 361.637 183.864 366.853 185.036C368.84 185.481 371.473 186.065 372.496 187.987C373.588 190.039 374.544 192.295 375.792 194.259C377.187 196.455 378.669 198.335 380.688 199.982C381.485 200.632 385.501 204.624 384.891 201.542C384.696 200.554 383.973 199.635 383.395 198.828C383.101 198.418 381.519 197.072 381.765 196.596C382.041 196.063 384.896 195.687 385.508 195.517C386.772 195.167 388.028 194.793 389.287 194.426C388.832 195.283 386.356 198.529 387.938 199.359C388.519 199.664 390.022 198.584 390.659 198.394C391.744 198.071 392.736 198.284 393.803 198.604C393.775 199.127 392.746 199.134 392.404 199.492C391.904 200.015 391.553 201.426 391.945 202.053C392.676 203.222 395.503 202.029 396.767 202.473C395.346 203.939 393.117 204.516 391.199 205.111ZM320.581 156.886C320.595 156.917 320.568 156.959 320.398 157.106C320.347 156.92 320.254 156.879 320.141 156.931C320.232 156.831 320.307 156.779 320.398 157.106C320.47 157.044 320.53 156.967 320.581 156.886ZM321.013 156.272C320.979 156.384 320.902 156.436 320.784 156.433L320.8 156.381C320.879 156.137 320.983 156.178 320.948 155.728C320.995 155.803 321.03 155.879 321.004 155.955C321.079 156.069 321.081 156.175 321.013 156.272ZM308.433 177.41C308.553 177.121 308.584 176.786 308.739 176.521C308.587 176.79 308.585 177.122 308.433 177.41ZM357.057 207.17C355.183 207.095 353.358 207.128 351.485 207.21C347.483 207.384 343.464 207.41 339.469 207.731C337.516 207.888 335.637 207.948 333.678 207.882C331.964 207.824 330.245 207.885 328.537 207.741C326.661 207.584 324.905 207.066 323.013 207.037C321.203 207.011 319.048 206.801 317.292 207.066C316.989 207.111 316.826 207.304 316.469 207.351C315.974 207.415 315.279 207.214 314.773 207.18C313.886 207.12 312.904 207.218 312.038 207.011C311.741 206.941 311.533 206.831 311.244 206.715C310.984 206.61 310.4 206.529 310.257 206.492C311.082 206.184 309.251 205.557 309.104 205.523C309.067 205.648 309.149 205.823 309.284 205.992C308.816 205.633 309.318 205.765 308.551 205.401C308.229 205.248 307.62 205.149 307.259 205.109C306.911 205.07 306.724 205.111 306.566 205.102C306.598 205.067 306.629 205.019 306.66 204.956C306.915 204.428 306.136 203.826 305.698 204.18C305.749 204.284 305.831 204.474 305.93 204.661C305.926 204.656 305.922 204.652 305.918 204.647C305.755 204.459 305.45 203.98 305.146 203.657C305.531 203.445 305.06 203.155 304.882 202.859C304.761 202.926 304.626 202.982 304.556 203.075C304.657 202.864 304.908 202.672 304.761 202.261C304.719 202.144 304.608 201.967 304.468 201.842C304.601 201.946 304.739 202.061 304.917 202.037C304.694 201.699 304.612 201.571 304.527 201.232C304.467 200.994 304.801 200.763 304.484 200.548C304.493 200.323 304.627 199.29 304.066 199.65L304.066 199.651L304.066 199.649C304.425 198.551 305.036 197.418 305.49 196.344C306.547 193.844 307.634 191.325 308.74 188.847C310.569 184.747 312.479 180.658 314.584 176.668C316.67 172.713 318.948 168.888 320.918 164.878C322.817 161.01 325.033 157.309 326.946 153.446C327.847 151.627 329.055 150.123 329.362 148.009C329.461 147.325 329.493 145.897 328.457 146.154C327.783 146.321 326.84 148.007 326.406 148.556C326.016 148.021 323.819 144.879 323.23 146.751C322.725 148.356 325.889 149.055 324.626 150.672C324.501 150.832 323.983 150.994 323.813 151.142C323.481 151.43 323.178 151.939 322.922 152.287C322.339 153.08 321.856 153.923 321.317 154.743C321.215 154.898 320.844 155.247 320.816 155.428C320.801 155.523 320.881 155.622 320.944 155.722C320.505 156.11 319.952 156.453 319.849 157.082C319.876 157.094 319.905 157.098 319.934 157.093C319.527 157.519 319.01 158.553 318.936 158.661C318.387 159.46 317.847 160.296 317.304 161.14C317.011 161.596 316.497 162.132 316.329 162.644C316.271 162.821 316.442 163.139 316.282 163.305C315.863 163.741 315.454 163.648 315.141 164.525C315.017 164.87 315.007 165.352 314.808 165.649C314.491 166.123 314.036 166.347 313.739 166.858C313.176 167.828 312.501 168.893 312.147 169.871C312.145 169.875 312.145 169.879 312.143 169.883C312.13 169.799 312.114 169.715 312.095 169.633L311.492 170.716C311.84 170.648 312.026 170.554 312.11 170.399C312.101 170.451 312.084 170.504 312.052 170.561C311.875 170.642 311.686 170.695 311.492 170.716C311.357 170.938 311.231 171.165 311.114 171.397C311.056 171.514 310.862 172.229 310.781 172.77C310.751 172.56 310.721 172.371 310.717 172.346L309.952 173.818C310.415 173.463 310.389 173.402 310.829 173.394C310.274 173.405 309.434 174.184 309.357 174.934C309.344 175.055 309.419 175.188 309.485 175.314C309.469 175.312 309.453 175.31 309.437 175.308C308.856 175.259 309.026 175.376 308.805 175.861C308.889 175.827 309.379 175.636 309.563 175.487C309.583 175.551 309.586 175.609 309.555 175.659C309.411 175.888 308.234 175.74 308.99 176.248C308.361 175.826 308.048 177.212 308.261 177.688C308.092 177.933 307.891 178.158 307.701 178.383C307.236 178.939 306.978 179.36 306.673 180.036C306.154 181.188 305.534 182.33 304.966 183.46C304.751 183.889 304.5 184.255 304.235 184.654C303.766 185.361 303.849 185.184 304.219 185.955C304.08 185.91 303.875 186.019 303.676 186.178C303.784 185.994 303.922 185.858 304.219 185.955C303.749 184.977 303.346 186.169 303.13 186.729C303.14 186.729 303.148 186.727 303.157 186.726C303.128 186.769 303.105 186.808 303.092 186.839C302.872 187.294 302.611 187.572 302.799 188.049C302.854 187.784 303.069 187.578 303.16 187.35C303.031 187.906 302.425 188.572 302.242 188.94C302.09 189.246 302.068 189.567 301.881 189.9C301.706 190.212 301.547 190.423 301.413 190.78C300.761 192.509 300.443 194.434 300.032 196.249C299.546 198.394 299.346 200.674 299.241 202.869C299.211 203.507 299.194 204.071 299.424 204.677C299.458 204.765 299.816 205.232 299.806 205.404C299.757 206.297 298.079 206.111 297.434 206.085C296.409 206.044 295.71 206.21 294.725 206.352C293.816 206.484 292.924 206.412 292.001 206.635C290.468 207.005 288.186 207.592 286.704 206.778C285.987 206.385 285.085 205.244 284.565 204.604C283.924 203.817 283.709 203.014 283.594 202.011C283.399 200.294 283.385 198.398 283.982 196.758C286.755 189.135 291.512 182.206 295.614 175.269C299.464 168.759 303.779 162.589 307.636 156.097C309.676 152.665 312.129 149.27 314.554 146.098C317.033 142.857 318.802 139.33 320.55 135.66C322.362 136.621 324.279 137.609 326.305 138.043C327.457 138.29 328.601 138.215 329.762 138.295C330.618 138.353 331.334 138.556 332.206 138.578C336.029 138.675 340.446 138.217 344.1 137.088C344.977 136.817 345.76 136.536 346.582 136.146C347.632 135.648 347.915 135.436 347.975 136.594C348.09 138.836 348.456 141.016 348.628 143.245C348.796 145.417 349.234 147.56 349.621 149.706C349.817 150.793 350.028 151.879 350.189 152.972C350.311 153.801 350.679 154.955 350.533 155.784C350.372 156.699 349.504 157.627 349.008 158.408C348.504 159.2 347.998 159.991 347.496 160.784C346.555 162.271 345.617 163.682 344.505 165.047C342.443 167.577 340.688 170.223 338.733 172.835C336.657 175.609 334.932 178.605 332.895 181.407C331.819 182.888 330.718 184.284 330.013 185.951C329.428 187.334 328.25 188.606 327.531 189.975C326.585 191.772 325.383 193.418 324.444 195.224C323.788 196.485 322.523 197.768 322.39 199.234C322.167 201.693 324.506 199.236 325.047 198.55C325.773 197.63 326.569 196.021 327.659 195.522C328.438 195.166 329.576 195.205 330.422 194.926C331.308 194.634 332.177 194.331 333.072 194.064C334.815 193.543 336.497 192.808 338.191 192.147C339.944 191.462 341.698 190.771 343.418 190.01C344.215 189.658 344.886 189.477 345.737 189.324C346.103 189.258 347.414 188.639 347.702 188.691C348.187 188.78 348.855 190.204 349.222 190.57C349.788 191.135 350.426 191.597 350.954 192.204C351.996 193.401 353.1 194.676 354.004 195.976C356.023 198.882 357.911 202.056 358.629 205.555C358.951 207.126 358.576 207.23 357.057 207.17ZM304.549 203.371C304.538 203.347 304.529 203.322 304.524 203.295C304.53 203.32 304.536 203.344 304.549 203.371C304.788 203.23 304.851 203.305 304.876 203.421C304.755 203.344 304.644 203.315 304.549 203.371ZM303.992 201.749C303.983 201.709 303.978 201.668 303.976 201.627C303.98 201.667 303.983 201.708 303.992 201.749C304.123 201.662 304.232 201.687 304.337 201.749C304.226 201.689 304.105 201.674 303.992 201.749ZM304.233 200.688C304.306 200.682 304.39 200.642 304.484 200.548C304.407 200.625 304.334 200.707 304.267 200.792C304.269 200.782 304.27 200.772 304.271 200.761C304.273 200.741 304.256 200.715 304.233 200.688ZM280.428 191.795C279.883 193.078 279.657 194.482 279.194 195.796C278.841 196.801 278.7 197.794 278.607 198.846C278.93 199.083 278.922 199.293 278.585 199.474C278.561 199.703 278.553 199.932 278.561 200.162C278.473 200.831 278.602 201.414 278.779 202.055C279.06 203.072 279.416 203.803 279.938 204.683C276.77 205.758 273.161 206.06 269.837 205.982C268.04 205.94 266.025 205.936 264.275 206.38C262.39 206.857 260.737 206.657 258.801 206.491C259.084 205.921 260.165 204.97 260.712 204.574C260.991 204.373 261.449 204.338 261.661 204.113C261.962 203.791 261.998 203.167 262.115 202.746C262.862 200.057 263.415 197.347 263.884 194.598C264.71 189.751 265.095 184.79 265.338 179.907C265.359 179.494 265.572 179.03 265.562 178.639C265.548 178.125 265.401 177.957 265.443 177.44C265.469 177.104 265.873 176.646 265.844 176.346C265.826 176.159 265.366 176.321 265.393 175.954C265.436 175.388 266.169 174.642 266.335 174.134C266.409 173.908 266.134 173.683 266.142 173.437C266.14 173.507 266.324 172.673 266.331 172.643C266.387 172.403 266.611 172.303 266.599 172.009C266.587 171.742 266.199 171.393 266.409 171.116C266.622 170.836 267.063 171.26 267.198 171.015C267.35 170.738 266.679 169.791 266.754 169.362C266.884 168.61 267.396 167.801 267.596 167.038C267.671 166.752 267.55 166.398 267.783 166.151C268.188 165.72 268.54 166.162 269.124 166.017C268.544 165.525 268.417 165.05 268.589 164.328C268.728 163.742 268.997 163.108 269.63 163.687C269.547 162.924 269.457 162.847 270.005 162.21C270.478 161.659 271.091 161 271.658 160.579C272.504 159.949 273.855 159.625 274.858 159.551C275.954 159.47 277.3 160.057 278.129 160.885C279.138 161.892 280.442 162.626 281.586 163.588C282.808 164.616 283.857 165.837 285.03 166.927C285.271 167.15 285.715 167.776 286.087 167.668C286.694 167.493 286.204 166.587 286.071 166.184C285.125 163.316 283.424 160.427 281.084 158.471C279.878 157.462 278.677 156.186 277.275 155.451C276.142 154.857 275.257 154.951 274.052 154.908C273.022 154.872 272.811 154.811 271.893 155.244C271.242 155.552 270.597 155.851 269.983 156.227C269.001 156.827 267.988 157.557 267.262 158.464C265.33 160.879 264.576 163.951 263.816 166.894C262.981 170.132 262.405 173.295 262.304 176.655C262.201 180.073 262.042 183.441 261.706 186.845C261.53 188.615 261.328 190.383 261.1 192.147C260.889 193.774 260.878 195.522 260.55 197.119C260.138 196.518 260.009 196.053 259.781 195.405C259.627 194.969 259.472 194.984 259.249 194.662C258.777 193.981 258.188 192.689 258.002 191.849C257.888 191.335 257.994 191.077 257.783 190.625C257.718 190.485 257.364 190.595 257.307 190.373C257.266 190.215 257.488 190.092 257.478 190.038C257.455 189.913 257.799 189.774 257.502 189.38C257.079 188.821 257.296 189.522 257.068 189.513C256.877 189.505 257.448 187.575 257.381 187.295C257.357 187.196 257.034 187.183 257.008 187.091C256.929 186.812 256.947 186.41 256.87 186.108C256.683 185.37 256.405 185.075 256.392 184.233C256.374 183.12 255.961 182.333 255.763 181.271C255.725 181.067 255.95 180.846 255.907 180.67C255.822 180.311 255.556 179.996 255.458 179.616C255.27 178.884 255.521 177.851 255.47 177.256C255.425 176.735 255.279 175.889 255.183 175.242C255.026 174.188 255.307 174.532 255.765 173.869C255.13 173.665 255.211 173.845 255.008 173.163C254.775 172.376 254.796 171.911 255.51 172.347C255.321 171.88 254.968 171.307 254.891 170.805C254.819 170.34 254.989 169.912 254.94 169.45C254.808 168.199 254.418 167.519 255.129 166.305C254.215 165.837 254.613 164.226 254.47 163.327C254.316 162.356 253.941 161.45 254.663 160.818C253.921 160.284 254.215 158.751 254.218 157.933C254.219 157.562 254.345 156.908 254.313 156.579C254.291 156.347 254.133 156.191 254.087 155.921C253.919 154.921 254.291 153.93 254.067 152.935C253.815 151.814 253.785 150.857 253.698 149.758C253.614 148.693 253.45 147.586 253.379 146.494C253.326 145.684 253.01 144.807 253.156 143.967C253.167 143.901 253.36 143.304 253.366 143.439C253.357 143.223 253.2 142.956 253.193 142.827C253.141 141.856 253.122 141.064 253.164 140.077C253.162 140.077 253.16 140.077 253.158 140.077C253.278 140.004 253.343 139.852 253.348 139.615C254.257 139.527 255.251 139.749 256.17 139.774C257.16 139.8 258.147 139.75 259.135 139.705C259.771 139.675 261.142 139.374 261.627 139.905C261.978 140.29 261.757 142.27 261.78 142.785C261.808 143.394 262.116 144.349 261.76 144.881C261.539 145.212 261.04 145.344 260.782 145.706C260.626 145.927 260.499 146.297 260.416 146.537C260.164 147.259 260.064 148.038 260.102 148.801C260.284 152.371 263.145 154.01 266.357 152.572C269.156 151.319 269.917 147.528 267.512 145.405C266.946 144.904 266.343 144.777 265.621 144.654C265.161 144.576 263.908 144.624 263.609 144.296C263.311 143.971 263.383 142.957 263.35 142.535C263.297 141.857 263.025 140.851 263.173 140.197C262.93 139.652 263.092 139.422 263.657 139.506L264.194 139.398C264.645 139.316 265.088 139.217 265.546 139.186C266.362 139.13 267.158 139.227 267.975 139.118C268.776 139.01 269.562 138.81 270.364 138.706C271.217 138.596 272.055 138.719 272.899 138.574C274.65 138.274 276.533 137.871 278.172 137.182C278.611 136.998 279.355 136.467 279.842 136.554C280.425 136.659 280.269 137.03 280.437 137.585C281.369 140.663 283.305 143.703 285.354 146.149C287.289 148.459 289.839 150.321 292.145 152.258C293.544 153.432 294.886 154.667 296.184 155.95C297.127 156.882 298.138 158.338 299.355 158.876C299.632 158.886 300.701 158.763 300.897 158.964C301.123 159.194 301.109 159.324 301.019 159.467C301.277 158.787 300.048 158.901 299.354 158.876C299.433 159.008 300.211 160.568 300.404 159.7L300.739 159.9C300.186 161.121 299.47 162.346 298.692 163.439C298.125 164.236 297.393 164.813 296.884 165.639C296.242 166.682 295.707 167.764 294.894 168.693C293.271 170.546 292.368 173.037 290.954 175.093C290.274 176.081 289.919 176.999 289.212 177.983C288.659 178.753 287.763 179.726 287.44 180.612C287.311 180.966 287.45 181.273 287.214 181.601C287.065 181.808 286.624 182.033 286.416 182.248C285.589 183.102 284.945 184.32 284.296 185.324C283.606 186.393 283.125 187.503 282.54 188.617C281.94 189.76 280.947 190.57 280.428 191.795V191.795ZM258.92 196.674C258.49 196.681 258.329 196.683 258.281 196.495C258.267 196.438 258.263 196.364 258.265 196.268C258.263 196.364 258.267 196.438 258.281 196.495C258.329 196.683 258.49 196.681 258.92 196.674ZM258.974 195.074C259.018 195.194 258.75 195.398 258.039 195.323C258.744 195.397 259.013 195.195 258.974 195.074ZM252.786 207.495C252.207 207.293 250.699 206.935 249.718 206.511C250.156 206.634 250.612 206.735 250.787 206.796L252.786 207.495C253.73 204.092 257.275 202.795 260.309 201.538C258.847 201.477 258.325 200.209 257.442 199.302C258.324 200.206 258.854 201.477 260.308 201.538C257.276 202.795 253.73 204.092 252.786 207.495ZM249.471 204.069C249.437 204.124 249.405 204.182 249.371 204.244C249.281 204.413 248.94 205.169 248.797 205.665C248.769 205.155 249.072 204.558 249.471 204.069V204.069ZM252.808 139.449C252.862 139.428 252.906 139.424 252.945 139.428C252.786 139.435 252.743 139.623 252.737 139.884C252.599 139.738 252.566 139.546 252.808 139.449H252.808ZM263.817 147.314C264.85 147.827 265.852 148.125 266.838 148.746C265.629 149.686 261.769 151.204 261.884 148.299C261.898 147.961 262.096 147.051 262.405 146.85C262.874 146.544 263.407 147.11 263.817 147.314ZM251.992 133.789C256.541 135.377 261.84 134.984 266.463 134.21C271.43 133.378 276.39 132.889 281.202 131.332C281.206 132.002 281.497 132.703 280.966 133.256C280.55 133.689 279.647 133.771 279.098 133.953C277.659 134.43 276.423 135.125 274.92 135.41C273.236 135.729 271.553 135.723 269.854 135.912C269.239 135.98 268.66 136.091 268.082 136.202C267.282 136.214 266.655 136.322 265.856 136.544C262.998 136.557 260.16 136.642 257.314 136.302C255.869 136.129 254.439 135.917 252.99 135.769C251.633 135.631 251.936 135.046 251.992 133.789ZM250.252 121.579C247.573 122.319 244.81 122.098 242.174 121.251C240.269 120.638 237.741 119.741 237.34 117.422C237.075 115.892 237.992 115.614 239.071 114.979C239.586 114.675 239.838 114.446 240.185 113.931C240.391 113.625 240.576 112.857 240.807 112.648C241.37 112.138 243.148 112.586 244.03 112.547C245.344 112.488 246.234 112.046 247.442 111.657C249.577 110.968 250.928 110.133 252.585 108.558C254.197 107.026 256.089 105.468 257.393 103.662C258.852 101.64 260.249 99.6726 261.839 97.7443C263.017 96.3153 265.154 93.4551 267.268 93.4682C268.33 93.475 268.172 94.4757 269.015 94.9843C269.785 95.4486 270.791 95.1255 271.637 95.0448C271.079 96.312 270.306 97.6152 270.58 99.0489C270.733 99.8518 270.815 100.129 270.501 100.889C270.214 101.583 269.904 102.198 269.727 102.941C269.036 105.838 268.709 109.098 268.998 112.06C269.5 117.188 271.257 122.482 275.101 126.101C275.977 126.926 276.94 127.586 278.013 128.129C279.084 128.671 279.173 129.235 277.846 129.477C275.264 129.948 272.642 130.27 270.041 130.619C267.443 130.969 264.799 131.333 262.179 131.387C260.884 131.414 259.596 131.575 258.3 131.483C257.655 131.437 257.014 131.322 256.367 131.304C255.802 131.288 254.959 131.571 254.433 131.348C253.61 131 254.019 128.591 253.959 127.755C253.889 126.795 253.284 124.995 253.643 124.088C253.896 123.451 254.824 123.184 255.304 122.688C256.093 121.875 256.839 120.91 257.14 119.801C258.139 120.607 257.279 121.124 257.582 122.107C257.913 123.18 258.523 122.842 259.001 122.107C259.798 120.878 259.744 118.98 258.982 117.755C258.541 117.047 257.824 116.515 257.089 116.136C256.493 115.83 255.176 115.229 254.517 115.495C252.729 116.218 254.632 118.354 255.541 118.861C255.323 119.492 253.774 120.402 253.183 120.672C252.306 121.072 251.194 121.319 250.252 121.579ZM274.8 102.017C274.824 102.361 274.86 102.689 274.974 103.018C275.205 103.688 275.668 104.269 276.306 104.601C277.543 105.245 280.052 104.318 281.139 103.558C281.139 105.861 281.552 107.693 282.213 109.878C282.852 111.993 284.161 113.713 285.274 115.59C285.851 116.563 286.381 117.568 287.196 118.367C288.024 119.18 288.162 119.491 288.086 120.689C287.962 122.661 287.023 124.007 285.247 124.823C283.84 125.603 280.935 126.237 279.402 125.585C277.791 124.9 276.221 123.126 275.178 121.761C272.807 118.659 271.605 113.987 271.749 110.13C271.824 108.122 271.93 106.066 272.122 104.065C272.262 102.606 272.211 100.51 274.332 101.167C275.018 101.379 274.745 101.221 274.8 102.017ZM282.939 128.952C283.144 128.536 284.944 128.117 285.257 128.361C285.732 128.732 285.752 130.894 285.919 131.509C286.186 132.489 286.531 133.447 286.952 134.371C287.833 136.303 289.097 138.298 290.597 139.803C292.151 141.361 293.936 142.441 295.823 143.558C296.362 143.878 296.884 144.263 297.439 144.553C297.671 144.674 298.102 144.731 298.284 144.914C298.737 145.367 298.528 146.296 298.523 146.886C298.501 149.247 298.509 151.532 298.822 153.862C296.973 152.431 295.303 150.615 293.657 148.946C291.931 147.197 289.708 146.042 288.072 144.189C286.583 142.503 285.411 140.539 284.317 138.589C283.838 137.735 282.925 136.646 282.892 135.648C282.857 134.571 283.348 133.432 283.353 132.317C283.357 131.528 282.635 129.572 282.939 128.952ZM305.14 153.061C305.028 153.775 305.118 155.304 304.125 155.457C303.442 155.563 303.022 154.915 302.772 154.372C302.016 152.731 302.266 150.542 301.984 148.779C301.65 146.698 301.642 144.646 301.384 142.562C301.157 140.724 300.399 138.406 300.812 136.595C301.187 136.586 302.199 140.129 302.417 140.691C302.867 141.848 303.384 142.822 303.774 144.021C304.289 145.61 304.735 147.127 304.972 148.789C305.14 149.958 305.766 152.033 305.14 153.062V153.061ZM310.628 145.226C309.702 146.663 308.702 148.161 307.398 149.36C307.398 148.689 306.896 146.51 307.236 145.991C307.641 145.374 309.938 145.346 310.628 145.226H310.628ZM274.715 88.6252C275.502 88.2682 276.379 88.1558 277.173 87.7867C277.931 87.4341 278.494 87.2212 279.336 87.1522C282.262 86.9119 285.241 87.6608 287.948 88.4799C289.438 88.9306 290.613 89.9185 291.871 90.7739C293.173 91.6588 293.887 92.4294 294.454 93.9271C295.673 97.1482 296.424 100.194 296.909 103.591C297.401 107.037 296.602 110.521 296.652 113.974C296.701 117.382 296.944 120.929 298.026 124.173C298.863 126.681 300.346 130.719 303.472 130.969C306.439 131.207 308.95 128.147 310.176 125.85C313.419 119.778 314.638 112.837 314.814 106.021C315.272 103.741 315.534 101.282 316.327 99.0949C317.21 100.475 317.93 101.956 318.741 103.379C319.632 104.94 319.574 106.214 319.497 107.988C319.437 109.368 318.951 110.686 318.774 112.06C318.569 113.646 318.194 115.192 318.104 116.794C317.998 118.683 318.103 120.591 317.944 122.475C317.811 124.059 317.461 125.65 317.207 127.22C316.961 128.745 316.93 130.247 316.966 131.768C317.002 133.239 317.511 134.669 318.758 135.456C316.904 137.744 314.593 141.112 311.489 141.654C310.448 141.835 309.475 141.977 308.421 142.054C307.564 142.117 306.563 142.598 305.824 142.063C304.551 141.144 304.301 139.094 303.82 137.753C303.487 136.826 300.19 129.231 298.454 131.383C298.145 131.766 298.218 133.173 298.17 133.713C298.102 134.491 298.134 135.283 298.109 136.064C298.077 137.058 297.989 138.066 298.058 139.06C298.1 139.66 298.46 140.307 297.781 140.451C297.153 140.585 295.828 139.337 295.371 139.013C294.757 138.58 294.096 138.254 293.474 137.836C292.196 136.977 291.183 135.896 290.273 134.67C289.358 133.436 288.543 132.052 287.924 130.644C287.609 129.929 287.352 129.197 287.09 128.463C287.095 128.479 286.7 127.554 286.721 127.489C286.791 127.282 287.628 126.938 287.835 126.775C290.195 124.912 290.668 120.278 290.041 117.568C289.661 115.928 288.404 114.487 287.512 113.091C286.649 111.743 285.737 110.422 285.022 108.986C284.234 107.405 283.624 105.745 282.917 104.128C282.575 103.348 282.166 102.946 282.676 102.232C282.988 101.793 283.635 101.614 283.913 101.135C284.193 100.652 284.222 99.7212 283.718 99.3764C283.167 98.9988 282.366 99.526 281.86 99.7316C281.186 100.006 280.513 100.139 279.824 100.349C279.043 100.589 278.34 101.119 277.511 101.119C277.956 99.5834 279.883 99.7287 280.508 98.3008C280.935 97.3248 280.88 95.5086 279.548 95.3478C278.792 95.2563 278.196 95.8332 277.634 96.2202C276.894 96.7292 276.336 96.8242 275.469 96.9838C275.15 97.0426 274.631 97.3417 274.329 97.24C273.837 97.0753 274.121 97.1771 274.378 96.7733C274.761 96.1729 275.665 95.5868 276.212 95.1487C277.44 94.1638 279.143 93.4534 280.208 92.3084C280.912 91.551 281.258 89.0049 279.921 88.5985C279.384 88.4353 278.512 88.9671 277.987 89.1299C277.099 89.4045 276.195 89.6232 275.319 89.9366C273.763 90.4932 272.268 91.1543 270.689 91.6537C271.589 90.3733 273.297 89.2691 274.715 88.6252ZM327.335 88.2498C327.335 89.1299 327.671 90.8024 327.292 91.6024C326.95 92.3226 324.876 92.7242 324.143 92.9993C321.77 93.8906 319.417 94.8831 316.992 95.621C319.491 91.9192 323.206 89.77 327.335 88.25L327.335 88.2498ZM326.985 76.2966C326.37 77.1796 325.302 78.3768 324.051 77.9595C322.704 77.5097 321.648 75.4456 322.336 74.1361C322.925 73.0172 324.603 72.3153 325.64 73.1971C325.866 73.3894 326.014 73.8813 326.23 74.0317C326.369 74.1281 326.589 73.8701 326.759 73.9736C327.261 74.2777 327.454 75.021 328.177 74.9588C328.511 74.9302 329.584 74.0557 329.804 73.8321C330.391 73.2337 330.186 72.6205 330.279 71.8341C330.408 70.7505 331.155 70.5844 332.015 70.0254C332.834 69.4928 333.492 68.6989 334.303 68.1862C335.27 67.5737 334.716 68.3502 335.599 68.427C335.758 68.441 336.114 67.9114 336.391 67.9201C336.749 67.9317 336.905 68.1703 337.11 68.4306C337.555 68.9961 337.228 69.1736 338.003 69.3054C338.563 69.4006 338.91 68.9937 339.389 69.0017C339.78 68.5582 340.36 67.6321 341.061 67.9058C341.535 68.0908 341.704 69.0838 341.806 69.4984C342.191 71.0702 342.162 72.9176 342.176 74.5296C341.275 73.8975 341.159 73.4729 340.877 72.4538C340.694 71.7917 340.253 70.8186 339.771 71.8132C339.634 72.0956 339.752 72.5284 339.661 72.8387C339.556 73.1983 339.305 73.3756 339.266 73.7679C339.172 74.7197 339.951 75.0462 340.624 75.5097C339.996 76.1864 338.19 75.6756 338.671 77.1203C339.181 78.647 341.137 77.8018 342.113 77.4187C342.945 80.5724 339.249 82.0919 336.996 82.9543C335.674 83.4605 335.156 83.7429 334.974 85.2871C334.82 86.6141 334.995 87.9586 335.482 89.2023C335.677 89.6978 335.863 90.375 336.128 90.8337C336.353 91.2221 336.802 91.2493 336.953 91.4658C337.509 92.2655 337.108 94.0003 337.043 94.9598C336.865 97.5834 336.048 99.9729 335.697 102.533C335.516 103.843 334.977 105.069 334.745 106.363C334.533 107.55 334.45 108.672 333.449 109.521C331.438 111.227 329.883 108.707 329.186 107.051C328.194 104.692 328.095 101.591 328.258 99.0756C328.437 96.3408 329.687 93.7135 329.754 90.9993C329.824 88.0965 329.386 85.3406 328.66 82.5339C328.342 81.3072 327.88 80.2089 327.488 79.0232C327.168 78.0534 327.698 77.1777 326.985 76.2966ZM332.212 47.5792C332.212 47.5814 332.212 47.5833 332.213 47.5855C332.2 47.5712 332.187 47.5577 332.174 47.541C332.188 47.5584 332.201 47.57 332.212 47.5792ZM332.272 47.3073C332.242 47.1024 332.177 46.8447 332.132 46.7284C332.241 46.7955 332.364 46.8519 332.368 46.9222C332.38 47.1237 332.322 47.2186 332.272 47.3073ZM335.258 47.8251C335.236 47.8369 335.216 47.8498 335.195 47.8614C335.151 47.8617 335.107 47.8524 335.066 47.8343C335.081 47.8372 335.096 47.8396 335.114 47.841C335.163 47.8444 335.211 47.8372 335.258 47.8251ZM336.818 47.3109C336.538 47.3085 336.244 47.2826 335.918 47.4242C335.967 47.3932 336.019 47.3672 336.073 47.3465C336.22 47.2947 336.529 47.3005 336.818 47.3109ZM320.991 124.023C321.051 122.71 321.05 122.316 322.082 121.469C322.942 120.763 323.774 120.022 324.643 119.327C326.568 117.787 328.624 116.156 330.812 115.006C332.038 114.362 335.383 113.064 334.538 115.607C333.74 118.007 332.201 120.139 330.875 122.271C329.524 124.444 328.173 126.619 326.769 128.759C326.159 129.69 325.515 130.603 324.93 131.55C324.356 132.483 324.296 133.112 323.118 132.726C322.261 132.445 321.293 132.103 320.485 131.738C319.775 131.417 319.818 131.221 319.798 130.387C320.238 128.231 320.889 126.254 320.991 124.023ZM326.482 97.7467C326.184 98.9479 324.044 99.0911 322.89 99.324C322.691 99.364 321.686 99.6893 321.498 99.5779C321.128 99.3575 321.31 98.7208 321.152 98.4125C320.288 96.7249 320.275 98.8823 320.029 99.3904C319.355 100.782 318.323 97.9954 317.945 97.3132C317.653 96.7881 317.341 96.521 317.643 96.0802C317.894 95.7133 319.29 95.4612 319.719 95.3028C321.284 94.7251 322.844 94.1366 324.404 93.5476C325.075 93.2941 327.144 91.9659 327.121 93.2425C326.898 94.7111 326.839 96.3098 326.482 97.7467ZM325.312 112.092C324.654 112.297 322.867 113.116 322.201 112.73C321.639 112.403 322.028 111.259 322.091 110.663C322.21 109.54 322.192 108.319 322.129 107.193C322.035 105.529 321.896 105.398 323.538 104.951C324.172 104.777 326.108 103.841 326.58 104.369C326.799 104.616 326.706 105.4 326.755 105.699C326.86 106.346 327.04 106.978 327.276 107.589C327.685 108.645 328.281 109.592 328.905 110.531C327.786 111.219 326.563 111.703 325.312 112.092ZM321.596 100.33C321.881 99.921 323.295 99.8629 323.763 99.7641C324.589 99.5892 325.416 99.4163 326.243 99.2417C326.287 100.248 326.856 102.878 326.132 103.604C325.725 104.013 324.363 104.118 323.786 104.26C323.158 104.415 322.529 104.566 321.899 104.718C321.828 103.748 321.769 102.777 321.666 101.809C321.627 101.453 321.365 100.662 321.596 100.33ZM321.759 113.621C322.194 113.121 323.371 113.135 324.025 112.982C325.068 112.739 326.055 112.406 327.041 111.994C327.594 111.763 328.681 110.974 329.291 111.174C329.462 111.229 329.819 111.934 329.95 112.066C330.172 112.292 330.459 112.445 330.717 112.624C331.427 113.116 331.858 113.269 332.696 113.436C328.315 115.232 324.795 118.429 321.171 121.377C320.914 121.162 321.057 119.234 321.085 118.792C321.138 117.971 321.173 117.14 321.234 116.317C321.285 115.64 321.298 114.153 321.76 113.621L321.759 113.621ZM335.064 131.1C334.932 131.847 334.912 132.874 334.591 133.565C334.297 134.198 334.333 134.154 333.552 134.172C332.564 134.196 331.431 134.362 330.476 134.061C331.329 132.176 332.04 130.127 333.208 128.407C333.575 127.867 334.283 126.484 335.051 126.566C335.821 126.649 335.652 127.421 335.591 127.98C335.477 129.023 335.247 130.067 335.064 131.1ZM338.91 101.689C339.503 97.6217 339.453 93.6452 339.453 89.5494C340.399 89.6746 341.442 89.5956 342.354 89.8632C342.059 90.8024 341.21 91.6496 342.051 92.5413C342.904 93.4471 344.895 93.8443 346.049 94.1776C347.4 94.5682 348.778 95.0458 350.167 95.2778C350.791 95.382 351.471 95.4832 352.101 95.3621C353.098 95.1708 353.186 94.9061 353.842 95.9332C353.845 95.9387 353.851 95.947 353.854 95.953C353.665 95.8441 353.064 95.9097 353.224 95.9143C353.248 95.9971 353.283 96.0795 353.303 96.1562C353.127 96.0109 352.735 95.8881 352.681 95.8784C352.029 95.7639 351.202 96.0564 350.574 96.2013C349.166 96.5268 347.768 96.8811 346.404 97.3628C345.256 97.7682 344.119 98.2221 343.024 98.7549C342.179 99.1659 340.227 99.89 339.96 100.897C339.448 102.829 344.551 104.296 345.795 104.95C346.97 105.568 346.599 106.483 346.612 107.71C346.627 109.042 346.747 110.362 346.655 111.691C346.583 112.721 346.504 112.562 345.477 112.543C344.707 112.529 343.938 112.498 343.169 112.544C342.084 112.609 340.971 112.759 339.953 113.153C338.43 113.743 335.505 116.552 338.42 117.408C339.62 117.76 341.167 117.631 342.397 117.546C343.464 117.473 345.136 116.987 346.165 117.354C346.702 117.202 346.895 117.397 346.746 117.939L346.82 119.054L346.969 121.297L347.274 125.888C346.38 124.62 345.149 122.119 343.244 122.405C341.608 122.65 340.641 125.187 340.114 126.496C339.686 127.559 339.409 128.674 339.12 129.781C338.841 130.845 338.74 132.35 338.231 133.315C337.731 134.265 337.034 133.946 336.009 134.044C334.726 134.166 335.243 133.448 335.447 132.358C335.757 130.698 336.856 127.834 335.797 126.287C334.444 124.312 332.533 127.971 332.013 128.96C331.527 129.884 331.113 130.841 330.741 131.816C330.501 132.446 330.307 133.805 329.687 134.148C328.928 134.571 327.724 133.896 327.027 133.675C326.208 133.416 325.313 133.308 324.472 133.138C326.866 129.39 329.356 125.698 331.679 121.906C332.841 120.01 334.306 118.019 334.943 115.874C335.065 115.468 335.213 115.08 335.163 114.647C335.121 114.279 334.566 113.699 334.601 113.443C334.654 113.064 335.415 112.747 335.771 112.348C337.009 110.963 337.319 109.315 337.704 107.554C338.121 105.637 338.628 103.625 338.91 101.689ZM343.585 90.0647C345.409 89.6719 347.481 90.7196 349.006 91.5656C350.012 92.1236 352.697 93.2902 352.8 94.6568C352.773 94.2863 350.303 94.5176 349.815 94.5295C347.729 94.0778 345.504 93.4687 343.557 92.5685C342.848 92.2405 342.016 91.9194 342.274 91.0778C342.443 90.5249 343.068 90.1761 343.585 90.0647ZM341.469 116.953C340.317 116.887 336.131 116.932 338.237 114.842C339.556 113.534 341.985 113.25 343.739 113.243C344.367 113.24 344.986 113.29 345.611 113.353C345.782 113.374 345.953 113.394 346.124 113.415C346.647 113.31 346.811 113.527 346.614 114.064C346.708 114.378 346.858 116.241 346.582 116.503C346.217 116.85 345.051 116.697 344.621 116.73C343.567 116.813 342.528 116.959 341.469 116.953ZM347.591 132.785C344.558 133.237 341.53 133.813 338.455 133.861C338.914 131.62 339.449 129.383 340.284 127.248C340.818 125.883 341.788 122.937 343.658 123.082C345.15 123.197 346.891 125.754 347.307 127.06C347.849 128.763 347.591 131.015 347.591 132.785V132.785ZM355.38 98.7101C355.319 99.0208 353.958 99.5796 353.667 99.7486C351.567 100.969 349.697 102.777 348.441 104.833C348.301 104.039 348.323 102.535 347.658 101.971C346.488 100.979 346.728 103.202 346.588 103.881C346.457 104.518 346.62 104.414 346.071 104.471C345.584 104.521 344.341 103.609 343.892 103.379C342.65 102.744 341.459 102.053 340.266 101.331C341.255 99.6982 344.17 98.9484 345.83 98.2952C348.216 97.3565 350.567 96.876 353.092 96.4873C353.514 96.707 353.569 96.2129 353.884 96.1022C353.899 96.0827 353.907 96.0594 353.909 96.0351C354.279 96.5861 355.47 98.2475 355.38 98.7101ZM358.469 120.718C359.644 126.117 359.936 131.734 361.42 137.067C362.831 142.137 364.084 147.185 365.714 152.186C366.654 155.067 367.525 157.977 368.78 160.743C369.656 162.672 370.35 166.787 372.483 167.69C373.879 168.281 374.498 167.758 374.349 166.343C374.219 165.111 373.581 164.337 373.053 163.273C372.87 162.903 372.272 161.857 372.337 161.464C372.418 160.975 372.542 161.028 373.052 160.786C374.134 160.273 375.213 159.925 376.365 159.628C375.9 160.349 374.972 161.38 374.897 162.262C374.835 162.99 375.358 164.324 376.081 164.603C376.764 164.867 377.568 164.311 378.153 163.971C378.83 163.578 379.475 163.469 380.22 163.19C379.271 164.559 377.714 165.649 378.381 167.532C379.092 169.54 381.297 167.898 382.707 167.671C382.304 169.227 380.517 171.001 379.232 171.867C378.369 172.448 377.432 172.972 376.506 173.443C376.148 173.625 375.677 173.736 375.348 173.953C375.222 174.036 375.012 174.386 374.898 174.441C373.298 175.213 371.117 175.41 369.376 175.781C367.459 176.19 365.809 176.29 363.834 176.196C362.201 176.117 360.392 175.114 359.028 174.271C357.99 173.631 357.838 172.848 357.516 171.718C356.98 169.844 356.501 167.958 355.99 166.077C355.549 164.457 355.344 162.899 355.046 161.254C354.413 157.768 354.122 154.228 353.444 150.748C352.77 147.292 352.545 143.79 352.358 140.258C352.268 138.556 351.991 136.82 351.907 135.152C351.838 133.794 351.862 132.429 351.869 131.033C351.874 130.052 351.526 129.071 351.55 128.087C351.571 127.216 351.651 126.432 351.559 125.553C351.363 123.679 351.21 121.828 351.062 119.951C350.775 116.293 349.93 112.684 349.592 109.042C349.447 107.467 351.176 105.956 352.347 105.039C353.595 104.061 354.596 102.688 355.97 101.919C356.479 108.236 357.12 114.52 358.469 120.718ZM337.781 188.256C336.427 188.86 335.073 189.464 333.718 190.067C332.722 190.51 331.415 191.421 330.32 191.339C331.099 190.285 331.589 189.079 332.419 188.055C333.248 187.033 333.932 185.947 334.681 184.866C335.651 186.052 336.686 187.184 337.781 188.256ZM338.07 182.954C340.119 181.874 343.03 179.82 345.431 180.208C347.161 180.487 349.121 181.753 350.165 183.148C350.655 183.802 351.145 184.412 351.706 185.053C352.22 185.641 352.483 185.565 352.034 186.177C351.689 186.649 350.874 186.968 350.344 187.15C350.344 186.119 350.665 185.085 349.426 185.187C348.937 185.227 348.366 185.344 347.879 185.423C347.459 185.492 347.216 185.674 346.858 185.759C346.476 185.848 346.02 185.743 345.624 185.774C344.943 185.827 344.397 186.1 343.752 186.243C342.416 186.539 341.289 186.948 339.988 187.385C339.393 186.476 338.893 185.382 338.085 184.639C337.181 183.807 336.795 183.626 338.07 182.954ZM320.492 46.7427C320.689 46.7219 320.914 46.5998 321.066 46.3446C320.8 46.7909 320.643 46.8113 320.492 46.7427ZM314.35 47.4533C314.589 47.4966 314.824 47.5494 315.021 47.6422C315.215 47.733 315.32 47.8367 315.423 47.9275C315.375 47.9064 315.323 47.8839 315.264 47.8592C315.008 47.7522 314.68 47.5591 314.35 47.4533ZM344.001 48.3426C344.045 48.3552 344.083 48.3605 344.118 48.3627C344.078 48.3686 344.037 48.3615 344.001 48.3424L344.001 48.3426ZM345.055 49.0486C344.926 48.9299 344.851 48.8134 344.812 48.6967C344.831 48.7088 344.853 48.7202 344.878 48.7299L344.992 48.6163C344.939 48.7146 344.921 48.8095 344.962 48.8948C345.158 49.306 345.398 48.6809 345.695 48.9902C345.473 48.9628 345.202 49.0483 345.055 49.0483L344.028 50.4574C344.491 50.6887 344.637 50.4031 344.895 50.8245C344.908 50.8451 344.919 50.8953 344.929 50.9614C344.821 50.6538 344.541 50.7131 344.028 50.4576C344.37 49.9878 344.712 49.5177 345.055 49.0483L345.055 49.0486ZM345.017 52.6819C344.528 52.4198 344.953 52.09 344.973 51.6875C344.975 51.6516 344.976 51.6213 344.977 51.5882C344.98 51.6855 344.981 51.7654 344.978 51.8044C344.945 52.3733 344.542 52.5317 345.276 52.7039C345.327 52.716 345.392 52.7221 345.466 52.725C345.278 52.7386 345.114 52.7337 345.017 52.6819ZM352.604 56.9093C352.573 56.6768 353.661 56.1691 353.801 56.1067C353.629 56.1834 352.575 56.6889 352.604 56.9093ZM353.841 54.8497C353.834 54.8466 353.826 54.8456 353.819 54.8424C353.82 54.8252 353.818 54.8093 353.818 54.7925C353.823 54.8136 353.83 54.8332 353.841 54.8497H353.841ZM354.42 56.7281C354.426 56.7029 354.438 56.6353 354.451 56.5549C354.47 56.6542 354.491 56.7475 354.511 56.8286C354.484 56.7925 354.454 56.7589 354.42 56.7281H354.42ZM353.575 56.7136C353.574 56.3195 353.698 56.4036 353.775 56.4157C353.705 56.5213 353.575 56.5409 353.575 56.7136ZM352.427 57.5796C352.542 57.5571 352.638 57.6227 352.727 57.6986C352.533 57.6475 352.374 57.5896 352.427 57.5796ZM352.129 73.4829C352.178 73.4017 352.281 73.3749 352.399 73.3618C352.251 73.4185 352.137 73.5393 352.11 73.7147C352.081 73.6497 352.073 73.5764 352.129 73.4829ZM352.985 70.9622C352.977 70.9598 352.968 70.9566 352.96 70.9559C352.721 70.9372 352.617 71.0922 352.591 71.3293C352.607 71.1225 352.676 70.954 352.855 70.899L352.829 70.8447C352.875 70.8861 352.927 70.9254 352.985 70.9622ZM352.701 72.2385C352.696 72.2104 352.69 72.1797 352.683 72.1477C352.71 72.2606 352.741 72.3729 352.772 72.4805C352.742 72.4018 352.718 72.3209 352.701 72.2385ZM353.08 65.4766C353.083 65.5827 353.083 65.6883 353.086 65.7883C353.069 65.6854 353.067 65.5802 353.08 65.4766ZM400.558 206.771C399.904 206.183 397.712 206.144 396.842 205.979C398.725 204.178 400.14 199.624 396.543 199.039C395.747 198.91 395.522 199.216 395.339 198.315C395.228 197.762 395.455 197.253 395.181 196.703C394.53 195.396 392.057 195.542 390.821 195.354C391.116 194.316 391.841 192.462 390.75 191.619C389.889 190.955 388.098 191.842 387.184 192.126C384.713 192.895 382.203 193.773 380.119 195.322C379.185 194.061 378.209 192.817 377.425 191.454C376.678 190.153 376.215 188.715 375.513 187.391C374.808 186.063 374.06 184.498 373.077 183.357C372.244 182.39 371.102 182.295 370.003 181.834C367.215 180.664 364.799 180.731 361.886 181.164C358.975 181.596 356.451 183.299 353.984 184.784C353.017 181.521 350.778 177.974 347.307 176.968C345.75 176.516 344.111 176.952 342.687 177.662C340.922 178.542 339.535 180.039 337.809 180.872C339.777 177.504 342.261 174.336 344.423 171.155C345.609 169.41 347.108 167.853 348.266 166.075C349.447 164.263 350.317 162.248 351.173 160.27C351.897 162.116 352.02 164.058 352.684 165.911C353.294 167.611 353.712 169.356 354.406 171.029C355.13 172.775 355.77 174.497 356.749 176.122C357.308 177.049 358.684 179.936 359.699 178.084C361.956 179.609 364.136 180.53 366.96 180.463C368.252 180.433 369.692 180.392 370.93 180.102C372.187 179.809 373.387 179.413 374.636 179.131C375.624 178.908 376.528 178.305 377.426 177.858C378.46 177.344 379.484 176.42 380.283 175.61C381.271 174.606 382.292 173.64 383.286 172.643C384.269 171.657 384.198 170.65 384.724 169.424C385.273 168.144 385.509 167.014 384.782 165.722C384.25 164.777 383.309 164.907 383.089 163.949C382.88 163.04 383.083 162.184 382.513 161.35C382.079 160.718 380.52 160.295 380.515 159.649C380.511 159.115 381.066 158.643 381.043 158.002C381.024 157.431 380.744 156.511 380.437 156.028C379.859 155.118 378.98 155.087 377.988 155.365C375.592 156.037 373.242 157.764 371.594 159.578C369.335 153.389 367.555 147.065 365.903 140.735C365.173 137.939 364.601 135.107 364.136 132.255C363.677 129.433 362.981 126.589 362.67 123.752C362.484 122.05 361.96 120.458 361.715 118.777C361.513 117.385 361.378 115.982 361.178 114.59C360.737 111.504 360.125 108.466 359.648 105.388C359.385 103.688 358.79 102.199 358.332 100.561C357.94 99.1565 357.706 97.9552 357.051 96.6283C355.799 94.0974 354.513 90.9972 352.082 89.3888C349.92 87.9582 347.824 86.7627 345.189 86.4699C343.644 86.298 342.398 86.6613 340.887 86.8279C339.549 86.9756 338.403 87.715 337.098 87.9814C337.098 86.7414 336.977 86.7075 338.109 86.2665C338.761 86.0122 339.397 85.7332 340.061 85.5123C340.761 85.2793 341.291 85.0522 341.888 84.6242C342.592 84.119 342.148 84.2794 342.992 84.454C344.323 84.7296 343.931 84.4099 344.806 83.747C345.315 83.3612 345.835 83.5969 346.431 83.6736C346.987 83.7456 347.902 83.9914 348.326 83.4908C348.649 83.1101 348.297 82.4569 348.535 82.0432C348.91 81.3901 349.986 81.4198 350.56 80.981C351.189 80.5012 351.246 79.9602 351.11 79.2222C351.015 78.7112 350.21 77.5766 350.255 77.137C350.286 76.8444 350.44 76.7587 350.639 76.735C352.213 76.8142 352.137 76.5771 351.753 75.1826C351.73 75.3891 351.717 75.5647 351.701 75.7161C351.697 75.4996 351.699 75.2971 351.753 75.1826C351.794 75.0961 351.941 75.0404 352.074 74.9706C352.039 75.0055 352.002 75.0411 351.959 75.0811C352.026 75.3775 352.046 76.152 352.331 76.3627C352.534 76.5136 353.248 76.4984 353.393 76.246C353.694 75.7195 352.658 75.4206 352.617 75.0297C353.807 74.9304 353.401 74.3502 352.779 73.758C352.754 73.5955 352.849 73.5185 353.062 73.5272C352.964 73.4235 352.834 73.3551 352.693 73.3327C352.786 73.3172 352.867 73.2901 352.909 73.2242C352.946 73.1661 352.949 73.0862 352.935 72.9966C352.958 73.0656 352.978 73.1249 352.993 73.1707C354.02 73.5848 353.492 71.3858 353.066 71.0109C353.099 70.4006 353.132 69.7905 353.164 69.1804C352.871 69.3737 352.648 69.675 352.572 69.9893C352.582 69.6992 352.752 69.4526 353.164 69.1804C352.504 68.8898 352.439 68.8544 353.148 68.7924C353.735 69.3282 353.653 68.8835 354.017 68.5563C353.996 68.5757 354.568 67.9533 354.53 68.0484C354.802 67.3754 354.502 65.9555 353.406 66.4178C354.001 66.9506 353.403 67.0489 353.195 67.5071C353.188 67.5224 353.183 67.5386 353.177 67.5546C353.187 67.5008 353.204 67.4483 353.226 67.3982C353.593 66.6089 353.68 67.2148 353.276 66.317L353.275 66.3149C353.382 66.3689 353.549 66.3575 353.814 66.2458C354.145 65.8419 354.245 66.007 354.422 65.4866C354.578 65.0313 354.506 64.7208 354.195 64.5515C354.231 64.5607 354.266 64.5709 354.302 64.5801C354.439 64.2299 354.249 63.8964 353.931 63.7353C353.804 63.9448 353.675 64.1545 353.548 64.3643C353.606 64.3829 353.664 64.3996 353.722 64.4173L353.72 64.4171C353.314 64.3701 353.149 64.443 353.088 64.6304C353.068 64.5464 353.062 64.4636 353.109 64.3885C353.159 64.3086 353.51 64.4272 353.548 64.3643C354.177 63.3326 353.512 62.4735 352.499 61.948C352.115 61.7484 351.356 61.7416 351.22 61.2745C351.124 60.9443 351.602 60.1456 351.694 59.754C352.401 59.4297 351.096 59.2401 351.087 59.2386C351.048 59.7005 351.073 59.9051 351.34 59.8693C351.071 59.9056 351.048 59.699 351.087 59.2386C351.471 59.2975 352.603 59.1919 353.158 58.8146C354.076 58.8407 354.549 58.9998 355.106 58.2033C354.562 57.9773 353.921 58.0991 353.432 57.7521C353.454 57.8562 353.473 57.9509 353.485 58.0383C353.442 57.9093 353.35 57.7981 353.227 57.6927C353.307 57.7613 353.265 57.7831 353.17 57.7799C353.191 57.7522 353.21 57.7231 353.227 57.6927C353.26 57.3062 353.544 57.4636 353.832 57.4878C353.824 57.3634 353.775 57.259 353.722 57.1553C353.774 57.2546 353.824 57.3566 353.832 57.4878L354.379 57.1396C354.478 57.111 354.537 57.0708 354.561 57.0202L354.561 57.0231C355.433 57.2832 355.168 55.4368 354.766 55.4465C354.659 55.4489 354.581 55.4886 354.524 55.5511C354.536 55.3808 354.565 55.2009 354.635 54.9488C354.676 54.8403 354.716 54.7318 354.758 54.6233C354.538 54.6373 353.827 54.2127 353.814 54.7192C353.8 54.6258 353.762 54.5379 353.702 54.4649C353.766 53.9047 353.436 53.9524 352.925 53.7957C352.735 53.7376 352.526 53.3743 352.312 53.5269C351.991 53.756 352.184 53.972 352.39 54.1352C352.378 54.2257 352.347 54.3127 352.3 54.3911C352.253 54.4694 352.191 54.5376 352.117 54.5915C352.094 54.5697 352.072 54.553 352.05 54.5361C352.192 54.453 352.312 54.3205 352.391 54.135C351.734 53.6153 351.456 53.9555 350.951 54.3736C351.152 54.5412 351.385 54.6315 351.609 54.6407C351.597 54.6664 351.586 54.6928 351.576 54.7196C351.323 54.6879 351.114 54.5726 350.951 54.3736C351.488 53.9294 351.439 53.6569 350.786 53.3934C350.566 53.3045 350.426 53.5024 350.153 53.3978C350.017 53.3457 349.92 53.1096 349.787 53.0314C348.799 52.4465 347.613 52.7795 346.56 52.6407C346.692 52.6238 346.809 52.6073 346.899 52.5954C346.795 52.2326 346.512 52.0757 346.215 51.9652C346.216 51.7584 346.216 51.5516 346.216 51.345C346.176 51.3361 346.135 51.331 346.094 51.33C346.163 51.2755 346.204 51.2016 346.194 51.0755C345.94 51.1675 345.725 51.0997 345.586 50.9156C345.862 51.2687 346.401 51.0839 346.565 50.6313C346.737 50.1571 346.368 49.8384 346.047 49.4862C346.055 49.1479 345.911 49.0263 345.725 48.9938C346.06 48.3358 346.135 48.6621 345.776 47.8393C345.746 47.2847 345.275 47.486 344.958 47.8422C344.991 47.7606 345.026 47.6766 345.058 47.5894C344.809 47.5725 344.559 47.5555 344.31 47.5381C344.373 47.7405 344.513 48.1011 344.329 48.2731C344.451 48.0973 344.364 47.7129 344.31 47.5381C344.004 47.3676 343.698 47.1973 343.392 47.0263C343.418 47.0811 343.489 47.2869 343.576 47.5199C343.341 47.1925 343.149 46.9895 342.828 46.6524C342.672 46.4877 342.059 45.6982 341.89 45.649C340.852 45.3482 340.066 47.3782 338.8 47.1004C338.053 46.9365 338.402 46.7432 337.697 46.8803C337.31 46.3785 334.789 47.1675 334.692 47.6451C334.739 47.6323 334.775 47.6269 334.805 47.6262C334.52 47.7279 334.273 47.8849 333.998 47.991C333.308 48.2574 333.718 48.3266 332.935 47.8786C332.668 47.7258 332.569 47.7735 332.465 47.7594C332.802 47.6081 332.965 46.5589 332.97 46.1852C332.982 45.2915 332.864 45.4482 333.212 44.8072C332.89 44.8023 332.663 44.7747 332.493 44.8515C332.542 44.6994 332.577 44.5502 332.576 44.4059C332.75 43.9333 332.596 43.3766 332.057 43.245C331.24 43.0457 331.08 44.2179 331.671 44.41C331.106 44.2264 331.332 43.4848 330.562 43.3845C330.845 43.37 331.02 43.4233 331.283 43.7471L331.545 43.2201C330.932 43.1562 330.648 43.1038 330.153 43.3921C329.668 43.4788 329.326 43.8299 328.96 44.1726C327.984 45.0855 327.047 46.039 326.151 47.0304C325.68 46.0622 325.16 45.3572 324.395 46.441C323.704 47.4189 323.145 48.7708 322.786 49.9079C322.069 49.5785 322.371 49.4712 322.07 48.9381C322.383 49.4574 322.065 49.577 322.786 49.9079L323.001 49.2271C322.373 48.5112 322.4 47.8001 321.719 47.037C321.644 47.2816 321.861 47.6303 321.898 47.8507C321.941 48.0951 321.67 48.2649 321.731 48.5276C321.986 48.4349 322.045 48.4908 322.053 48.5925C322.044 48.4911 321.984 48.4356 321.731 48.5276C321.631 48.0985 321.881 47.8701 321.741 47.3908C321.685 47.1971 321.603 47.0554 321.504 46.9185C321.937 46.1946 320.537 45.6931 320.211 46.1239C320.175 46.1715 320.145 46.223 320.121 46.2775C319.574 46.0317 319.406 46.5545 319.151 46.9474L318.969 47.316C318.647 47.5802 318.349 48.1331 318.107 48.4947C317.589 49.2682 317.372 50.4 316.737 51.0442C316.759 50.6291 316.985 49.709 316.24 50.0803C316.486 49.9575 316.521 49.8086 316.467 49.6359C316.513 49.662 316.564 49.6858 316.622 49.7052C316.727 49.7156 316.832 49.7255 316.937 49.7357C316.923 49.1479 316.538 48.7616 316.083 48.4492C316.083 48.6027 316.078 48.7606 316.088 48.9117L316.081 48.8955C315.881 48.417 315.965 48.276 315.792 48.1292C315.86 48.1457 315.938 48.1573 316.034 48.1619C315.477 47.2203 314.737 47.0697 313.713 47.3351C313.783 47.3516 313.856 47.3656 313.93 47.3794C313.815 47.3797 313.702 47.4005 313.597 47.4516C313.2 47.6451 312.612 48.7572 312.336 49.143C311.365 50.5003 310.913 52.1631 310.405 53.732C310.262 54.1735 310.046 55.2081 309.494 55.3564C308.852 55.5283 308.173 54.4835 307.608 54.1343C305.802 53.0166 304.903 55.0231 304.625 56.6155C304.21 57.3198 304.305 57.8628 304.904 58.1962C304.737 57.9541 304.659 57.6959 304.628 57.4297C304.707 57.8821 305.084 58.0391 305.152 58.2328C305.19 58.3391 305.242 58.9838 305.241 59.1134C305.549 59.3437 305.572 59.514 305.31 59.6242C305.15 59.7337 305 59.8562 304.86 59.9916C304.427 60.4479 304.431 61.0807 304.034 61.5246C303.587 62.0267 303.176 61.8048 302.965 62.6302C302.602 64.0441 303.494 66.1792 305.1 66.3144C304.909 66.8714 304.662 67.4357 304.52 68.007C304.331 68.7665 304.344 68.8435 304.703 69.5703C302.033 69.1732 302.241 71.9997 303.763 73.3879C304.124 73.7171 304.519 73.922 304.984 74.0678C305.321 74.1734 306.337 74.1145 306.579 74.434C307.089 75.1072 305.95 75.9827 305.85 76.734C305.84 76.811 305.835 76.943 305.839 77.0963C305.418 77.611 305.439 77.6533 306.04 78.1346C306.369 78.5584 307.386 78.4572 307.695 78.8626C308.17 79.4865 307.11 80.4908 307.641 81.2198C308.064 81.7991 308.505 81.438 309.182 81.6836C309.51 81.8333 309.837 81.9832 310.165 82.1341C310.314 82.0287 310.487 81.96 310.668 81.9333C311.05 82.1258 310.685 82.4646 311.167 82.578C311.417 82.6569 311.996 82.957 312.249 82.8015C311.89 83.0219 311.649 83.5676 311.443 84.1672C311.247 84.4879 311.066 84.8407 311.138 85.1057C311.018 85.4729 310.894 85.808 310.746 86.041C311.58 86.1679 311.482 86.9529 312.058 87.3837C312.838 88.0507 312.967 87.4317 312.783 87.1064C312.861 87.1459 312.941 87.1972 313.024 87.2558C313.04 87.2667 312.872 87.663 313.036 87.7555C313.266 87.8853 313.266 87.755 313.505 87.7526C313.731 87.7499 314.057 87.4118 314.333 87.3835C314.479 87.3685 314.912 87.5687 315.002 87.5094C315.251 87.344 315.232 87.1626 315.135 86.9432L315.246 87.166C315.515 87.8674 315.65 87.7095 316.057 87.5084C315.947 87.5627 316.376 87.2425 316.465 87.2682C316.264 86.7124 315.469 86.7707 314.979 86.6317C315.289 86.7196 315.793 86.723 316.079 86.8461C316.557 87.0519 316.406 87.2612 316.972 87.3253C317.21 87.3522 318.182 87.0882 318.353 86.9153C318.369 86.8984 318.381 86.8784 318.389 86.8565C318.478 86.716 318.566 86.5748 318.654 86.4339C319.013 86.4755 318.624 87.0277 319.188 86.808C319.609 86.6434 319.404 86.415 319.27 86.1655C319.234 86.0957 319.185 86.0338 319.124 85.9836C319.706 86.1229 320.398 86.9059 321.193 86.6867C321.641 86.5629 321.666 86.2573 321.994 85.9713C322.433 85.5894 322.569 85.6482 323.1 85.4634C323.422 85.3515 323.765 85.1045 324.089 85.0468C324.616 84.9531 324.471 85.0112 324.908 85.2333C325.169 85.3665 325.318 85.6157 325.648 85.6639C325.949 85.708 326.422 85.3612 326.666 85.4566C327.33 85.716 327.161 86.6475 327.198 87.2617C323.839 86.1924 319.912 87.9013 317.44 90.2481C316.769 90.8843 316.331 91.6387 315.735 92.3306C315.088 93.0814 314.479 93.4224 314.388 94.4919C314.31 95.4142 314.726 95.9678 314.397 96.854C314.083 97.7031 313.739 98.4631 313.509 99.3485C312.408 103.577 312.374 107.967 311.559 112.254C310.804 116.22 309.727 119.753 307.952 123.389C307.128 125.075 306.438 126.106 304.633 126.817C303.173 127.392 302.104 126.638 301.39 125.327C299.469 121.799 299.196 118.17 299.219 114.234C299.23 112.343 299.446 110.452 299.628 108.572C299.817 106.624 299.675 104.804 299.54 102.858C299.268 98.9574 298.378 95.6118 297.039 91.9434C296.404 90.2035 295.868 88.5072 294.339 87.3752C293.483 86.7414 292.622 85.9488 291.618 85.4004C290.815 84.9618 290.337 84.5656 289.42 84.3692C288.818 84.2401 288.269 84.0408 287.687 83.8533C286.314 83.4118 284.726 83.2752 283.286 83.2801C279.924 83.2915 276.234 84.4235 273.207 85.8751C271.7 86.5978 270.063 87.6741 269.07 89.0454C268.661 89.6111 268.382 90.2386 268.104 90.8753C267.771 91.6363 267.875 91.7755 267.17 91.7491C266.729 91.7322 266.235 91.3236 265.729 91.3018C265.175 91.2781 264.769 91.4711 264.254 91.614C263.599 91.7954 262.984 91.9579 262.402 92.334C260.99 93.2456 259.796 94.6987 258.717 95.9664C256.742 98.2868 254.955 100.887 253.107 103.251C251.287 105.578 249.076 107.643 246.25 108.697C245.172 109.1 243.978 109.182 242.877 109.507C242.393 109.65 241.809 110.029 241.302 110.022C240.507 110.012 240.568 109.623 240.292 108.991C239.965 108.241 239.492 107.658 238.9 107.098C236.275 104.612 233.01 108.295 233.212 111.132C233.331 112.789 234.573 113.883 234.53 115.509C234.488 117.031 234.579 118.575 235.122 120.02C235.731 121.64 237.23 123.32 238.551 124.422C239.775 125.443 241.308 125.66 242.85 125.83C243.557 125.908 244.29 126.118 244.974 126.106C245.559 126.095 246.092 125.858 246.69 125.883C247.704 125.923 248.247 125.917 249.197 125.557C249.902 125.29 250.538 125.142 251.306 125.159C251.306 126.776 251.408 128.358 251.547 129.97C251.566 130.183 251.713 130.736 251.615 130.925C251.494 131.16 251.35 131.005 251.2 131.174C250.841 131.575 250.581 131.773 250.312 132.295C249.575 133.727 249.349 135.328 249.636 136.925C249.862 138.176 250.598 138.692 250.424 140.022C250.219 141.584 249.839 143.179 249.765 144.751C249.73 145.501 249.721 146.068 249.562 146.795C249.471 147.218 249.162 147.979 249.187 148.406C249.203 148.67 249.482 148.786 249.482 149.028C249.483 149.239 249.24 149.211 249.223 149.391C249.172 149.936 249.142 150.429 249.154 150.977C249.169 151.718 249.097 152.454 249.125 153.195C249.146 153.759 249.015 155.095 249.648 154.875C249.479 155.273 249.434 155.657 249.417 156.04C249.408 156.003 249.405 155.964 249.408 155.926C249.447 155.485 249.46 155.318 249.648 154.875L249.286 155.001C249.065 155.571 249.337 156.129 249.397 156.697C249.396 156.754 249.394 156.81 249.39 156.868C249.339 157.692 249.401 158.499 249.463 159.322C249.603 161.2 249.669 163.294 250.177 164.981C250.734 166.831 250.556 169.156 250.771 171.194C251.017 173.525 251.415 175.819 251.712 178.143C251.977 180.217 252.105 182.468 252.559 184.488C252.932 186.142 253.248 187.754 253.448 189.493C253.724 191.904 254.604 193.741 255.573 195.932C255.983 196.859 256.011 196.845 255.259 197.522C254.944 197.806 254.677 198.138 254.356 198.415C253.713 198.97 253.011 199.294 252.168 199.394C250.09 199.64 247.992 200.378 246.825 202.169C245.697 203.9 246.428 205.929 247.272 207.692C246.158 207.787 243.145 207.719 243.85 209.748C244.332 211.135 246.901 210.671 248.035 210.686C249.693 210.708 251.363 210.627 253.006 210.604C253.754 210.594 253.831 210.516 254.559 210.802C255.246 211.07 255.77 211.1 256.512 211.051C257.304 210.999 258.094 211.115 258.861 211.002C259.827 210.858 260.428 210.738 261.399 210.91C262.101 211.034 262.663 210.972 263.363 210.88C264.139 210.777 264.874 210.839 265.675 210.818C267.545 210.768 269.401 210.803 271.272 210.824C273.092 210.844 274.912 210.595 276.719 210.677C279.869 210.819 283.076 210.69 286.241 210.763C287.701 210.797 288.829 211.647 290.292 211.56C291.779 211.471 293.287 211.457 294.763 211.25C297.304 210.891 299.752 210.385 302.334 210.253C303.966 210.17 305.4 210.872 306.935 211.313C307.491 211.473 307.992 211.398 308.512 211.517C309.002 211.628 309.506 211.949 310.024 212.082C311.251 212.396 312.424 212.516 313.502 212.545C313.642 212.803 313.803 212.835 313.985 212.639L314.208 212.514C314.551 212.468 314.797 212.313 315.158 212.29C315.714 212.254 316.283 212.33 316.799 212.28C317.88 212.176 318.894 212.108 320.089 212.231C320.798 212.304 321.418 212.201 322.116 212.214C322.108 212.213 323.074 212.402 323.095 212.393C323.181 212.36 323.316 212.122 323.371 212.111C323.352 211.883 323.42 211.78 323.578 211.802C323.704 211.775 323.788 211.841 323.828 212.001C323.79 212.005 324.129 212.176 324.153 212.18C324.172 212.183 325.044 212.08 325.106 212.057C325.356 211.963 325.462 211.691 325.662 211.65C325.898 211.601 326.039 211.862 326.244 211.851C326.695 211.827 326.642 211.626 326.989 211.563C328.207 211.344 329.699 211.629 330.958 211.631C332.212 211.633 333.459 211.518 334.666 211.466C336.151 211.4 337.606 211.682 339.102 211.482C340.524 211.291 341.948 211.208 343.381 211.148C346.377 211.022 349.451 211.155 352.419 210.803C355.509 210.437 358.651 210.803 361.747 210.748C365.01 210.69 368.291 210.66 371.553 210.526C374.8 210.393 378.034 210.006 381.268 209.929C382.091 209.909 382.899 209.713 383.719 209.653C384.469 209.599 385.207 209.718 385.964 209.652C387.342 209.531 388.595 209.624 389.979 209.603C391.528 209.579 393.033 209.343 394.573 209.248C396.13 209.152 397.672 209.372 399.216 209.065C400.061 208.896 401.635 207.74 400.558 206.771Z" fill="black"/>
<path fill-rule="evenodd" clip-rule="evenodd" d="M339.417 69.0138H339.411C339.403 69.0227 339.395 69.0324 339.388 69.0409L339.417 69.0138ZM352.315 61.8828C352.511 61.2027 352.015 60.7155 351.683 60.1875C351.488 61.3858 350.888 61.334 352.315 61.8828ZM316.386 87.4132C316.391 87.4273 316.397 87.4394 316.401 87.4539C316.407 87.4297 316.4 87.4176 316.386 87.4132ZM310.979 86.5157C311.024 86.616 311.121 87.3086 311.191 87.312C311.819 87.3418 311.054 86.1701 310.653 86.1016C310.073 86.476 310.993 86.5467 310.979 86.5157ZM310.945 82.4687C310.904 81.9396 310.726 81.8725 310.219 82.1297C310.37 82.4625 310.551 82.4147 310.945 82.4687ZM303.922 69.512L304.648 69.6328L304.222 68.6641L303.922 69.512ZM308.893 175.831C308.893 175.83 308.893 175.83 308.894 175.829C308.876 175.836 308.874 175.837 308.893 175.831ZM259.483 109.872C259.996 109.014 260.969 107.955 262.076 108.311C263.11 108.644 263.397 110 263.843 110.853C264.71 112.512 264.98 110.731 265.172 109.725C265.015 107.709 264.231 104.428 261.578 104.775C259.56 105.04 257.818 108.282 258.202 110.198C258.525 111.81 259.07 110.564 259.483 109.872ZM335.955 71.882C334.965 71.5284 334.965 72.5989 334.927 73.4037C334.892 74.1431 335.007 75.8776 335.94 76.1416C336.87 76.4051 336.957 74.8733 337.102 74.254C336.885 73.519 336.765 72.1712 335.955 71.882ZM337.102 70.2756C336.374 69.6328 335.889 69.4359 334.96 69.851C334.482 70.0646 333.799 70.5294 333.724 71.1155C333.49 72.9396 336.461 70.6498 337.102 70.2756ZM337.253 81.2028C338.948 81.6407 339.056 79.3242 337.172 79.3203C335.911 79.3179 336.307 80.9582 337.253 81.2028ZM324.298 74.0016C323.665 74.0939 323.441 74.4909 323.577 75.1244C323.734 75.8553 324.13 75.8614 324.839 75.9297C326.549 75.935 325.433 73.8357 324.298 74.0016ZM339.304 70.0787C339.461 70.5127 340.31 70.7086 340.755 70.5432C341.283 70.3463 341.392 69.868 340.916 69.4286C340.507 69.0525 339.945 69.1518 339.434 69.1865C339.451 69.3509 339.207 69.8089 339.304 70.0787ZM286.136 119.523C286.944 119.522 286.181 118.155 285.516 118.07C285.53 118.493 285.502 119.525 286.136 119.523Z" fill="black"/>
</svg>
