<svg width="455" height="257" viewBox="0 0 455 257" fill="none" xmlns="http://www.w3.org/2000/svg">
<g clip-path="url(#clip0_30_29)">
<rect width="454.198" height="257" fill="#F5F5F5"/>
<path d="M48.688 86.12C51.248 86.12 52.528 87.352 52.528 89.816C52.528 91.592 52.472 94.088 52.36 97.304L54.064 97.424V98H48.712V97.424L50.008 97.328C50.12 93.104 50.176 90.544 50.176 89.648C50.176 88.736 50.008 88.056 49.672 87.608C49.336 87.16 48.752 86.936 47.92 86.936C47.104 86.936 46.336 87.328 45.616 88.112C44.896 88.896 44.536 89.616 44.536 90.272V97.304L46.12 97.424V98H40.6V97.424L42.184 97.304V80.768L40.072 80.672L40.048 80.12L44.536 79.616C44.44 85.104 44.384 88.032 44.368 88.4H44.56C44.992 87.664 45.568 87.104 46.288 86.72C47.024 86.32 47.824 86.12 48.688 86.12ZM61.6347 98.264C59.9867 98.264 58.6587 97.704 57.6507 96.584C56.6427 95.464 56.1387 93.984 56.1387 92.144C56.1387 90.304 56.6667 88.824 57.7227 87.704C58.7947 86.584 60.1387 86.024 61.7547 86.024C63.3707 86.024 64.5787 86.392 65.3787 87.128C66.1787 87.848 66.5787 88.856 66.5787 90.152C66.5787 90.536 66.5467 90.92 66.4827 91.304H58.7307V92.144C58.7307 93.936 58.9867 95.296 59.4987 96.224C60.0107 97.136 60.8507 97.592 62.0187 97.592C63.6667 97.592 64.9387 96.872 65.8347 95.432C66.1867 95.544 66.3627 95.712 66.3627 95.936C66.3627 96.336 65.9947 96.8 65.2587 97.328C64.9067 97.584 64.4107 97.808 63.7707 98C63.1307 98.176 62.4187 98.264 61.6347 98.264ZM64.2987 89.648C64.2987 88.912 64.1467 88.28 63.8427 87.752C63.4267 87.048 62.7547 86.696 61.8267 86.696C60.0987 86.696 59.0907 87.944 58.8027 90.44H64.2507C64.2827 90.168 64.2987 89.904 64.2987 89.648ZM74.3155 98H68.7955V97.424L70.3795 97.304V80.768L68.2435 80.672V80.12L72.7315 79.616V97.304L74.3155 97.424V98ZM80.1278 90.008V96.68C80.8958 97.272 81.8478 97.568 82.9838 97.568C83.5918 97.568 84.1118 97.44 84.5438 97.184C84.9918 96.928 85.3358 96.608 85.5758 96.224C85.8318 95.84 86.0238 95.352 86.1518 94.76C86.3758 93.816 86.4878 92.624 86.4878 91.184C86.4878 89.744 86.2398 88.648 85.7438 87.896C85.2478 87.144 84.5518 86.768 83.6558 86.768C82.7598 86.768 81.9438 87.152 81.2078 87.92C80.4878 88.672 80.1278 89.368 80.1278 90.008ZM84.4478 86.024C85.7758 86.024 86.8878 86.488 87.7838 87.416C88.6798 88.328 89.1278 89.784 89.1278 91.784C89.1278 93.768 88.5918 95.352 87.5198 96.536C86.4478 97.704 84.9198 98.288 82.9358 98.288C81.8958 98.288 80.9598 98.056 80.1278 97.592V103.304L81.8078 103.424V104H76.2878V103.424L77.7758 103.304V87.056L75.7118 86.96V86.408L80.0318 86.144L79.9598 88.232H80.1758C80.6078 87.528 81.2078 86.984 81.9758 86.6C82.7438 86.216 83.5678 86.024 84.4478 86.024ZM102.21 88.832C102.93 86.976 104.378 86.048 106.554 86.048C107.642 86.048 108.522 86.376 109.194 87.032C109.866 87.672 110.202 88.592 110.202 89.792C110.202 91.856 110.138 94.36 110.01 97.304L111.666 97.424V98H106.362V97.424L107.658 97.328C107.786 93.712 107.85 91.64 107.85 91.112C107.85 90.584 107.842 90.184 107.826 89.912C107.81 89.624 107.762 89.28 107.682 88.88C107.618 88.464 107.514 88.136 107.37 87.896C107.018 87.304 106.466 87.008 105.714 87.008C104.69 87.008 103.85 87.432 103.194 88.28C102.538 89.128 102.21 90.048 102.21 91.04V97.304L104.01 97.424V98H98.2741V97.424L99.8581 97.304V87.152L97.8181 87.056V86.504L102.114 86.216L101.994 88.808L102.21 88.832ZM119.3 98.264C117.652 98.264 116.324 97.704 115.316 96.584C114.308 95.464 113.804 93.984 113.804 92.144C113.804 90.304 114.332 88.824 115.388 87.704C116.46 86.584 117.804 86.024 119.42 86.024C121.036 86.024 122.244 86.392 123.044 87.128C123.844 87.848 124.244 88.856 124.244 90.152C124.244 90.536 124.212 90.92 124.148 91.304H116.396V92.144C116.396 93.936 116.652 95.296 117.164 96.224C117.676 97.136 118.516 97.592 119.684 97.592C121.332 97.592 122.604 96.872 123.5 95.432C123.852 95.544 124.028 95.712 124.028 95.936C124.028 96.336 123.66 96.8 122.924 97.328C122.572 97.584 122.076 97.808 121.436 98C120.796 98.176 120.084 98.264 119.3 98.264ZM121.964 89.648C121.964 88.912 121.812 88.28 121.508 87.752C121.092 87.048 120.42 86.696 119.492 86.696C117.764 86.696 116.756 87.944 116.468 90.44H121.916C121.948 90.168 121.964 89.904 121.964 89.648ZM125.697 86.288H130.737V86.912L129.105 87.056L132.513 95.432L135.393 87.368L133.473 86.912V86.288H138.081V86.912L136.401 87.368L132.417 98H131.457L126.825 87.032L125.697 86.864V86.288ZM144.846 98.264C143.198 98.264 141.87 97.704 140.862 96.584C139.854 95.464 139.35 93.984 139.35 92.144C139.35 90.304 139.878 88.824 140.934 87.704C142.006 86.584 143.35 86.024 144.966 86.024C146.582 86.024 147.79 86.392 148.59 87.128C149.39 87.848 149.79 88.856 149.79 90.152C149.79 90.536 149.758 90.92 149.694 91.304H141.942V92.144C141.942 93.936 142.198 95.296 142.71 96.224C143.222 97.136 144.062 97.592 145.23 97.592C146.878 97.592 148.15 96.872 149.046 95.432C149.398 95.544 149.574 95.712 149.574 95.936C149.574 96.336 149.206 96.8 148.47 97.328C148.118 97.584 147.622 97.808 146.982 98C146.342 98.176 145.63 98.264 144.846 98.264ZM147.51 89.648C147.51 88.912 147.358 88.28 147.054 87.752C146.638 87.048 145.966 86.696 145.038 86.696C143.31 86.696 142.302 87.944 142.014 90.44H147.462C147.494 90.168 147.51 89.904 147.51 89.648ZM159.783 86C160.199 86 160.527 86.104 160.767 86.312C161.007 86.504 161.127 86.776 161.127 87.128C161.127 87.736 160.895 88.136 160.431 88.328C160.175 88.12 159.711 88.016 159.039 88.016C158.367 88.016 157.719 88.24 157.095 88.688C156.487 89.12 156.183 89.616 156.183 90.176V97.304L158.343 97.424V98H152.247V97.424L153.831 97.328V87.08L151.935 86.984V86.432L156.183 86.168L156.039 89.12H156.135C156.407 88.256 156.903 87.52 157.623 86.912C158.359 86.304 159.079 86 159.783 86ZM170.305 86.912H168.625V86.288H170.305V85.928C170.305 83.8 170.753 82.2 171.649 81.128C172.545 80.056 173.825 79.52 175.489 79.52C176.481 79.52 177.305 79.712 177.961 80.096C178.633 80.464 178.969 80.968 178.969 81.608C178.969 82.232 178.753 82.688 178.321 82.976C178.065 83.152 177.809 83.24 177.553 83.24C177.313 83.24 177.081 83.192 176.857 83.096C176.953 82.648 177.001 82.216 177.001 81.8C177.001 81.384 176.857 81.016 176.569 80.696C176.281 80.376 175.881 80.216 175.369 80.216C174.857 80.216 174.417 80.36 174.049 80.648C173.697 80.92 173.433 81.248 173.257 81.632C173.081 82 172.945 82.496 172.849 83.12C172.721 83.952 172.657 85.008 172.657 86.288H176.281V86.912H172.657V97.304L175.345 97.424L175.369 98H168.697L168.673 97.424L170.305 97.328V86.912ZM183.399 98.264C181.751 98.264 180.423 97.704 179.415 96.584C178.407 95.464 177.903 93.984 177.903 92.144C177.903 90.304 178.431 88.824 179.487 87.704C180.559 86.584 181.903 86.024 183.519 86.024C185.135 86.024 186.343 86.392 187.143 87.128C187.943 87.848 188.343 88.856 188.343 90.152C188.343 90.536 188.311 90.92 188.247 91.304H180.495V92.144C180.495 93.936 180.751 95.296 181.263 96.224C181.775 97.136 182.615 97.592 183.783 97.592C185.431 97.592 186.703 96.872 187.599 95.432C187.951 95.544 188.127 95.712 188.127 95.936C188.127 96.336 187.759 96.8 187.023 97.328C186.671 97.584 186.175 97.808 185.535 98C184.895 98.176 184.183 98.264 183.399 98.264ZM186.063 89.648C186.063 88.912 185.911 88.28 185.607 87.752C185.191 87.048 184.519 86.696 183.591 86.696C181.863 86.696 180.855 87.944 180.567 90.44H186.015C186.047 90.168 186.063 89.904 186.063 89.648ZM196.08 98H190.56V97.424L192.144 97.304V80.768L190.008 80.672V80.12L194.496 79.616V97.304L196.08 97.424V98ZM205.54 95.504C205.54 95.552 205.532 95.608 205.516 95.672C205.26 96.456 204.828 97.088 204.22 97.568C203.628 98.032 202.932 98.264 202.132 98.264C201.332 98.264 200.66 98.04 200.116 97.592C199.588 97.128 199.324 96.232 199.324 94.904C199.324 94.536 199.364 91.872 199.444 86.912H197.788V86.288H199.468L199.492 82.76H201.844L201.772 86.288H205.204V86.912H201.772C201.692 92.08 201.652 95.104 201.652 95.984C201.652 97.056 202.004 97.592 202.708 97.592C203.14 97.592 203.588 97.344 204.052 96.848C204.532 96.352 204.868 95.792 205.06 95.168C205.38 95.168 205.54 95.28 205.54 95.504ZM45.424 129.664C46.064 129.664 46.616 129.488 47.08 129.136C47.56 128.784 47.8 128.192 47.8 127.36C47.8 126.8 47.544 126.336 47.032 125.968C46.536 125.6 45.912 125.272 45.16 124.984C44.408 124.68 43.896 124.472 43.624 124.36C43.368 124.232 43.024 124.032 42.592 123.76C41.808 123.232 41.416 122.472 41.416 121.48C41.416 120.488 41.808 119.664 42.592 119.008C43.376 118.352 44.52 118.024 46.024 118.024C46.984 118.024 47.8 118.24 48.472 118.672C49.16 119.088 49.504 119.592 49.504 120.184C49.504 120.776 49.28 121.184 48.832 121.408C48.592 121.52 48.352 121.576 48.112 121.576C47.888 121.576 47.664 121.528 47.44 121.432C47.504 121.144 47.536 120.832 47.536 120.496C47.536 120.16 47.456 119.824 47.296 119.488C47.024 118.912 46.504 118.624 45.736 118.624C44.968 118.624 44.384 118.832 43.984 119.248C43.584 119.664 43.384 120.208 43.384 120.88C43.384 121.568 43.672 122.08 44.248 122.416C44.68 122.688 45.216 122.936 45.856 123.16C46.496 123.384 46.928 123.544 47.152 123.64C47.392 123.72 47.704 123.864 48.088 124.072C48.472 124.28 48.76 124.496 48.952 124.72C49.448 125.264 49.696 126 49.696 126.928C49.696 127.856 49.28 128.648 48.448 129.304C47.616 129.944 46.6 130.264 45.4 130.264C44.2 130.264 43.144 130.08 42.232 129.712C41.336 129.344 40.888 128.808 40.888 128.104C40.888 127.448 41.376 127.016 42.352 126.808C42.64 128.712 43.664 129.664 45.424 129.664ZM64.3407 124.144C64.3407 125.92 63.8047 127.384 62.7327 128.536C61.6607 129.688 60.1967 130.264 58.3407 130.264C56.5007 130.264 55.0447 129.688 53.9727 128.536C52.9007 127.384 52.3647 125.92 52.3647 124.144C52.3647 122.368 52.9007 120.904 53.9727 119.752C55.0447 118.6 56.5007 118.024 58.3407 118.024C60.1967 118.024 61.6607 118.6 62.7327 119.752C63.8047 120.904 64.3407 122.368 64.3407 124.144ZM54.9807 124.144C54.9807 127.84 56.1007 129.688 58.3407 129.688C60.5967 129.688 61.7247 127.84 61.7247 124.144C61.7247 122.352 61.4687 120.984 60.9567 120.04C60.4447 119.096 59.5807 118.624 58.3647 118.624C57.1487 118.624 56.2767 119.096 55.7487 120.04C55.2367 120.984 54.9807 122.352 54.9807 124.144ZM75.7832 127.408C75.7832 128.448 76.2072 129.064 77.0552 129.256C77.2472 129.304 77.4312 129.328 77.6072 129.328C78.2152 129.328 78.8472 129.072 79.5032 128.56C80.1592 128.032 80.5032 127.328 80.5352 126.448V124.384C77.3672 124.416 75.7832 125.424 75.7832 127.408ZM76.7432 130.288C75.8312 130.288 75.0472 130.04 74.3912 129.544C73.7512 129.032 73.4312 128.32 73.4312 127.408C73.4472 126.176 74.0632 125.256 75.2792 124.648C76.5112 124.04 78.2632 123.736 80.5352 123.736V121.672C80.5352 119.64 79.7992 118.624 78.3272 118.624C77.5752 118.624 76.9672 118.936 76.5032 119.56C76.1832 119.992 76.0232 120.528 76.0232 121.168C76.0232 121.44 76.0552 121.728 76.1192 122.032C75.8952 122.192 75.6632 122.272 75.4232 122.272C75.1992 122.272 74.9752 122.224 74.7512 122.128C74.2392 121.936 73.9832 121.568 73.9832 121.024C73.9832 120.288 74.2472 119.68 74.7752 119.2C75.6392 118.416 76.8312 118.024 78.3512 118.024C79.8712 118.024 80.9752 118.352 81.6632 119.008C82.3512 119.648 82.6952 120.664 82.6952 122.056V129.328L84.7112 129.424L84.7352 129.976L80.7272 130.264L80.5112 128.128C79.7752 129.568 78.5192 130.288 76.7432 130.288ZM92.4079 118.024C93.3039 118.024 94.1679 118.216 94.9999 118.6C95.4639 118.808 95.8319 119.128 96.1039 119.56C96.3919 119.992 96.5359 120.496 96.5359 121.072C96.5359 121.648 96.2799 122.04 95.7679 122.248C95.5599 122.328 95.3359 122.368 95.0959 122.368C94.8719 122.368 94.6399 122.288 94.3999 122.128C94.4639 121.792 94.4959 121.4 94.4959 120.952C94.4959 120.488 94.3519 120.048 94.0639 119.632C93.6479 119.008 93.0559 118.696 92.2879 118.696C90.0639 118.696 88.9519 120.528 88.9519 124.192C88.9519 125.984 89.2079 127.336 89.7199 128.248C90.2479 129.144 91.0959 129.592 92.2639 129.592C93.7519 129.592 94.9439 128.872 95.8399 127.432C96.1919 127.544 96.3679 127.72 96.3679 127.96C96.3679 128.184 96.2159 128.472 95.9119 128.824C95.6239 129.16 95.1119 129.488 94.3759 129.808C93.6559 130.112 92.8239 130.264 91.8799 130.264C90.2319 130.264 88.8959 129.704 87.8719 128.584C86.8639 127.464 86.3599 125.984 86.3599 124.144C86.3599 122.304 86.9039 120.824 87.9919 119.704C89.0959 118.584 90.5679 118.024 92.4079 118.024ZM105.075 118.024C105.971 118.024 106.835 118.216 107.667 118.6C108.131 118.808 108.499 119.128 108.771 119.56C109.059 119.992 109.203 120.496 109.203 121.072C109.203 121.648 108.947 122.04 108.435 122.248C108.227 122.328 108.003 122.368 107.763 122.368C107.539 122.368 107.307 122.288 107.067 122.128C107.131 121.792 107.163 121.4 107.163 120.952C107.163 120.488 107.019 120.048 106.731 119.632C106.315 119.008 105.723 118.696 104.955 118.696C102.731 118.696 101.619 120.528 101.619 124.192C101.619 125.984 101.875 127.336 102.387 128.248C102.915 129.144 103.763 129.592 104.931 129.592C106.419 129.592 107.611 128.872 108.507 127.432C108.859 127.544 109.035 127.72 109.035 127.96C109.035 128.184 108.883 128.472 108.579 128.824C108.291 129.16 107.779 129.488 107.043 129.808C106.323 130.112 105.491 130.264 104.547 130.264C102.899 130.264 101.563 129.704 100.539 128.584C99.5314 127.464 99.0274 125.984 99.0274 124.144C99.0274 122.304 99.5714 120.824 100.659 119.704C101.763 118.584 103.235 118.024 105.075 118.024ZM117.191 130.264C115.543 130.264 114.215 129.704 113.207 128.584C112.199 127.464 111.695 125.984 111.695 124.144C111.695 122.304 112.223 120.824 113.279 119.704C114.351 118.584 115.695 118.024 117.311 118.024C118.927 118.024 120.135 118.392 120.935 119.128C121.735 119.848 122.135 120.856 122.135 122.152C122.135 122.536 122.103 122.92 122.039 123.304H114.287V124.144C114.287 125.936 114.543 127.296 115.055 128.224C115.567 129.136 116.407 129.592 117.575 129.592C119.223 129.592 120.495 128.872 121.391 127.432C121.743 127.544 121.919 127.712 121.919 127.936C121.919 128.336 121.551 128.8 120.815 129.328C120.463 129.584 119.967 129.808 119.327 130C118.687 130.176 117.975 130.264 117.191 130.264ZM119.855 121.648C119.855 120.912 119.703 120.28 119.399 119.752C118.983 119.048 118.311 118.696 117.383 118.696C115.655 118.696 114.647 119.944 114.359 122.44H119.807C119.839 122.168 119.855 121.904 119.855 121.648ZM129.128 129.664C129.768 129.664 130.32 129.488 130.784 129.136C131.264 128.784 131.504 128.192 131.504 127.36C131.504 126.8 131.248 126.336 130.736 125.968C130.24 125.6 129.616 125.272 128.864 124.984C128.112 124.68 127.6 124.472 127.328 124.36C127.072 124.232 126.728 124.032 126.296 123.76C125.512 123.232 125.12 122.472 125.12 121.48C125.12 120.488 125.512 119.664 126.296 119.008C127.08 118.352 128.224 118.024 129.728 118.024C130.688 118.024 131.504 118.24 132.176 118.672C132.864 119.088 133.208 119.592 133.208 120.184C133.208 120.776 132.984 121.184 132.536 121.408C132.296 121.52 132.056 121.576 131.816 121.576C131.592 121.576 131.368 121.528 131.144 121.432C131.208 121.144 131.24 120.832 131.24 120.496C131.24 120.16 131.16 119.824 131 119.488C130.728 118.912 130.208 118.624 129.44 118.624C128.672 118.624 128.088 118.832 127.688 119.248C127.288 119.664 127.088 120.208 127.088 120.88C127.088 121.568 127.376 122.08 127.952 122.416C128.384 122.688 128.92 122.936 129.56 123.16C130.2 123.384 130.632 123.544 130.856 123.64C131.096 123.72 131.408 123.864 131.792 124.072C132.176 124.28 132.464 124.496 132.656 124.72C133.152 125.264 133.4 126 133.4 126.928C133.4 127.856 132.984 128.648 132.152 129.304C131.32 129.944 130.304 130.264 129.104 130.264C127.904 130.264 126.848 130.08 125.936 129.712C125.04 129.344 124.592 128.808 124.592 128.104C124.592 127.448 125.08 127.016 126.056 126.808C126.344 128.712 127.368 129.664 129.128 129.664ZM140.412 129.664C141.052 129.664 141.604 129.488 142.068 129.136C142.548 128.784 142.788 128.192 142.788 127.36C142.788 126.8 142.532 126.336 142.02 125.968C141.524 125.6 140.9 125.272 140.148 124.984C139.396 124.68 138.884 124.472 138.612 124.36C138.356 124.232 138.012 124.032 137.58 123.76C136.796 123.232 136.404 122.472 136.404 121.48C136.404 120.488 136.796 119.664 137.58 119.008C138.364 118.352 139.508 118.024 141.012 118.024C141.972 118.024 142.788 118.24 143.46 118.672C144.148 119.088 144.492 119.592 144.492 120.184C144.492 120.776 144.268 121.184 143.82 121.408C143.58 121.52 143.34 121.576 143.1 121.576C142.876 121.576 142.652 121.528 142.428 121.432C142.492 121.144 142.524 120.832 142.524 120.496C142.524 120.16 142.444 119.824 142.284 119.488C142.012 118.912 141.492 118.624 140.724 118.624C139.956 118.624 139.372 118.832 138.972 119.248C138.572 119.664 138.372 120.208 138.372 120.88C138.372 121.568 138.66 122.08 139.236 122.416C139.668 122.688 140.204 122.936 140.844 123.16C141.484 123.384 141.916 123.544 142.14 123.64C142.38 123.72 142.692 123.864 143.076 124.072C143.46 124.28 143.748 124.496 143.94 124.72C144.436 125.264 144.684 126 144.684 126.928C144.684 127.856 144.268 128.648 143.436 129.304C142.604 129.944 141.588 130.264 140.388 130.264C139.188 130.264 138.132 130.08 137.22 129.712C136.324 129.344 135.876 128.808 135.876 128.104C135.876 127.448 136.364 127.016 137.34 126.808C137.628 128.712 138.652 129.664 140.412 129.664ZM151.313 114.376C151.313 114.76 151.177 115.096 150.905 115.384C150.633 115.656 150.289 115.792 149.873 115.792C149.473 115.792 149.137 115.656 148.865 115.384C148.593 115.112 148.457 114.776 148.457 114.376C148.457 113.96 148.593 113.616 148.865 113.344C149.137 113.056 149.473 112.912 149.873 112.912C150.273 112.912 150.609 113.056 150.881 113.344C151.169 113.632 151.313 113.976 151.313 114.376ZM147.233 130V129.424L148.817 129.304V119.104L146.705 119.032V118.48L151.169 118.168V129.304L152.753 129.424V130H147.233ZM160.984 129.568C161.592 129.568 162.112 129.44 162.544 129.184C162.992 128.928 163.336 128.608 163.576 128.224C163.832 127.84 164.032 127.352 164.176 126.76C164.384 125.816 164.488 124.624 164.488 123.184C164.488 121.744 164.24 120.648 163.744 119.896C163.248 119.144 162.552 118.768 161.656 118.768C160.76 118.768 159.936 119.152 159.184 119.92C158.448 120.672 158.08 121.368 158.08 122.008L158.128 128.68C158.896 129.272 159.848 129.568 160.984 129.568ZM158.104 111.616L158.08 116.752C158.08 118.384 158.04 119.544 157.96 120.232H158.176C158.608 119.528 159.208 118.984 159.976 118.6C160.744 118.216 161.568 118.024 162.448 118.024C163.776 118.024 164.888 118.488 165.784 119.416C166.68 120.328 167.128 121.784 167.128 123.784C167.128 125.768 166.592 127.352 165.52 128.536C164.448 129.704 162.92 130.288 160.936 130.288C160.488 130.288 159.968 130.216 159.376 130.072C158.8 129.928 158.328 129.736 157.96 129.496L155.752 130.264V112.768L153.64 112.672L153.616 112.12L158.104 111.616ZM174.893 130H169.373V129.424L170.957 129.304V112.768L168.821 112.672V112.12L173.309 111.616V129.304L174.893 129.424V130ZM182.626 130.264C180.978 130.264 179.65 129.704 178.642 128.584C177.634 127.464 177.13 125.984 177.13 124.144C177.13 122.304 177.658 120.824 178.714 119.704C179.786 118.584 181.13 118.024 182.746 118.024C184.362 118.024 185.57 118.392 186.37 119.128C187.17 119.848 187.57 120.856 187.57 122.152C187.57 122.536 187.538 122.92 187.474 123.304H179.722V124.144C179.722 125.936 179.978 127.296 180.49 128.224C181.002 129.136 181.842 129.592 183.01 129.592C184.658 129.592 185.93 128.872 186.826 127.432C187.178 127.544 187.354 127.712 187.354 127.936C187.354 128.336 186.986 128.8 186.25 129.328C185.898 129.584 185.402 129.808 184.762 130C184.122 130.176 183.41 130.264 182.626 130.264ZM185.29 121.648C185.29 120.912 185.138 120.28 184.834 119.752C184.418 119.048 183.746 118.696 182.818 118.696C181.09 118.696 180.082 119.944 179.794 122.44H185.242C185.274 122.168 185.29 121.904 185.29 121.648ZM43.312 159.408C43.312 160.448 43.736 161.064 44.584 161.256C44.776 161.304 44.96 161.328 45.136 161.328C45.744 161.328 46.376 161.072 47.032 160.56C47.688 160.032 48.032 159.328 48.064 158.448V156.384C44.896 156.416 43.312 157.424 43.312 159.408ZM44.272 162.288C43.36 162.288 42.576 162.04 41.92 161.544C41.28 161.032 40.96 160.32 40.96 159.408C40.976 158.176 41.592 157.256 42.808 156.648C44.04 156.04 45.792 155.736 48.064 155.736V153.672C48.064 151.64 47.328 150.624 45.856 150.624C45.104 150.624 44.496 150.936 44.032 151.56C43.712 151.992 43.552 152.528 43.552 153.168C43.552 153.44 43.584 153.728 43.648 154.032C43.424 154.192 43.192 154.272 42.952 154.272C42.728 154.272 42.504 154.224 42.28 154.128C41.768 153.936 41.512 153.568 41.512 153.024C41.512 152.288 41.776 151.68 42.304 151.2C43.168 150.416 44.36 150.024 45.88 150.024C47.4 150.024 48.504 150.352 49.192 151.008C49.88 151.648 50.224 152.664 50.224 154.056V161.328L52.24 161.424L52.264 161.976L48.256 162.264L48.04 160.128C47.304 161.568 46.048 162.288 44.272 162.288ZM57.6807 152.832C58.4007 150.976 59.8487 150.048 62.0247 150.048C63.1127 150.048 63.9927 150.376 64.6647 151.032C65.3367 151.672 65.6727 152.592 65.6727 153.792C65.6727 155.856 65.6087 158.36 65.4807 161.304L67.1367 161.424V162H61.8327V161.424L63.1287 161.328C63.2567 157.712 63.3207 155.64 63.3207 155.112C63.3207 154.584 63.3127 154.184 63.2967 153.912C63.2807 153.624 63.2327 153.28 63.1527 152.88C63.0887 152.464 62.9847 152.136 62.8407 151.896C62.4887 151.304 61.9367 151.008 61.1847 151.008C60.1607 151.008 59.3207 151.432 58.6647 152.28C58.0087 153.128 57.6807 154.048 57.6807 155.04V161.304L59.4807 161.424V162H53.7447V161.424L55.3287 161.304V151.152L53.2887 151.056V150.504L57.5847 150.216L57.4647 152.808L57.6807 152.832ZM78.3709 158.328V151.728C77.6029 151.136 76.6509 150.84 75.5149 150.84C74.0909 150.84 73.1149 151.424 72.5869 152.592C72.1549 153.584 71.9389 154.936 71.9389 156.648C71.9389 159.96 72.8349 161.616 74.6269 161.616C75.6349 161.616 76.5069 161.232 77.2429 160.464C77.9949 159.696 78.3709 158.984 78.3709 158.328ZM74.1709 162.36C72.7949 162.36 71.6349 161.872 70.6909 160.896C69.7469 159.904 69.2749 158.432 69.2749 156.48C69.2749 154.512 69.8429 152.96 70.9789 151.824C72.1309 150.688 73.6589 150.12 75.5629 150.12C76.5549 150.12 77.4909 150.352 78.3709 150.816V144.768L76.2589 144.672L76.2349 144.12L80.6749 143.616V161.448L82.7149 161.544L82.7389 162.096L78.4909 162.384L78.5389 160.08H78.3949C78.0109 160.8 77.4269 161.36 76.6429 161.76C75.8589 162.16 75.0349 162.36 74.1709 162.36Z" fill="black"/>
<path d="M95.988 167.252C95.676 165.98 95.52 164.216 95.52 161.96L95.592 158.756C95.64 157.796 95.664 156.728 95.664 155.552C95.52 155.216 95.448 154.916 95.448 154.652V154.544C95.688 154.088 95.808 153.056 95.808 151.448L95.844 149.792C95.868 149.264 95.88 148.676 95.88 148.028C95.88 146.612 95.784 145.496 95.592 144.68C95.664 144.344 95.784 144.056 95.952 143.816C96.12 143.552 96.324 143.42 96.564 143.42H98.148C98.82 143.42 99.408 143.576 99.912 143.888C100.416 144.176 100.8 144.596 101.064 145.148C101.544 146.132 101.784 147.296 101.784 148.64C101.784 149.6 101.772 150.356 101.748 150.908C101.7 151.604 101.58 152.24 101.388 152.816C101.316 153.128 101.208 153.392 101.064 153.608C100.944 153.8 100.764 154.04 100.524 154.328C100.188 154.736 99.636 155.12 98.868 155.48C98.556 155.648 98.148 155.804 97.644 155.948V159.8L97.716 162.104L97.788 163.22C97.884 164.564 97.932 165.704 97.932 166.64C97.932 166.928 97.812 167.168 97.572 167.36C97.332 167.576 97.056 167.684 96.744 167.684L95.988 167.252ZM97.68 154.472C99.096 154.256 99.804 152.228 99.804 148.388C99.804 147.692 99.768 147.152 99.696 146.768C99.624 146.48 99.528 146.252 99.408 146.084C99.288 145.892 99.108 145.736 98.868 145.616C98.604 145.472 98.316 145.4 98.004 145.4C98.004 145.376 97.872 145.364 97.608 145.364V147.416C97.608 148.832 97.62 150.092 97.644 151.196C97.644 152.444 97.656 153.26 97.68 153.644V154.4V154.472ZM107.337 167.468C107.025 167.468 106.737 167.36 106.473 167.144C106.233 166.928 106.101 166.664 106.077 166.352V165.416V164.696C106.053 164.48 106.041 164.228 106.041 163.94C106.041 163.436 106.005 162.668 105.933 161.636L105.861 159.332C105.861 158.156 105.897 156.404 105.969 154.076C106.065 151.988 106.113 150.236 106.113 148.82C106.113 148.484 106.077 147.98 106.005 147.308C105.933 146.612 105.897 146.108 105.897 145.796C105.897 144.092 106.401 143.24 107.409 143.24C108.201 143.24 109.113 143.396 110.145 143.708C111.201 144.02 111.729 144.392 111.729 144.824C111.729 145.064 111.621 145.292 111.405 145.508C111.213 145.7 110.973 145.856 110.685 145.976C109.677 145.616 108.765 145.376 107.949 145.256C107.973 145.616 107.985 146.132 107.985 146.804C107.985 147.764 107.973 148.628 107.949 149.396C107.877 150.548 107.841 151.412 107.841 151.988L107.949 152.564L108.525 152.528C108.717 152.504 108.957 152.492 109.245 152.492C110.397 152.492 110.973 152.828 110.973 153.5C110.973 153.764 110.865 153.992 110.649 154.184C110.433 154.352 110.157 154.436 109.821 154.436C109.389 154.436 109.053 154.412 108.813 154.364H107.913C107.961 154.988 107.985 155.9 107.985 157.1C107.985 158.3 107.973 159.38 107.949 160.34C107.877 161.804 107.841 162.896 107.841 163.616C107.841 164.96 107.865 165.632 107.913 165.632L109.101 165.596C109.509 165.572 110.001 165.56 110.577 165.56C111.489 165.56 111.945 165.848 111.945 166.424C111.945 166.76 111.789 167.012 111.477 167.18C111.189 167.372 110.829 167.468 110.397 167.468H107.337ZM122.571 167.612C122.043 167.612 121.563 167.036 121.131 165.884C120.627 164.636 120.255 163.352 120.015 162.032L119.763 160.808C119.067 157.376 118.623 155.42 118.431 154.94H117.999C117.999 155.636 117.987 156.272 117.963 156.848V158.828C117.963 162.044 118.191 164.552 118.647 166.352L118.251 167.324H117.243L116.775 166.784L116.811 164.372C116.811 162.212 116.703 158.936 116.487 154.544C116.295 149.864 116.199 146.588 116.199 144.716C116.199 143.564 116.595 142.988 117.387 142.988C118.683 142.988 119.739 143.324 120.555 143.996C121.395 144.668 121.815 145.604 121.815 146.804V149.324C121.815 149.684 121.755 150.104 121.635 150.584C121.515 151.04 121.383 151.412 121.239 151.7L120.555 152.996L119.979 154.076L120.159 154.94L120.663 157.496C120.999 159.344 121.323 160.844 121.635 161.996C121.947 163.148 122.331 164.192 122.787 165.128L123.003 165.56C123.243 166.04 123.363 166.424 123.363 166.712C123.363 166.952 123.291 167.156 123.147 167.324C123.003 167.516 122.811 167.612 122.571 167.612ZM118.143 153.176C118.671 152.912 119.115 152.192 119.475 151.016C119.859 149.816 120.051 148.712 120.051 147.704C120.051 146.936 119.955 146.216 119.763 145.544C119.643 145.16 119.439 144.872 119.151 144.68C118.887 144.464 118.551 144.356 118.143 144.356L118.071 144.536L117.999 144.86L118.071 149.108C118.119 150.356 118.143 151.712 118.143 153.176ZM127.897 167.504C127.465 167.432 127.093 167.276 126.781 167.036C126.493 166.796 126.325 166.484 126.277 166.1L126.673 165.488C126.817 165.488 127.045 165.536 127.357 165.632C127.717 165.704 127.993 165.74 128.185 165.74C128.617 165.74 129.001 165.548 129.337 165.164C129.697 164.78 129.961 164.276 130.129 163.652C130.441 162.5 130.597 161.468 130.597 160.556C130.597 158.972 130.093 157.304 129.085 155.552L128.689 154.868C128.233 154.076 127.849 153.368 127.537 152.744C127.225 152.12 126.961 151.448 126.745 150.728C126.457 149.792 126.313 148.856 126.313 147.92C126.313 146.864 126.553 145.76 127.033 144.608C127.273 144.056 127.609 143.612 128.041 143.276C128.497 142.916 129.001 142.736 129.553 142.736C129.985 142.736 130.381 142.88 130.741 143.168C131.125 143.432 131.317 143.756 131.317 144.14C131.317 144.356 131.233 144.524 131.065 144.644C130.897 144.764 130.693 144.824 130.453 144.824C130.189 144.824 129.937 144.752 129.697 144.608C129.169 144.632 128.749 145.1 128.437 146.012C128.173 146.852 128.041 147.548 128.041 148.1C128.041 148.796 128.149 149.504 128.365 150.224C128.581 150.92 128.857 151.556 129.193 152.132L129.985 153.572L131.245 155.948C131.581 156.62 131.845 157.4 132.037 158.288C132.253 159.176 132.361 160.076 132.361 160.988C132.361 162.452 132.025 163.844 131.353 165.164C131.017 165.836 130.537 166.376 129.913 166.784C129.313 167.192 128.641 167.396 127.897 167.396V167.504ZM140.715 167.684C140.091 167.684 139.515 167.48 138.987 167.072C138.459 166.688 138.027 166.16 137.691 165.488C136.995 164.024 136.563 162.428 136.395 160.7C136.179 159.068 136.071 157.496 136.071 155.984C136.071 155.696 136.083 155.456 136.107 155.264V154.616C136.107 154.496 136.095 154.436 136.071 154.436V153.788L136.107 151.268C136.131 150.5 136.227 149.276 136.395 147.596C136.515 146.444 136.791 145.328 137.223 144.248C137.391 143.768 137.607 143.408 137.871 143.168C138.135 142.904 138.435 142.772 138.771 142.772C139.731 142.772 140.595 142.952 141.363 143.312C142.131 143.648 142.779 144.128 143.307 144.752C143.787 145.352 144.195 146.096 144.531 146.984C144.867 147.848 145.107 148.772 145.251 149.756C145.395 150.764 145.467 151.832 145.467 152.96V153.248C145.467 153.992 145.479 154.664 145.503 155.264L145.539 157.316C145.539 164.228 143.931 167.684 140.715 167.684ZM140.571 166.172C141.003 166.172 141.399 166.004 141.759 165.668C142.119 165.308 142.395 164.828 142.587 164.228C143.043 163.004 143.319 161.684 143.415 160.268C143.535 159.044 143.595 157.988 143.595 157.1C143.595 156.02 143.511 154.604 143.343 152.852C143.199 151.004 143.127 149.624 143.127 148.712V148.064C143.079 147.152 142.767 146.36 142.191 145.688C141.639 145.016 140.955 144.68 140.139 144.68C139.323 144.68 138.783 145.148 138.519 146.084C138.279 146.828 138.159 147.788 138.159 148.964C138.159 149.42 138.171 149.804 138.195 150.116V151.088L138.123 152.744C138.075 153.248 138.051 153.8 138.051 154.4C138.051 155.696 138.087 156.98 138.159 158.252C138.255 160.052 138.495 161.804 138.879 163.508C139.263 165.284 139.827 166.172 140.571 166.172ZM159.664 167.108C159.376 167.108 159.16 167.036 159.016 166.892C158.872 166.724 158.764 166.448 158.692 166.064L158.476 165.38V165.308V165.2C158.476 164.408 157.648 161.708 155.992 157.1C154.36 152.492 153.076 149.084 152.14 146.876V164.984L152.284 165.236C152.308 165.284 152.356 165.368 152.428 165.488C152.5 165.608 152.536 165.728 152.536 165.848C152.536 166.16 152.428 166.424 152.212 166.64C151.996 166.856 151.732 166.964 151.42 166.964C150.652 166.964 150.268 166.232 150.268 164.768L150.232 158.612C150.208 156.764 150.196 154.7 150.196 152.42C150.196 151.652 150.232 150.536 150.304 149.072C150.376 147.56 150.412 146.444 150.412 145.724C150.412 144.596 150.844 143.708 151.708 143.06V143.276C151.852 143.228 151.948 143.204 151.996 143.204C152.548 143.204 153.244 144.164 154.084 146.084C154.756 147.62 155.356 149.24 155.884 150.944C156.436 152.648 157.156 155.072 158.044 158.216L158.404 159.512C158.956 161.456 159.376 162.848 159.664 163.688C160.144 158.528 160.384 152.432 160.384 145.4V144.932C160.36 144.788 160.348 144.632 160.348 144.464C160.348 143.744 160.636 143.384 161.212 143.384C161.548 143.384 161.8 143.516 161.968 143.78C162.16 144.044 162.256 144.38 162.256 144.788V147.488C162.208 151.184 162.064 155.192 161.824 159.512C161.584 163.832 161.296 166.268 160.96 166.82C160.264 167.012 159.832 167.108 159.664 167.108ZM174.514 167.324C173.962 167.324 173.554 167.24 173.29 167.072C173.026 166.904 172.894 166.592 172.894 166.136C172.894 165.416 172.774 164.192 172.534 162.464L172.39 161.708L168.826 161.168C168.682 161.72 168.478 162.836 168.214 164.516C168.07 165.692 167.842 166.472 167.53 166.856C167.362 167.072 167.122 167.18 166.81 167.18C166.522 167.18 166.258 167.096 166.018 166.928C165.778 166.736 165.658 166.508 165.658 166.244L165.73 166.064L165.766 165.92C167.35 159.752 168.55 153.668 169.366 147.668C169.366 147.572 169.378 147.416 169.402 147.2C169.426 146.96 169.45 146.624 169.474 146.192C169.546 145.304 169.618 144.596 169.69 144.068C169.786 143.54 169.93 143.144 170.122 142.88H171.346C171.682 142.88 171.97 142.964 172.21 143.132C172.45 143.276 172.57 143.492 172.57 143.78C172.57 145.604 172.822 148.316 173.326 151.916C173.806 155.612 174.046 158.204 174.046 159.692C174.046 159.836 174.106 160.208 174.226 160.808C174.346 161.36 174.406 161.72 174.406 161.888C174.406 162.056 174.526 162.776 174.766 164.048C174.982 165.2 175.09 165.944 175.09 166.28V166.316C175.09 166.844 174.898 167.18 174.514 167.324ZM172.138 160.412C172.066 160.052 172.03 159.608 172.03 159.08C172.03 156.92 171.838 154.16 171.454 150.8L171.094 147.056C170.062 152.696 169.354 156.956 168.97 159.836C169.33 160.076 170.386 160.268 172.138 160.412ZM184.084 167.576C183.22 167.288 182.152 167.144 180.88 167.144C180.496 167.384 180.088 167.504 179.656 167.504C179.368 167.504 179.116 167.372 178.9 167.108C178.708 166.868 178.612 166.604 178.612 166.316C178.612 164.3 178.696 161.612 178.864 158.252C179.008 154.676 179.08 152 179.08 150.224V149.972C178.936 148.46 178.864 147.332 178.864 146.588C178.864 144.308 179.284 143.168 180.124 143.168C180.364 143.168 180.568 143.264 180.736 143.456C180.928 143.624 181.024 143.828 181.024 144.068C181.024 144.356 180.988 144.812 180.916 145.436C180.844 146.036 180.808 146.492 180.808 146.804C180.808 148.412 180.82 149.864 180.844 151.16C180.868 152.432 180.88 153.872 180.88 155.48C180.76 155.84 180.7 156.344 180.7 156.992V157.424L180.628 160.268C180.58 161.108 180.556 162.068 180.556 163.148C180.556 164.804 180.952 165.632 181.744 165.632C181.792 165.632 181.864 165.632 181.96 165.632C182.08 165.608 182.236 165.596 182.428 165.596C182.644 165.572 182.92 165.56 183.256 165.56C184.552 165.56 185.2 165.92 185.2 166.64C185.2 166.88 185.092 167.084 184.876 167.252C184.66 167.42 184.396 167.528 184.084 167.576ZM190.333 166.964C188.245 166.964 187.201 166.604 187.201 165.884C187.201 165.308 187.573 165.02 188.317 165.02H188.713L189.073 165.056C189.265 165.056 189.397 164.996 189.469 164.876C189.541 164.756 189.577 164.54 189.577 164.228C189.577 163.82 189.553 163.184 189.505 162.32C189.433 161.744 189.349 160.712 189.253 159.224C189.037 155.552 188.929 152.78 188.929 150.908C188.929 150.236 188.941 149.624 188.965 149.072L189.001 147.236C189.001 146.444 188.965 145.784 188.893 145.256C188.509 145.352 188.233 145.4 188.065 145.4C187.489 145.4 187.201 145.112 187.201 144.536C187.201 144.248 187.381 143.996 187.741 143.78C188.101 143.564 188.557 143.408 189.109 143.312C190.069 143.12 190.921 143.024 191.665 143.024C191.953 143.024 192.193 143.132 192.385 143.348C192.601 143.54 192.709 143.768 192.709 144.032C192.709 144.296 192.625 144.524 192.457 144.716C192.313 144.908 192.121 145.004 191.881 145.004C191.737 145.004 191.617 144.992 191.521 144.968H191.233C190.993 144.968 190.813 145.028 190.693 145.148C190.597 145.244 190.549 145.436 190.549 145.724C190.549 148.052 190.693 151.556 190.981 156.236C191.029 157.1 191.125 158.372 191.269 160.052C191.389 161.156 191.449 162.284 191.449 163.436V164.804C191.593 164.78 191.833 164.768 192.169 164.768C193.177 164.768 193.681 165.188 193.681 166.028V166.244L192.781 166.856C192.757 166.856 192.673 166.868 192.529 166.892C192.409 166.892 192.169 166.892 191.809 166.892C191.041 166.94 190.549 166.964 190.333 166.964ZM197.554 167.072C197.29 167.072 197.062 167 196.87 166.856C196.678 166.688 196.582 166.484 196.582 166.244C196.582 164.804 196.858 162.908 197.41 160.556C197.986 158.204 198.814 155.3 199.894 151.844C200.974 148.268 201.646 145.964 201.91 144.932C201.622 144.932 201.154 144.968 200.506 145.04C199.858 145.112 199.342 145.148 198.958 145.148C198.718 145.148 198.502 145.052 198.31 144.86C198.118 144.644 198.022 144.404 198.022 144.14C198.022 143.444 199.342 143.096 201.982 143.096C203.182 143.096 203.782 143.432 203.782 144.104C203.782 144.872 203.518 146.012 202.99 147.524C202.486 148.868 202.174 149.888 202.054 150.584C201.814 152.288 201.19 155.072 200.182 158.936L198.598 165.164H199.246L200.002 165.092C200.218 165.068 200.47 165.056 200.758 165.056V165.02C201.718 165.02 202.198 165.32 202.198 165.92C202.198 166.184 202.078 166.4 201.838 166.568C201.598 166.712 201.298 166.784 200.938 166.784C200.554 166.784 200.206 166.772 199.894 166.748L198.814 166.676C198.67 166.676 198.466 166.748 198.202 166.892C197.89 167.012 197.674 167.072 197.554 167.072ZM209.542 167.468C209.23 167.468 208.942 167.36 208.678 167.144C208.438 166.928 208.306 166.664 208.282 166.352V165.416V164.696C208.258 164.48 208.246 164.228 208.246 163.94C208.246 163.436 208.21 162.668 208.138 161.636L208.066 159.332C208.066 158.156 208.102 156.404 208.174 154.076C208.27 151.988 208.318 150.236 208.318 148.82C208.318 148.484 208.282 147.98 208.21 147.308C208.138 146.612 208.102 146.108 208.102 145.796C208.102 144.092 208.606 143.24 209.614 143.24C210.406 143.24 211.318 143.396 212.35 143.708C213.406 144.02 213.934 144.392 213.934 144.824C213.934 145.064 213.826 145.292 213.61 145.508C213.418 145.7 213.178 145.856 212.89 145.976C211.882 145.616 210.97 145.376 210.154 145.256C210.178 145.616 210.19 146.132 210.19 146.804C210.19 147.764 210.178 148.628 210.154 149.396C210.082 150.548 210.046 151.412 210.046 151.988L210.154 152.564L210.73 152.528C210.922 152.504 211.162 152.492 211.45 152.492C212.602 152.492 213.178 152.828 213.178 153.5C213.178 153.764 213.07 153.992 212.854 154.184C212.638 154.352 212.362 154.436 212.026 154.436C211.594 154.436 211.258 154.412 211.018 154.364H210.118C210.166 154.988 210.19 155.9 210.19 157.1C210.19 158.3 210.178 159.38 210.154 160.34C210.082 161.804 210.046 162.896 210.046 163.616C210.046 164.96 210.07 165.632 210.118 165.632L211.306 165.596C211.714 165.572 212.206 165.56 212.782 165.56C213.694 165.56 214.15 165.848 214.15 166.424C214.15 166.76 213.994 167.012 213.682 167.18C213.394 167.372 213.034 167.468 212.602 167.468H209.542ZM219.628 167.216C219.004 167.216 218.692 165.644 218.692 162.5L218.764 156.812C218.788 155.132 218.8 153.248 218.8 151.16C218.8 150.392 218.728 149.204 218.584 147.596C218.464 145.844 218.404 144.776 218.404 144.392C218.404 144.08 218.536 143.804 218.8 143.564C219.064 143.324 219.352 143.204 219.664 143.204C220.504 143.204 221.308 143.396 222.076 143.78C222.868 144.14 223.564 144.656 224.164 145.328C225.436 146.792 226.276 148.4 226.684 150.152C226.9 151.04 227.008 151.916 227.008 152.78C227.008 153.092 226.996 153.38 226.972 153.644L226.936 154.616V156.596C226.936 158.132 226.888 159.344 226.792 160.232C226.648 161.432 226.372 162.5 225.964 163.436C225.484 164.444 224.788 165.344 223.876 166.136C223.444 166.496 222.892 166.856 222.22 167.216H219.628ZM221.212 165.38C221.692 165.38 222.136 165.26 222.544 165.02C222.952 164.756 223.3 164.408 223.588 163.976C223.828 163.592 224.044 163.112 224.236 162.536C224.452 161.936 224.608 161.36 224.704 160.808C224.92 159.728 225.052 158.624 225.1 157.496C225.124 157.208 225.136 156.788 225.136 156.236C225.136 148.988 223.732 145.208 220.924 144.896C220.756 145.976 220.672 147.224 220.672 148.64C220.672 150.152 220.768 152.792 220.96 156.56C221.128 159.896 221.212 162.548 221.212 164.516V165.38Z" fill="#FFB33D"/>
<path fill-rule="evenodd" clip-rule="evenodd" d="M382.86 99.6203C381.011 103.236 379.057 106.755 377.085 110.305C376.04 112.184 372.673 119.956 371.803 120.253C370.866 120.572 365.128 117.198 363.481 116.537C360.555 115.363 357.774 114.25 354.718 113.526C351.295 112.715 347.845 112.117 344.295 112.419C342.74 112.551 340.166 112.927 341.711 110.742C342.838 109.149 343.929 107.683 345.46 106.532C346.573 105.694 348.206 104.157 349.51 103.598C350.878 103.011 352.895 103.141 354.366 103.175C355.955 103.213 363.531 105.577 363.948 103.113C364.721 103.816 365.171 103.544 366.056 103.888C367.054 104.275 367.676 105.026 368.667 105.48C369.31 105.774 370.495 106.938 371.21 106.945C372.16 106.955 372.416 106.168 373.098 105.587C374.627 104.286 376.663 103.429 378.321 102.298C379.782 101.302 381.172 100.264 382.86 99.6203ZM366.216 71.0422C366.086 72.6927 366.532 74.2262 366.521 75.9247C366.516 76.6658 366.483 77.4064 366.707 78.1204C366.91 78.7605 366.768 79.9101 366.876 80.5805C364.985 80.0051 361.473 79.1516 359.543 79.9276C357.697 80.6694 357.465 84.1005 357.4 85.7691C357.356 86.9067 357.861 88.6589 357.478 89.7478C357.299 90.2557 357.298 90.4196 357.309 90.4654L357.311 90.4702C357.274 90.4516 357.126 90.4518 356.603 90.8287C356.085 91.2024 355.467 91.4082 354.955 91.8207C354.024 92.5719 353.864 93.423 353.405 94.5116C352.959 95.569 351.77 96.5087 350.443 96.4704C351.509 94.5368 352.991 92.7311 352.141 90.4601C351.499 88.7459 352.623 86.7343 353.508 85.106C353.801 84.5667 357.046 80.4352 355.608 80.1441C354.674 79.9547 352.53 84.3402 352.12 85.106C350.977 84.3327 350.463 83.3795 351.343 82.2148C352.019 81.3204 352.849 80.5556 353.508 79.6294C354.576 78.1262 355.618 76.3321 356.887 74.9969C359.116 72.6525 363.007 71.0565 366.216 71.0422ZM357.311 90.4702C357.323 90.4787 357.318 90.4872 357.312 90.4744L357.311 90.4702ZM396.171 68.4806C397.595 69.8451 399.397 70.9768 400.773 72.4089C401.978 73.6624 403.6 75.7712 404.173 77.4459C401.236 78.0119 396.356 79.7455 395.187 82.8275C390.619 78.6348 388.852 86.3003 387.946 89.5056C385.273 88.3489 385.806 84.4981 385.841 82.2497C385.869 80.4662 386.955 78.3553 384.366 78.209C382.43 78.1 380.551 78.8883 378.805 79.6263C376.627 80.5473 374.343 81.9249 372.584 83.5073L370.751 82.0804C373.758 80.3923 375.325 77.1647 377.085 74.2093C377.646 73.2672 378.396 72.2195 378.805 71.2011C379.089 70.4968 379.288 69.0752 379.598 68.4491C380.087 67.4646 384.857 67.1936 386.121 66.9398C389.457 66.2704 393.445 65.8688 396.171 68.4806Z" fill="#FFB33D"/>
<path fill-rule="evenodd" clip-rule="evenodd" d="M395.411 90.3576C396.643 90.2946 397.87 90.5698 399.102 90.4499L395.893 87.6546C395.42 88.4845 395.385 89.4288 395.411 90.3576ZM366.174 71.2011C362.985 71.2151 359.094 72.8172 356.878 75.157C355.704 76.397 354.734 78.0622 353.742 79.4553C353.076 80.3901 352.425 81.2923 351.617 82.1138C350.438 83.3109 350.776 83.5846 352.104 84.486C352.524 83.6984 354.753 79.4873 355.687 79.6767C357.106 79.9649 354.365 84.4129 354.066 84.967C353.179 86.6066 351.747 88.8967 352.39 90.626C353.239 92.9086 352.008 94.2094 350.94 96.1544C352.062 96.1868 352.172 95.7492 352.559 94.7918C353.056 93.5615 353.598 92.5337 354.649 91.6831C355.462 91.0243 356.793 90.747 357.175 89.9517C357.648 88.9687 357.351 87.0275 357.39 85.9338C357.448 84.2719 357.452 80.3434 359.283 79.6052C361.202 78.8317 364.652 79.5606 366.527 80.1337C366.293 78.6692 365.554 77.7128 365.564 76.0853C365.575 74.3817 366.044 72.8617 366.174 71.2011ZM341.671 98.3784C343.339 97.8504 344.921 97.2936 346.638 96.9337C348.434 96.5569 348.554 96.1258 349.567 94.5852C350.334 93.4174 351.266 92.5073 351.048 91.0771C350.909 90.1597 350.407 89.7129 350.558 88.6812C350.651 88.0418 350.95 87.3438 351.165 86.7357C351.43 85.9898 351.978 85.1438 350.704 85.1067C350 85.0864 349.966 85.4577 349.489 86.0808C348.611 87.2319 347.599 88.2775 346.665 89.3814C345.04 91.298 343.318 93.338 341.505 95.1122C339.51 97.0643 337.787 99.4191 336.498 101.918C336.259 102.38 334.811 105.099 335.429 105.632C335.996 106.121 339.153 104.979 339.728 104.846C342.212 104.269 345.032 104.063 347.379 103.016C348.575 102.482 351.214 101.845 352.159 101.02C353.037 100.252 352.997 98.3927 352.487 97.3108C351.061 98.1979 340.752 101.545 341.671 98.3784ZM372.71 83.1215C374.375 81.6175 376.342 80.4114 378.398 79.5175C380.237 78.7181 382.521 77.8268 384.567 77.9656C387.115 78.1383 386.05 80.1913 386.041 81.9394C386.029 84.2593 385.013 87.601 387.782 88.8045C388.687 85.5926 390.593 77.9971 395.158 82.2058C396.325 79.1174 400.486 78.0722 403.417 77.505C402.886 75.9445 401.272 74.5321 400.154 73.3611C398.755 71.8959 397.651 70.1788 396.249 68.7414C393.481 65.903 388.465 66.8143 384.96 67.522C383.79 67.7579 380.398 68.0543 379.832 68.9136C379.476 69.4525 379.675 70.769 379.411 71.428C379.048 72.3357 378.428 73.1773 377.93 74.0158C376.115 77.0753 374.268 80.1547 371.161 81.9067L372.71 83.1215ZM382.87 99.6043C381.226 100.235 380.017 101.29 378.559 102.178C376.791 103.255 374.718 104.264 373.132 105.594C372.551 106.08 372.225 106.921 371.424 106.975C370.727 107.023 369.665 106.213 369.047 105.93C368.01 105.454 367.02 104.733 365.978 104.309C365.122 103.96 364.743 104.032 364.003 103.354C363.587 105.826 356.028 103.515 354.443 103.477C352.976 103.443 350.963 103.616 349.598 104.206C348.297 104.768 347.28 106.004 346.167 106.846C344.641 108.002 343.184 109.17 342.06 110.769C340.518 112.961 342.844 112.341 344.396 112.208C347.936 111.906 351.381 112.749 354.794 113.563C357.845 114.29 360.858 115.163 363.779 116.342C365.421 117.006 367.15 117.616 368.695 118.478C369.51 118.933 370.831 120.046 371.765 119.725C372.622 119.431 373.476 116.974 373.996 115.993C375.005 114.088 376.066 112.216 377.108 110.329C379.076 106.767 381.025 103.233 382.87 99.6043H382.87ZM362.642 146.759C363.655 146.177 365.306 146.334 366.427 146.09C367.692 145.814 368.965 145.366 370.172 144.898C371.395 144.424 372.55 143.939 373.667 143.346C374.177 143.075 374.858 142.808 375.33 142.432C375.711 142.129 375.849 141.566 376.2 141.291C377.115 140.573 377.384 141.023 377.507 139.639C377.64 138.135 376.796 137.284 375.746 136.158C374.806 135.151 373.584 134.281 372.403 133.572C371.88 133.259 371.322 132.906 370.789 132.607C369.982 132.155 368.901 131.401 368.477 132.374C369.359 132.599 369.553 133.725 368.757 134.13C368.32 134.352 367.659 134.025 367.166 134.262C366.405 134.626 365.673 135.644 365.022 136.192C362.884 137.992 360.84 138.667 358.042 138.811C352.196 139.113 346.074 138.446 340.34 137.58C338.864 137.356 337.391 137.598 335.902 137.545C334.452 137.493 332.941 137.176 331.517 136.931C328.773 136.46 325.881 136.072 323.179 135.379C319.912 134.54 316.634 133.455 313.567 132.049C310.625 130.701 307.299 128.474 303.995 128.302C305.405 129.683 307.518 130.215 309.214 131.124C310.601 131.867 312.769 132.344 313.645 133.568C314.215 134.365 314.501 135.829 314.932 136.763C315.408 137.797 315.847 138.848 316.288 139.897C316.731 140.953 317.193 142.009 317.553 143.097C317.775 143.772 317.871 145.17 318.397 145.632C319.236 146.368 322.045 146.695 323.176 146.94C325.287 147.397 327.695 147.336 329.849 147.368C330.739 147.381 331.636 147.502 332.486 147.519C333.681 147.542 333.567 147.335 333.55 146.298C333.54 145.676 333.553 144.543 334.385 145.056C334.953 145.406 334.562 146.953 334.457 147.503C339.211 147.977 344.171 148.215 348.902 148.056C353.554 147.9 358.046 147.3 362.642 146.759ZM384.11 135.847C384.949 129.824 385.971 123.7 387.115 117.755C388.271 111.747 389.661 105.794 391.225 99.8085L388.126 99.0679C388.088 100.329 387.661 101.424 387.48 102.68C387.229 104.412 386.749 106.095 386.462 107.822C385.916 111.104 384.905 114.316 384.015 117.518C383.107 120.781 382.804 124.143 381.97 127.423C381.282 130.126 380.931 133.102 380.547 135.88C379.616 142.619 378.289 149.372 377.28 156.114C376.333 162.436 376.238 168.886 376.292 175.267C376.326 179.162 376.92 183.047 376.889 186.947C376.881 187.912 376.962 188.873 377.013 189.836C377.048 190.515 376.683 192.398 376.992 192.967C377.188 193.327 378.03 193.659 378.328 194.159C378.799 194.951 378.898 195.897 379.655 196.495C380.269 194.021 379.979 190.755 379.845 188.23C379.715 185.797 379.967 183.283 380.016 180.812C380.113 175.966 380.37 171.191 380.619 166.342C380.891 161.025 381.665 155.578 382.422 150.301C383.11 145.503 383.569 140.619 384.11 135.847ZM361.659 60.3109L360.661 60.2181C360.711 60.919 360.563 62.0539 361.057 62.4196C361.431 62.6966 362.189 62.6058 362.643 62.6942C364.131 62.9851 365.855 63.2282 367.331 62.6986C367.905 62.4927 367.537 62.1704 368.327 62.3043C369.278 62.4661 368.931 62.6167 369.206 63.2103C369.417 63.6685 369.526 64.4484 369.767 64.9984C370.088 65.7346 370.74 67.0521 370.461 67.9022C370.191 68.7286 369.18 68.9783 368.751 69.9141C368.431 70.6099 368.506 71.6213 368.341 72.3875C368.119 73.4096 367.839 74.4277 367.716 75.4686C367.56 76.7801 367.613 78.3187 369.238 78.5221C370.746 78.7111 371.824 78.2267 372.836 77.1284C374.767 75.0317 376.972 72.0722 378.107 69.4348C378.239 69.1267 378.565 68.6126 378.52 68.2827C378.43 67.6302 378.391 68.2907 378.184 67.8376C377.987 67.4043 377.677 67.0112 377.495 66.5305C376.839 64.7979 376.376 62.9985 376.113 61.1648C375.993 60.3365 375.954 59.5184 375.974 58.6821C375.981 58.3964 376.152 57.539 376.05 57.3436C375.946 57.1455 375.402 57.0542 375.233 56.8575C374.919 56.493 374.38 55.464 374.032 55.1913C373.604 54.8558 372.646 55.1215 372.473 54.4545C372.195 53.3874 378.775 51.6493 375.701 50.2252C373.405 49.162 369.885 54.5366 369.082 50.3075C368.943 49.5749 369.208 48.5807 368.887 47.9092C368.532 47.1673 367.565 46.8898 366.89 46.5287C366.028 46.0685 365.158 45.5953 364.32 45.0911C363.746 44.7455 362.918 43.8278 362.307 43.7438C362.547 44.9893 362.086 46.224 362.078 47.4672C363.403 47.1087 364.314 47.1012 365.621 47.7384C366.243 48.0416 368.589 49.7629 367.401 50.5907C366.438 50.0215 365.408 49.5282 364.335 49.1932C363.912 49.0612 363.383 48.8818 362.933 48.8726C361.888 48.8515 362.035 48.9607 361.643 49.7488C361.265 50.5078 361.346 52.4875 360.515 52.9723C359.657 53.4734 360.319 52.7718 359.586 52.9336C359.168 53.0263 358.712 53.3373 358.329 53.5129C358.854 54.082 359.912 54.602 360.26 55.2344C360.768 56.1564 360.592 58.0631 360.671 59.0718C361.336 58.834 362.035 58.8243 362.708 58.6478C363.341 58.4814 364.219 57.7621 364.285 58.8197C364.359 59.9982 362.496 60.3111 361.659 60.3111L361.659 60.3109ZM370.305 91.3414C370.357 90.323 370.413 89.3048 370.527 88.2905C370.603 87.6095 371.25 85.6342 370.885 85.036C370.487 84.3853 369.155 84.3438 368.514 84.1876C367.285 83.8881 366.106 83.6427 364.857 83.4448C363.708 83.2632 362.625 83.2245 361.468 83.1719C360.207 83.115 359.895 82.7805 359.616 84.1697C359.397 85.262 359.103 86.4 359.062 87.5184C359.024 88.5683 359.341 89.4797 358.3 90.1873C360.585 90.1873 363.561 88.153 365.645 89.9718C368.628 92.5729 363.438 93.3222 362.069 93.8964C363.207 94.4494 364.896 94.8836 365.431 96.1464C366.032 97.562 365.16 98.1638 363.826 98.2771C363.951 98.8228 364.432 99.1771 364.575 99.8332C364.784 100.795 364.104 100.476 364.972 101.221C366.114 102.2 368.466 102.855 369.866 103.479C370.194 103.626 370.526 103.763 370.862 103.892C371.387 104.359 371.774 104.27 372.024 103.625C372.743 103.17 373.383 102.155 374.02 101.565C375.438 100.251 377.004 99.0989 378.689 98.1502C377.99 97.8611 377.155 98.515 376.484 98.1967C375.942 97.9395 376.147 97.4714 375.822 97.1209C375.952 96.6639 375.815 96.4968 375.41 96.6196C375.216 96.6426 375.019 96.6068 374.845 96.5169C374.506 96.0967 374.354 95.9592 374.331 95.3103C374.308 94.622 374.706 94.3791 374.859 93.8282C375.357 93.4891 375.345 93.1561 374.825 92.8296C374.613 92.4866 374.493 92.0949 374.476 91.6921C374.377 90.1735 375.763 89.5618 376.82 88.7587C374.927 88.5506 374.999 86.331 376.309 85.3608C377.666 84.3547 380.54 84.7667 382.181 84.9936C382.522 85.0404 383.444 85.4807 383.789 85.2C384.001 85.028 383.851 83.5737 383.861 83.317C383.883 82.7343 384.025 82.0394 383.932 81.4596C383.738 80.2458 384.15 80.8571 383.276 80.8234C381.196 80.7428 378.548 82.5582 376.718 83.4141C374.67 84.3722 373.354 84.5194 373.333 86.8951C373.312 89.1442 372.681 91.3854 372.406 93.5988C372.286 94.5656 372.2 99.5879 370.431 97.7344C369.745 97.0156 370.184 95.9102 370.235 95.0236C370.304 93.8037 370.263 92.5647 370.305 91.3414ZM255.898 166.636C256.91 166.816 258.559 166.234 259.664 166.173C261.595 166.067 263.584 165.883 265.476 165.482C266.956 165.167 268.643 164.89 269.441 163.457C270.155 162.177 270.407 160.573 270.792 159.176C270.996 158.434 271.522 157.358 271.522 156.59C271.522 155.592 271.388 155.789 270.347 155.243C269.029 154.552 267.748 153.588 266.327 153.196C265.897 153.112 265.467 153.03 265.037 152.949C264.48 152.626 264.166 152.785 264.093 153.425C263.549 153.998 263.231 155.054 262.775 155.724C261.735 157.252 260.501 158.294 258.888 159.175C255.986 160.76 253.282 161.983 250.174 163.02C248.461 163.591 246.881 164.392 245.207 165.022C243.866 165.526 242.014 165.68 240.984 166.803C239.822 168.069 241.608 168.53 242.602 169.387C243.415 170.088 243.431 170.249 244.544 169.909C245.374 169.655 246.109 169.17 246.906 168.84C249.634 167.714 252.936 166.963 255.898 166.636ZM318.247 186.73C317.23 186.51 316.213 186.29 315.197 186.071C316.197 187.938 318.3 190.669 316.79 192.829C316.226 193.637 315.288 193.867 314.449 194.276C313.435 194.772 312.498 195.407 311.539 195.997C307.584 198.433 303.565 200.902 299.398 202.992C300.702 203.413 302.708 203.704 304.052 203.337C305.616 202.91 307.065 201.929 308.671 201.5C311.553 200.731 314.586 200.076 317.514 199.681C319.907 199.359 325.897 200.087 325.606 196.488C325.33 193.071 323.289 189.811 322.682 186.433C321.191 186.764 319.77 186.706 318.247 186.73ZM378.852 132.04C380.011 126.352 380.703 120.567 382.07 114.92C382.752 112.103 383.232 109.247 383.898 106.429C384.208 105.118 384.443 103.794 384.745 102.485C385.051 101.161 385.709 99.9381 385.859 98.5685C384.751 98.8424 384.495 101.379 384.16 102.333C383.544 104.084 382.872 105.766 382.081 107.442C380.823 110.106 379.488 112.676 378.069 115.259C376.573 117.984 374.993 120.603 373.124 123.091C372.509 123.909 371.676 124.549 371.28 125.446C370.658 126.856 370.396 128.538 369.801 130.006C370.22 130.218 371.302 130.271 371.815 130.373C372.77 130.561 373.44 130.729 374.357 131.183C375.973 131.983 377.331 132.931 378.411 134.371C378.682 133.632 378.753 132.822 378.852 132.04ZM333.806 175.438C333.786 169.96 333.709 164.435 333.799 158.998C333.823 157.488 333.946 155.859 334.165 154.36C334.303 153.419 335.112 151.417 334.58 150.966C334.126 150.579 331.726 150.834 331.138 150.82C329.996 150.794 328.858 150.743 327.714 150.657C327.714 152.687 328.507 154.992 328.875 157.001C329.219 158.874 329.501 160.758 329.785 162.64C330.399 166.715 330.573 170.846 331.24 174.933C331.843 178.638 332.639 182.327 333.079 186.032C333.32 188.065 333.808 189.984 334.186 192.016C334.384 193.076 335.106 197.441 336.015 197.87C336.207 196.304 335.422 194.413 335.281 192.83C335.136 191.195 335.024 189.55 334.759 187.906C334.448 185.977 334.29 184.001 334.171 182.048C334.098 180.853 334.076 179.661 333.973 178.467C333.898 177.601 333.57 176.287 333.806 175.438ZM362.353 102.186C362.391 101.589 360.847 101.613 360.56 100.927C359.976 99.5351 361.306 99.7857 362.123 99.6416C361.832 98.8674 356.374 99.1493 357.646 97.0592C358.528 95.609 361.873 97.8286 362.767 96.4506C363.354 95.5455 361.755 95.4208 361.121 95.3302C360.167 95.1934 357.919 95.6354 357.993 94.3971C358.086 92.8412 362.456 91.7674 363.682 91.3104C363.546 90.245 358.286 91.7594 357.525 92.1912C355.802 93.1687 354.482 94.9226 354.229 96.8717C353.935 99.1396 355.085 100.926 357.35 101.482C358.295 101.714 358.993 101.74 359.866 102.089C360.442 102.318 362.303 102.89 362.697 102.312L362.353 102.186ZM393.232 88.0793C393.32 87.1108 394.135 85.2877 393.196 84.6514C391.881 83.7609 391.337 85.2283 391.039 86.1099C390.674 87.1862 389.143 89.8207 390.482 90.4913C390.794 90.6473 392.269 90.4656 392.53 90.3629C393.255 90.5518 393.489 90.2803 393.233 89.5475L393.232 88.0793ZM361.153 166.29C361.071 163.643 362.256 160.461 362.927 157.869C363.689 154.931 364.09 151.935 364.896 149.03C363.999 149.138 363.094 149.226 362.207 149.406C360.997 149.652 360.976 149.613 361.063 150.8C361.192 152.582 361.022 154.329 360.93 156.11C360.746 159.676 361.195 163.301 360.896 166.845C361.163 166.912 361.248 166.727 361.153 166.29ZM394.642 96.918C397.548 97.3629 400.333 98.2839 402.977 99.522C404.435 100.204 406.04 100.938 407.669 101.21C409.479 101.513 411.398 101.371 413.247 101.488C413.898 101.529 415.611 101.845 416.246 101.462C416.875 101.082 416.826 100.439 416.856 99.6721C416.932 97.6995 416.039 95.7681 415.236 93.9982C414.547 92.4797 414.027 91.3203 412.958 90.0142C411.585 88.3366 410.39 86.5262 409.105 84.7752C408.136 83.4553 407.156 82.1545 406.169 80.8362C405.462 79.8922 405.496 79.5674 404.43 79.673C403.382 79.7772 402.326 80.3972 401.338 80.7256C399.872 81.2133 398.096 81.4812 396.759 82.2608C395.895 82.765 395.856 82.8578 395.866 83.7377C395.876 84.5572 396.14 85.557 396.63 86.1983C397.649 87.5291 399.337 88.2336 400.786 88.8977C401.624 89.2816 402.348 89.8262 403.094 90.3562C403.898 90.9272 405.52 91.2636 406.135 91.9146C407.926 93.8105 404.666 93.4356 403.755 93.3787C401.789 93.2551 399.834 93.2738 397.854 93.2721C395.692 93.2709 393.548 93.1704 391.417 93.2406C390.169 93.2818 388.737 92.6487 387.928 91.5935C387.537 91.0825 387.384 90.5991 386.872 90.0687C386.201 89.3743 385.618 88.6427 384.801 88.1053C383.465 87.2261 381.038 86.7284 379.449 87.0566C380.018 87.136 382.696 88.0476 381.517 89.1934C381.373 89.3329 379.651 89.4242 379.277 89.5962C378.601 89.9064 377.749 90.3574 377.353 91.0125C378.507 90.8192 382.786 90.5954 380.603 92.8093C380.067 93.3527 378.529 93.895 379.838 94.4729C380.139 94.6056 380.74 94.4176 381.128 94.5373C381.703 94.7155 382.173 95.1919 382.712 95.446C384.241 96.1672 386.349 96.6119 387.944 96.4539C390.151 96.235 392.45 96.6291 394.642 96.918ZM336.129 163.622C336.204 166.802 336.09 170.002 336.157 173.196C336.23 176.608 336.668 179.952 336.876 183.329C337.064 186.356 337.472 189.326 337.804 192.338C337.995 194.073 338.216 195.733 338.509 197.455C338.784 199.066 338.831 200.486 336.905 200.92C333.221 201.748 332.649 196.45 331.937 194.217C330.875 190.885 330.193 187.387 329.667 183.933C328.686 177.5 327.383 171.156 326.874 164.668C326.561 160.674 326.107 156.72 325.85 152.728C325.799 151.946 325.998 150.741 325.312 150.393C324.898 150.184 323.761 150.182 323.239 150.03C321.787 149.608 320.446 148.985 319.029 148.34C320.035 153.6 320.367 158.834 321.122 164.141C321.522 166.957 322.288 169.874 322.952 172.646C323.64 175.518 323.793 178.61 324.587 181.419C324.937 182.657 325.233 183.162 324.725 184.432C324.103 185.993 324.516 186.366 325.296 187.898C326.732 190.717 327.828 194.043 327.585 197.221C327.386 199.816 325.426 201.175 322.997 201.875C319.958 202.751 316.776 202.647 313.72 203.642C311.056 204.508 308.35 205.148 305.764 206.291C304.721 206.752 303.731 207.299 302.573 207.384C300.984 207.499 299.913 206.578 298.414 206.386C297.476 206.266 296.103 206.713 295.563 205.73C295.135 204.951 295.62 203.251 296.157 202.624C297.667 200.861 300.691 199.326 302.727 198.286C305.073 197.087 307.344 195.587 309.519 194.04C310.837 193.102 312.181 192.202 313.498 191.262C314.369 190.64 314.7 190.636 314.611 189.648C314.54 188.86 314.185 188.096 314.123 187.289C314.075 186.671 314.292 185.829 314 185.425C313.785 185.128 312.978 184.918 312.661 184.693C311.502 183.871 311.238 182.854 310.712 181.603C309.515 178.763 308.141 176.003 306.986 173.14C304.506 166.993 302.993 160.53 300.937 154.257C298.837 147.849 296.959 141.122 295.802 134.474C294.254 134.945 292.793 137.029 291.561 138.061C289.895 139.454 288.189 140.802 286.556 142.234C283.879 144.581 281.168 146.864 278.956 149.676C277.891 151.029 277.018 152.487 276.053 153.909C275.496 154.731 274.976 155.661 274.372 156.443C274.275 156.568 274.273 156.826 274.168 156.933C273.938 157.167 273.499 156.855 273.352 157.01C272.442 157.961 272.454 160.661 272.171 161.916C271.78 163.646 271.342 165.635 269.991 166.827C267.905 168.668 264.058 168.953 261.418 169.049C258.029 169.171 254.743 170.116 251.528 171.13C250.029 171.602 248.569 172.156 247.064 172.615C246.198 172.879 245.211 173.406 244.286 173.305C243.172 173.183 242.291 172.245 241.475 171.548C240.168 170.432 238.959 169.333 239.001 167.503C239.048 165.566 240.097 164.104 241.75 163.142C244.946 161.282 248.52 160.089 251.965 158.804C253.285 158.311 254.415 157.766 255.677 157.102C257.46 156.165 259.513 155.399 261.096 154.161C261.562 153.796 263.277 152.677 263.423 152.099C263.442 152.024 263.014 151.143 263.012 151.003C263.007 150.643 263.22 150.254 263.351 149.946C264.175 148.009 265.558 146.143 266.615 144.316C268.55 140.969 270.493 137.605 272.738 134.457C277.212 128.182 282.239 122.037 287.665 116.56C290.31 113.889 292.595 110.86 295.277 108.226C296.34 107.183 297.462 106.334 298.771 105.657C300.231 104.902 301.869 104.754 303.542 104.523C307.597 103.965 310.982 105.165 314.789 106.208C318.387 107.195 321.989 108.027 325.608 109.054C329.582 110.183 333.515 111.265 337.476 112.495C339.593 113.152 341.77 113.555 343.897 114.186C344.921 114.489 348.792 116.39 349.646 115.766C346.956 114.504 344.201 113.354 341.324 112.592C340.476 112.368 339.935 112.616 339.966 111.643C339.984 111.112 340.58 110.395 340.795 109.959C341.309 108.913 341.891 107.891 342.394 106.842C340.57 107.36 335.667 109.152 334.292 107.299C332.854 105.359 334.055 101.556 334.956 99.6571C337.31 94.6993 341.313 90.562 345.213 86.8246C346.056 86.0166 347.875 84.9614 348.325 83.9321C348.461 83.6192 348.164 83.1596 348.472 82.7532C348.656 82.5112 349.393 82.346 349.687 82.0855C350.759 81.1361 351.615 79.1385 352.356 77.8939C353.132 76.5905 353.832 75.179 354.807 74.0092C356.402 72.0972 358.049 70.07 360.632 69.6227C361.899 69.4035 363.244 69.5205 364.459 69.0829C365.927 68.5537 367.322 67.7201 368.805 67.172C368.437 66.4157 368.139 65.2132 367.425 65.1306C366.738 65.0507 365.73 65.6416 364.944 65.6373C363.795 65.631 362.815 65.4474 361.706 65.2285C360.479 64.9858 360.075 65.0299 359.628 63.6991C359.159 62.305 359.277 60.6858 359.281 59.238C359.283 58.5301 359.423 57.6516 359.363 56.9573C359.273 55.911 359.069 55.8706 358.249 55.2051C357.224 54.3736 355.96 53.2734 357.216 51.8287C357.894 51.0479 359.288 51.6551 359.889 50.8164C360.501 49.9619 360.472 47.8157 360.658 46.8123C358.772 47.7399 359.463 44.2727 359.463 43.4386C359.463 42.2245 358.649 40.0415 359.82 39.0318C360.364 38.5629 360.769 38.9506 361.391 38.6813C362.101 38.3738 362.548 37.5673 363.303 37.2546C364.805 36.6329 366.338 37.3815 367.879 37.2578C369.647 37.1163 371.384 36.8429 373.162 37.1267C374.004 37.2607 374.359 37.5806 375.071 37.9393C375.757 38.2841 376.452 38.3786 377.197 38.6004C377.859 38.7981 378.44 38.8981 378.887 39.4752C379.241 39.932 379.097 40.7002 379.454 41.0938C379.807 41.4817 380.504 41.4256 380.924 41.886C381.327 42.3282 381.569 43.0589 381.778 43.6089C382.061 44.35 382.094 44.6285 382.593 45.2214C383.028 45.7389 383.654 46.1552 384.016 46.7457C384.871 48.1373 384.893 50.1499 384.62 51.7154C384.527 52.2484 383.755 53.6262 383.876 54.0801C383.991 54.5119 384.715 54.3983 385.044 54.6713C385.327 54.9074 385.576 55.9587 385.8 56.0227C386.283 56.1615 386.879 55.2075 387.245 55.0643C387.881 54.8156 388.147 54.5606 388.5 55.4979C388.761 56.1937 388.397 57.138 388.205 57.8018C387.962 58.647 387.692 59.6649 387.047 60.3041C386.288 61.0553 385.68 60.6446 384.843 61.0493C383.587 61.6557 383.958 63.5521 382.413 64.0941C380.941 64.6104 379.32 62.9858 378.206 62.2389C378.437 64.0519 379.305 65.7991 378.889 67.6571C382.274 66.3309 385.621 64.4486 389.311 64.034C391.192 63.8223 393.092 63.5719 394.868 64.3527C396.946 65.2667 398.22 67.283 399.627 68.9582C402.271 72.1066 404.984 75.1666 407.521 78.4166C409.849 81.3976 411.811 84.8517 414.373 87.6429C416.971 90.4736 418.932 95.066 418.647 98.9858C418.622 99.3396 418.348 100.143 418.391 100.525C418.424 100.817 418.69 101.188 418.686 101.423C418.671 102.217 418.409 102.673 417.653 103.113C416.342 103.877 414.389 104.263 412.908 104.452C410.94 104.704 408.53 104.731 406.561 104.462C404.531 104.185 402.746 103.048 400.878 102.361C399.24 101.758 397.595 101.382 395.874 100.998C394.925 100.785 393.874 100.198 393.287 100.766C392.748 101.289 392.636 103.969 392.511 104.682C391.149 112.408 389.531 119.871 388.098 127.557C386.473 136.269 385.362 144.978 384.233 153.764C383.206 161.75 382.87 169.827 382.641 177.806C382.531 181.612 382.515 185.378 382.538 189.187C382.551 191.32 383.618 198.441 380.456 198.713C378.597 198.874 377.111 196.21 376.613 194.757C375.865 192.574 375.475 190.223 375.356 187.93C375.114 183.287 374.798 178.641 374.611 173.997C374.408 168.965 374.666 163.841 375.079 158.826C375.496 153.777 376.545 148.802 376.866 143.746C375.901 145.123 375.592 145.382 373.985 145.982C372.303 146.61 370.684 147.353 368.987 147.939C368.409 148.138 367.508 148.262 367.035 148.589C366.161 149.19 366.735 148.508 366.456 149.679C366.158 150.93 366.102 152.431 366.023 153.717C365.651 159.75 363.98 165.74 363.209 171.741C363.023 173.19 363.289 179.341 360.795 177.402C358.874 175.909 358.912 171.22 358.639 169.024C358.276 166.096 358.478 163.086 358.536 160.141C358.601 156.786 358.658 153.268 359.458 149.992C358.026 149.747 356.034 150.415 354.593 150.527C353.344 150.624 352.1 150.686 350.859 150.754C347.899 150.917 344.85 151.046 341.84 150.988C341.293 150.978 337.713 150.477 337.255 150.881C337.107 151.012 337.061 152.817 337.033 153.037C336.928 153.866 336.785 154.695 336.679 155.52C336.339 158.156 336.032 160.987 336.129 163.622Z" fill="black"/>
<path fill-rule="evenodd" clip-rule="evenodd" d="M389.289 188.677C391.549 189.56 393.946 189.88 396.224 190.685C398.261 191.404 400.152 192.37 402.157 193.101C402.275 192.171 402.337 190.595 401.993 189.719C401.507 188.477 400.227 188.447 398.967 188.004C395.899 186.928 392.673 186.702 389.627 185.444C390.149 186.448 389.916 187.776 389.289 188.677ZM428.284 185.43C423.405 185.574 418.743 186.709 413.935 187.411C411.595 187.753 409.253 188.058 406.911 188.376C406.01 188.499 404.368 188.354 403.712 189.134C403.169 189.781 403.764 191.987 403.523 192.934C404.509 193.007 406.26 192.086 407.331 191.933C408.997 191.696 410.642 191.364 412.326 191.259C414.993 191.09 417.613 190.948 420.275 190.651C422.983 190.349 425.603 189.788 428.332 189.583C429.658 189.483 430.192 189.732 430.27 188.331C430.301 187.784 430.376 186.867 430.222 186.327C430.468 185.664 430.25 185.341 429.569 185.36C429.14 185.311 428.705 185.335 428.284 185.43ZM418.848 180.961C420.168 180.837 421.492 180.66 422.815 180.586C423.083 180.57 424.444 180.652 424.666 180.403C424.98 180.05 424.63 178.76 424.572 178.361C424.376 177.003 424.159 176.214 422.678 176.211C421.429 176.208 420.135 176.472 418.89 176.594C413.239 177.148 407.617 177.381 402.028 178.433C402.368 179.882 402.755 181.377 402.348 182.858C405.029 182.996 407.972 182.48 410.592 181.951C413.27 181.41 416.111 181.142 418.848 180.961ZM409.904 167.321C407.885 167.33 405.751 168.22 403.759 168.021C403.729 168.392 404.367 168.084 404.543 168.431C404.919 168.432 405.05 168.555 404.935 168.8C404.942 168.967 404.857 169.065 404.678 169.094L404.415 169.117C404.03 169.129 403.967 169.389 404.226 169.897C404.115 170.526 404.282 171.325 404.306 171.956C407.886 171.469 411.365 170.962 414.97 170.745C416.672 170.643 418.373 170.643 420.073 170.503C421.944 170.349 423.986 170.679 425.814 170.329C426.792 170.141 426.689 170.155 426.618 168.883C426.575 168.111 426.591 167.194 425.962 166.631C424.912 165.69 422.52 166.234 421.265 166.267C417.482 166.367 413.636 166.718 409.904 167.321ZM411.971 185.476C417.38 184.985 422.748 183.909 428.187 183.909C427.802 183.525 426.965 183.426 426.486 183.216C425.94 182.977 425.425 182.468 424.892 182.259C423.821 181.84 422.732 182.423 421.633 182.674C418.981 183.281 416.261 183.302 413.605 183.898C410.859 184.513 408.077 185.081 405.281 185.394C403.949 185.543 402.521 185.845 401.205 185.493L400.884 185.264C400.769 184.774 400.45 184.644 399.926 184.872C399.261 184.745 398.415 184.909 397.745 184.925C397.718 185.193 400.191 186.031 400.663 186.239C401.799 186.74 402.57 187.106 403.783 186.891C406.516 186.409 409.204 185.832 411.971 185.476ZM392.945 169.663C393.156 170.487 394.043 170.112 394.807 170.203C395.833 170.324 396.853 170.678 397.847 170.945C399.651 171.43 401.455 171.908 403.252 172.42C403.181 171.695 403.341 170.043 402.958 169.399C402.556 168.725 400.648 168.429 399.76 168.223C397.521 167.705 395.13 168 392.856 168.109C392.896 168.626 392.926 169.144 392.945 169.663ZM414.45 174.818C416.574 174.638 418.701 174.498 420.831 174.423C423.267 174.338 421.496 173.949 421.445 172.463C418.244 172.974 415.014 173.075 411.823 173.511C409.179 173.873 406.03 174.818 403.333 174.31C402.061 174.071 400.763 173.979 399.409 173.844C398.133 173.716 396.928 173.121 395.668 172.974C394.252 172.808 392.806 173.603 391.398 173.813C390.801 173.903 390.662 174.308 390.381 173.589C390.088 172.844 390.925 172.235 391.255 171.789C391.64 171.269 391.48 172.114 391.694 171.301C391.754 171.073 391.591 170.501 391.562 170.256C391.486 169.636 391.291 168.962 391.261 168.343C391.233 167.775 391.228 166.907 391.845 166.575C392.222 166.373 392.489 166.668 392.817 166.611C395.381 166.165 398.396 166.128 400.996 166.559C403.814 167.025 406.24 165.79 409.018 165.289C412.277 164.702 415.57 164.614 418.857 164.366C421.667 164.154 426.802 163.054 427.873 166.644C428.176 167.661 428.618 170.461 427.802 171.327C426.732 172.463 424.253 172.1 422.869 172.396C423.076 172.985 423.693 173.385 423.48 174.086C425.419 174.178 425.762 176.01 426.066 177.721C426.38 179.49 425.767 180.194 427.458 181.115C429.815 182.4 432.312 183.696 432.266 186.755C432.243 188.293 432.071 190.612 430.492 191.41C428.947 192.19 426.432 192.058 424.729 192.342C421.433 192.891 418.124 193.535 414.808 193.864C411.276 194.216 407.686 194.504 404.148 194.66C402.221 194.746 400.556 195.037 398.694 194.389C396.864 193.751 395.074 193.285 393.185 192.812C391.321 192.345 385.615 191.716 387.278 188.528C387.543 188.018 388.453 187.612 388.6 187.13C388.837 186.352 388.037 185.745 388.07 185.042C388.131 183.755 389.582 183.594 390.585 183.594C388.867 182.519 391.167 181.247 391.154 180.335C391.129 178.728 389.131 177.685 389.018 176.338C388.743 173.06 399.142 176.473 400.743 177.183C399.511 179.009 393.795 177.429 392.093 177.152C392.325 177.762 392.547 178.31 392.614 178.935C392.669 179.443 392.474 180.025 392.652 180.537C392.933 181.347 392.923 181.192 393.918 181.413C394.654 181.576 395.381 181.765 396.115 181.938C397.241 182.204 399.013 182.917 400.13 182.878C401.109 182.844 400.915 183.148 401.095 182.06C401.192 181.476 401.027 180.855 400.928 180.282C400.723 179.082 400.422 177.947 401.47 177.086C402.469 176.265 404.575 175.874 405.8 175.584C408.52 174.942 411.659 174.785 414.45 174.818Z" fill="black"/>
<path fill-rule="evenodd" clip-rule="evenodd" d="M427.393 154.339C424.439 153.844 421.437 153.722 418.449 153.872L418.935 156.09C421.735 155.369 424.575 154.947 427.393 154.339ZM403.373 160.076C402.189 159.989 403.013 160.519 403.305 161.295C403.665 162.247 403.588 163.451 403.67 164.454C407.136 163.133 411.169 162.359 414.854 161.914C416.602 161.703 418.375 161.643 420.132 161.553C420.651 161.526 422.527 161.744 422.907 161.394C423.19 161.134 422.992 159.7 422.72 159.384C421.246 157.665 415.544 159.149 413.481 159.303C410.099 159.556 406.779 160.16 403.373 160.076ZM408.296 155.469C411.365 155.763 414.328 155.735 417.397 156.195C417.165 154.244 417.443 153.747 415.23 153.643C413.257 153.551 411.292 153.476 409.329 153.477C404.914 153.48 400.511 153.395 396.091 153.395V155.378C400.178 154.959 404.201 155.715 408.296 155.469ZM393.538 162.759C395.475 162.751 397.306 163.482 399.243 163.671C400.402 163.785 400.038 163.928 400.842 164.511C402.095 165.417 402.455 164.934 402.298 163.702C401.766 159.534 396.489 160.469 393.448 160.237C393.648 161.231 393.189 162.074 392.512 162.759H393.538ZM414.473 157.408C411.687 157.453 408.898 157.612 406.132 157.554C404.894 157.528 403.289 157.282 402.076 157.494C401.187 157.648 400.443 158.101 399.468 158.269C400.9 159.041 401.626 158.52 403.132 158.344C404.637 158.169 406.164 158.172 407.674 158.081C410.155 157.931 412.799 157.336 415.244 157.498C415.288 157.154 415.032 157.124 414.473 157.408ZM392.377 166.435C391.099 166.432 392.858 164.978 393.088 164.834C391.673 164.834 391.331 163.986 391.741 162.622C392.127 161.338 392.413 161.731 391.441 160.661C390.709 159.856 390.598 159.263 391.461 158.362C392.339 157.446 394.116 157.705 394.894 156.949C396.218 155.662 394.509 153.099 396.344 152.113C397.584 151.447 399.583 151.53 400.952 151.389C402.275 151.253 403.645 151.227 404.977 151.208C407.881 151.169 410.898 151.656 413.789 151.924C414.843 152.021 416.028 152.447 417.066 152.448C418.125 152.449 419.235 152.213 420.328 152.24C421.599 152.272 422.824 152.179 424.135 152.387C425.139 152.547 427.484 152.631 428.252 153.378C430.81 155.866 424.744 157.009 423.7 157.288C424.762 158.452 424.718 159.99 424.558 161.455C425.064 161.455 425.936 161.235 426.197 161.802C426.522 162.506 425.319 162.69 425.035 162.772C423.398 163.244 421.482 163.115 419.796 163.287C416.424 163.63 413.093 163.828 409.756 164.467C408.129 164.778 406.513 165.163 404.888 165.466C404.607 165.519 404.325 165.56 404.042 165.592C403.607 165.555 403.466 165.828 403.62 166.412C403.168 166.633 401.487 166.084 400.967 166C397.99 165.517 395.326 165.717 392.377 166.435ZM452.493 195.344C450.573 196.855 448.788 198.281 446.708 199.594C448.178 199.548 453.067 197.203 452.493 195.344ZM451.743 192.881C450.695 191.98 449.654 192.072 448.356 191.8C447.162 191.548 446.001 191.115 444.809 190.827C443.874 190.601 442.948 190.296 442.016 190.082C440.699 189.78 440.569 190.112 439.359 190.802C435.066 193.249 430.261 194.932 425.74 196.918C427.067 198.086 430.054 198.137 431.713 198.51C432.925 198.781 434.078 199.153 435.238 199.584C436.319 199.985 438.059 200.907 439.199 200.938C440.161 200.964 440.943 200.018 441.771 199.508C442.86 198.837 443.945 198.178 445.042 197.524C447.366 196.139 449.538 194.443 451.743 192.881ZM432.341 202.791C431.845 202.315 430.354 202.335 429.732 202.19C428.508 201.904 427.302 201.607 426.062 201.392C424.049 201.044 420.869 200.888 420.65 198.276C420.468 196.106 423.091 195.591 424.624 194.856C426.931 193.75 429.284 192.729 431.649 191.754C433.866 190.84 436.116 190.066 438.373 189.276C438.814 189.122 439.171 189.144 439.53 188.791C439.814 188.513 439.727 187.973 440.037 187.683C440.749 187.017 441.672 187.367 442.528 187.538C444.47 187.925 446.486 188.434 448.338 189.152C450.262 189.899 451.983 190.055 452.445 192.236C453.429 191.775 454.169 191.708 454.051 193.064C454.017 193.463 453.727 193.896 453.658 194.307C453.556 194.913 453.735 195.552 453.634 196.159C453.265 198.368 450.286 200.005 448.441 200.872C446.165 201.941 443.229 203.522 440.688 203.73C437.98 203.953 435.029 202.89 432.341 202.791" fill="black"/>
<path fill-rule="evenodd" clip-rule="evenodd" d="M397.876 166.144L395.454 166.159C396.259 166.008 397.067 166.006 397.876 166.144ZM350.649 80.7297L349.923 81.9406C350.005 81.4204 350.19 80.9745 350.649 80.7297ZM399.329 166.156L397.876 166.142C398.352 166.009 398.855 166.014 399.329 166.156ZM418.603 97.4406C418.59 96.9562 418.576 96.4714 418.562 95.9875C418.576 96.4724 418.59 96.9562 418.603 97.4406ZM336.254 170.581L336.224 169.37C336.234 169.775 336.244 170.178 336.254 170.581ZM349.438 150.842C349.762 150.842 350.086 150.843 350.407 150.844C350.082 150.844 349.76 150.843 349.438 150.842ZM373.256 37.1715L372.229 37.041C372.568 37.1195 372.94 36.8286 373.256 37.1715ZM416.04 163.686C416.283 163.681 416.526 163.676 416.766 163.671C416.523 163.677 416.281 163.682 416.04 163.686ZM333.815 104.948C333.817 105.272 333.818 105.595 333.82 105.917L333.815 104.948ZM389.095 175.667C389.086 175.99 389.078 176.314 389.068 176.636C388.936 176.304 388.951 175.982 389.095 175.667ZM422.337 174.272C422.126 174.486 421.856 174.36 421.61 174.373L422.337 174.272ZM393.516 166.524C393.197 166.675 392.873 166.696 392.548 166.534L393.516 166.524ZM336.249 163.558C336.243 163.315 336.236 163.072 336.229 162.831C336.235 163.074 336.242 163.316 336.249 163.558ZM420.884 152.238C420.56 152.406 420.237 152.384 419.915 152.236L420.884 152.238ZM405.626 194.443C405.788 194.439 405.95 194.434 406.11 194.43C405.947 194.435 405.787 194.439 405.626 194.443ZM379.954 198.549C380.116 198.552 380.278 198.555 380.438 198.559C380.275 198.556 380.115 198.552 379.954 198.549ZM319.407 186.679C319.003 186.684 318.598 186.689 318.196 186.694L319.407 186.679ZM352.587 138.501C352.182 138.494 351.778 138.488 351.376 138.482C351.781 138.488 352.184 138.495 352.587 138.501ZM321.344 186.689L320.376 186.684C320.701 186.686 321.022 186.688 321.344 186.689ZM333.81 159.683C333.814 159.359 333.82 159.037 333.825 158.714L333.81 159.683ZM387.946 96.3883L388.915 96.3132C388.592 96.3379 388.269 96.3634 387.946 96.3883ZM360.989 165.495C361.518 166.808 361.221 165.878 361.234 166.181C360.783 166.242 360.701 166.013 360.989 165.495ZM338.782 137.536C338.539 137.527 338.296 137.519 338.055 137.509C338.3 137.518 338.541 137.527 338.782 137.536ZM378.595 133.769L378.649 133.042C378.631 133.285 378.613 133.527 378.595 133.769ZM380.29 173.245L380.344 172.519C380.326 172.761 380.308 173.003 380.29 173.245ZM378.826 132.8C378.851 132.558 378.877 132.315 378.902 132.073L378.826 132.8ZM380.82 165.495C380.734 165.245 380.692 164.998 380.858 164.769L380.82 165.495ZM376.695 160.894L376.674 161.62C376.681 161.377 376.688 161.135 376.695 160.894ZM393.759 96.8061C394.084 96.8255 394.441 96.6695 394.727 96.8981L393.759 96.8061ZM343.626 147.874L344.594 147.878C344.27 148.034 343.947 148.049 343.626 147.874ZM349.68 147.976C350.003 147.95 350.326 147.924 350.649 147.898C350.326 147.924 350.003 147.95 349.68 147.976ZM377.16 190.683C377.166 190.925 377.172 191.168 377.177 191.409C377.172 191.166 377.166 190.925 377.16 190.683ZM382.221 152.659C382.244 152.417 382.266 152.175 382.288 151.933L382.221 152.659ZM393.367 87.9953C393.386 87.7526 393.405 87.5105 393.423 87.2687L393.367 87.9953ZM370.38 67.1672C370.385 67.4094 370.389 67.6523 370.394 67.8938L370.38 67.1672ZM302.696 203.451C303.019 203.284 303.342 203.332 303.665 203.452L302.696 203.451ZM423.548 180.419L424.759 180.327C424.382 180.563 423.951 180.388 423.548 180.419ZM413.86 185.272L414.829 185.195C414.506 185.221 414.183 185.246 413.86 185.272ZM416.766 176.755C416.523 176.757 416.281 176.758 416.04 176.759C416.284 176.757 416.525 176.756 416.766 176.755ZM422.821 190.097L423.79 190.015C423.489 190.227 423.148 190.105 422.821 190.097ZM409.985 167.31C409.823 167.312 409.661 167.312 409.501 167.313L409.985 167.31ZM404.173 167.985C404.091 168.184 403.663 168.159 403.689 167.954L404.173 167.985ZM425.969 170.17C426.212 170.166 426.454 170.162 426.696 170.157C426.457 170.329 426.214 170.305 425.969 170.17ZM416.766 166.582C416.604 166.584 416.442 166.587 416.282 166.589L416.766 166.582ZM413.86 191.097C414.184 190.979 414.507 190.938 414.829 191.1L413.86 191.097ZM413.347 157.713L412.891 157.556C413.456 157.549 414.022 157.542 414.587 157.535C414.588 157.535 413.412 157.718 413.347 157.713ZM409.016 153.508L407.805 153.507C408.211 153.507 408.614 153.508 409.016 153.508ZM393.759 162.765C394.162 162.604 394.565 162.635 394.969 162.761L393.759 162.765ZM413.134 155.647C413.538 155.674 413.941 155.7 414.344 155.726C413.941 155.7 413.537 155.674 413.134 155.647ZM409.016 157.639L408.532 157.609C408.695 157.619 408.856 157.629 409.016 157.639ZM405.868 157.631C405.706 157.626 405.543 157.622 405.384 157.618L405.868 157.631ZM414.587 157.406C414.587 157.468 415.316 157.15 415.313 157.446L414.587 157.406ZM325.946 142.022C326.208 140.951 326.137 140.114 327.071 140.798C327.583 141.173 328.429 143.077 328.365 143.722C328.286 144.518 327.923 144.835 327.174 144.582C326.313 144.29 325.972 142.822 325.946 142.022ZM373.131 135.524C375.3 135.524 374.354 137.832 372.546 137.884C371.715 137.908 370.52 137.744 370.789 136.632C370.933 136.038 373.041 135.238 373.131 135.524ZM349.868 140.066C351.434 140.823 349.231 144.15 347.808 143.326C345.986 142.272 349.224 140.54 349.868 140.066ZM346.058 143.214C346.571 143.773 348.88 145.668 347.607 146.43C346.042 147.368 344.85 144.274 346.058 143.214ZM319.813 141.761C319.304 140.776 320.005 138.198 321.56 138.669C323.125 139.144 320.675 141.499 319.813 141.761ZM354.364 142.329C355.38 141.92 355.186 143.129 355.34 143.519C355.514 143.963 356.408 145.042 356.184 145.514C355.851 146.214 355.055 145.768 354.623 145.314C353.866 144.517 353.92 143.238 354.364 142.329ZM338.889 143.45C338.042 143.45 336.022 141.009 337.209 140.6C338.682 140.092 339.914 143.629 338.889 143.45ZM368.137 139.581C368.912 139.773 369.938 141.967 368.77 142.222C367.477 142.504 367.246 140.188 368.137 139.581ZM363.437 143.698C362.83 142.528 362.68 140.022 364.164 142.033C364.486 142.469 364.817 142.293 364.652 143.011C364.508 143.639 363.932 143.698 363.437 143.698ZM331.416 137.644C332.035 138.576 331.853 141.501 330.558 139.771C330.007 139.036 330.386 137.679 331.416 137.644ZM362.562 49.7534C363.764 49.4429 364.052 52.2773 363.351 52.5897C362.37 53.0271 362.493 50.2274 362.562 49.7534ZM438.601 193.746C437.485 193.681 435.922 193.377 437.612 192.585C438.685 192.083 440.279 192.048 441.411 192.254C442.192 192.396 443.363 193.043 442.172 193.882C441.475 194.372 439.449 193.77 438.601 193.746M437.351 195.769L436.384 195.66C436.642 195.19 437.394 195.092 437.351 195.769Z" fill="black"/>
</g>
<defs>
<clipPath id="clip0_30_29">
<rect width="454.198" height="257" fill="white"/>
</clipPath>
</defs>
</svg>
